{
  "header": {
    "keySignatures": [],
    "meta": [],
    "name": "",
    "ppq": 46,
    "tempos": [
      {
        "bpm": 120,
        "ticks": 0
      }
    ],
    "timeSignatures": []
  },
  "tracks": [
    {
      "channel": 0,
      "controlChanges": {},
      "pitchBends": [],
      "instrument": {
        "family": "piano",
        "number": 0,
        "name": "acoustic grand piano"
      },
      "name": "",
      "notes": [
        {
          "duration": 0.021739130434782608,
          "durationTicks": 2,
          "midi": 56,
          "name": "G#3",
          "ticks": 0,
          "time": 0,
          "velocity": 0.2440944881889764
        },
        {
          "duration": 0.03260869565217391,
          "durationTicks": 3,
          "midi": 61,
          "name": "C#4",
          "ticks": 0,
          "time": 0,
          "velocity": 0.4015748031496063
        },
        {
          "duration": 0.04347826086956522,
          "durationTicks": 4,
          "midi": 60,
          "name": "C4",
          "ticks": 3,
          "time": 0.03260869565217391,
          "velocity": 0.5275590551181102
        },
        {
          "duration": 0.043478260869565216,
          "durationTicks": 4,
          "midi": 65,
          "name": "F4",
          "ticks": 4,
          "time": 0.043478260869565216,
          "velocity": 0.08661417322834646
        },
        {
          "duration": 0.03260869565217392,
          "durationTicks": 3,
          "midi": 60,
          "name": "C4",
          "ticks": 8,
          "time": 0.08695652173913043,
          "velocity": 0.3937007874015748
        },
        {
          "duration": 0.032608695652173905,
          "durationTicks": 3,
          "midi": 56,
          "name": "G#3",
          "ticks": 10,
          "time": 0.10869565217391304,
          "velocity": 0.36220472440944884
        },
        {
          "duration": 0.03260869565217392,
          "durationTicks": 3,
          "midi": 59,
          "name": "B3",
          "ticks": 11,
          "time": 0.11956521739130435,
          "velocity": 0.3700787401574803
        },
        {
          "duration": 0.21739130434782608,
          "durationTicks": 20,
          "midi": 65,
          "name": "F4",
          "ticks": 12,
          "time": 0.13043478260869565,
          "velocity": 0.2677165354330709
        },
        {
          "duration": 0.043478260869565216,
          "durationTicks": 4,
          "midi": 72,
          "name": "C5",
          "ticks": 13,
          "time": 0.14130434782608695,
          "velocity": 0.14173228346456693
        },
        {
          "duration": 0.2934782608695652,
          "durationTicks": 27,
          "midi": 41,
          "name": "F2",
          "ticks": 14,
          "time": 0.15217391304347827,
          "velocity": 0.4881889763779528
        },
        {
          "duration": 0.021739130434782594,
          "durationTicks": 2,
          "midi": 54,
          "name": "F#3",
          "ticks": 14,
          "time": 0.15217391304347827,
          "velocity": 0.5433070866141733
        },
        {
          "duration": 0.11956521739130438,
          "durationTicks": 11,
          "midi": 60,
          "name": "C4",
          "ticks": 17,
          "time": 0.18478260869565216,
          "velocity": 0.11023622047244094
        },
        {
          "duration": 0.15217391304347827,
          "durationTicks": 14,
          "midi": 69,
          "name": "A4",
          "ticks": 41,
          "time": 0.44565217391304346,
          "velocity": 0.25196850393700787
        },
        {
          "duration": 0.02173913043478265,
          "durationTicks": 2,
          "midi": 41,
          "name": "F2",
          "ticks": 42,
          "time": 0.45652173913043476,
          "velocity": 0.33858267716535434
        },
        {
          "duration": 0.02173913043478265,
          "durationTicks": 2,
          "midi": 56,
          "name": "G#3",
          "ticks": 42,
          "time": 0.45652173913043476,
          "velocity": 0.5984251968503937
        },
        {
          "duration": 0.17391304347826092,
          "durationTicks": 16,
          "midi": 65,
          "name": "F4",
          "ticks": 42,
          "time": 0.45652173913043476,
          "velocity": 0.5669291338582677
        },
        {
          "duration": 0.043478260869565244,
          "durationTicks": 4,
          "midi": 72,
          "name": "C5",
          "ticks": 42,
          "time": 0.45652173913043476,
          "velocity": 0.15748031496062992
        },
        {
          "duration": 0.09782608695652167,
          "durationTicks": 9,
          "midi": 84,
          "name": "C6",
          "ticks": 43,
          "time": 0.4673913043478261,
          "velocity": 0.1968503937007874
        },
        {
          "duration": 0.04347826086956519,
          "durationTicks": 4,
          "midi": 57,
          "name": "A3",
          "ticks": 44,
          "time": 0.4782608695652174,
          "velocity": 0.5511811023622047
        },
        {
          "duration": 0.02173913043478265,
          "durationTicks": 2,
          "midi": 41,
          "name": "F2",
          "ticks": 45,
          "time": 0.4891304347826087,
          "velocity": 0.33070866141732286
        },
        {
          "duration": 0.021739130434782594,
          "durationTicks": 2,
          "midi": 41,
          "name": "F2",
          "ticks": 48,
          "time": 0.5217391304347826,
          "velocity": 0.3228346456692913
        },
        {
          "duration": 0.0652173913043479,
          "durationTicks": 6,
          "midi": 60,
          "name": "C4",
          "ticks": 48,
          "time": 0.5217391304347826,
          "velocity": 0.1968503937007874
        },
        {
          "duration": 0.0434782608695653,
          "durationTicks": 4,
          "midi": 56,
          "name": "G#3",
          "ticks": 59,
          "time": 0.6413043478260869,
          "velocity": 0.1889763779527559
        },
        {
          "duration": 0.021739130434782594,
          "durationTicks": 2,
          "midi": 56,
          "name": "G#3",
          "ticks": 70,
          "time": 0.7608695652173914,
          "velocity": 0.23622047244094488
        },
        {
          "duration": 0.19565217391304346,
          "durationTicks": 18,
          "midi": 55,
          "name": "G3",
          "ticks": 73,
          "time": 0.7934782608695652,
          "velocity": 0.4094488188976378
        },
        {
          "duration": 0.2717391304347826,
          "durationTicks": 25,
          "midi": 48,
          "name": "C3",
          "ticks": 75,
          "time": 0.8152173913043478,
          "velocity": 0.48031496062992124
        },
        {
          "duration": 0.21739130434782605,
          "durationTicks": 20,
          "midi": 36,
          "name": "C2",
          "ticks": 76,
          "time": 0.8260869565217391,
          "velocity": 0.3937007874015748
        },
        {
          "duration": 0.021739130434782705,
          "durationTicks": 2,
          "midi": 56,
          "name": "G#3",
          "ticks": 91,
          "time": 0.9891304347826086,
          "velocity": 0.4566929133858268
        },
        {
          "duration": 0.06521739130434767,
          "durationTicks": 6,
          "midi": 55,
          "name": "G3",
          "ticks": 93,
          "time": 1.0108695652173914,
          "velocity": 0.3464566929133858
        },
        {
          "duration": 0.021739130434782705,
          "durationTicks": 2,
          "midi": 37,
          "name": "C#2",
          "ticks": 96,
          "time": 1.0434782608695652,
          "velocity": 0.30708661417322836
        },
        {
          "duration": 0.30434782608695654,
          "durationTicks": 28,
          "midi": 65,
          "name": "F4",
          "ticks": 97,
          "time": 1.0543478260869565,
          "velocity": 0.49606299212598426
        },
        {
          "duration": 0.10869565217391308,
          "durationTicks": 10,
          "midi": 57,
          "name": "A3",
          "ticks": 99,
          "time": 1.076086956521739,
          "velocity": 0.6062992125984252
        },
        {
          "duration": 0.07608695652173925,
          "durationTicks": 7,
          "midi": 72,
          "name": "C5",
          "ticks": 99,
          "time": 1.076086956521739,
          "velocity": 0.2204724409448819
        },
        {
          "duration": 0.1304347826086958,
          "durationTicks": 12,
          "midi": 88,
          "name": "E6",
          "ticks": 99,
          "time": 1.076086956521739,
          "velocity": 0.16535433070866143
        },
        {
          "duration": 0.03260869565217406,
          "durationTicks": 3,
          "midi": 36,
          "name": "C2",
          "ticks": 100,
          "time": 1.0869565217391304,
          "velocity": 0.2204724409448819
        },
        {
          "duration": 0.1304347826086958,
          "durationTicks": 12,
          "midi": 81,
          "name": "A5",
          "ticks": 100,
          "time": 1.0869565217391304,
          "velocity": 0.2125984251968504
        },
        {
          "duration": 0.0869565217391306,
          "durationTicks": 8,
          "midi": 97,
          "name": "C#7",
          "ticks": 100,
          "time": 1.0869565217391304,
          "velocity": 0.13385826771653545
        },
        {
          "duration": 0.05434782608695654,
          "durationTicks": 5,
          "midi": 48,
          "name": "C3",
          "ticks": 101,
          "time": 1.0978260869565217,
          "velocity": 0.3858267716535433
        },
        {
          "duration": 0.021739130434782705,
          "durationTicks": 2,
          "midi": 49,
          "name": "C#3",
          "ticks": 106,
          "time": 1.1521739130434783,
          "velocity": 0.3543307086614173
        },
        {
          "duration": 0.032608695652173836,
          "durationTicks": 3,
          "midi": 37,
          "name": "C#2",
          "ticks": 111,
          "time": 1.2065217391304348,
          "velocity": 0.13385826771653545
        },
        {
          "duration": 0.032608695652173836,
          "durationTicks": 3,
          "midi": 57,
          "name": "A3",
          "ticks": 111,
          "time": 1.2065217391304348,
          "velocity": 0.08661417322834646
        },
        {
          "duration": 0.021739130434782705,
          "durationTicks": 2,
          "midi": 46,
          "name": "A#2",
          "ticks": 119,
          "time": 1.2934782608695652,
          "velocity": 0.4409448818897638
        },
        {
          "duration": 0.032608695652173836,
          "durationTicks": 3,
          "midi": 57,
          "name": "A3",
          "ticks": 120,
          "time": 1.3043478260869565,
          "velocity": 0.33858267716535434
        },
        {
          "duration": 0.021739130434782483,
          "durationTicks": 2,
          "midi": 38,
          "name": "D2",
          "ticks": 125,
          "time": 1.358695652173913,
          "velocity": 0.25984251968503935
        },
        {
          "duration": 0.48913043478260887,
          "durationTicks": 45,
          "midi": 65,
          "name": "F4",
          "ticks": 127,
          "time": 1.3804347826086956,
          "velocity": 0.44881889763779526
        },
        {
          "duration": 0.021739130434782705,
          "durationTicks": 2,
          "midi": 56,
          "name": "G#3",
          "ticks": 129,
          "time": 1.4021739130434783,
          "velocity": 0.5039370078740157
        },
        {
          "duration": 0.23913043478260865,
          "durationTicks": 22,
          "midi": 53,
          "name": "F3",
          "ticks": 133,
          "time": 1.4456521739130435,
          "velocity": 0.3464566929133858
        },
        {
          "duration": 0.22826086956521752,
          "durationTicks": 21,
          "midi": 41,
          "name": "F2",
          "ticks": 136,
          "time": 1.4782608695652173,
          "velocity": 0.44881889763779526
        },
        {
          "duration": 0.021739130434782705,
          "durationTicks": 2,
          "midi": 58,
          "name": "A#3",
          "ticks": 155,
          "time": 1.684782608695652,
          "velocity": 0.5433070866141733
        },
        {
          "duration": 0.10869565217391308,
          "durationTicks": 10,
          "midi": 69,
          "name": "A4",
          "ticks": 156,
          "time": 1.6956521739130435,
          "velocity": 0.2047244094488189
        },
        {
          "duration": 0.16304347826086962,
          "durationTicks": 15,
          "midi": 57,
          "name": "A3",
          "ticks": 157,
          "time": 1.7065217391304348,
          "velocity": 0.6141732283464567
        },
        {
          "duration": 0.11956521739130421,
          "durationTicks": 11,
          "midi": 84,
          "name": "C6",
          "ticks": 157,
          "time": 1.7065217391304348,
          "velocity": 0.13385826771653545
        },
        {
          "duration": 0.11956521739130421,
          "durationTicks": 11,
          "midi": 93,
          "name": "A6",
          "ticks": 157,
          "time": 1.7065217391304348,
          "velocity": 0.1968503937007874
        },
        {
          "duration": 0.021739130434782705,
          "durationTicks": 2,
          "midi": 42,
          "name": "F#2",
          "ticks": 160,
          "time": 1.7391304347826086,
          "velocity": 0.3543307086614173
        },
        {
          "duration": 0.04347826086956519,
          "durationTicks": 4,
          "midi": 56,
          "name": "G#3",
          "ticks": 176,
          "time": 1.9130434782608696,
          "velocity": 0.44881889763779526
        },
        {
          "duration": 0.021739130434782705,
          "durationTicks": 2,
          "midi": 32,
          "name": "G#1",
          "ticks": 179,
          "time": 1.9456521739130435,
          "velocity": 0.33070866141732286
        },
        {
          "duration": 0.03260869565217428,
          "durationTicks": 3,
          "midi": 63,
          "name": "D#4",
          "ticks": 185,
          "time": 2.010869565217391,
          "velocity": 0.2204724409448819
        },
        {
          "duration": 0.03260869565217428,
          "durationTicks": 3,
          "midi": 67,
          "name": "G4",
          "ticks": 185,
          "time": 2.010869565217391,
          "velocity": 0.1732283464566929
        },
        {
          "duration": 0.021739130434782705,
          "durationTicks": 2,
          "midi": 49,
          "name": "C#3",
          "ticks": 186,
          "time": 2.0217391304347827,
          "velocity": 0.4409448818897638
        },
        {
          "duration": 0.021739130434782705,
          "durationTicks": 2,
          "midi": 56,
          "name": "G#3",
          "ticks": 186,
          "time": 2.0217391304347827,
          "velocity": 0.3464566929133858
        },
        {
          "duration": 0.021739130434782705,
          "durationTicks": 2,
          "midi": 37,
          "name": "C#2",
          "ticks": 187,
          "time": 2.032608695652174,
          "velocity": 0.4409448818897638
        },
        {
          "duration": 0.25,
          "durationTicks": 23,
          "midi": 36,
          "name": "C2",
          "ticks": 189,
          "time": 2.0543478260869565,
          "velocity": 0.5039370078740157
        },
        {
          "duration": 0.14130434782608692,
          "durationTicks": 13,
          "midi": 60,
          "name": "C4",
          "ticks": 190,
          "time": 2.0652173913043477,
          "velocity": 0.09448818897637795
        },
        {
          "duration": 0.06521739130434767,
          "durationTicks": 6,
          "midi": 55,
          "name": "G3",
          "ticks": 197,
          "time": 2.141304347826087,
          "velocity": 0.1732283464566929
        },
        {
          "duration": 0.021739130434782705,
          "durationTicks": 2,
          "midi": 55,
          "name": "G3",
          "ticks": 204,
          "time": 2.217391304347826,
          "velocity": 0.28346456692913385
        },
        {
          "duration": 0.032608695652173836,
          "durationTicks": 3,
          "midi": 65,
          "name": "F4",
          "ticks": 204,
          "time": 2.217391304347826,
          "velocity": 0.2047244094488189
        },
        {
          "duration": 0.08695652173913038,
          "durationTicks": 8,
          "midi": 69,
          "name": "A4",
          "ticks": 204,
          "time": 2.217391304347826,
          "velocity": 0.10236220472440945
        },
        {
          "duration": 0.032608695652173836,
          "durationTicks": 3,
          "midi": 84,
          "name": "C6",
          "ticks": 204,
          "time": 2.217391304347826,
          "velocity": 0.10236220472440945
        },
        {
          "duration": 0.043478260869564966,
          "durationTicks": 4,
          "midi": 56,
          "name": "G#3",
          "ticks": 206,
          "time": 2.239130434782609,
          "velocity": 0.36220472440944884
        },
        {
          "duration": 0.021739130434782705,
          "durationTicks": 2,
          "midi": 37,
          "name": "C#2",
          "ticks": 212,
          "time": 2.3043478260869565,
          "velocity": 0.4330708661417323
        },
        {
          "duration": 0.021739130434782705,
          "durationTicks": 2,
          "midi": 56,
          "name": "G#3",
          "ticks": 212,
          "time": 2.3043478260869565,
          "velocity": 0.4015748031496063
        },
        {
          "duration": 0.021739130434782705,
          "durationTicks": 2,
          "midi": 48,
          "name": "C3",
          "ticks": 213,
          "time": 2.3152173913043477,
          "velocity": 0.4015748031496063
        },
        {
          "duration": 0.08695652173913038,
          "durationTicks": 8,
          "midi": 84,
          "name": "C6",
          "ticks": 213,
          "time": 2.3152173913043477,
          "velocity": 0.2992125984251969
        },
        {
          "duration": 0.08695652173913038,
          "durationTicks": 8,
          "midi": 57,
          "name": "A3",
          "ticks": 214,
          "time": 2.3260869565217392,
          "velocity": 0.5511811023622047
        },
        {
          "duration": 0.13043478260869534,
          "durationTicks": 12,
          "midi": 65,
          "name": "F4",
          "ticks": 214,
          "time": 2.3260869565217392,
          "velocity": 0.4330708661417323
        },
        {
          "duration": 0.11956521739130421,
          "durationTicks": 11,
          "midi": 81,
          "name": "A5",
          "ticks": 214,
          "time": 2.3260869565217392,
          "velocity": 0.16535433070866143
        },
        {
          "duration": 0.06521739130434767,
          "durationTicks": 6,
          "midi": 47,
          "name": "B2",
          "ticks": 215,
          "time": 2.3369565217391304,
          "velocity": 0.3937007874015748
        },
        {
          "duration": 0.04347826086956541,
          "durationTicks": 4,
          "midi": 85,
          "name": "C#6",
          "ticks": 215,
          "time": 2.3369565217391304,
          "velocity": 0.13385826771653545
        },
        {
          "duration": 0.04347826086956541,
          "durationTicks": 4,
          "midi": 93,
          "name": "A6",
          "ticks": 215,
          "time": 2.3369565217391304,
          "velocity": 0.1732283464566929
        },
        {
          "duration": 0.021739130434782705,
          "durationTicks": 2,
          "midi": 46,
          "name": "A#2",
          "ticks": 221,
          "time": 2.402173913043478,
          "velocity": 0.2755905511811024
        },
        {
          "duration": 0.043478260869564966,
          "durationTicks": 4,
          "midi": 88,
          "name": "E6",
          "ticks": 222,
          "time": 2.4130434782608696,
          "velocity": 0.12598425196850394
        },
        {
          "duration": 0.032608695652173836,
          "durationTicks": 3,
          "midi": 57,
          "name": "A3",
          "ticks": 223,
          "time": 2.4239130434782608,
          "velocity": 0.13385826771653545
        },
        {
          "duration": 0.032608695652173836,
          "durationTicks": 3,
          "midi": 46,
          "name": "A#2",
          "ticks": 225,
          "time": 2.4456521739130435,
          "velocity": 0.1732283464566929
        },
        {
          "duration": 0.06521739130434812,
          "durationTicks": 6,
          "midi": 65,
          "name": "F4",
          "ticks": 228,
          "time": 2.4782608695652173,
          "velocity": 0.2125984251968504
        },
        {
          "duration": 0.08695652173913038,
          "durationTicks": 8,
          "midi": 46,
          "name": "A#2",
          "ticks": 232,
          "time": 2.5217391304347827,
          "velocity": 0.3700787401574803
        },
        {
          "duration": 0.032608695652173836,
          "durationTicks": 3,
          "midi": 33,
          "name": "A1",
          "ticks": 233,
          "time": 2.532608695652174,
          "velocity": 0.14960629921259844
        },
        {
          "duration": 0.021739130434782705,
          "durationTicks": 2,
          "midi": 57,
          "name": "A3",
          "ticks": 233,
          "time": 2.532608695652174,
          "velocity": 0.33858267716535434
        },
        {
          "duration": 0.021739130434782705,
          "durationTicks": 2,
          "midi": 56,
          "name": "G#3",
          "ticks": 235,
          "time": 2.5543478260869565,
          "velocity": 0.3228346456692913
        },
        {
          "duration": 0.021739130434782705,
          "durationTicks": 2,
          "midi": 43,
          "name": "G2",
          "ticks": 241,
          "time": 2.619565217391304,
          "velocity": 0.4094488188976378
        },
        {
          "duration": 0.07608695652173925,
          "durationTicks": 7,
          "midi": 58,
          "name": "A#3",
          "ticks": 241,
          "time": 2.619565217391304,
          "velocity": 0.36220472440944884
        },
        {
          "duration": 0.08695652173913038,
          "durationTicks": 8,
          "midi": 65,
          "name": "F4",
          "ticks": 242,
          "time": 2.630434782608696,
          "velocity": 0.2204724409448819
        },
        {
          "duration": 0.2826086956521743,
          "durationTicks": 26,
          "midi": 46,
          "name": "A#2",
          "ticks": 244,
          "time": 2.652173913043478,
          "velocity": 0.5275590551181102
        },
        {
          "duration": 0.021739130434782705,
          "durationTicks": 2,
          "midi": 33,
          "name": "A1",
          "ticks": 249,
          "time": 2.7065217391304346,
          "velocity": 0.3858267716535433
        },
        {
          "duration": 0.032608695652173836,
          "durationTicks": 3,
          "midi": 34,
          "name": "A#1",
          "ticks": 251,
          "time": 2.7282608695652173,
          "velocity": 0.3700787401574803
        },
        {
          "duration": 0.021739130434782705,
          "durationTicks": 2,
          "midi": 34,
          "name": "A#1",
          "ticks": 258,
          "time": 2.8043478260869565,
          "velocity": 0.3543307086614173
        },
        {
          "duration": 0.14130434782608692,
          "durationTicks": 13,
          "midi": 34,
          "name": "A#1",
          "ticks": 261,
          "time": 2.8369565217391304,
          "velocity": 0.44881889763779526
        },
        {
          "duration": 0.0760869565217388,
          "durationTicks": 7,
          "midi": 62,
          "name": "D4",
          "ticks": 270,
          "time": 2.9347826086956523,
          "velocity": 0.4015748031496063
        },
        {
          "duration": 0.07608695652173925,
          "durationTicks": 7,
          "midi": 57,
          "name": "A3",
          "ticks": 271,
          "time": 2.9456521739130435,
          "velocity": 0.6141732283464567
        },
        {
          "duration": 0.11956521739130421,
          "durationTicks": 11,
          "midi": 82,
          "name": "A#5",
          "ticks": 271,
          "time": 2.9456521739130435,
          "velocity": 0.2755905511811024
        },
        {
          "duration": 0.04347826086956541,
          "durationTicks": 4,
          "midi": 84,
          "name": "C6",
          "ticks": 271,
          "time": 2.9456521739130435,
          "velocity": 0.13385826771653545
        },
        {
          "duration": 0.08695652173913082,
          "durationTicks": 8,
          "midi": 77,
          "name": "F5",
          "ticks": 272,
          "time": 2.9565217391304346,
          "velocity": 0.18110236220472442
        },
        {
          "duration": 0.1304347826086958,
          "durationTicks": 12,
          "midi": 70,
          "name": "A#4",
          "ticks": 273,
          "time": 2.967391304347826,
          "velocity": 0.33070866141732286
        },
        {
          "duration": 0.032608695652173836,
          "durationTicks": 3,
          "midi": 65,
          "name": "F4",
          "ticks": 275,
          "time": 2.989130434782609,
          "velocity": 0.28346456692913385
        },
        {
          "duration": 0.043478260869564966,
          "durationTicks": 4,
          "midi": 58,
          "name": "A#3",
          "ticks": 278,
          "time": 3.0217391304347827,
          "velocity": 0.4094488188976378
        },
        {
          "duration": 0.021739130434782705,
          "durationTicks": 2,
          "midi": 62,
          "name": "D4",
          "ticks": 278,
          "time": 3.0217391304347827,
          "velocity": 0.28346456692913385
        },
        {
          "duration": 0.04347826086956541,
          "durationTicks": 4,
          "midi": 65,
          "name": "F4",
          "ticks": 279,
          "time": 3.032608695652174,
          "velocity": 0.25196850393700787
        },
        {
          "duration": 0.04347826086956541,
          "durationTicks": 4,
          "midi": 62,
          "name": "D4",
          "ticks": 281,
          "time": 3.0543478260869565,
          "velocity": 0.11023622047244094
        },
        {
          "duration": 0.05434782608695654,
          "durationTicks": 5,
          "midi": 56,
          "name": "G#3",
          "ticks": 284,
          "time": 3.0869565217391304,
          "velocity": 0.2204724409448819
        },
        {
          "duration": 0.09782608695652151,
          "durationTicks": 9,
          "midi": 46,
          "name": "A#2",
          "ticks": 291,
          "time": 3.1630434782608696,
          "velocity": 0.3779527559055118
        },
        {
          "duration": 0.03260869565217428,
          "durationTicks": 3,
          "midi": 42,
          "name": "F#2",
          "ticks": 300,
          "time": 3.260869565217391,
          "velocity": 0.49606299212598426
        },
        {
          "duration": 0.2065217391304346,
          "durationTicks": 19,
          "midi": 53,
          "name": "F3",
          "ticks": 301,
          "time": 3.2717391304347827,
          "velocity": 0.4645669291338583
        },
        {
          "duration": 0.021739130434782705,
          "durationTicks": 2,
          "midi": 59,
          "name": "B3",
          "ticks": 301,
          "time": 3.2717391304347827,
          "velocity": 0.29133858267716534
        },
        {
          "duration": 0.07608695652173925,
          "durationTicks": 7,
          "midi": 70,
          "name": "A#4",
          "ticks": 301,
          "time": 3.2717391304347827,
          "velocity": 0.1732283464566929
        },
        {
          "duration": 0.0760869565217388,
          "durationTicks": 7,
          "midi": 60,
          "name": "C4",
          "ticks": 303,
          "time": 3.2934782608695654,
          "velocity": 0.25196850393700787
        },
        {
          "duration": 0.22826086956521774,
          "durationTicks": 21,
          "midi": 41,
          "name": "F2",
          "ticks": 305,
          "time": 3.3152173913043477,
          "velocity": 0.4881889763779528
        },
        {
          "duration": 0.03260869565217428,
          "durationTicks": 3,
          "midi": 58,
          "name": "A#3",
          "ticks": 318,
          "time": 3.4565217391304346,
          "velocity": 0.4881889763779528
        },
        {
          "duration": 0.02173913043478226,
          "durationTicks": 2,
          "midi": 57,
          "name": "A3",
          "ticks": 321,
          "time": 3.489130434782609,
          "velocity": 0.41732283464566927
        },
        {
          "duration": 0.021739130434782705,
          "durationTicks": 2,
          "midi": 41,
          "name": "F2",
          "ticks": 327,
          "time": 3.5543478260869565,
          "velocity": 0.49606299212598426
        },
        {
          "duration": 0.021739130434782705,
          "durationTicks": 2,
          "midi": 52,
          "name": "E3",
          "ticks": 328,
          "time": 3.5652173913043477,
          "velocity": 0.4094488188976378
        },
        {
          "duration": 0.1739130434782612,
          "durationTicks": 16,
          "midi": 70,
          "name": "A#4",
          "ticks": 328,
          "time": 3.5652173913043477,
          "velocity": 0.3700787401574803
        },
        {
          "duration": 0.01086956521739113,
          "durationTicks": 1,
          "midi": 42,
          "name": "F#2",
          "ticks": 329,
          "time": 3.5760869565217392,
          "velocity": 0.5196850393700787
        },
        {
          "duration": 0.09782608695652151,
          "durationTicks": 9,
          "midi": 74,
          "name": "D5",
          "ticks": 329,
          "time": 3.5760869565217392,
          "velocity": 0.13385826771653545
        },
        {
          "duration": 0.08695652173913038,
          "durationTicks": 8,
          "midi": 94,
          "name": "A#6",
          "ticks": 329,
          "time": 3.5760869565217392,
          "velocity": 0.23622047244094488
        },
        {
          "duration": 0.021739130434782705,
          "durationTicks": 2,
          "midi": 58,
          "name": "A#3",
          "ticks": 330,
          "time": 3.5869565217391304,
          "velocity": 0.48031496062992124
        },
        {
          "duration": 0.11956521739130421,
          "durationTicks": 11,
          "midi": 62,
          "name": "D4",
          "ticks": 330,
          "time": 3.5869565217391304,
          "velocity": 0.36220472440944884
        },
        {
          "duration": 0.032608695652173836,
          "durationTicks": 3,
          "midi": 42,
          "name": "F#2",
          "ticks": 332,
          "time": 3.608695652173913,
          "velocity": 0.3779527559055118
        },
        {
          "duration": 0.021739130434782705,
          "durationTicks": 2,
          "midi": 53,
          "name": "F3",
          "ticks": 333,
          "time": 3.619565217391304,
          "velocity": 0.28346456692913385
        },
        {
          "duration": 0.0760869565217388,
          "durationTicks": 7,
          "midi": 58,
          "name": "A#3",
          "ticks": 334,
          "time": 3.630434782608696,
          "velocity": 0.3700787401574803
        },
        {
          "duration": 0.06521739130434812,
          "durationTicks": 6,
          "midi": 65,
          "name": "F4",
          "ticks": 336,
          "time": 3.652173913043478,
          "velocity": 0.1968503937007874
        },
        {
          "duration": 0.04347826086956541,
          "durationTicks": 4,
          "midi": 57,
          "name": "A3",
          "ticks": 341,
          "time": 3.7065217391304346,
          "velocity": 0.2755905511811024
        },
        {
          "duration": 0.032608695652173836,
          "durationTicks": 3,
          "midi": 58,
          "name": "A#3",
          "ticks": 345,
          "time": 3.75,
          "velocity": 0.33070866141732286
        },
        {
          "duration": 0.032608695652173836,
          "durationTicks": 3,
          "midi": 57,
          "name": "A3",
          "ticks": 348,
          "time": 3.782608695652174,
          "velocity": 0.3700787401574803
        },
        {
          "duration": 0.043478260869564966,
          "durationTicks": 4,
          "midi": 57,
          "name": "A3",
          "ticks": 352,
          "time": 3.8260869565217392,
          "velocity": 0.30708661417322836
        },
        {
          "duration": 0.04347826086956541,
          "durationTicks": 4,
          "midi": 46,
          "name": "A#2",
          "ticks": 353,
          "time": 3.8369565217391304,
          "velocity": 0.25196850393700787
        },
        {
          "duration": 0.02173913043478226,
          "durationTicks": 2,
          "midi": 56,
          "name": "G#3",
          "ticks": 357,
          "time": 3.880434782608696,
          "velocity": 0.31496062992125984
        },
        {
          "duration": 0.05434782608695654,
          "durationTicks": 5,
          "midi": 48,
          "name": "C3",
          "ticks": 358,
          "time": 3.891304347826087,
          "velocity": 0.4015748031496063
        },
        {
          "duration": 0.021739130434782705,
          "durationTicks": 2,
          "midi": 37,
          "name": "C#2",
          "ticks": 360,
          "time": 3.9130434782608696,
          "velocity": 0.4330708661417323
        },
        {
          "duration": 0.21739130434782616,
          "durationTicks": 20,
          "midi": 55,
          "name": "G3",
          "ticks": 361,
          "time": 3.9239130434782608,
          "velocity": 0.4015748031496063
        },
        {
          "duration": 0.21739130434782616,
          "durationTicks": 20,
          "midi": 48,
          "name": "C3",
          "ticks": 364,
          "time": 3.9565217391304346,
          "velocity": 0.4330708661417323
        },
        {
          "duration": 0.16304347826086918,
          "durationTicks": 15,
          "midi": 36,
          "name": "C2",
          "ticks": 365,
          "time": 3.967391304347826,
          "velocity": 0.4409448818897638
        },
        {
          "duration": 0.032608695652173836,
          "durationTicks": 3,
          "midi": 36,
          "name": "C2",
          "ticks": 381,
          "time": 4.141304347826087,
          "velocity": 0.4330708661417323
        },
        {
          "duration": 0.16304347826087007,
          "durationTicks": 15,
          "midi": 67,
          "name": "G4",
          "ticks": 383,
          "time": 4.163043478260869,
          "velocity": 0.5039370078740157
        },
        {
          "duration": 0.054347826086956985,
          "durationTicks": 5,
          "midi": 72,
          "name": "C5",
          "ticks": 383,
          "time": 4.163043478260869,
          "velocity": 0.2440944881889764
        },
        {
          "duration": 0.06521739130434767,
          "durationTicks": 6,
          "midi": 86,
          "name": "D6",
          "ticks": 384,
          "time": 4.173913043478261,
          "velocity": 0.25196850393700787
        },
        {
          "duration": 0.06521739130434767,
          "durationTicks": 6,
          "midi": 91,
          "name": "G6",
          "ticks": 384,
          "time": 4.173913043478261,
          "velocity": 0.2283464566929134
        },
        {
          "duration": 0.0543478260869561,
          "durationTicks": 5,
          "midi": 55,
          "name": "G3",
          "ticks": 385,
          "time": 4.184782608695652,
          "velocity": 0.5354330708661418
        },
        {
          "duration": 0.02173913043478226,
          "durationTicks": 2,
          "midi": 61,
          "name": "C#4",
          "ticks": 385,
          "time": 4.184782608695652,
          "velocity": 0.41732283464566927
        },
        {
          "duration": 0.032608695652173836,
          "durationTicks": 3,
          "midi": 76,
          "name": "E5",
          "ticks": 385,
          "time": 4.184782608695652,
          "velocity": 0.12598425196850394
        },
        {
          "duration": 0.04347826086956452,
          "durationTicks": 4,
          "midi": 95,
          "name": "B6",
          "ticks": 386,
          "time": 4.195652173913044,
          "velocity": 0.14960629921259844
        },
        {
          "duration": 0.02173913043478315,
          "durationTicks": 2,
          "midi": 46,
          "name": "A#2",
          "ticks": 387,
          "time": 4.206521739130435,
          "velocity": 0.4645669291338583
        },
        {
          "duration": 0.07608695652173925,
          "durationTicks": 7,
          "midi": 60,
          "name": "C4",
          "ticks": 387,
          "time": 4.206521739130435,
          "velocity": 0.44881889763779526
        },
        {
          "duration": 0.032608695652173836,
          "durationTicks": 3,
          "midi": 47,
          "name": "B2",
          "ticks": 389,
          "time": 4.228260869565218,
          "velocity": 0.4251968503937008
        },
        {
          "duration": 0.02173913043478315,
          "durationTicks": 2,
          "midi": 54,
          "name": "F#3",
          "ticks": 390,
          "time": 4.239130434782608,
          "velocity": 0.31496062992125984
        },
        {
          "duration": 0.032608695652173836,
          "durationTicks": 3,
          "midi": 36,
          "name": "C2",
          "ticks": 391,
          "time": 4.25,
          "velocity": 0.2677165354330709
        },
        {
          "duration": 0.06521739130434767,
          "durationTicks": 6,
          "midi": 86,
          "name": "D6",
          "ticks": 391,
          "time": 4.25,
          "velocity": 0.16535433070866143
        },
        {
          "duration": 0.032608695652173836,
          "durationTicks": 3,
          "midi": 48,
          "name": "C3",
          "ticks": 392,
          "time": 4.260869565217392,
          "velocity": 0.31496062992125984
        },
        {
          "duration": 0.07608695652173925,
          "durationTicks": 7,
          "midi": 64,
          "name": "E4",
          "ticks": 392,
          "time": 4.260869565217392,
          "velocity": 0.16535433070866143
        },
        {
          "duration": 0.054347826086956985,
          "durationTicks": 5,
          "midi": 48,
          "name": "C3",
          "ticks": 396,
          "time": 4.304347826086956,
          "velocity": 0.2283464566929134
        },
        {
          "duration": 0.02173913043478226,
          "durationTicks": 2,
          "midi": 46,
          "name": "A#2",
          "ticks": 405,
          "time": 4.4021739130434785,
          "velocity": 0.47244094488188976
        },
        {
          "duration": 0.032608695652173836,
          "durationTicks": 3,
          "midi": 47,
          "name": "B2",
          "ticks": 407,
          "time": 4.423913043478261,
          "velocity": 0.4645669291338583
        },
        {
          "duration": 0.032608695652173836,
          "durationTicks": 3,
          "midi": 35,
          "name": "B1",
          "ticks": 410,
          "time": 4.456521739130435,
          "velocity": 0.18110236220472442
        },
        {
          "duration": 0.032608695652173836,
          "durationTicks": 3,
          "midi": 48,
          "name": "C3",
          "ticks": 410,
          "time": 4.456521739130435,
          "velocity": 0.25196850393700787
        },
        {
          "duration": 0.08695652173913082,
          "durationTicks": 8,
          "midi": 67,
          "name": "G4",
          "ticks": 413,
          "time": 4.489130434782608,
          "velocity": 0.2204724409448819
        },
        {
          "duration": 0.02173913043478226,
          "durationTicks": 2,
          "midi": 41,
          "name": "F2",
          "ticks": 414,
          "time": 4.5,
          "velocity": 0.4251968503937008
        },
        {
          "duration": 0.02173913043478226,
          "durationTicks": 2,
          "midi": 58,
          "name": "A#3",
          "ticks": 414,
          "time": 4.5,
          "velocity": 0.3779527559055118
        },
        {
          "duration": 0.02173913043478315,
          "durationTicks": 2,
          "midi": 45,
          "name": "A2",
          "ticks": 416,
          "time": 4.521739130434782,
          "velocity": 0.5590551181102362
        },
        {
          "duration": 0.02173913043478226,
          "durationTicks": 2,
          "midi": 54,
          "name": "F#3",
          "ticks": 417,
          "time": 4.532608695652174,
          "velocity": 0.28346456692913385
        },
        {
          "duration": 0.010869565217390686,
          "durationTicks": 1,
          "midi": 44,
          "name": "G#2",
          "ticks": 418,
          "time": 4.543478260869565,
          "velocity": 0.5433070866141733
        },
        {
          "duration": 0.25,
          "durationTicks": 23,
          "midi": 43,
          "name": "G2",
          "ticks": 419,
          "time": 4.554347826086956,
          "velocity": 0.5196850393700787
        },
        {
          "duration": 0.02173913043478226,
          "durationTicks": 2,
          "midi": 56,
          "name": "G#3",
          "ticks": 432,
          "time": 4.695652173913044,
          "velocity": 0.4330708661417323
        },
        {
          "duration": 0.02173913043478226,
          "durationTicks": 2,
          "midi": 60,
          "name": "C4",
          "ticks": 435,
          "time": 4.728260869565218,
          "velocity": 0.23622047244094488
        },
        {
          "duration": 0.032608695652173836,
          "durationTicks": 3,
          "midi": 60,
          "name": "C4",
          "ticks": 438,
          "time": 4.760869565217392,
          "velocity": 0.2755905511811024
        },
        {
          "duration": 0.02173913043478226,
          "durationTicks": 2,
          "midi": 66,
          "name": "F#4",
          "ticks": 441,
          "time": 4.793478260869565,
          "velocity": 0.3543307086614173
        },
        {
          "duration": 0.032608695652173836,
          "durationTicks": 3,
          "midi": 75,
          "name": "D#5",
          "ticks": 441,
          "time": 4.793478260869565,
          "velocity": 0.11811023622047244
        },
        {
          "duration": 0.11956521739130377,
          "durationTicks": 11,
          "midi": 86,
          "name": "D6",
          "ticks": 441,
          "time": 4.793478260869565,
          "velocity": 0.28346456692913385
        },
        {
          "duration": 0.010869565217391575,
          "durationTicks": 1,
          "midi": 45,
          "name": "A2",
          "ticks": 442,
          "time": 4.804347826086956,
          "velocity": 0.5275590551181102
        },
        {
          "duration": 0.08695652173913082,
          "durationTicks": 8,
          "midi": 79,
          "name": "G5",
          "ticks": 442,
          "time": 4.804347826086956,
          "velocity": 0.30708661417322836
        },
        {
          "duration": 0.0978260869565224,
          "durationTicks": 9,
          "midi": 101,
          "name": "F7",
          "ticks": 442,
          "time": 4.804347826086956,
          "velocity": 0.14960629921259844
        },
        {
          "duration": 0.02173913043478315,
          "durationTicks": 2,
          "midi": 43,
          "name": "G2",
          "ticks": 443,
          "time": 4.815217391304348,
          "velocity": 0.49606299212598426
        },
        {
          "duration": 0.10869565217391308,
          "durationTicks": 10,
          "midi": 67,
          "name": "G4",
          "ticks": 443,
          "time": 4.815217391304348,
          "velocity": 0.5039370078740157
        },
        {
          "duration": 0.04347826086956541,
          "durationTicks": 4,
          "midi": 95,
          "name": "B6",
          "ticks": 443,
          "time": 4.815217391304348,
          "velocity": 0.13385826771653545
        },
        {
          "duration": 0.02173913043478226,
          "durationTicks": 2,
          "midi": 60,
          "name": "C4",
          "ticks": 444,
          "time": 4.826086956521739,
          "velocity": 0.3779527559055118
        },
        {
          "duration": 0.02173913043478315,
          "durationTicks": 2,
          "midi": 55,
          "name": "G3",
          "ticks": 446,
          "time": 4.8478260869565215,
          "velocity": 0.41732283464566927
        },
        {
          "duration": 0.11956521739130466,
          "durationTicks": 11,
          "midi": 55,
          "name": "G3",
          "ticks": 449,
          "time": 4.880434782608695,
          "velocity": 0.2677165354330709
        },
        {
          "duration": 0.02173913043478226,
          "durationTicks": 2,
          "midi": 46,
          "name": "A#2",
          "ticks": 450,
          "time": 4.891304347826087,
          "velocity": 0.3464566929133858
        },
        {
          "duration": 0.02173913043478315,
          "durationTicks": 2,
          "midi": 59,
          "name": "B3",
          "ticks": 452,
          "time": 4.913043478260869,
          "velocity": 0.2755905511811024
        },
        {
          "duration": 0.04347826086956541,
          "durationTicks": 4,
          "midi": 47,
          "name": "B2",
          "ticks": 453,
          "time": 4.923913043478261,
          "velocity": 0.3464566929133858
        },
        {
          "duration": 0.02173913043478226,
          "durationTicks": 2,
          "midi": 58,
          "name": "A#3",
          "ticks": 461,
          "time": 5.010869565217392,
          "velocity": 0.3543307086614173
        },
        {
          "duration": 0.02173913043478226,
          "durationTicks": 2,
          "midi": 57,
          "name": "A3",
          "ticks": 463,
          "time": 5.032608695652174,
          "velocity": 0.33858267716535434
        },
        {
          "duration": 0.010869565217390686,
          "durationTicks": 1,
          "midi": 40,
          "name": "E2",
          "ticks": 464,
          "time": 5.043478260869565,
          "velocity": 0.5118110236220472
        },
        {
          "duration": 0.02173913043478315,
          "durationTicks": 2,
          "midi": 50,
          "name": "D3",
          "ticks": 465,
          "time": 5.054347826086956,
          "velocity": 0.28346456692913385
        },
        {
          "duration": 0.02173913043478315,
          "durationTicks": 2,
          "midi": 39,
          "name": "D#2",
          "ticks": 466,
          "time": 5.065217391304348,
          "velocity": 0.4330708661417323
        },
        {
          "duration": 0.5326086956521738,
          "durationTicks": 49,
          "midi": 65,
          "name": "F4",
          "ticks": 472,
          "time": 5.130434782608695,
          "velocity": 0.3937007874015748
        },
        {
          "duration": 0.27173913043478226,
          "durationTicks": 25,
          "midi": 53,
          "name": "F3",
          "ticks": 473,
          "time": 5.141304347826087,
          "velocity": 0.5118110236220472
        },
        {
          "duration": 0.032608695652173836,
          "durationTicks": 3,
          "midi": 60,
          "name": "C4",
          "ticks": 473,
          "time": 5.141304347826087,
          "velocity": 0.2440944881889764
        },
        {
          "duration": 0.23913043478260843,
          "durationTicks": 22,
          "midi": 41,
          "name": "F2",
          "ticks": 476,
          "time": 5.173913043478261,
          "velocity": 0.5039370078740157
        },
        {
          "duration": 0.02173913043478315,
          "durationTicks": 2,
          "midi": 58,
          "name": "A#3",
          "ticks": 499,
          "time": 5.423913043478261,
          "velocity": 0.5196850393700787
        },
        {
          "duration": 0.02173913043478226,
          "durationTicks": 2,
          "midi": 40,
          "name": "E2",
          "ticks": 500,
          "time": 5.434782608695652,
          "velocity": 0.4094488188976378
        },
        {
          "duration": 0.09782608695652151,
          "durationTicks": 9,
          "midi": 84,
          "name": "C6",
          "ticks": 500,
          "time": 5.434782608695652,
          "velocity": 0.25984251968503935
        },
        {
          "duration": 0.18478260869565144,
          "durationTicks": 17,
          "midi": 57,
          "name": "A3",
          "ticks": 501,
          "time": 5.445652173913044,
          "velocity": 0.5590551181102362
        },
        {
          "duration": 0.0543478260869561,
          "durationTicks": 5,
          "midi": 72,
          "name": "C5",
          "ticks": 501,
          "time": 5.445652173913044,
          "velocity": 0.11023622047244094
        },
        {
          "duration": 0.032608695652173836,
          "durationTicks": 3,
          "midi": 52,
          "name": "E3",
          "ticks": 517,
          "time": 5.619565217391305,
          "velocity": 0.3858267716535433
        },
        {
          "duration": 0.02173913043478226,
          "durationTicks": 2,
          "midi": 39,
          "name": "D#2",
          "ticks": 519,
          "time": 5.641304347826087,
          "velocity": 0.2992125984251969
        },
        {
          "duration": 0.04347826086956541,
          "durationTicks": 4,
          "midi": 52,
          "name": "E3",
          "ticks": 521,
          "time": 5.663043478260869,
          "velocity": 0.2755905511811024
        },
        {
          "duration": 0.02173913043478226,
          "durationTicks": 2,
          "midi": 54,
          "name": "F#3",
          "ticks": 529,
          "time": 5.75,
          "velocity": 0.3858267716535433
        },
        {
          "duration": 0.36956521739130466,
          "durationTicks": 34,
          "midi": 48,
          "name": "C3",
          "ticks": 531,
          "time": 5.771739130434782,
          "velocity": 0.47244094488188976
        },
        {
          "duration": 0.31521739130434767,
          "durationTicks": 29,
          "midi": 36,
          "name": "C2",
          "ticks": 532,
          "time": 5.782608695652174,
          "velocity": 0.4645669291338583
        },
        {
          "duration": 0.02173913043478315,
          "durationTicks": 2,
          "midi": 56,
          "name": "G#3",
          "ticks": 548,
          "time": 5.956521739130435,
          "velocity": 0.36220472440944884
        },
        {
          "duration": 0.06521739130434767,
          "durationTicks": 6,
          "midi": 67,
          "name": "G4",
          "ticks": 548,
          "time": 5.956521739130435,
          "velocity": 0.13385826771653545
        },
        {
          "duration": 0.02173913043478226,
          "durationTicks": 2,
          "midi": 56,
          "name": "G#3",
          "ticks": 552,
          "time": 6,
          "velocity": 0.2677165354330709
        },
        {
          "duration": 0.04347826086956541,
          "durationTicks": 4,
          "midi": 84,
          "name": "C6",
          "ticks": 557,
          "time": 6.054347826086956,
          "velocity": 0.2204724409448819
        },
        {
          "duration": 0.02173913043478315,
          "durationTicks": 2,
          "midi": 56,
          "name": "G#3",
          "ticks": 558,
          "time": 6.065217391304348,
          "velocity": 0.5196850393700787
        },
        {
          "duration": 0.07608695652173925,
          "durationTicks": 7,
          "midi": 81,
          "name": "A5",
          "ticks": 558,
          "time": 6.065217391304348,
          "velocity": 0.11023622047244094
        },
        {
          "duration": 0.16304347826086918,
          "durationTicks": 15,
          "midi": 65,
          "name": "F4",
          "ticks": 559,
          "time": 6.076086956521739,
          "velocity": 0.5118110236220472
        },
        {
          "duration": 0.11956521739130466,
          "durationTicks": 11,
          "midi": 69,
          "name": "A4",
          "ticks": 559,
          "time": 6.076086956521739,
          "velocity": 0.29133858267716534
        },
        {
          "duration": 0.10869565217391308,
          "durationTicks": 10,
          "midi": 57,
          "name": "A3",
          "ticks": 560,
          "time": 6.086956521739131,
          "velocity": 0.48031496062992124
        },
        {
          "duration": 0.032608695652173836,
          "durationTicks": 3,
          "midi": 79,
          "name": "G5",
          "ticks": 561,
          "time": 6.0978260869565215,
          "velocity": 0.10236220472440945
        },
        {
          "duration": 0.02173913043478226,
          "durationTicks": 2,
          "midi": 47,
          "name": "B2",
          "ticks": 565,
          "time": 6.141304347826087,
          "velocity": 0.3228346456692913
        },
        {
          "duration": 0.02173913043478315,
          "durationTicks": 2,
          "midi": 55,
          "name": "G3",
          "ticks": 574,
          "time": 6.239130434782608,
          "velocity": 0.2992125984251969
        },
        {
          "duration": 0.02173913043478226,
          "durationTicks": 2,
          "midi": 52,
          "name": "E3",
          "ticks": 576,
          "time": 6.260869565217392,
          "velocity": 0.3543307086614173
        },
        {
          "duration": 0.032608695652173836,
          "durationTicks": 3,
          "midi": 45,
          "name": "A2",
          "ticks": 578,
          "time": 6.282608695652174,
          "velocity": 0.30708661417322836
        },
        {
          "duration": 0.032608695652173836,
          "durationTicks": 3,
          "midi": 52,
          "name": "E3",
          "ticks": 581,
          "time": 6.315217391304348,
          "velocity": 0.18110236220472442
        },
        {
          "duration": 0.032608695652173836,
          "durationTicks": 3,
          "midi": 45,
          "name": "A2",
          "ticks": 582,
          "time": 6.326086956521739,
          "velocity": 0.1968503937007874
        },
        {
          "duration": 0.032608695652173836,
          "durationTicks": 3,
          "midi": 54,
          "name": "F#3",
          "ticks": 587,
          "time": 6.380434782608695,
          "velocity": 0.44881889763779526
        },
        {
          "duration": 0.28260869565217384,
          "durationTicks": 26,
          "midi": 65,
          "name": "F4",
          "ticks": 587,
          "time": 6.380434782608695,
          "velocity": 0.28346456692913385
        },
        {
          "duration": 0.032608695652173836,
          "durationTicks": 3,
          "midi": 41,
          "name": "F2",
          "ticks": 588,
          "time": 6.391304347826087,
          "velocity": 0.5196850393700787
        },
        {
          "duration": 0.2608695652173916,
          "durationTicks": 24,
          "midi": 41,
          "name": "F2",
          "ticks": 592,
          "time": 6.434782608695652,
          "velocity": 0.49606299212598426
        },
        {
          "duration": 0.1956521739130439,
          "durationTicks": 18,
          "midi": 69,
          "name": "A4",
          "ticks": 613,
          "time": 6.663043478260869,
          "velocity": 0.29133858267716534
        },
        {
          "duration": 0.06521739130434856,
          "durationTicks": 6,
          "midi": 72,
          "name": "C5",
          "ticks": 613,
          "time": 6.663043478260869,
          "velocity": 0.18110236220472442
        },
        {
          "duration": 0.11956521739130466,
          "durationTicks": 11,
          "midi": 77,
          "name": "F5",
          "ticks": 613,
          "time": 6.663043478260869,
          "velocity": 0.2677165354330709
        },
        {
          "duration": 0.11956521739130466,
          "durationTicks": 11,
          "midi": 96,
          "name": "C7",
          "ticks": 613,
          "time": 6.663043478260869,
          "velocity": 0.13385826771653545
        },
        {
          "duration": 0.09782608695652151,
          "durationTicks": 9,
          "midi": 57,
          "name": "A3",
          "ticks": 614,
          "time": 6.673913043478261,
          "velocity": 0.49606299212598426
        },
        {
          "duration": 0.02173913043478226,
          "durationTicks": 2,
          "midi": 40,
          "name": "E2",
          "ticks": 616,
          "time": 6.695652173913044,
          "velocity": 0.4566929133858268
        },
        {
          "duration": 0.22826086956521685,
          "durationTicks": 21,
          "midi": 65,
          "name": "F4",
          "ticks": 616,
          "time": 6.695652173913044,
          "velocity": 0.5275590551181102
        },
        {
          "duration": 0.11956521739130377,
          "durationTicks": 11,
          "midi": 84,
          "name": "C6",
          "ticks": 616,
          "time": 6.695652173913044,
          "velocity": 0.2283464566929134
        },
        {
          "duration": 0.032608695652173836,
          "durationTicks": 3,
          "midi": 88,
          "name": "E6",
          "ticks": 616,
          "time": 6.695652173913044,
          "velocity": 0.08661417322834646
        },
        {
          "duration": 0.02173913043478226,
          "durationTicks": 2,
          "midi": 42,
          "name": "F#2",
          "ticks": 618,
          "time": 6.717391304347826,
          "velocity": 0.3779527559055118
        },
        {
          "duration": 0.032608695652173836,
          "durationTicks": 3,
          "midi": 41,
          "name": "F2",
          "ticks": 620,
          "time": 6.739130434782608,
          "velocity": 0.2677165354330709
        },
        {
          "duration": 0.02173913043478315,
          "durationTicks": 2,
          "midi": 58,
          "name": "A#3",
          "ticks": 623,
          "time": 6.771739130434782,
          "velocity": 0.2755905511811024
        },
        {
          "duration": 0.04347826086956541,
          "durationTicks": 4,
          "midi": 57,
          "name": "A3",
          "ticks": 625,
          "time": 6.793478260869565,
          "velocity": 0.31496062992125984
        },
        {
          "duration": 0.02173913043478315,
          "durationTicks": 2,
          "midi": 49,
          "name": "C#3",
          "ticks": 633,
          "time": 6.880434782608695,
          "velocity": 0.41732283464566927
        },
        {
          "duration": 0.032608695652173836,
          "durationTicks": 3,
          "midi": 56,
          "name": "G#3",
          "ticks": 635,
          "time": 6.9021739130434785,
          "velocity": 0.3937007874015748
        },
        {
          "duration": 0.02173913043478226,
          "durationTicks": 2,
          "midi": 31,
          "name": "G1",
          "ticks": 638,
          "time": 6.934782608695652,
          "velocity": 0.23622047244094488
        },
        {
          "duration": 0.16304347826086918,
          "durationTicks": 15,
          "midi": 48,
          "name": "C3",
          "ticks": 645,
          "time": 7.010869565217392,
          "velocity": 0.48031496062992124
        },
        {
          "duration": 0.07608695652173925,
          "durationTicks": 7,
          "midi": 55,
          "name": "G3",
          "ticks": 646,
          "time": 7.021739130434782,
          "velocity": 0.4094488188976378
        },
        {
          "duration": 0.04347826086956541,
          "durationTicks": 4,
          "midi": 36,
          "name": "C2",
          "ticks": 647,
          "time": 7.032608695652174,
          "velocity": 0.49606299212598426
        },
        {
          "duration": 0.08695652173912993,
          "durationTicks": 8,
          "midi": 65,
          "name": "F4",
          "ticks": 648,
          "time": 7.043478260869565,
          "velocity": 0.07086614173228346
        },
        {
          "duration": 0.07608695652173836,
          "durationTicks": 7,
          "midi": 36,
          "name": "C2",
          "ticks": 652,
          "time": 7.086956521739131,
          "velocity": 0.4566929133858268
        },
        {
          "duration": 0.10869565217391308,
          "durationTicks": 10,
          "midi": 48,
          "name": "C3",
          "ticks": 661,
          "time": 7.184782608695652,
          "velocity": 0.4251968503937008
        },
        {
          "duration": 0.032608695652173836,
          "durationTicks": 3,
          "midi": 36,
          "name": "C2",
          "ticks": 662,
          "time": 7.195652173913044,
          "velocity": 0.4881889763779528
        },
        {
          "duration": 0.02173913043478226,
          "durationTicks": 2,
          "midi": 54,
          "name": "F#3",
          "ticks": 662,
          "time": 7.195652173913044,
          "velocity": 0.4094488188976378
        },
        {
          "duration": 0.04347826086956541,
          "durationTicks": 4,
          "midi": 67,
          "name": "G4",
          "ticks": 664,
          "time": 7.217391304347826,
          "velocity": 0.09448818897637795
        },
        {
          "duration": 0.02173913043478226,
          "durationTicks": 2,
          "midi": 37,
          "name": "C#2",
          "ticks": 665,
          "time": 7.228260869565218,
          "velocity": 0.47244094488188976
        },
        {
          "duration": 0.04347826086956541,
          "durationTicks": 4,
          "midi": 36,
          "name": "C2",
          "ticks": 667,
          "time": 7.25,
          "velocity": 0.4330708661417323
        },
        {
          "duration": 0.02173913043478226,
          "durationTicks": 2,
          "midi": 56,
          "name": "G#3",
          "ticks": 667,
          "time": 7.25,
          "velocity": 0.30708661417322836
        },
        {
          "duration": 0.04347826086956541,
          "durationTicks": 4,
          "midi": 55,
          "name": "G3",
          "ticks": 669,
          "time": 7.271739130434782,
          "velocity": 0.49606299212598426
        },
        {
          "duration": 0.02173913043478226,
          "durationTicks": 2,
          "midi": 37,
          "name": "C#2",
          "ticks": 671,
          "time": 7.293478260869565,
          "velocity": 0.4251968503937008
        },
        {
          "duration": 0.02173913043478226,
          "durationTicks": 2,
          "midi": 61,
          "name": "C#4",
          "ticks": 671,
          "time": 7.293478260869565,
          "velocity": 0.29133858267716534
        },
        {
          "duration": 0.02173913043478315,
          "durationTicks": 2,
          "midi": 48,
          "name": "C3",
          "ticks": 672,
          "time": 7.304347826086956,
          "velocity": 0.41732283464566927
        },
        {
          "duration": 0.17391304347826164,
          "durationTicks": 16,
          "midi": 69,
          "name": "A4",
          "ticks": 672,
          "time": 7.304347826086956,
          "velocity": 0.3228346456692913
        },
        {
          "duration": 0.13043478260869623,
          "durationTicks": 12,
          "midi": 77,
          "name": "F5",
          "ticks": 672,
          "time": 7.304347826086956,
          "velocity": 0.3228346456692913
        },
        {
          "duration": 0.010869565217391575,
          "durationTicks": 1,
          "midi": 56,
          "name": "G#3",
          "ticks": 673,
          "time": 7.315217391304348,
          "velocity": 0.5354330708661418
        },
        {
          "duration": 0.22826086956521774,
          "durationTicks": 21,
          "midi": 65,
          "name": "F4",
          "ticks": 673,
          "time": 7.315217391304348,
          "velocity": 0.4094488188976378
        },
        {
          "duration": 0.08695652173913082,
          "durationTicks": 8,
          "midi": 72,
          "name": "C5",
          "ticks": 673,
          "time": 7.315217391304348,
          "velocity": 0.14960629921259844
        },
        {
          "duration": 0.10869565217391308,
          "durationTicks": 10,
          "midi": 84,
          "name": "C6",
          "ticks": 673,
          "time": 7.315217391304348,
          "velocity": 0.29133858267716534
        },
        {
          "duration": 0.032608695652173836,
          "durationTicks": 3,
          "midi": 88,
          "name": "E6",
          "ticks": 673,
          "time": 7.315217391304348,
          "velocity": 0.13385826771653545
        },
        {
          "duration": 0.032608695652173836,
          "durationTicks": 3,
          "midi": 103,
          "name": "G7",
          "ticks": 673,
          "time": 7.315217391304348,
          "velocity": 0.12598425196850394
        },
        {
          "duration": 0.18478260869565233,
          "durationTicks": 17,
          "midi": 57,
          "name": "A3",
          "ticks": 674,
          "time": 7.326086956521739,
          "velocity": 0.5826771653543307
        },
        {
          "duration": 0.0543478260869561,
          "durationTicks": 5,
          "midi": 93,
          "name": "A6",
          "ticks": 674,
          "time": 7.326086956521739,
          "velocity": 0.07874015748031496
        },
        {
          "duration": 0.02173913043478226,
          "durationTicks": 2,
          "midi": 49,
          "name": "C#3",
          "ticks": 675,
          "time": 7.336956521739131,
          "velocity": 0.25984251968503935
        },
        {
          "duration": 0.032608695652173836,
          "durationTicks": 3,
          "midi": 88,
          "name": "E6",
          "ticks": 680,
          "time": 7.391304347826087,
          "velocity": 0.07874015748031496
        },
        {
          "duration": 0.032608695652173836,
          "durationTicks": 3,
          "midi": 46,
          "name": "A#2",
          "ticks": 691,
          "time": 7.510869565217392,
          "velocity": 0.36220472440944884
        },
        {
          "duration": 0.02173913043478226,
          "durationTicks": 2,
          "midi": 55,
          "name": "G3",
          "ticks": 691,
          "time": 7.510869565217392,
          "velocity": 0.2677165354330709
        },
        {
          "duration": 0.07608695652173925,
          "durationTicks": 7,
          "midi": 57,
          "name": "A3",
          "ticks": 694,
          "time": 7.543478260869565,
          "velocity": 0.3464566929133858
        },
        {
          "duration": 0.02173913043478226,
          "durationTicks": 2,
          "midi": 55,
          "name": "G3",
          "ticks": 701,
          "time": 7.619565217391305,
          "velocity": 0.28346456692913385
        },
        {
          "duration": 0.31521739130434767,
          "durationTicks": 29,
          "midi": 46,
          "name": "A#2",
          "ticks": 703,
          "time": 7.641304347826087,
          "velocity": 0.5669291338582677
        },
        {
          "duration": 0.04347826086956541,
          "durationTicks": 4,
          "midi": 65,
          "name": "F4",
          "ticks": 703,
          "time": 7.641304347826087,
          "velocity": 0.15748031496062992
        },
        {
          "duration": 0.032608695652173836,
          "durationTicks": 3,
          "midi": 57,
          "name": "A3",
          "ticks": 704,
          "time": 7.6521739130434785,
          "velocity": 0.4566929133858268
        },
        {
          "duration": 0.02173913043478226,
          "durationTicks": 2,
          "midi": 34,
          "name": "A#1",
          "ticks": 708,
          "time": 7.695652173913044,
          "velocity": 0.4094488188976378
        },
        {
          "duration": 0.02173913043478226,
          "durationTicks": 2,
          "midi": 34,
          "name": "A#1",
          "ticks": 711,
          "time": 7.728260869565218,
          "velocity": 0.3937007874015748
        },
        {
          "duration": 0.02173913043478226,
          "durationTicks": 2,
          "midi": 34,
          "name": "A#1",
          "ticks": 716,
          "time": 7.782608695652174,
          "velocity": 0.36220472440944884
        },
        {
          "duration": 0.02173913043478315,
          "durationTicks": 2,
          "midi": 34,
          "name": "A#1",
          "ticks": 719,
          "time": 7.815217391304348,
          "velocity": 0.36220472440944884
        },
        {
          "duration": 0.04347826086956541,
          "durationTicks": 4,
          "midi": 34,
          "name": "A#1",
          "ticks": 722,
          "time": 7.8478260869565215,
          "velocity": 0.3700787401574803
        },
        {
          "duration": 0.02173913043478226,
          "durationTicks": 2,
          "midi": 34,
          "name": "A#1",
          "ticks": 727,
          "time": 7.9021739130434785,
          "velocity": 0.3937007874015748
        },
        {
          "duration": 0.04347826086956541,
          "durationTicks": 4,
          "midi": 82,
          "name": "A#5",
          "ticks": 729,
          "time": 7.923913043478261,
          "velocity": 0.1968503937007874
        },
        {
          "duration": 0.02173913043478226,
          "durationTicks": 2,
          "midi": 34,
          "name": "A#1",
          "ticks": 730,
          "time": 7.934782608695652,
          "velocity": 0.4566929133858268
        },
        {
          "duration": 0.02173913043478226,
          "durationTicks": 2,
          "midi": 56,
          "name": "G#3",
          "ticks": 730,
          "time": 7.934782608695652,
          "velocity": 0.5511811023622047
        },
        {
          "duration": 0.07608695652173836,
          "durationTicks": 7,
          "midi": 65,
          "name": "F4",
          "ticks": 730,
          "time": 7.934782608695652,
          "velocity": 0.31496062992125984
        },
        {
          "duration": 0.1086956521739122,
          "durationTicks": 10,
          "midi": 74,
          "name": "D5",
          "ticks": 730,
          "time": 7.934782608695652,
          "velocity": 0.29133858267716534
        },
        {
          "duration": 0.032608695652173836,
          "durationTicks": 3,
          "midi": 90,
          "name": "F#6",
          "ticks": 730,
          "time": 7.934782608695652,
          "velocity": 0.07874015748031496
        },
        {
          "duration": 0.13043478260869446,
          "durationTicks": 12,
          "midi": 70,
          "name": "A#4",
          "ticks": 731,
          "time": 7.945652173913044,
          "velocity": 0.2440944881889764
        },
        {
          "duration": 0.04347826086956541,
          "durationTicks": 4,
          "midi": 33,
          "name": "A1",
          "ticks": 732,
          "time": 7.956521739130435,
          "velocity": 0.4645669291338583
        },
        {
          "duration": 0.02173913043478315,
          "durationTicks": 2,
          "midi": 58,
          "name": "A#3",
          "ticks": 732,
          "time": 7.956521739130435,
          "velocity": 0.47244094488188976
        },
        {
          "duration": 0.02173913043478315,
          "durationTicks": 2,
          "midi": 61,
          "name": "C#4",
          "ticks": 732,
          "time": 7.956521739130435,
          "velocity": 0.23622047244094488
        },
        {
          "duration": 0.02173913043478226,
          "durationTicks": 2,
          "midi": 48,
          "name": "C3",
          "ticks": 733,
          "time": 7.967391304347826,
          "velocity": 0.4645669291338583
        },
        {
          "duration": 0.02173913043478226,
          "durationTicks": 2,
          "midi": 62,
          "name": "D4",
          "ticks": 734,
          "time": 7.978260869565218,
          "velocity": 0.2283464566929134
        },
        {
          "duration": 0.02173913043478226,
          "durationTicks": 2,
          "midi": 57,
          "name": "A3",
          "ticks": 735,
          "time": 7.989130434782608,
          "velocity": 0.3464566929133858
        },
        {
          "duration": 0.04347826086956452,
          "durationTicks": 4,
          "midi": 46,
          "name": "A#2",
          "ticks": 736,
          "time": 8,
          "velocity": 0.4645669291338583
        },
        {
          "duration": 0.08695652173913082,
          "durationTicks": 8,
          "midi": 56,
          "name": "G#3",
          "ticks": 737,
          "time": 8.01086956521739,
          "velocity": 0.25196850393700787
        },
        {
          "duration": 0.02173913043478315,
          "durationTicks": 2,
          "midi": 33,
          "name": "A1",
          "ticks": 742,
          "time": 8.065217391304348,
          "velocity": 0.29133858267716534
        },
        {
          "duration": 0.02173913043478315,
          "durationTicks": 2,
          "midi": 48,
          "name": "C3",
          "ticks": 743,
          "time": 8.076086956521738,
          "velocity": 0.2283464566929134
        },
        {
          "duration": 0.02173913043478315,
          "durationTicks": 2,
          "midi": 47,
          "name": "B2",
          "ticks": 745,
          "time": 8.097826086956522,
          "velocity": 0.3700787401574803
        },
        {
          "duration": 0.02173913043478315,
          "durationTicks": 2,
          "midi": 46,
          "name": "A#2",
          "ticks": 747,
          "time": 8.119565217391305,
          "velocity": 0.41732283464566927
        },
        {
          "duration": 0.032608695652173836,
          "durationTicks": 3,
          "midi": 56,
          "name": "G#3",
          "ticks": 747,
          "time": 8.119565217391305,
          "velocity": 0.3228346456692913
        },
        {
          "duration": 0.04347826086956452,
          "durationTicks": 4,
          "midi": 47,
          "name": "B2",
          "ticks": 749,
          "time": 8.141304347826088,
          "velocity": 0.3858267716535433
        },
        {
          "duration": 0.0434782608695663,
          "durationTicks": 4,
          "midi": 65,
          "name": "F4",
          "ticks": 751,
          "time": 8.16304347826087,
          "velocity": 0.08661417322834646
        },
        {
          "duration": 0.032608695652173836,
          "durationTicks": 3,
          "midi": 57,
          "name": "A3",
          "ticks": 752,
          "time": 8.173913043478262,
          "velocity": 0.25984251968503935
        },
        {
          "duration": 0.02173913043478315,
          "durationTicks": 2,
          "midi": 46,
          "name": "A#2",
          "ticks": 753,
          "time": 8.184782608695652,
          "velocity": 0.30708661417322836
        },
        {
          "duration": 0.02173913043478315,
          "durationTicks": 2,
          "midi": 54,
          "name": "F#3",
          "ticks": 760,
          "time": 8.26086956521739,
          "velocity": 0.5039370078740157
        },
        {
          "duration": 0.08695652173912904,
          "durationTicks": 8,
          "midi": 65,
          "name": "F4",
          "ticks": 761,
          "time": 8.271739130434783,
          "velocity": 0.2283464566929134
        },
        {
          "duration": 0.27173913043478315,
          "durationTicks": 25,
          "midi": 53,
          "name": "F3",
          "ticks": 762,
          "time": 8.282608695652174,
          "velocity": 0.4881889763779528
        },
        {
          "duration": 0.02173913043478315,
          "durationTicks": 2,
          "midi": 39,
          "name": "D#2",
          "ticks": 763,
          "time": 8.293478260869565,
          "velocity": 0.44881889763779526
        },
        {
          "duration": 0.05434782608695521,
          "durationTicks": 5,
          "midi": 60,
          "name": "C4",
          "ticks": 764,
          "time": 8.304347826086957,
          "velocity": 0.13385826771653545
        },
        {
          "duration": 0.02173913043478315,
          "durationTicks": 2,
          "midi": 41,
          "name": "F2",
          "ticks": 768,
          "time": 8.347826086956522,
          "velocity": 0.4566929133858268
        },
        {
          "duration": 0.0434782608695663,
          "durationTicks": 4,
          "midi": 41,
          "name": "F2",
          "ticks": 771,
          "time": 8.380434782608695,
          "velocity": 0.4409448818897638
        },
        {
          "duration": 0.1086956521739122,
          "durationTicks": 10,
          "midi": 41,
          "name": "F2",
          "ticks": 776,
          "time": 8.434782608695652,
          "velocity": 0.4409448818897638
        },
        {
          "duration": 0.021739130434781373,
          "durationTicks": 2,
          "midi": 54,
          "name": "F#3",
          "ticks": 787,
          "time": 8.554347826086957,
          "velocity": 0.5669291338582677
        },
        {
          "duration": 0.1086956521739122,
          "durationTicks": 10,
          "midi": 82,
          "name": "A#5",
          "ticks": 787,
          "time": 8.554347826086957,
          "velocity": 0.2283464566929134
        },
        {
          "duration": 0.07608695652173836,
          "durationTicks": 7,
          "midi": 86,
          "name": "D6",
          "ticks": 787,
          "time": 8.554347826086957,
          "velocity": 0.14173228346456693
        },
        {
          "duration": 0.11956521739130466,
          "durationTicks": 11,
          "midi": 65,
          "name": "F4",
          "ticks": 788,
          "time": 8.565217391304348,
          "velocity": 0.4015748031496063
        },
        {
          "duration": 0.02173913043478315,
          "durationTicks": 2,
          "midi": 69,
          "name": "A4",
          "ticks": 788,
          "time": 8.565217391304348,
          "velocity": 0.23622047244094488
        },
        {
          "duration": 0.08695652173913082,
          "durationTicks": 8,
          "midi": 74,
          "name": "D5",
          "ticks": 788,
          "time": 8.565217391304348,
          "velocity": 0.30708661417322836
        },
        {
          "duration": 0.08695652173913082,
          "durationTicks": 8,
          "midi": 84,
          "name": "C6",
          "ticks": 788,
          "time": 8.565217391304348,
          "velocity": 0.1732283464566929
        },
        {
          "duration": 0.13043478260869534,
          "durationTicks": 12,
          "midi": 70,
          "name": "A#4",
          "ticks": 790,
          "time": 8.58695652173913,
          "velocity": 0.2992125984251969
        },
        {
          "duration": 0.02173913043478315,
          "durationTicks": 2,
          "midi": 46,
          "name": "A#2",
          "ticks": 791,
          "time": 8.597826086956522,
          "velocity": 0.3228346456692913
        },
        {
          "duration": 0.08695652173913082,
          "durationTicks": 8,
          "midi": 57,
          "name": "A3",
          "ticks": 794,
          "time": 8.630434782608695,
          "velocity": 0.4094488188976378
        },
        {
          "duration": 0.04347826086956452,
          "durationTicks": 4,
          "midi": 58,
          "name": "A#3",
          "ticks": 802,
          "time": 8.717391304347826,
          "velocity": 0.2125984251968504
        },
        {
          "duration": 0.032608695652173836,
          "durationTicks": 3,
          "midi": 56,
          "name": "G#3",
          "ticks": 807,
          "time": 8.771739130434783,
          "velocity": 0.3937007874015748
        },
        {
          "duration": 0.02173913043478315,
          "durationTicks": 2,
          "midi": 31,
          "name": "G1",
          "ticks": 809,
          "time": 8.793478260869565,
          "velocity": 0.25196850393700787
        },
        {
          "duration": 0.032608695652173836,
          "durationTicks": 3,
          "midi": 57,
          "name": "A3",
          "ticks": 810,
          "time": 8.804347826086957,
          "velocity": 0.2283464566929134
        },
        {
          "duration": 0.02173913043478315,
          "durationTicks": 2,
          "midi": 29,
          "name": "F1",
          "ticks": 815,
          "time": 8.858695652173912,
          "velocity": 0.29133858267716534
        },
        {
          "duration": 0.02173913043478315,
          "durationTicks": 2,
          "midi": 56,
          "name": "G#3",
          "ticks": 816,
          "time": 8.869565217391305,
          "velocity": 0.3858267716535433
        },
        {
          "duration": 0.19565217391304301,
          "durationTicks": 18,
          "midi": 55,
          "name": "G3",
          "ticks": 818,
          "time": 8.891304347826088,
          "velocity": 0.3543307086614173
        },
        {
          "duration": 0.021739130434781373,
          "durationTicks": 2,
          "midi": 47,
          "name": "B2",
          "ticks": 821,
          "time": 8.923913043478262,
          "velocity": 0.4251968503937008
        },
        {
          "duration": 0.02173913043478315,
          "durationTicks": 2,
          "midi": 33,
          "name": "A1",
          "ticks": 823,
          "time": 8.945652173913043,
          "velocity": 0.4409448818897638
        },
        {
          "duration": 0.11956521739130466,
          "durationTicks": 11,
          "midi": 48,
          "name": "C3",
          "ticks": 823,
          "time": 8.945652173913043,
          "velocity": 0.3543307086614173
        },
        {
          "duration": 0.16304347826086918,
          "durationTicks": 15,
          "midi": 36,
          "name": "C2",
          "ticks": 827,
          "time": 8.98913043478261,
          "velocity": 0.4251968503937008
        },
        {
          "duration": 0.054347826086956985,
          "durationTicks": 5,
          "midi": 64,
          "name": "E4",
          "ticks": 835,
          "time": 9.076086956521738,
          "velocity": 0.23622047244094488
        },
        {
          "duration": 0.032608695652173836,
          "durationTicks": 3,
          "midi": 56,
          "name": "G#3",
          "ticks": 840,
          "time": 9.130434782608695,
          "velocity": 0.2440944881889764
        },
        {
          "duration": 0.032608695652173836,
          "durationTicks": 3,
          "midi": 63,
          "name": "D#4",
          "ticks": 842,
          "time": 9.152173913043478,
          "velocity": 0.3937007874015748
        },
        {
          "duration": 0.13043478260869534,
          "durationTicks": 12,
          "midi": 86,
          "name": "D6",
          "ticks": 843,
          "time": 9.16304347826087,
          "velocity": 0.2125984251968504
        },
        {
          "duration": 0.1086956521739122,
          "durationTicks": 10,
          "midi": 84,
          "name": "C6",
          "ticks": 844,
          "time": 9.173913043478262,
          "velocity": 0.2283464566929134
        },
        {
          "duration": 0.07608695652173836,
          "durationTicks": 7,
          "midi": 94,
          "name": "A#6",
          "ticks": 844,
          "time": 9.173913043478262,
          "velocity": 0.14960629921259844
        },
        {
          "duration": 0.032608695652173836,
          "durationTicks": 3,
          "midi": 100,
          "name": "E7",
          "ticks": 844,
          "time": 9.173913043478262,
          "velocity": 0.12598425196850394
        },
        {
          "duration": 0.010869565217390686,
          "durationTicks": 1,
          "midi": 49,
          "name": "C#3",
          "ticks": 845,
          "time": 9.184782608695652,
          "velocity": 0.5275590551181102
        },
        {
          "duration": 0.27173913043478315,
          "durationTicks": 25,
          "midi": 60,
          "name": "C4",
          "ticks": 845,
          "time": 9.184782608695652,
          "velocity": 0.6062992125984252
        },
        {
          "duration": 0.02173913043478315,
          "durationTicks": 2,
          "midi": 64,
          "name": "E4",
          "ticks": 845,
          "time": 9.184782608695652,
          "velocity": 0.3700787401574803
        },
        {
          "duration": 0.02173913043478315,
          "durationTicks": 2,
          "midi": 66,
          "name": "F#4",
          "ticks": 845,
          "time": 9.184782608695652,
          "velocity": 0.41732283464566927
        },
        {
          "duration": 0.032608695652173836,
          "durationTicks": 3,
          "midi": 88,
          "name": "E6",
          "ticks": 845,
          "time": 9.184782608695652,
          "velocity": 0.12598425196850394
        },
        {
          "duration": 0.09782608695652151,
          "durationTicks": 9,
          "midi": 79,
          "name": "G5",
          "ticks": 846,
          "time": 9.195652173913043,
          "velocity": 0.11811023622047244
        },
        {
          "duration": 0.28260869565217384,
          "durationTicks": 26,
          "midi": 67,
          "name": "G4",
          "ticks": 847,
          "time": 9.206521739130435,
          "velocity": 0.3700787401574803
        },
        {
          "duration": 0.032608695652173836,
          "durationTicks": 3,
          "midi": 76,
          "name": "E5",
          "ticks": 847,
          "time": 9.206521739130435,
          "velocity": 0.07086614173228346
        },
        {
          "duration": 0.02173913043478315,
          "durationTicks": 2,
          "midi": 56,
          "name": "G#3",
          "ticks": 848,
          "time": 9.217391304347826,
          "velocity": 0.49606299212598426
        },
        {
          "duration": 0.17391304347826164,
          "durationTicks": 16,
          "midi": 36,
          "name": "C2",
          "ticks": 849,
          "time": 9.228260869565217,
          "velocity": 0.4330708661417323
        },
        {
          "duration": 0.2391304347826093,
          "durationTicks": 22,
          "midi": 64,
          "name": "E4",
          "ticks": 849,
          "time": 9.228260869565217,
          "velocity": 0.2992125984251969
        },
        {
          "duration": 0.21739130434782616,
          "durationTicks": 20,
          "midi": 55,
          "name": "G3",
          "ticks": 850,
          "time": 9.23913043478261,
          "velocity": 0.3858267716535433
        },
        {
          "duration": 0.04347826086956452,
          "durationTicks": 4,
          "midi": 83,
          "name": "B5",
          "ticks": 851,
          "time": 9.25,
          "velocity": 0.09448818897637795
        },
        {
          "duration": 0.0434782608695663,
          "durationTicks": 4,
          "midi": 34,
          "name": "A#1",
          "ticks": 866,
          "time": 9.41304347826087,
          "velocity": 0.25984251968503935
        },
        {
          "duration": 0.021739130434781373,
          "durationTicks": 2,
          "midi": 33,
          "name": "A1",
          "ticks": 870,
          "time": 9.456521739130435,
          "velocity": 0.28346456692913385
        },
        {
          "duration": 0.021739130434781373,
          "durationTicks": 2,
          "midi": 49,
          "name": "C#3",
          "ticks": 870,
          "time": 9.456521739130435,
          "velocity": 0.25984251968503935
        },
        {
          "duration": 0.1521739130434785,
          "durationTicks": 14,
          "midi": 86,
          "name": "D6",
          "ticks": 873,
          "time": 9.48913043478261,
          "velocity": 0.1889763779527559
        },
        {
          "duration": 0.1086956521739122,
          "durationTicks": 10,
          "midi": 91,
          "name": "G6",
          "ticks": 873,
          "time": 9.48913043478261,
          "velocity": 0.14173228346456693
        },
        {
          "duration": 0.02173913043478315,
          "durationTicks": 2,
          "midi": 45,
          "name": "A2",
          "ticks": 874,
          "time": 9.5,
          "velocity": 0.47244094488188976
        },
        {
          "duration": 0.032608695652173836,
          "durationTicks": 3,
          "midi": 56,
          "name": "G#3",
          "ticks": 874,
          "time": 9.5,
          "velocity": 0.5196850393700787
        },
        {
          "duration": 0.16304347826086918,
          "durationTicks": 15,
          "midi": 67,
          "name": "G4",
          "ticks": 874,
          "time": 9.5,
          "velocity": 0.5196850393700787
        },
        {
          "duration": 0.09782608695652151,
          "durationTicks": 9,
          "midi": 101,
          "name": "F7",
          "ticks": 874,
          "time": 9.5,
          "velocity": 0.2047244094488189
        },
        {
          "duration": 0.09782608695652151,
          "durationTicks": 9,
          "midi": 64,
          "name": "E4",
          "ticks": 875,
          "time": 9.51086956521739,
          "velocity": 0.3858267716535433
        },
        {
          "duration": 0.10869565217391397,
          "durationTicks": 10,
          "midi": 72,
          "name": "C5",
          "ticks": 875,
          "time": 9.51086956521739,
          "velocity": 0.15748031496062992
        },
        {
          "duration": 0.07608695652174013,
          "durationTicks": 7,
          "midi": 84,
          "name": "C6",
          "ticks": 875,
          "time": 9.51086956521739,
          "velocity": 0.15748031496062992
        },
        {
          "duration": 0.010869565217390686,
          "durationTicks": 1,
          "midi": 49,
          "name": "C#3",
          "ticks": 876,
          "time": 9.521739130434783,
          "velocity": 0.5118110236220472
        },
        {
          "duration": 0.06521739130434767,
          "durationTicks": 6,
          "midi": 95,
          "name": "B6",
          "ticks": 877,
          "time": 9.532608695652174,
          "velocity": 0.09448818897637795
        },
        {
          "duration": 0.02173913043478315,
          "durationTicks": 2,
          "midi": 37,
          "name": "C#2",
          "ticks": 878,
          "time": 9.543478260869565,
          "velocity": 0.5039370078740157
        },
        {
          "duration": 0.1521739130434785,
          "durationTicks": 14,
          "midi": 60,
          "name": "C4",
          "ticks": 878,
          "time": 9.543478260869565,
          "velocity": 0.3464566929133858
        },
        {
          "duration": 0.22826086956521685,
          "durationTicks": 21,
          "midi": 50,
          "name": "D3",
          "ticks": 879,
          "time": 9.554347826086957,
          "velocity": 0.48031496062992124
        },
        {
          "duration": 0.21739130434782616,
          "durationTicks": 20,
          "midi": 38,
          "name": "D2",
          "ticks": 880,
          "time": 9.565217391304348,
          "velocity": 0.5039370078740157
        },
        {
          "duration": 0.02173913043478315,
          "durationTicks": 2,
          "midi": 57,
          "name": "A3",
          "ticks": 880,
          "time": 9.565217391304348,
          "velocity": 0.2283464566929134
        },
        {
          "duration": 0.03260869565217561,
          "durationTicks": 3,
          "midi": 57,
          "name": "A3",
          "ticks": 884,
          "time": 9.608695652173912,
          "velocity": 0.2047244094488189
        },
        {
          "duration": 0.1086956521739122,
          "durationTicks": 10,
          "midi": 64,
          "name": "E4",
          "ticks": 888,
          "time": 9.652173913043478,
          "velocity": 0.15748031496062992
        },
        {
          "duration": 0.1086956521739122,
          "durationTicks": 10,
          "midi": 57,
          "name": "A3",
          "ticks": 893,
          "time": 9.706521739130435,
          "velocity": 0.16535433070866143
        },
        {
          "duration": 0.02173913043478315,
          "durationTicks": 2,
          "midi": 35,
          "name": "B1",
          "ticks": 903,
          "time": 9.815217391304348,
          "velocity": 0.3937007874015748
        },
        {
          "duration": 0.021739130434781373,
          "durationTicks": 2,
          "midi": 36,
          "name": "C2",
          "ticks": 905,
          "time": 9.83695652173913,
          "velocity": 0.33070866141732286
        },
        {
          "duration": 0.032608695652173836,
          "durationTicks": 3,
          "midi": 45,
          "name": "A2",
          "ticks": 909,
          "time": 9.880434782608695,
          "velocity": 0.07874015748031496
        },
        {
          "duration": 0.02173913043478315,
          "durationTicks": 2,
          "midi": 56,
          "name": "G#3",
          "ticks": 921,
          "time": 10.01086956521739,
          "velocity": 0.2677165354330709
        },
        {
          "duration": 0.21739130434782616,
          "durationTicks": 20,
          "midi": 65,
          "name": "F4",
          "ticks": 932,
          "time": 10.130434782608695,
          "velocity": 0.31496062992125984
        },
        {
          "duration": 0.032608695652173836,
          "durationTicks": 3,
          "midi": 42,
          "name": "F#2",
          "ticks": 933,
          "time": 10.141304347826088,
          "velocity": 0.5826771653543307
        },
        {
          "duration": 0.010869565217390686,
          "durationTicks": 1,
          "midi": 56,
          "name": "G#3",
          "ticks": 933,
          "time": 10.141304347826088,
          "velocity": 0.5275590551181102
        },
        {
          "duration": 0.28260869565217384,
          "durationTicks": 26,
          "midi": 57,
          "name": "A3",
          "ticks": 934,
          "time": 10.152173913043478,
          "velocity": 0.6062992125984252
        },
        {
          "duration": 0.2608695652173907,
          "durationTicks": 24,
          "midi": 41,
          "name": "F2",
          "ticks": 936,
          "time": 10.173913043478262,
          "velocity": 0.5748031496062992
        },
        {
          "duration": 0.3043478260869552,
          "durationTicks": 28,
          "midi": 65,
          "name": "F4",
          "ticks": 959,
          "time": 10.423913043478262,
          "velocity": 0.5039370078740157
        },
        {
          "duration": 0.07608695652173836,
          "durationTicks": 7,
          "midi": 88,
          "name": "E6",
          "ticks": 959,
          "time": 10.423913043478262,
          "velocity": 0.2047244094488189
        },
        {
          "duration": 0.05434782608695521,
          "durationTicks": 5,
          "midi": 91,
          "name": "G6",
          "ticks": 959,
          "time": 10.423913043478262,
          "velocity": 0.23622047244094488
        },
        {
          "duration": 0.02173913043478315,
          "durationTicks": 2,
          "midi": 58,
          "name": "A#3",
          "ticks": 960,
          "time": 10.434782608695652,
          "velocity": 0.6377952755905512
        },
        {
          "duration": 0.18478260869565233,
          "durationTicks": 17,
          "midi": 72,
          "name": "C5",
          "ticks": 960,
          "time": 10.434782608695652,
          "velocity": 0.33070866141732286
        },
        {
          "duration": 0.02173913043478315,
          "durationTicks": 2,
          "midi": 41,
          "name": "F2",
          "ticks": 961,
          "time": 10.445652173913043,
          "velocity": 0.3779527559055118
        },
        {
          "duration": 0.010869565217390686,
          "durationTicks": 1,
          "midi": 57,
          "name": "A3",
          "ticks": 962,
          "time": 10.456521739130435,
          "velocity": 0.5748031496062992
        },
        {
          "duration": 0.04347826086956452,
          "durationTicks": 4,
          "midi": 42,
          "name": "F#2",
          "ticks": 963,
          "time": 10.467391304347826,
          "velocity": 0.28346456692913385
        },
        {
          "duration": 0.010869565217390686,
          "durationTicks": 1,
          "midi": 58,
          "name": "A#3",
          "ticks": 963,
          "time": 10.467391304347826,
          "velocity": 0.5748031496062992
        },
        {
          "duration": 0.0434782608695663,
          "durationTicks": 4,
          "midi": 57,
          "name": "A3",
          "ticks": 964,
          "time": 10.478260869565217,
          "velocity": 0.5275590551181102
        },
        {
          "duration": 0.05434782608695521,
          "durationTicks": 5,
          "midi": 60,
          "name": "C4",
          "ticks": 971,
          "time": 10.554347826086957,
          "velocity": 0.25196850393700787
        },
        {
          "duration": 0.02173913043478315,
          "durationTicks": 2,
          "midi": 57,
          "name": "A3",
          "ticks": 975,
          "time": 10.597826086956522,
          "velocity": 0.2755905511811024
        },
        {
          "duration": 0.032608695652173836,
          "durationTicks": 3,
          "midi": 46,
          "name": "A#2",
          "ticks": 977,
          "time": 10.619565217391305,
          "velocity": 0.3228346456692913
        },
        {
          "duration": 0.02173913043478315,
          "durationTicks": 2,
          "midi": 56,
          "name": "G#3",
          "ticks": 977,
          "time": 10.619565217391305,
          "velocity": 0.3858267716535433
        },
        {
          "duration": 0.04347826086956452,
          "durationTicks": 4,
          "midi": 57,
          "name": "A3",
          "ticks": 979,
          "time": 10.641304347826088,
          "velocity": 0.33070866141732286
        },
        {
          "duration": 0.22826086956521863,
          "durationTicks": 21,
          "midi": 60,
          "name": "C4",
          "ticks": 987,
          "time": 10.728260869565217,
          "velocity": 0.4881889763779528
        },
        {
          "duration": 0.16304347826087096,
          "durationTicks": 15,
          "midi": 55,
          "name": "G3",
          "ticks": 990,
          "time": 10.76086956521739,
          "velocity": 0.47244094488188976
        },
        {
          "duration": 0.08695652173912904,
          "durationTicks": 8,
          "midi": 65,
          "name": "F4",
          "ticks": 991,
          "time": 10.771739130434783,
          "velocity": 0.11811023622047244
        },
        {
          "duration": 0.02173913043478315,
          "durationTicks": 2,
          "midi": 36,
          "name": "C2",
          "ticks": 992,
          "time": 10.782608695652174,
          "velocity": 0.4094488188976378
        },
        {
          "duration": 0.304347826086957,
          "durationTicks": 28,
          "midi": 48,
          "name": "C3",
          "ticks": 992,
          "time": 10.782608695652174,
          "velocity": 0.44881889763779526
        },
        {
          "duration": 0.22826086956521685,
          "durationTicks": 21,
          "midi": 36,
          "name": "C2",
          "ticks": 995,
          "time": 10.815217391304348,
          "velocity": 0.4409448818897638
        },
        {
          "duration": 0.02173913043478315,
          "durationTicks": 2,
          "midi": 56,
          "name": "G#3",
          "ticks": 1009,
          "time": 10.967391304347826,
          "velocity": 0.4409448818897638
        },
        {
          "duration": 0.032608695652173836,
          "durationTicks": 3,
          "midi": 56,
          "name": "G#3",
          "ticks": 1013,
          "time": 11.01086956521739,
          "velocity": 0.33070866141732286
        },
        {
          "duration": 0.22826086956521863,
          "durationTicks": 21,
          "midi": 65,
          "name": "F4",
          "ticks": 1016,
          "time": 11.043478260869565,
          "velocity": 0.48031496062992124
        },
        {
          "duration": 0.1521739130434785,
          "durationTicks": 14,
          "midi": 69,
          "name": "A4",
          "ticks": 1016,
          "time": 11.043478260869565,
          "velocity": 0.33858267716535434
        },
        {
          "duration": 0.04347826086956452,
          "durationTicks": 4,
          "midi": 72,
          "name": "C5",
          "ticks": 1017,
          "time": 11.054347826086957,
          "velocity": 0.1732283464566929
        },
        {
          "duration": 0.11956521739130466,
          "durationTicks": 11,
          "midi": 84,
          "name": "C6",
          "ticks": 1017,
          "time": 11.054347826086957,
          "velocity": 0.3937007874015748
        },
        {
          "duration": 0.07608695652173836,
          "durationTicks": 7,
          "midi": 89,
          "name": "F6",
          "ticks": 1017,
          "time": 11.054347826086957,
          "velocity": 0.14173228346456693
        },
        {
          "duration": 0.09782608695652151,
          "durationTicks": 9,
          "midi": 100,
          "name": "E7",
          "ticks": 1017,
          "time": 11.054347826086957,
          "velocity": 0.13385826771653545
        },
        {
          "duration": 0.054347826086956985,
          "durationTicks": 5,
          "midi": 95,
          "name": "B6",
          "ticks": 1018,
          "time": 11.065217391304348,
          "velocity": 0.13385826771653545
        },
        {
          "duration": 0.032608695652173836,
          "durationTicks": 3,
          "midi": 97,
          "name": "C#7",
          "ticks": 1020,
          "time": 11.08695652173913,
          "velocity": 0.11023622047244094
        },
        {
          "duration": 0.02173913043478315,
          "durationTicks": 2,
          "midi": 48,
          "name": "C3",
          "ticks": 1021,
          "time": 11.097826086956522,
          "velocity": 0.3779527559055118
        },
        {
          "duration": 0.02173913043478315,
          "durationTicks": 2,
          "midi": 35,
          "name": "B1",
          "ticks": 1022,
          "time": 11.108695652173912,
          "velocity": 0.36220472440944884
        },
        {
          "duration": 0.02173913043478315,
          "durationTicks": 2,
          "midi": 34,
          "name": "A#1",
          "ticks": 1024,
          "time": 11.130434782608695,
          "velocity": 0.28346456692913385
        },
        {
          "duration": 0.04347826086956452,
          "durationTicks": 4,
          "midi": 57,
          "name": "A3",
          "ticks": 1026,
          "time": 11.152173913043478,
          "velocity": 0.14960629921259844
        },
        {
          "duration": 0.032608695652173836,
          "durationTicks": 3,
          "midi": 56,
          "name": "G#3",
          "ticks": 1030,
          "time": 11.195652173913043,
          "velocity": 0.14960629921259844
        },
        {
          "duration": 0.02173913043478315,
          "durationTicks": 2,
          "midi": 32,
          "name": "G#1",
          "ticks": 1035,
          "time": 11.25,
          "velocity": 0.28346456692913385
        },
        {
          "duration": 0.032608695652173836,
          "durationTicks": 3,
          "midi": 56,
          "name": "G#3",
          "ticks": 1035,
          "time": 11.25,
          "velocity": 0.3700787401574803
        },
        {
          "duration": 0.021739130434781373,
          "durationTicks": 2,
          "midi": 42,
          "name": "F#2",
          "ticks": 1037,
          "time": 11.271739130434783,
          "velocity": 0.4645669291338583
        },
        {
          "duration": 0.032608695652173836,
          "durationTicks": 3,
          "midi": 69,
          "name": "A4",
          "ticks": 1037,
          "time": 11.271739130434783,
          "velocity": 0.07874015748031496
        },
        {
          "duration": 0.06521739130434767,
          "durationTicks": 6,
          "midi": 57,
          "name": "A3",
          "ticks": 1038,
          "time": 11.282608695652174,
          "velocity": 0.3700787401574803
        },
        {
          "duration": 0.021739130434781373,
          "durationTicks": 2,
          "midi": 46,
          "name": "A#2",
          "ticks": 1040,
          "time": 11.304347826086957,
          "velocity": 0.2992125984251969
        },
        {
          "duration": 0.02173913043478315,
          "durationTicks": 2,
          "midi": 37,
          "name": "C#2",
          "ticks": 1042,
          "time": 11.326086956521738,
          "velocity": 0.3700787401574803
        },
        {
          "duration": 0.0434782608695663,
          "durationTicks": 4,
          "midi": 56,
          "name": "G#3",
          "ticks": 1044,
          "time": 11.347826086956522,
          "velocity": 0.6062992125984252
        },
        {
          "duration": 0.10869565217391397,
          "durationTicks": 10,
          "midi": 77,
          "name": "F5",
          "ticks": 1045,
          "time": 11.358695652173912,
          "velocity": 0.2677165354330709
        },
        {
          "duration": 0.1521739130434785,
          "durationTicks": 14,
          "midi": 84,
          "name": "C6",
          "ticks": 1045,
          "time": 11.358695652173912,
          "velocity": 0.4251968503937008
        },
        {
          "duration": 0.07608695652173836,
          "durationTicks": 7,
          "midi": 65,
          "name": "F4",
          "ticks": 1046,
          "time": 11.369565217391305,
          "velocity": 0.47244094488188976
        },
        {
          "duration": 0.02173913043478315,
          "durationTicks": 2,
          "midi": 42,
          "name": "F#2",
          "ticks": 1049,
          "time": 11.402173913043478,
          "velocity": 0.5590551181102362
        },
        {
          "duration": 0.2608695652173907,
          "durationTicks": 24,
          "midi": 41,
          "name": "F2",
          "ticks": 1055,
          "time": 11.467391304347826,
          "velocity": 0.47244094488188976
        },
        {
          "duration": 0.02173913043478315,
          "durationTicks": 2,
          "midi": 54,
          "name": "F#3",
          "ticks": 1056,
          "time": 11.478260869565217,
          "velocity": 0.33858267716535434
        },
        {
          "duration": 0.20652173913043548,
          "durationTicks": 19,
          "midi": 67,
          "name": "G4",
          "ticks": 1056,
          "time": 11.478260869565217,
          "velocity": 0.5196850393700787
        },
        {
          "duration": 0.20652173913043548,
          "durationTicks": 19,
          "midi": 86,
          "name": "D6",
          "ticks": 1056,
          "time": 11.478260869565217,
          "velocity": 0.2677165354330709
        },
        {
          "duration": 0.09782608695652151,
          "durationTicks": 9,
          "midi": 91,
          "name": "G6",
          "ticks": 1057,
          "time": 11.48913043478261,
          "velocity": 0.07874015748031496
        },
        {
          "duration": 0.02173913043478315,
          "durationTicks": 2,
          "midi": 54,
          "name": "F#3",
          "ticks": 1072,
          "time": 11.652173913043478,
          "velocity": 0.33858267716535434
        },
        {
          "duration": 0.02173913043478315,
          "durationTicks": 2,
          "midi": 57,
          "name": "A3",
          "ticks": 1073,
          "time": 11.66304347826087,
          "velocity": 0.5118110236220472
        },
        {
          "duration": 0.054347826086956985,
          "durationTicks": 5,
          "midi": 72,
          "name": "C5",
          "ticks": 1073,
          "time": 11.66304347826087,
          "velocity": 0.2125984251968504
        },
        {
          "duration": 0.032608695652173836,
          "durationTicks": 3,
          "midi": 91,
          "name": "G6",
          "ticks": 1073,
          "time": 11.66304347826087,
          "velocity": 0.14960629921259844
        },
        {
          "duration": 0.17391304347825987,
          "durationTicks": 16,
          "midi": 77,
          "name": "F5",
          "ticks": 1074,
          "time": 11.673913043478262,
          "velocity": 0.3228346456692913
        },
        {
          "duration": 0.1086956521739122,
          "durationTicks": 10,
          "midi": 93,
          "name": "A6",
          "ticks": 1074,
          "time": 11.673913043478262,
          "velocity": 0.1889763779527559
        },
        {
          "duration": 0.010869565217390686,
          "durationTicks": 1,
          "midi": 56,
          "name": "G#3",
          "ticks": 1075,
          "time": 11.684782608695652,
          "velocity": 0.5118110236220472
        },
        {
          "duration": 0.18478260869565233,
          "durationTicks": 17,
          "midi": 65,
          "name": "F4",
          "ticks": 1075,
          "time": 11.684782608695652,
          "velocity": 0.5826771653543307
        },
        {
          "duration": 0.20652173913043548,
          "durationTicks": 19,
          "midi": 69,
          "name": "A4",
          "ticks": 1075,
          "time": 11.684782608695652,
          "velocity": 0.4330708661417323
        },
        {
          "duration": 0.054347826086956985,
          "durationTicks": 5,
          "midi": 79,
          "name": "G5",
          "ticks": 1075,
          "time": 11.684782608695652,
          "velocity": 0.09448818897637795
        },
        {
          "duration": 0.16304347826086918,
          "durationTicks": 15,
          "midi": 57,
          "name": "A3",
          "ticks": 1076,
          "time": 11.695652173913043,
          "velocity": 0.4566929133858268
        },
        {
          "duration": 0.02173913043478315,
          "durationTicks": 2,
          "midi": 40,
          "name": "E2",
          "ticks": 1079,
          "time": 11.728260869565217,
          "velocity": 0.31496062992125984
        },
        {
          "duration": 0.02173913043478315,
          "durationTicks": 2,
          "midi": 58,
          "name": "A#3",
          "ticks": 1091,
          "time": 11.858695652173912,
          "velocity": 0.44881889763779526
        },
        {
          "duration": 0.04347826086956452,
          "durationTicks": 4,
          "midi": 37,
          "name": "C#2",
          "ticks": 1092,
          "time": 11.869565217391305,
          "velocity": 0.25984251968503935
        },
        {
          "duration": 0.04347826086956452,
          "durationTicks": 4,
          "midi": 47,
          "name": "B2",
          "ticks": 1092,
          "time": 11.869565217391305,
          "velocity": 0.28346456692913385
        },
        {
          "duration": 0.13043478260869534,
          "durationTicks": 12,
          "midi": 84,
          "name": "C6",
          "ticks": 1092,
          "time": 11.869565217391305,
          "velocity": 0.3228346456692913
        },
        {
          "duration": 0.0434782608695663,
          "durationTicks": 4,
          "midi": 57,
          "name": "A3",
          "ticks": 1093,
          "time": 11.880434782608695,
          "velocity": 0.49606299212598426
        },
        {
          "duration": 0.13043478260869534,
          "durationTicks": 12,
          "midi": 65,
          "name": "F4",
          "ticks": 1093,
          "time": 11.880434782608695,
          "velocity": 0.4645669291338583
        },
        {
          "duration": 0.02173913043478315,
          "durationTicks": 2,
          "midi": 36,
          "name": "C2",
          "ticks": 1096,
          "time": 11.91304347826087,
          "velocity": 0.25984251968503935
        },
        {
          "duration": 0.032608695652173836,
          "durationTicks": 3,
          "midi": 56,
          "name": "G#3",
          "ticks": 1097,
          "time": 11.923913043478262,
          "velocity": 0.14173228346456693
        },
        {
          "duration": 0.021739130434781373,
          "durationTicks": 2,
          "midi": 38,
          "name": "D2",
          "ticks": 1103,
          "time": 11.98913043478261,
          "velocity": 0.3700787401574803
        },
        {
          "duration": 0.021739130434781373,
          "durationTicks": 2,
          "midi": 47,
          "name": "B2",
          "ticks": 1103,
          "time": 11.98913043478261,
          "velocity": 0.4645669291338583
        },
        {
          "duration": 0.021739130434781373,
          "durationTicks": 2,
          "midi": 58,
          "name": "A#3",
          "ticks": 1103,
          "time": 11.98913043478261,
          "velocity": 0.3228346456692913
        },
        {
          "duration": 0.18478260869565233,
          "durationTicks": 17,
          "midi": 48,
          "name": "C3",
          "ticks": 1105,
          "time": 12.01086956521739,
          "velocity": 0.5196850393700787
        },
        {
          "duration": 0.021739130434781373,
          "durationTicks": 2,
          "midi": 56,
          "name": "G#3",
          "ticks": 1106,
          "time": 12.021739130434783,
          "velocity": 0.31496062992125984
        },
        {
          "duration": 0.07608695652173836,
          "durationTicks": 7,
          "midi": 65,
          "name": "F4",
          "ticks": 1107,
          "time": 12.032608695652174,
          "velocity": 0.11023622047244094
        },
        {
          "duration": 0.032608695652173836,
          "durationTicks": 3,
          "midi": 36,
          "name": "C2",
          "ticks": 1108,
          "time": 12.043478260869565,
          "velocity": 0.3700787401574803
        },
        {
          "duration": 0.032608695652173836,
          "durationTicks": 3,
          "midi": 36,
          "name": "C2",
          "ticks": 1112,
          "time": 12.08695652173913,
          "velocity": 0.4094488188976378
        },
        {
          "duration": 0.02173913043478315,
          "durationTicks": 2,
          "midi": 36,
          "name": "C2",
          "ticks": 1116,
          "time": 12.130434782608695,
          "velocity": 0.41732283464566927
        },
        {
          "duration": 0.02173913043478315,
          "durationTicks": 2,
          "midi": 36,
          "name": "C2",
          "ticks": 1119,
          "time": 12.16304347826087,
          "velocity": 0.3858267716535433
        },
        {
          "duration": 0.021739130434781373,
          "durationTicks": 2,
          "midi": 58,
          "name": "A#3",
          "ticks": 1120,
          "time": 12.173913043478262,
          "velocity": 0.3779527559055118
        },
        {
          "duration": 0.1086956521739122,
          "durationTicks": 10,
          "midi": 65,
          "name": "F4",
          "ticks": 1120,
          "time": 12.173913043478262,
          "velocity": 0.3464566929133858
        },
        {
          "duration": 0.11956521739130288,
          "durationTicks": 11,
          "midi": 72,
          "name": "C5",
          "ticks": 1120,
          "time": 12.173913043478262,
          "velocity": 0.4881889763779528
        },
        {
          "duration": 0.054347826086956985,
          "durationTicks": 5,
          "midi": 94,
          "name": "A#6",
          "ticks": 1121,
          "time": 12.184782608695652,
          "velocity": 0.09448818897637795
        },
        {
          "duration": 0.021739130434781373,
          "durationTicks": 2,
          "midi": 54,
          "name": "F#3",
          "ticks": 1123,
          "time": 12.206521739130435,
          "velocity": 0.4409448818897638
        },
        {
          "duration": 0.02173913043478315,
          "durationTicks": 2,
          "midi": 37,
          "name": "C#2",
          "ticks": 1125,
          "time": 12.228260869565217,
          "velocity": 0.3858267716535433
        },
        {
          "duration": 0.02173913043478315,
          "durationTicks": 2,
          "midi": 48,
          "name": "C3",
          "ticks": 1125,
          "time": 12.228260869565217,
          "velocity": 0.3937007874015748
        },
        {
          "duration": 0.02173913043478315,
          "durationTicks": 2,
          "midi": 48,
          "name": "C3",
          "ticks": 1128,
          "time": 12.26086956521739,
          "velocity": 0.4094488188976378
        },
        {
          "duration": 0.02173913043478315,
          "durationTicks": 2,
          "midi": 57,
          "name": "A3",
          "ticks": 1130,
          "time": 12.282608695652174,
          "velocity": 0.3937007874015748
        },
        {
          "duration": 0.02173913043478315,
          "durationTicks": 2,
          "midi": 43,
          "name": "G2",
          "ticks": 1131,
          "time": 12.293478260869565,
          "velocity": 0.44881889763779526
        },
        {
          "duration": 0.032608695652173836,
          "durationTicks": 3,
          "midi": 62,
          "name": "D4",
          "ticks": 1131,
          "time": 12.293478260869565,
          "velocity": 0.4015748031496063
        },
        {
          "duration": 0.1956521739130448,
          "durationTicks": 18,
          "midi": 69,
          "name": "A4",
          "ticks": 1131,
          "time": 12.293478260869565,
          "velocity": 0.48031496062992124
        },
        {
          "duration": 0.0434782608695663,
          "durationTicks": 4,
          "midi": 93,
          "name": "A6",
          "ticks": 1131,
          "time": 12.293478260869565,
          "velocity": 0.15748031496062992
        },
        {
          "duration": 0.021739130434781373,
          "durationTicks": 2,
          "midi": 58,
          "name": "A#3",
          "ticks": 1132,
          "time": 12.304347826086957,
          "velocity": 0.4251968503937008
        },
        {
          "duration": 0.1521739130434785,
          "durationTicks": 14,
          "midi": 77,
          "name": "F5",
          "ticks": 1132,
          "time": 12.304347826086957,
          "velocity": 0.13385826771653545
        },
        {
          "duration": 0.16304347826086918,
          "durationTicks": 15,
          "midi": 65,
          "name": "F4",
          "ticks": 1133,
          "time": 12.315217391304348,
          "velocity": 0.30708661417322836
        },
        {
          "duration": 0.08695652173913082,
          "durationTicks": 8,
          "midi": 72,
          "name": "C5",
          "ticks": 1133,
          "time": 12.315217391304348,
          "velocity": 0.18110236220472442
        },
        {
          "duration": 0.02173913043478315,
          "durationTicks": 2,
          "midi": 43,
          "name": "G2",
          "ticks": 1134,
          "time": 12.326086956521738,
          "velocity": 0.29133858267716534
        },
        {
          "duration": 0.07608695652173836,
          "durationTicks": 7,
          "midi": 62,
          "name": "D4",
          "ticks": 1135,
          "time": 12.33695652173913,
          "velocity": 0.30708661417322836
        },
        {
          "duration": 0.0434782608695663,
          "durationTicks": 4,
          "midi": 57,
          "name": "A3",
          "ticks": 1139,
          "time": 12.380434782608695,
          "velocity": 0.25196850393700787
        },
        {
          "duration": 0.04347826086956452,
          "durationTicks": 4,
          "midi": 57,
          "name": "A3",
          "ticks": 1144,
          "time": 12.434782608695652,
          "velocity": 0.23622047244094488
        },
        {
          "duration": 0.032608695652173836,
          "durationTicks": 3,
          "midi": 56,
          "name": "G#3",
          "ticks": 1148,
          "time": 12.478260869565217,
          "velocity": 0.5196850393700787
        },
        {
          "duration": 0.36956521739130466,
          "durationTicks": 34,
          "midi": 84,
          "name": "C6",
          "ticks": 1148,
          "time": 12.478260869565217,
          "velocity": 0.25984251968503935
        },
        {
          "duration": 0.3369565217391308,
          "durationTicks": 31,
          "midi": 91,
          "name": "G6",
          "ticks": 1148,
          "time": 12.478260869565217,
          "velocity": 0.33858267716535434
        },
        {
          "duration": 0.18478260869565233,
          "durationTicks": 17,
          "midi": 65,
          "name": "F4",
          "ticks": 1149,
          "time": 12.48913043478261,
          "velocity": 0.25984251968503935
        },
        {
          "duration": 0.04347826086956452,
          "durationTicks": 4,
          "midi": 79,
          "name": "G5",
          "ticks": 1149,
          "time": 12.48913043478261,
          "velocity": 0.08661417322834646
        },
        {
          "duration": 0.42391304347826164,
          "durationTicks": 39,
          "midi": 60,
          "name": "C4",
          "ticks": 1150,
          "time": 12.5,
          "velocity": 0.48031496062992124
        },
        {
          "duration": 0.02173913043478315,
          "durationTicks": 2,
          "midi": 47,
          "name": "B2",
          "ticks": 1153,
          "time": 12.532608695652174,
          "velocity": 0.3228346456692913
        },
        {
          "duration": 0.02173913043478315,
          "durationTicks": 2,
          "midi": 34,
          "name": "A#1",
          "ticks": 1154,
          "time": 12.543478260869565,
          "velocity": 0.2755905511811024
        },
        {
          "duration": 0.021739130434781373,
          "durationTicks": 2,
          "midi": 54,
          "name": "F#3",
          "ticks": 1155,
          "time": 12.554347826086957,
          "velocity": 0.25196850393700787
        },
        {
          "duration": 0.032608695652173836,
          "durationTicks": 3,
          "midi": 46,
          "name": "A#2",
          "ticks": 1158,
          "time": 12.58695652173913,
          "velocity": 0.14960629921259844
        },
        {
          "duration": 0.032608695652173836,
          "durationTicks": 3,
          "midi": 53,
          "name": "F3",
          "ticks": 1159,
          "time": 12.597826086956522,
          "velocity": 0.4015748031496063
        },
        {
          "duration": 0.02173913043478315,
          "durationTicks": 2,
          "midi": 47,
          "name": "B2",
          "ticks": 1162,
          "time": 12.630434782608695,
          "velocity": 0.44881889763779526
        },
        {
          "duration": 0.054347826086956985,
          "durationTicks": 5,
          "midi": 74,
          "name": "D5",
          "ticks": 1162,
          "time": 12.630434782608695,
          "velocity": 0.11023622047244094
        },
        {
          "duration": 0.021739130434781373,
          "durationTicks": 2,
          "midi": 53,
          "name": "F3",
          "ticks": 1163,
          "time": 12.641304347826088,
          "velocity": 0.2992125984251969
        },
        {
          "duration": 0.2608695652173907,
          "durationTicks": 24,
          "midi": 46,
          "name": "A#2",
          "ticks": 1164,
          "time": 12.652173913043478,
          "velocity": 0.4645669291338583
        },
        {
          "duration": 0.04347826086956452,
          "durationTicks": 4,
          "midi": 34,
          "name": "A#1",
          "ticks": 1169,
          "time": 12.706521739130435,
          "velocity": 0.3937007874015748
        },
        {
          "duration": 0.1413043478260878,
          "durationTicks": 13,
          "midi": 34,
          "name": "A#1",
          "ticks": 1174,
          "time": 12.76086956521739,
          "velocity": 0.36220472440944884
        },
        {
          "duration": 0.032608695652173836,
          "durationTicks": 3,
          "midi": 67,
          "name": "G4",
          "ticks": 1188,
          "time": 12.91304347826087,
          "velocity": 0.2125984251968504
        },
        {
          "duration": 0.010869565217390686,
          "durationTicks": 1,
          "midi": 53,
          "name": "F3",
          "ticks": 1189,
          "time": 12.923913043478262,
          "velocity": 0.5354330708661418
        },
        {
          "duration": 0.2065217391304337,
          "durationTicks": 19,
          "midi": 62,
          "name": "D4",
          "ticks": 1189,
          "time": 12.923913043478262,
          "velocity": 0.4566929133858268
        },
        {
          "duration": 0.06521739130434767,
          "durationTicks": 6,
          "midi": 56,
          "name": "G#3",
          "ticks": 1190,
          "time": 12.934782608695652,
          "velocity": 0.6377952755905512
        },
        {
          "duration": 0.06521739130434767,
          "durationTicks": 6,
          "midi": 98,
          "name": "D7",
          "ticks": 1190,
          "time": 12.934782608695652,
          "velocity": 0.12598425196850394
        },
        {
          "duration": 0.0434782608695663,
          "durationTicks": 4,
          "midi": 77,
          "name": "F5",
          "ticks": 1191,
          "time": 12.945652173913043,
          "velocity": 0.14173228346456693
        },
        {
          "duration": 0.1413043478260878,
          "durationTicks": 13,
          "midi": 82,
          "name": "A#5",
          "ticks": 1191,
          "time": 12.945652173913043,
          "velocity": 0.28346456692913385
        },
        {
          "duration": 0.04347826086956452,
          "durationTicks": 4,
          "midi": 84,
          "name": "C6",
          "ticks": 1192,
          "time": 12.956521739130435,
          "velocity": 0.11811023622047244
        },
        {
          "duration": 0.02173913043478315,
          "durationTicks": 2,
          "midi": 33,
          "name": "A1",
          "ticks": 1193,
          "time": 12.967391304347826,
          "velocity": 0.36220472440944884
        },
        {
          "duration": 0.054347826086956985,
          "durationTicks": 5,
          "midi": 47,
          "name": "B2",
          "ticks": 1193,
          "time": 12.967391304347826,
          "velocity": 0.29133858267716534
        },
        {
          "duration": 0.021739130434781373,
          "durationTicks": 2,
          "midi": 35,
          "name": "B1",
          "ticks": 1195,
          "time": 12.98913043478261,
          "velocity": 0.2992125984251969
        },
        {
          "duration": 0.06521739130434767,
          "durationTicks": 6,
          "midi": 70,
          "name": "A#4",
          "ticks": 1196,
          "time": 13,
          "velocity": 0.10236220472440945
        },
        {
          "duration": 0.10869565217391397,
          "durationTicks": 10,
          "midi": 77,
          "name": "F5",
          "ticks": 1197,
          "time": 13.01086956521739,
          "velocity": 0.13385826771653545
        },
        {
          "duration": 0.032608695652173836,
          "durationTicks": 3,
          "midi": 57,
          "name": "A3",
          "ticks": 1199,
          "time": 13.032608695652174,
          "velocity": 0.13385826771653545
        },
        {
          "duration": 0.032608695652173836,
          "durationTicks": 3,
          "midi": 81,
          "name": "A5",
          "ticks": 1199,
          "time": 13.032608695652174,
          "velocity": 0.07086614173228346
        },
        {
          "duration": 0.07608695652174013,
          "durationTicks": 7,
          "midi": 65,
          "name": "F4",
          "ticks": 1200,
          "time": 13.043478260869565,
          "velocity": 0.15748031496062992
        },
        {
          "duration": 0.02173913043478315,
          "durationTicks": 2,
          "midi": 58,
          "name": "A#3",
          "ticks": 1206,
          "time": 13.108695652173912,
          "velocity": 0.2992125984251969
        },
        {
          "duration": 0.021739130434781373,
          "durationTicks": 2,
          "midi": 56,
          "name": "G#3",
          "ticks": 1209,
          "time": 13.141304347826088,
          "velocity": 0.3228346456692913
        },
        {
          "duration": 0.0434782608695663,
          "durationTicks": 4,
          "midi": 46,
          "name": "A#2",
          "ticks": 1211,
          "time": 13.16304347826087,
          "velocity": 0.2677165354330709
        },
        {
          "duration": 0.02173913043478315,
          "durationTicks": 2,
          "midi": 42,
          "name": "F#2",
          "ticks": 1217,
          "time": 13.228260869565217,
          "velocity": 0.4881889763779528
        },
        {
          "duration": 0.02173913043478315,
          "durationTicks": 2,
          "midi": 61,
          "name": "C#4",
          "ticks": 1217,
          "time": 13.228260869565217,
          "velocity": 0.2283464566929134
        },
        {
          "duration": 0.06521739130434767,
          "durationTicks": 6,
          "midi": 65,
          "name": "F4",
          "ticks": 1217,
          "time": 13.228260869565217,
          "velocity": 0.13385826771653545
        },
        {
          "duration": 0.010869565217390686,
          "durationTicks": 1,
          "midi": 39,
          "name": "D#2",
          "ticks": 1219,
          "time": 13.25,
          "velocity": 0.5433070866141733
        },
        {
          "duration": 0.02173913043478315,
          "durationTicks": 2,
          "midi": 53,
          "name": "F3",
          "ticks": 1219,
          "time": 13.25,
          "velocity": 0.4330708661417323
        },
        {
          "duration": 0.02173913043478315,
          "durationTicks": 2,
          "midi": 41,
          "name": "F2",
          "ticks": 1220,
          "time": 13.26086956521739,
          "velocity": 0.5354330708661418
        },
        {
          "duration": 0.1413043478260878,
          "durationTicks": 13,
          "midi": 53,
          "name": "F3",
          "ticks": 1222,
          "time": 13.282608695652174,
          "velocity": 0.4645669291338583
        },
        {
          "duration": 0.1521739130434785,
          "durationTicks": 14,
          "midi": 41,
          "name": "F2",
          "ticks": 1223,
          "time": 13.293478260869565,
          "velocity": 0.49606299212598426
        },
        {
          "duration": 0.05434782608695521,
          "durationTicks": 5,
          "midi": 65,
          "name": "F4",
          "ticks": 1235,
          "time": 13.423913043478262,
          "velocity": 0.15748031496062992
        },
        {
          "duration": 0.054347826086956985,
          "durationTicks": 5,
          "midi": 58,
          "name": "A#3",
          "ticks": 1236,
          "time": 13.434782608695652,
          "velocity": 0.4566929133858268
        },
        {
          "duration": 0.02173913043478315,
          "durationTicks": 2,
          "midi": 40,
          "name": "E2",
          "ticks": 1240,
          "time": 13.478260869565217,
          "velocity": 0.44881889763779526
        },
        {
          "duration": 0.02173913043478315,
          "durationTicks": 2,
          "midi": 58,
          "name": "A#3",
          "ticks": 1242,
          "time": 13.5,
          "velocity": 0.23622047244094488
        },
        {
          "duration": 0.021739130434781373,
          "durationTicks": 2,
          "midi": 56,
          "name": "G#3",
          "ticks": 1244,
          "time": 13.521739130434783,
          "velocity": 0.4330708661417323
        },
        {
          "duration": 0.11956521739130466,
          "durationTicks": 11,
          "midi": 65,
          "name": "F4",
          "ticks": 1244,
          "time": 13.521739130434783,
          "velocity": 0.5118110236220472
        },
        {
          "duration": 0.010869565217390686,
          "durationTicks": 1,
          "midi": 42,
          "name": "F#2",
          "ticks": 1245,
          "time": 13.532608695652174,
          "velocity": 0.5118110236220472
        },
        {
          "duration": 0.1521739130434785,
          "durationTicks": 14,
          "midi": 70,
          "name": "A#4",
          "ticks": 1245,
          "time": 13.532608695652174,
          "velocity": 0.1732283464566929
        },
        {
          "duration": 0.13043478260869534,
          "durationTicks": 12,
          "midi": 82,
          "name": "A#5",
          "ticks": 1245,
          "time": 13.532608695652174,
          "velocity": 0.28346456692913385
        },
        {
          "duration": 0.02173913043478315,
          "durationTicks": 2,
          "midi": 40,
          "name": "E2",
          "ticks": 1246,
          "time": 13.543478260869565,
          "velocity": 0.5118110236220472
        },
        {
          "duration": 0.08695652173913082,
          "durationTicks": 8,
          "midi": 84,
          "name": "C6",
          "ticks": 1246,
          "time": 13.543478260869565,
          "velocity": 0.15748031496062992
        },
        {
          "duration": 0.021739130434781373,
          "durationTicks": 2,
          "midi": 58,
          "name": "A#3",
          "ticks": 1247,
          "time": 13.554347826086957,
          "velocity": 0.47244094488188976
        },
        {
          "duration": 0.02173913043478315,
          "durationTicks": 2,
          "midi": 39,
          "name": "D#2",
          "ticks": 1248,
          "time": 13.565217391304348,
          "velocity": 0.4330708661417323
        },
        {
          "duration": 0.02173913043478315,
          "durationTicks": 2,
          "midi": 59,
          "name": "B3",
          "ticks": 1249,
          "time": 13.576086956521738,
          "velocity": 0.23622047244094488
        },
        {
          "duration": 0.02173913043478315,
          "durationTicks": 2,
          "midi": 40,
          "name": "E2",
          "ticks": 1251,
          "time": 13.597826086956522,
          "velocity": 0.30708661417322836
        },
        {
          "duration": 0.02173913043478315,
          "durationTicks": 2,
          "midi": 52,
          "name": "E3",
          "ticks": 1251,
          "time": 13.597826086956522,
          "velocity": 0.36220472440944884
        },
        {
          "duration": 0.02173913043478315,
          "durationTicks": 2,
          "midi": 52,
          "name": "E3",
          "ticks": 1254,
          "time": 13.630434782608695,
          "velocity": 0.36220472440944884
        },
        {
          "duration": 0.02173913043478315,
          "durationTicks": 2,
          "midi": 58,
          "name": "A#3",
          "ticks": 1254,
          "time": 13.630434782608695,
          "velocity": 0.33858267716535434
        },
        {
          "duration": 0.04347826086956452,
          "durationTicks": 4,
          "midi": 57,
          "name": "A3",
          "ticks": 1256,
          "time": 13.652173913043478,
          "velocity": 0.2283464566929134
        },
        {
          "duration": 0.021739130434781373,
          "durationTicks": 2,
          "midi": 37,
          "name": "C#2",
          "ticks": 1258,
          "time": 13.673913043478262,
          "velocity": 0.36220472440944884
        },
        {
          "duration": 0.06521739130434767,
          "durationTicks": 6,
          "midi": 65,
          "name": "F4",
          "ticks": 1258,
          "time": 13.673913043478262,
          "velocity": 0.10236220472440945
        },
        {
          "duration": 0.021739130434781373,
          "durationTicks": 2,
          "midi": 58,
          "name": "A#3",
          "ticks": 1264,
          "time": 13.73913043478261,
          "velocity": 0.4330708661417323
        },
        {
          "duration": 0.032608695652173836,
          "durationTicks": 3,
          "midi": 57,
          "name": "A3",
          "ticks": 1266,
          "time": 13.76086956521739,
          "velocity": 0.3937007874015748
        },
        {
          "duration": 0.03260869565217561,
          "durationTicks": 3,
          "midi": 49,
          "name": "C#3",
          "ticks": 1275,
          "time": 13.858695652173912,
          "velocity": 0.3464566929133858
        },
        {
          "duration": 0.04347826086956452,
          "durationTicks": 4,
          "midi": 56,
          "name": "G#3",
          "ticks": 1276,
          "time": 13.869565217391305,
          "velocity": 0.28346456692913385
        },
        {
          "duration": 0.032608695652173836,
          "durationTicks": 3,
          "midi": 47,
          "name": "B2",
          "ticks": 1278,
          "time": 13.891304347826088,
          "velocity": 0.5039370078740157
        },
        {
          "duration": 0.02173913043478315,
          "durationTicks": 2,
          "midi": 32,
          "name": "G#1",
          "ticks": 1279,
          "time": 13.902173913043478,
          "velocity": 0.33858267716535434
        },
        {
          "duration": 0.22826086956521685,
          "durationTicks": 21,
          "midi": 48,
          "name": "C3",
          "ticks": 1281,
          "time": 13.923913043478262,
          "velocity": 0.4566929133858268
        },
        {
          "duration": 0.02173913043478315,
          "durationTicks": 2,
          "midi": 36,
          "name": "C2",
          "ticks": 1286,
          "time": 13.978260869565217,
          "velocity": 0.4015748031496063
        },
        {
          "duration": 0.13043478260869712,
          "durationTicks": 12,
          "midi": 36,
          "name": "C2",
          "ticks": 1289,
          "time": 14.01086956521739,
          "velocity": 0.3937007874015748
        },
        {
          "duration": 0.02173913043478315,
          "durationTicks": 2,
          "midi": 55,
          "name": "G3",
          "ticks": 1295,
          "time": 14.076086956521738,
          "velocity": 0.23622047244094488
        },
        {
          "duration": 0.02173913043478315,
          "durationTicks": 2,
          "midi": 56,
          "name": "G#3",
          "ticks": 1297,
          "time": 14.097826086956522,
          "velocity": 0.23622047244094488
        },
        {
          "duration": 0.021739130434781373,
          "durationTicks": 2,
          "midi": 57,
          "name": "A3",
          "ticks": 1301,
          "time": 14.141304347826088,
          "velocity": 0.33070866141732286
        },
        {
          "duration": 0.2608695652173907,
          "durationTicks": 24,
          "midi": 67,
          "name": "G4",
          "ticks": 1302,
          "time": 14.152173913043478,
          "velocity": 0.4881889763779528
        },
        {
          "duration": 0.02173913043478315,
          "durationTicks": 2,
          "midi": 38,
          "name": "D2",
          "ticks": 1303,
          "time": 14.16304347826087,
          "velocity": 0.36220472440944884
        },
        {
          "duration": 0.02173913043478315,
          "durationTicks": 2,
          "midi": 54,
          "name": "F#3",
          "ticks": 1303,
          "time": 14.16304347826087,
          "velocity": 0.49606299212598426
        },
        {
          "duration": 0.02173913043478315,
          "durationTicks": 2,
          "midi": 60,
          "name": "C4",
          "ticks": 1303,
          "time": 14.16304347826087,
          "velocity": 0.2992125984251969
        },
        {
          "duration": 0.13043478260869534,
          "durationTicks": 12,
          "midi": 86,
          "name": "D6",
          "ticks": 1303,
          "time": 14.16304347826087,
          "velocity": 0.25984251968503935
        },
        {
          "duration": 0.021739130434781373,
          "durationTicks": 2,
          "midi": 49,
          "name": "C#3",
          "ticks": 1304,
          "time": 14.173913043478262,
          "velocity": 0.3937007874015748
        },
        {
          "duration": 0.02173913043478315,
          "durationTicks": 2,
          "midi": 36,
          "name": "C2",
          "ticks": 1305,
          "time": 14.184782608695652,
          "velocity": 0.3464566929133858
        },
        {
          "duration": 0.06521739130434767,
          "durationTicks": 6,
          "midi": 55,
          "name": "G3",
          "ticks": 1305,
          "time": 14.184782608695652,
          "velocity": 0.5118110236220472
        },
        {
          "duration": 0.0434782608695663,
          "durationTicks": 4,
          "midi": 36,
          "name": "C2",
          "ticks": 1309,
          "time": 14.228260869565217,
          "velocity": 0.33858267716535434
        },
        {
          "duration": 0.2391304347826093,
          "durationTicks": 22,
          "midi": 64,
          "name": "E4",
          "ticks": 1309,
          "time": 14.228260869565217,
          "velocity": 0.2992125984251969
        },
        {
          "duration": 0.11956521739130288,
          "durationTicks": 11,
          "midi": 60,
          "name": "C4",
          "ticks": 1310,
          "time": 14.23913043478261,
          "velocity": 0.1889763779527559
        },
        {
          "duration": 0.032608695652173836,
          "durationTicks": 3,
          "midi": 36,
          "name": "C2",
          "ticks": 1314,
          "time": 14.282608695652174,
          "velocity": 0.2125984251968504
        },
        {
          "duration": 0.04347826086956452,
          "durationTicks": 4,
          "midi": 48,
          "name": "C3",
          "ticks": 1324,
          "time": 14.391304347826088,
          "velocity": 0.44881889763779526
        },
        {
          "duration": 0.02173913043478315,
          "durationTicks": 2,
          "midi": 55,
          "name": "G3",
          "ticks": 1325,
          "time": 14.402173913043478,
          "velocity": 0.33070866141732286
        },
        {
          "duration": 0.02173913043478315,
          "durationTicks": 2,
          "midi": 47,
          "name": "B2",
          "ticks": 1329,
          "time": 14.445652173913043,
          "velocity": 0.2992125984251969
        },
        {
          "duration": 0.021739130434781373,
          "durationTicks": 2,
          "midi": 37,
          "name": "C#2",
          "ticks": 1330,
          "time": 14.456521739130435,
          "velocity": 0.30708661417322836
        },
        {
          "duration": 0.021739130434781373,
          "durationTicks": 2,
          "midi": 43,
          "name": "G2",
          "ticks": 1333,
          "time": 14.48913043478261,
          "velocity": 0.4409448818897638
        },
        {
          "duration": 0.04347826086956452,
          "durationTicks": 4,
          "midi": 64,
          "name": "E4",
          "ticks": 1333,
          "time": 14.48913043478261,
          "velocity": 0.15748031496062992
        },
        {
          "duration": 0.08695652173913082,
          "durationTicks": 8,
          "midi": 55,
          "name": "G3",
          "ticks": 1334,
          "time": 14.5,
          "velocity": 0.44881889763779526
        },
        {
          "duration": 0.021739130434781373,
          "durationTicks": 2,
          "midi": 46,
          "name": "A#2",
          "ticks": 1336,
          "time": 14.521739130434783,
          "velocity": 0.4251968503937008
        },
        {
          "duration": 0.02173913043478315,
          "durationTicks": 2,
          "midi": 45,
          "name": "A2",
          "ticks": 1338,
          "time": 14.543478260869565,
          "velocity": 0.33070866141732286
        },
        {
          "duration": 0.1521739130434785,
          "durationTicks": 14,
          "midi": 60,
          "name": "C4",
          "ticks": 1348,
          "time": 14.652173913043478,
          "velocity": 0.36220472440944884
        },
        {
          "duration": 0.23913043478260754,
          "durationTicks": 22,
          "midi": 67,
          "name": "G4",
          "ticks": 1350,
          "time": 14.673913043478262,
          "velocity": 0.41732283464566927
        },
        {
          "duration": 0.06521739130434767,
          "durationTicks": 6,
          "midi": 84,
          "name": "C6",
          "ticks": 1352,
          "time": 14.695652173913043,
          "velocity": 0.16535433070866143
        },
        {
          "duration": 0.054347826086956985,
          "durationTicks": 5,
          "midi": 55,
          "name": "G3",
          "ticks": 1354,
          "time": 14.717391304347826,
          "velocity": 0.3228346456692913
        },
        {
          "duration": 0.021739130434781373,
          "durationTicks": 2,
          "midi": 56,
          "name": "G#3",
          "ticks": 1359,
          "time": 14.771739130434783,
          "velocity": 0.3543307086614173
        },
        {
          "duration": 0.032608695652173836,
          "durationTicks": 3,
          "midi": 49,
          "name": "C#3",
          "ticks": 1361,
          "time": 14.793478260869565,
          "velocity": 0.5748031496062992
        },
        {
          "duration": 0.054347826086956985,
          "durationTicks": 5,
          "midi": 91,
          "name": "G6",
          "ticks": 1361,
          "time": 14.793478260869565,
          "velocity": 0.07874015748031496
        },
        {
          "duration": 0.010869565217390686,
          "durationTicks": 1,
          "midi": 54,
          "name": "F#3",
          "ticks": 1362,
          "time": 14.804347826086957,
          "velocity": 0.5826771653543307
        },
        {
          "duration": 0.05434782608695521,
          "durationTicks": 5,
          "midi": 76,
          "name": "E5",
          "ticks": 1362,
          "time": 14.804347826086957,
          "velocity": 0.14960629921259844
        },
        {
          "duration": 0.05434782608695521,
          "durationTicks": 5,
          "midi": 101,
          "name": "F7",
          "ticks": 1362,
          "time": 14.804347826086957,
          "velocity": 0.1732283464566929
        },
        {
          "duration": 0.032608695652173836,
          "durationTicks": 3,
          "midi": 55,
          "name": "G3",
          "ticks": 1363,
          "time": 14.815217391304348,
          "velocity": 0.5669291338582677
        },
        {
          "duration": 0.02173913043478315,
          "durationTicks": 2,
          "midi": 39,
          "name": "D#2",
          "ticks": 1364,
          "time": 14.826086956521738,
          "velocity": 0.36220472440944884
        },
        {
          "duration": 0.032608695652173836,
          "durationTicks": 3,
          "midi": 60,
          "name": "C4",
          "ticks": 1366,
          "time": 14.847826086956522,
          "velocity": 0.2992125984251969
        },
        {
          "duration": 0.1521739130434785,
          "durationTicks": 14,
          "midi": 50,
          "name": "D3",
          "ticks": 1367,
          "time": 14.858695652173912,
          "velocity": 0.5118110236220472
        },
        {
          "duration": 0.032608695652173836,
          "durationTicks": 3,
          "midi": 37,
          "name": "C#2",
          "ticks": 1369,
          "time": 14.880434782608695,
          "velocity": 0.3937007874015748
        },
        {
          "duration": 0.032608695652173836,
          "durationTicks": 3,
          "midi": 64,
          "name": "E4",
          "ticks": 1370,
          "time": 14.891304347826088,
          "velocity": 0.1889763779527559
        },
        {
          "duration": 0.032608695652173836,
          "durationTicks": 3,
          "midi": 38,
          "name": "D2",
          "ticks": 1374,
          "time": 14.934782608695652,
          "velocity": 0.3543307086614173
        },
        {
          "duration": 0.3478260869565215,
          "durationTicks": 32,
          "midi": 65,
          "name": "F4",
          "ticks": 1377,
          "time": 14.967391304347826,
          "velocity": 0.25196850393700787
        },
        {
          "duration": 0.02173913043478315,
          "durationTicks": 2,
          "midi": 57,
          "name": "A3",
          "ticks": 1378,
          "time": 14.978260869565217,
          "velocity": 0.2992125984251969
        },
        {
          "duration": 0.06521739130434767,
          "durationTicks": 6,
          "midi": 57,
          "name": "A3",
          "ticks": 1383,
          "time": 15.032608695652174,
          "velocity": 0.2992125984251969
        },
        {
          "duration": 0.02173913043478315,
          "durationTicks": 2,
          "midi": 57,
          "name": "A3",
          "ticks": 1390,
          "time": 15.108695652173912,
          "velocity": 0.49606299212598426
        },
        {
          "duration": 0.010869565217392463,
          "durationTicks": 1,
          "midi": 56,
          "name": "G#3",
          "ticks": 1392,
          "time": 15.130434782608695,
          "velocity": 0.5590551181102362
        },
        {
          "duration": 0.2717391304347814,
          "durationTicks": 25,
          "midi": 57,
          "name": "A3",
          "ticks": 1393,
          "time": 15.141304347826088,
          "velocity": 0.5433070866141733
        },
        {
          "duration": 0.20652173913043548,
          "durationTicks": 19,
          "midi": 41,
          "name": "F2",
          "ticks": 1398,
          "time": 15.195652173913043,
          "velocity": 0.41732283464566927
        },
        {
          "duration": 0.16304347826086918,
          "durationTicks": 15,
          "midi": 65,
          "name": "F4",
          "ticks": 1416,
          "time": 15.391304347826088,
          "velocity": 0.44881889763779526
        },
        {
          "duration": 0.02173913043478315,
          "durationTicks": 2,
          "midi": 42,
          "name": "F#2",
          "ticks": 1417,
          "time": 15.402173913043478,
          "velocity": 0.36220472440944884
        },
        {
          "duration": 0.13043478260869534,
          "durationTicks": 12,
          "midi": 72,
          "name": "C5",
          "ticks": 1417,
          "time": 15.402173913043478,
          "velocity": 0.3779527559055118
        },
        {
          "duration": 0.09782608695652151,
          "durationTicks": 9,
          "midi": 91,
          "name": "G6",
          "ticks": 1418,
          "time": 15.41304347826087,
          "velocity": 0.13385826771653545
        },
        {
          "duration": 0.021739130434781373,
          "durationTicks": 2,
          "midi": 59,
          "name": "B3",
          "ticks": 1419,
          "time": 15.423913043478262,
          "velocity": 0.4881889763779528
        },
        {
          "duration": 0.08695652173912904,
          "durationTicks": 8,
          "midi": 93,
          "name": "A6",
          "ticks": 1419,
          "time": 15.423913043478262,
          "velocity": 0.11023622047244094
        },
        {
          "duration": 0.02173913043478315,
          "durationTicks": 2,
          "midi": 43,
          "name": "G2",
          "ticks": 1420,
          "time": 15.434782608695652,
          "velocity": 0.30708661417322836
        },
        {
          "duration": 0.032608695652173836,
          "durationTicks": 3,
          "midi": 79,
          "name": "G5",
          "ticks": 1420,
          "time": 15.434782608695652,
          "velocity": 0.11023622047244094
        },
        {
          "duration": 0.02173913043478315,
          "durationTicks": 2,
          "midi": 57,
          "name": "A3",
          "ticks": 1421,
          "time": 15.445652173913043,
          "velocity": 0.47244094488188976
        },
        {
          "duration": 0.032608695652173836,
          "durationTicks": 3,
          "midi": 88,
          "name": "E6",
          "ticks": 1422,
          "time": 15.456521739130435,
          "velocity": 0.11811023622047244
        },
        {
          "duration": 0.010869565217390686,
          "durationTicks": 1,
          "midi": 58,
          "name": "A#3",
          "ticks": 1423,
          "time": 15.467391304347826,
          "velocity": 0.5118110236220472
        },
        {
          "duration": 0.16304347826087096,
          "durationTicks": 15,
          "midi": 57,
          "name": "A3",
          "ticks": 1424,
          "time": 15.478260869565217,
          "velocity": 0.48031496062992124
        },
        {
          "duration": 0.09782608695652151,
          "durationTicks": 9,
          "midi": 65,
          "name": "F4",
          "ticks": 1437,
          "time": 15.619565217391305,
          "velocity": 0.1732283464566929
        },
        {
          "duration": 0.032608695652173836,
          "durationTicks": 3,
          "midi": 47,
          "name": "B2",
          "ticks": 1439,
          "time": 15.641304347826088,
          "velocity": 0.33858267716535434
        },
        {
          "duration": 0.032608695652173836,
          "durationTicks": 3,
          "midi": 55,
          "name": "G3",
          "ticks": 1439,
          "time": 15.641304347826088,
          "velocity": 0.25196850393700787
        },
        {
          "duration": 0.032608695652173836,
          "durationTicks": 3,
          "midi": 56,
          "name": "G#3",
          "ticks": 1442,
          "time": 15.673913043478262,
          "velocity": 0.14173228346456693
        },
        {
          "duration": 0.02173913043478315,
          "durationTicks": 2,
          "midi": 40,
          "name": "E2",
          "ticks": 1443,
          "time": 15.684782608695652,
          "velocity": 0.2283464566929134
        },
        {
          "duration": 0.021739130434781373,
          "durationTicks": 2,
          "midi": 57,
          "name": "A3",
          "ticks": 1445,
          "time": 15.706521739130435,
          "velocity": 0.23622047244094488
        },
        {
          "duration": 0.22826086956521685,
          "durationTicks": 21,
          "midi": 60,
          "name": "C4",
          "ticks": 1446,
          "time": 15.717391304347826,
          "velocity": 0.5118110236220472
        },
        {
          "duration": 0.032608695652173836,
          "durationTicks": 3,
          "midi": 49,
          "name": "C#3",
          "ticks": 1447,
          "time": 15.728260869565217,
          "velocity": 0.5590551181102362
        },
        {
          "duration": 0.0434782608695663,
          "durationTicks": 4,
          "midi": 79,
          "name": "G5",
          "ticks": 1447,
          "time": 15.728260869565217,
          "velocity": 0.1732283464566929
        },
        {
          "duration": 0.10869565217391397,
          "durationTicks": 10,
          "midi": 94,
          "name": "A#6",
          "ticks": 1447,
          "time": 15.728260869565217,
          "velocity": 0.1968503937007874
        },
        {
          "duration": 0.07608695652174013,
          "durationTicks": 7,
          "midi": 96,
          "name": "C7",
          "ticks": 1447,
          "time": 15.728260869565217,
          "velocity": 0.1732283464566929
        },
        {
          "duration": 0.06521739130434767,
          "durationTicks": 6,
          "midi": 100,
          "name": "E7",
          "ticks": 1447,
          "time": 15.728260869565217,
          "velocity": 0.18110236220472442
        },
        {
          "duration": 0.021739130434781373,
          "durationTicks": 2,
          "midi": 69,
          "name": "A4",
          "ticks": 1448,
          "time": 15.73913043478261,
          "velocity": 0.2283464566929134
        },
        {
          "duration": 0.032608695652173836,
          "durationTicks": 3,
          "midi": 48,
          "name": "C3",
          "ticks": 1450,
          "time": 15.76086956521739,
          "velocity": 0.4881889763779528
        },
        {
          "duration": 0.010869565217390686,
          "durationTicks": 1,
          "midi": 35,
          "name": "B1",
          "ticks": 1451,
          "time": 15.771739130434783,
          "velocity": 0.5118110236220472
        },
        {
          "duration": 0.010869565217390686,
          "durationTicks": 1,
          "midi": 36,
          "name": "C2",
          "ticks": 1452,
          "time": 15.782608695652174,
          "velocity": 0.5118110236220472
        },
        {
          "duration": 0.054347826086956985,
          "durationTicks": 5,
          "midi": 55,
          "name": "G3",
          "ticks": 1452,
          "time": 15.782608695652174,
          "velocity": 0.2755905511811024
        },
        {
          "duration": 0.2391304347826093,
          "durationTicks": 22,
          "midi": 36,
          "name": "C2",
          "ticks": 1454,
          "time": 15.804347826086957,
          "velocity": 0.49606299212598426
        },
        {
          "duration": 0.032608695652173836,
          "durationTicks": 3,
          "midi": 55,
          "name": "G3",
          "ticks": 1464,
          "time": 15.91304347826087,
          "velocity": 0.31496062992125984
        },
        {
          "duration": 0.02173913043478315,
          "durationTicks": 2,
          "midi": 56,
          "name": "G#3",
          "ticks": 1469,
          "time": 15.967391304347826,
          "velocity": 0.4330708661417323
        },
        {
          "duration": 0.021739130434781373,
          "durationTicks": 2,
          "midi": 55,
          "name": "G3",
          "ticks": 1471,
          "time": 15.98913043478261,
          "velocity": 0.2677165354330709
        },
        {
          "duration": 0.021739130434784926,
          "durationTicks": 2,
          "midi": 56,
          "name": "G#3",
          "ticks": 1473,
          "time": 16.01086956521739,
          "velocity": 0.3228346456692913
        },
        {
          "duration": 0.21739130434782794,
          "durationTicks": 20,
          "midi": 65,
          "name": "F4",
          "ticks": 1474,
          "time": 16.02173913043478,
          "velocity": 0.5511811023622047
        },
        {
          "duration": 0.16304347826087096,
          "durationTicks": 15,
          "midi": 84,
          "name": "C6",
          "ticks": 1474,
          "time": 16.02173913043478,
          "velocity": 0.3779527559055118
        },
        {
          "duration": 0.021739130434784926,
          "durationTicks": 2,
          "midi": 85,
          "name": "C#6",
          "ticks": 1474,
          "time": 16.02173913043478,
          "velocity": 0.23622047244094488
        },
        {
          "duration": 0.14130434782608603,
          "durationTicks": 13,
          "midi": 57,
          "name": "A3",
          "ticks": 1475,
          "time": 16.032608695652176,
          "velocity": 0.6141732283464567
        },
        {
          "duration": 0.10869565217391042,
          "durationTicks": 10,
          "midi": 93,
          "name": "A6",
          "ticks": 1475,
          "time": 16.032608695652176,
          "velocity": 0.11811023622047244
        },
        {
          "duration": 0.08695652173912904,
          "durationTicks": 8,
          "midi": 99,
          "name": "D#7",
          "ticks": 1475,
          "time": 16.032608695652176,
          "velocity": 0.12598425196850394
        },
        {
          "duration": 0.021739130434781373,
          "durationTicks": 2,
          "midi": 37,
          "name": "C#2",
          "ticks": 1476,
          "time": 16.043478260869566,
          "velocity": 0.41732283464566927
        },
        {
          "duration": 0.03260869565217206,
          "durationTicks": 3,
          "midi": 72,
          "name": "C5",
          "ticks": 1476,
          "time": 16.043478260869566,
          "velocity": 0.09448818897637795
        },
        {
          "duration": 0.021739130434781373,
          "durationTicks": 2,
          "midi": 46,
          "name": "A#2",
          "ticks": 1477,
          "time": 16.054347826086957,
          "velocity": 0.3858267716535433
        },
        {
          "duration": 0.11956521739130466,
          "durationTicks": 11,
          "midi": 81,
          "name": "A5",
          "ticks": 1477,
          "time": 16.054347826086957,
          "velocity": 0.25984251968503935
        },
        {
          "duration": 0.0434782608695663,
          "durationTicks": 4,
          "midi": 100,
          "name": "E7",
          "ticks": 1477,
          "time": 16.054347826086957,
          "velocity": 0.15748031496062992
        },
        {
          "duration": 0.021739130434784926,
          "durationTicks": 2,
          "midi": 43,
          "name": "G2",
          "ticks": 1479,
          "time": 16.07608695652174,
          "velocity": 0.3228346456692913
        },
        {
          "duration": 0.03260869565217206,
          "durationTicks": 3,
          "midi": 31,
          "name": "G1",
          "ticks": 1487,
          "time": 16.16304347826087,
          "velocity": 0.2440944881889764
        },
        {
          "duration": 0.021739130434781373,
          "durationTicks": 2,
          "midi": 56,
          "name": "G#3",
          "ticks": 1490,
          "time": 16.195652173913043,
          "velocity": 0.25196850393700787
        },
        {
          "duration": 0.021739130434781373,
          "durationTicks": 2,
          "midi": 37,
          "name": "C#2",
          "ticks": 1494,
          "time": 16.23913043478261,
          "velocity": 0.31496062992125984
        },
        {
          "duration": 0.03260869565217561,
          "durationTicks": 3,
          "midi": 42,
          "name": "F#2",
          "ticks": 1496,
          "time": 16.26086956521739,
          "velocity": 0.3464566929133858
        },
        {
          "duration": 0.03260869565217561,
          "durationTicks": 3,
          "midi": 65,
          "name": "F4",
          "ticks": 1496,
          "time": 16.26086956521739,
          "velocity": 0.07874015748031496
        },
        {
          "duration": 0.021739130434784926,
          "durationTicks": 2,
          "midi": 37,
          "name": "C#2",
          "ticks": 1502,
          "time": 16.32608695652174,
          "velocity": 0.30708661417322836
        },
        {
          "duration": 0.10869565217391397,
          "durationTicks": 10,
          "midi": 65,
          "name": "F4",
          "ticks": 1502,
          "time": 16.32608695652174,
          "velocity": 0.48031496062992124
        },
        {
          "duration": 0.0434782608695663,
          "durationTicks": 4,
          "midi": 57,
          "name": "A3",
          "ticks": 1503,
          "time": 16.33695652173913,
          "velocity": 0.5511811023622047
        },
        {
          "duration": 0.14130434782608958,
          "durationTicks": 13,
          "midi": 84,
          "name": "C6",
          "ticks": 1503,
          "time": 16.33695652173913,
          "velocity": 0.44881889763779526
        },
        {
          "duration": 0.03260869565217206,
          "durationTicks": 3,
          "midi": 68,
          "name": "G#4",
          "ticks": 1504,
          "time": 16.347826086956523,
          "velocity": 0.2204724409448819
        },
        {
          "duration": 0.03260869565217561,
          "durationTicks": 3,
          "midi": 69,
          "name": "A4",
          "ticks": 1507,
          "time": 16.380434782608695,
          "velocity": 0.15748031496062992
        },
        {
          "duration": 0.021739130434784926,
          "durationTicks": 2,
          "midi": 41,
          "name": "F2",
          "ticks": 1508,
          "time": 16.391304347826086,
          "velocity": 0.3858267716535433
        },
        {
          "duration": 0.0869565217391326,
          "durationTicks": 8,
          "midi": 53,
          "name": "F3",
          "ticks": 1508,
          "time": 16.391304347826086,
          "velocity": 0.4409448818897638
        },
        {
          "duration": 0.043478260869562746,
          "durationTicks": 4,
          "midi": 78,
          "name": "F#5",
          "ticks": 1511,
          "time": 16.42391304347826,
          "velocity": 0.15748031496062992
        },
        {
          "duration": 0.021739130434781373,
          "durationTicks": 2,
          "midi": 42,
          "name": "F#2",
          "ticks": 1512,
          "time": 16.434782608695652,
          "velocity": 0.4566929133858268
        },
        {
          "duration": 0.021739130434781373,
          "durationTicks": 2,
          "midi": 85,
          "name": "C#6",
          "ticks": 1512,
          "time": 16.434782608695652,
          "velocity": 0.2283464566929134
        },
        {
          "duration": 0.21739130434782794,
          "durationTicks": 20,
          "midi": 67,
          "name": "G4",
          "ticks": 1513,
          "time": 16.445652173913043,
          "velocity": 0.5196850393700787
        },
        {
          "duration": 0.20652173913043725,
          "durationTicks": 19,
          "midi": 41,
          "name": "F2",
          "ticks": 1514,
          "time": 16.456521739130434,
          "velocity": 0.49606299212598426
        },
        {
          "duration": 0.21739130434782794,
          "durationTicks": 20,
          "midi": 86,
          "name": "D6",
          "ticks": 1514,
          "time": 16.456521739130434,
          "velocity": 0.30708661417322836
        },
        {
          "duration": 0.3369565217391326,
          "durationTicks": 31,
          "midi": 84,
          "name": "C6",
          "ticks": 1532,
          "time": 16.652173913043477,
          "velocity": 0.31496062992125984
        },
        {
          "duration": 0.021739130434781373,
          "durationTicks": 2,
          "midi": 42,
          "name": "F#2",
          "ticks": 1533,
          "time": 16.66304347826087,
          "velocity": 0.4881889763779528
        },
        {
          "duration": 0.021739130434781373,
          "durationTicks": 2,
          "midi": 57,
          "name": "A3",
          "ticks": 1533,
          "time": 16.66304347826087,
          "velocity": 0.49606299212598426
        },
        {
          "duration": 0.043478260869562746,
          "durationTicks": 4,
          "midi": 89,
          "name": "F6",
          "ticks": 1533,
          "time": 16.66304347826087,
          "velocity": 0.07874015748031496
        },
        {
          "duration": 0.10869565217391042,
          "durationTicks": 10,
          "midi": 93,
          "name": "A6",
          "ticks": 1533,
          "time": 16.66304347826087,
          "velocity": 0.14960629921259844
        },
        {
          "duration": 0.31521739130434767,
          "durationTicks": 29,
          "midi": 65,
          "name": "F4",
          "ticks": 1534,
          "time": 16.67391304347826,
          "velocity": 0.5196850393700787
        },
        {
          "duration": 0.021739130434781373,
          "durationTicks": 2,
          "midi": 40,
          "name": "E2",
          "ticks": 1535,
          "time": 16.684782608695652,
          "velocity": 0.3779527559055118
        },
        {
          "duration": 0.03260869565217206,
          "durationTicks": 3,
          "midi": 53,
          "name": "F3",
          "ticks": 1535,
          "time": 16.684782608695652,
          "velocity": 0.3543307086614173
        },
        {
          "duration": 0.03260869565217206,
          "durationTicks": 3,
          "midi": 58,
          "name": "A#3",
          "ticks": 1535,
          "time": 16.684782608695652,
          "velocity": 0.47244094488188976
        },
        {
          "duration": 0.0869565217391326,
          "durationTicks": 8,
          "midi": 57,
          "name": "A3",
          "ticks": 1538,
          "time": 16.717391304347824,
          "velocity": 0.33858267716535434
        },
        {
          "duration": 0.054347826086956985,
          "durationTicks": 5,
          "midi": 53,
          "name": "F3",
          "ticks": 1541,
          "time": 16.75,
          "velocity": 0.23622047244094488
        },
        {
          "duration": 0.021739130434784926,
          "durationTicks": 2,
          "midi": 46,
          "name": "A#2",
          "ticks": 1549,
          "time": 16.83695652173913,
          "velocity": 0.23622047244094488
        },
        {
          "duration": 0.10869565217391042,
          "durationTicks": 10,
          "midi": 89,
          "name": "F6",
          "ticks": 1550,
          "time": 16.847826086956523,
          "velocity": 0.2047244094488189
        },
        {
          "duration": 0.03260869565217206,
          "durationTicks": 3,
          "midi": 56,
          "name": "G#3",
          "ticks": 1551,
          "time": 16.858695652173914,
          "velocity": 0.4330708661417323
        },
        {
          "duration": 0.021739130434781373,
          "durationTicks": 2,
          "midi": 46,
          "name": "A#2",
          "ticks": 1552,
          "time": 16.869565217391305,
          "velocity": 0.36220472440944884
        },
        {
          "duration": 0.0869565217391326,
          "durationTicks": 8,
          "midi": 57,
          "name": "A3",
          "ticks": 1554,
          "time": 16.891304347826086,
          "velocity": 0.4094488188976378
        },
        {
          "duration": 0.03260869565217206,
          "durationTicks": 3,
          "midi": 46,
          "name": "A#2",
          "ticks": 1557,
          "time": 16.92391304347826,
          "velocity": 0.3228346456692913
        },
        {
          "duration": 0.021739130434784926,
          "durationTicks": 2,
          "midi": 49,
          "name": "C#3",
          "ticks": 1561,
          "time": 16.967391304347824,
          "velocity": 0.3937007874015748
        },
        {
          "duration": 0.021739130434781373,
          "durationTicks": 2,
          "midi": 56,
          "name": "G#3",
          "ticks": 1563,
          "time": 16.98913043478261,
          "velocity": 0.33070866141732286
        },
        {
          "duration": 0.021739130434781373,
          "durationTicks": 2,
          "midi": 48,
          "name": "C3",
          "ticks": 1564,
          "time": 17,
          "velocity": 0.3700787401574803
        },
        {
          "duration": 0.054347826086956985,
          "durationTicks": 5,
          "midi": 65,
          "name": "F4",
          "ticks": 1564,
          "time": 17,
          "velocity": 0.2047244094488189
        },
        {
          "duration": 0.021739130434784926,
          "durationTicks": 2,
          "midi": 57,
          "name": "A3",
          "ticks": 1565,
          "time": 17.01086956521739,
          "velocity": 0.28346456692913385
        },
        {
          "duration": 0.021739130434784926,
          "durationTicks": 2,
          "midi": 47,
          "name": "B2",
          "ticks": 1566,
          "time": 17.02173913043478,
          "velocity": 0.3700787401574803
        },
        {
          "duration": 0.10869565217391042,
          "durationTicks": 10,
          "midi": 36,
          "name": "C2",
          "ticks": 1568,
          "time": 17.043478260869566,
          "velocity": 0.4015748031496063
        },
        {
          "duration": 0.07608695652173836,
          "durationTicks": 7,
          "midi": 36,
          "name": "C2",
          "ticks": 1579,
          "time": 17.16304347826087,
          "velocity": 0.4645669291338583
        },
        {
          "duration": 0.06521739130434767,
          "durationTicks": 6,
          "midi": 56,
          "name": "G#3",
          "ticks": 1579,
          "time": 17.16304347826087,
          "velocity": 0.4881889763779528
        },
        {
          "duration": 0.13043478260869534,
          "durationTicks": 12,
          "midi": 74,
          "name": "D5",
          "ticks": 1579,
          "time": 17.16304347826087,
          "velocity": 0.4330708661417323
        },
        {
          "duration": 0.07608695652173836,
          "durationTicks": 7,
          "midi": 81,
          "name": "A5",
          "ticks": 1580,
          "time": 17.17391304347826,
          "velocity": 0.08661417322834646
        },
        {
          "duration": 0.09782608695651973,
          "durationTicks": 9,
          "midi": 96,
          "name": "C7",
          "ticks": 1580,
          "time": 17.17391304347826,
          "velocity": 0.18110236220472442
        },
        {
          "duration": 0.10869565217391397,
          "durationTicks": 10,
          "midi": 62,
          "name": "D4",
          "ticks": 1581,
          "time": 17.184782608695652,
          "velocity": 0.4566929133858268
        },
        {
          "duration": 0.08695652173912904,
          "durationTicks": 8,
          "midi": 93,
          "name": "A6",
          "ticks": 1581,
          "time": 17.184782608695652,
          "velocity": 0.1889763779527559
        },
        {
          "duration": 0.06521739130434767,
          "durationTicks": 6,
          "midi": 57,
          "name": "A3",
          "ticks": 1585,
          "time": 17.22826086956522,
          "velocity": 0.48031496062992124
        },
        {
          "duration": 0.021739130434781373,
          "durationTicks": 2,
          "midi": 35,
          "name": "B1",
          "ticks": 1586,
          "time": 17.23913043478261,
          "velocity": 0.3543307086614173
        },
        {
          "duration": 0.22826086956521863,
          "durationTicks": 21,
          "midi": 65,
          "name": "F4",
          "ticks": 1588,
          "time": 17.26086956521739,
          "velocity": 0.4330708661417323
        },
        {
          "duration": 0.021739130434781373,
          "durationTicks": 2,
          "midi": 36,
          "name": "C2",
          "ticks": 1590,
          "time": 17.282608695652176,
          "velocity": 0.28346456692913385
        },
        {
          "duration": 0.03260869565217206,
          "durationTicks": 3,
          "midi": 81,
          "name": "A5",
          "ticks": 1590,
          "time": 17.282608695652176,
          "velocity": 0.11811023622047244
        },
        {
          "duration": 0.021739130434781373,
          "durationTicks": 2,
          "midi": 58,
          "name": "A#3",
          "ticks": 1591,
          "time": 17.293478260869566,
          "velocity": 0.6062992125984252
        },
        {
          "duration": 0.19565217391304301,
          "durationTicks": 18,
          "midi": 69,
          "name": "A4",
          "ticks": 1591,
          "time": 17.293478260869566,
          "velocity": 0.25196850393700787
        },
        {
          "duration": 0.09782608695651973,
          "durationTicks": 9,
          "midi": 84,
          "name": "C6",
          "ticks": 1591,
          "time": 17.293478260869566,
          "velocity": 0.2125984251968504
        },
        {
          "duration": 0.16304347826087096,
          "durationTicks": 15,
          "midi": 57,
          "name": "A3",
          "ticks": 1593,
          "time": 17.315217391304348,
          "velocity": 0.5826771653543307
        },
        {
          "duration": 0.03260869565217561,
          "durationTicks": 3,
          "midi": 62,
          "name": "D4",
          "ticks": 1605,
          "time": 17.445652173913043,
          "velocity": 0.31496062992125984
        },
        {
          "duration": 0.16304347826087096,
          "durationTicks": 15,
          "midi": 84,
          "name": "C6",
          "ticks": 1607,
          "time": 17.467391304347824,
          "velocity": 0.41732283464566927
        },
        {
          "duration": 0.03260869565217206,
          "durationTicks": 3,
          "midi": 58,
          "name": "A#3",
          "ticks": 1608,
          "time": 17.47826086956522,
          "velocity": 0.5039370078740157
        },
        {
          "duration": 0.11956521739130466,
          "durationTicks": 11,
          "midi": 89,
          "name": "F6",
          "ticks": 1608,
          "time": 17.47826086956522,
          "velocity": 0.23622047244094488
        },
        {
          "duration": 0.11956521739130466,
          "durationTicks": 11,
          "midi": 65,
          "name": "F4",
          "ticks": 1610,
          "time": 17.5,
          "velocity": 0.5433070866141733
        },
        {
          "duration": 0.0434782608695663,
          "durationTicks": 4,
          "midi": 57,
          "name": "A3",
          "ticks": 1611,
          "time": 17.51086956521739,
          "velocity": 0.3700787401574803
        },
        {
          "duration": 0.0434782608695663,
          "durationTicks": 4,
          "midi": 57,
          "name": "A3",
          "ticks": 1616,
          "time": 17.565217391304348,
          "velocity": 0.29133858267716534
        },
        {
          "duration": 0.021739130434784926,
          "durationTicks": 2,
          "midi": 46,
          "name": "A#2",
          "ticks": 1617,
          "time": 17.57608695652174,
          "velocity": 0.33070866141732286
        },
        {
          "duration": 0.28260869565217206,
          "durationTicks": 26,
          "midi": 46,
          "name": "A#2",
          "ticks": 1620,
          "time": 17.608695652173914,
          "velocity": 0.5275590551181102
        },
        {
          "duration": 0.03260869565217206,
          "durationTicks": 3,
          "midi": 66,
          "name": "F#4",
          "ticks": 1621,
          "time": 17.619565217391305,
          "velocity": 0.5118110236220472
        },
        {
          "duration": 0.36956521739130466,
          "durationTicks": 34,
          "midi": 86,
          "name": "D6",
          "ticks": 1621,
          "time": 17.619565217391305,
          "velocity": 0.23622047244094488
        },
        {
          "duration": 0.021739130434784926,
          "durationTicks": 2,
          "midi": 33,
          "name": "A1",
          "ticks": 1623,
          "time": 17.641304347826086,
          "velocity": 0.3700787401574803
        },
        {
          "duration": 0.26086956521739424,
          "durationTicks": 24,
          "midi": 67,
          "name": "G4",
          "ticks": 1624,
          "time": 17.652173913043477,
          "velocity": 0.49606299212598426
        },
        {
          "duration": 0.2391304347826093,
          "durationTicks": 22,
          "midi": 34,
          "name": "A#1",
          "ticks": 1626,
          "time": 17.67391304347826,
          "velocity": 0.4015748031496063
        },
        {
          "duration": 0.021739130434781373,
          "durationTicks": 2,
          "midi": 53,
          "name": "F3",
          "ticks": 1627,
          "time": 17.684782608695652,
          "velocity": 0.3228346456692913
        },
        {
          "duration": 0.010869565217390686,
          "durationTicks": 1,
          "midi": 58,
          "name": "A#3",
          "ticks": 1648,
          "time": 17.91304347826087,
          "velocity": 0.5196850393700787
        },
        {
          "duration": 0.09782608695651973,
          "durationTicks": 9,
          "midi": 82,
          "name": "A#5",
          "ticks": 1648,
          "time": 17.91304347826087,
          "velocity": 0.1732283464566929
        },
        {
          "duration": 0.14130434782608603,
          "durationTicks": 13,
          "midi": 89,
          "name": "F6",
          "ticks": 1648,
          "time": 17.91304347826087,
          "velocity": 0.23622047244094488
        },
        {
          "duration": 0.010869565217390686,
          "durationTicks": 1,
          "midi": 57,
          "name": "A3",
          "ticks": 1649,
          "time": 17.92391304347826,
          "velocity": 0.6062992125984252
        },
        {
          "duration": 0.608695652173914,
          "durationTicks": 56,
          "midi": 65,
          "name": "F4",
          "ticks": 1649,
          "time": 17.92391304347826,
          "velocity": 0.49606299212598426
        },
        {
          "duration": 0.7391304347826093,
          "durationTicks": 68,
          "midi": 84,
          "name": "C6",
          "ticks": 1649,
          "time": 17.92391304347826,
          "velocity": 0.29133858267716534
        },
        {
          "duration": 0.010869565217390686,
          "durationTicks": 1,
          "midi": 56,
          "name": "G#3",
          "ticks": 1650,
          "time": 17.934782608695652,
          "velocity": 0.5984251968503937
        },
        {
          "duration": 0.11956521739130466,
          "durationTicks": 11,
          "midi": 70,
          "name": "A#4",
          "ticks": 1650,
          "time": 17.934782608695652,
          "velocity": 0.2204724409448819
        },
        {
          "duration": 0.021739130434784926,
          "durationTicks": 2,
          "midi": 47,
          "name": "B2",
          "ticks": 1652,
          "time": 17.956521739130434,
          "velocity": 0.3779527559055118
        },
        {
          "duration": 0.021739130434781373,
          "durationTicks": 2,
          "midi": 46,
          "name": "A#2",
          "ticks": 1654,
          "time": 17.97826086956522,
          "velocity": 0.3700787401574803
        },
        {
          "duration": 0.021739130434781373,
          "durationTicks": 2,
          "midi": 57,
          "name": "A3",
          "ticks": 1654,
          "time": 17.97826086956522,
          "velocity": 0.3779527559055118
        },
        {
          "duration": 0.03260869565217561,
          "durationTicks": 3,
          "midi": 57,
          "name": "A3",
          "ticks": 1658,
          "time": 18.02173913043478,
          "velocity": 0.4251968503937008
        },
        {
          "duration": 0.021739130434784926,
          "durationTicks": 2,
          "midi": 40,
          "name": "E2",
          "ticks": 1664,
          "time": 18.08695652173913,
          "velocity": 0.2283464566929134
        },
        {
          "duration": 0.03260869565217206,
          "durationTicks": 3,
          "midi": 57,
          "name": "A3",
          "ticks": 1667,
          "time": 18.119565217391305,
          "velocity": 0.25984251968503935
        },
        {
          "duration": 0.021739130434781373,
          "durationTicks": 2,
          "midi": 36,
          "name": "C2",
          "ticks": 1668,
          "time": 18.130434782608695,
          "velocity": 0.2992125984251969
        },
        {
          "duration": 0.03260869565217206,
          "durationTicks": 3,
          "midi": 46,
          "name": "A#2",
          "ticks": 1671,
          "time": 18.16304347826087,
          "velocity": 0.31496062992125984
        },
        {
          "duration": 0.18478260869565233,
          "durationTicks": 17,
          "midi": 53,
          "name": "F3",
          "ticks": 1680,
          "time": 18.26086956521739,
          "velocity": 0.44881889763779526
        },
        {
          "duration": 0.021739130434781373,
          "durationTicks": 2,
          "midi": 41,
          "name": "F2",
          "ticks": 1683,
          "time": 18.293478260869566,
          "velocity": 0.49606299212598426
        },
        {
          "duration": 0.19565217391304301,
          "durationTicks": 18,
          "midi": 41,
          "name": "F2",
          "ticks": 1686,
          "time": 18.32608695652174,
          "velocity": 0.4881889763779528
        },
        {
          "duration": 0.07608695652174191,
          "durationTicks": 7,
          "midi": 53,
          "name": "F3",
          "ticks": 1698,
          "time": 18.456521739130434,
          "velocity": 0.5511811023622047
        },
        {
          "duration": 0.06521739130434767,
          "durationTicks": 6,
          "midi": 86,
          "name": "D6",
          "ticks": 1704,
          "time": 18.52173913043478,
          "velocity": 0.11023622047244094
        },
        {
          "duration": 0.010869565217390686,
          "durationTicks": 1,
          "midi": 54,
          "name": "F#3",
          "ticks": 1705,
          "time": 18.532608695652176,
          "velocity": 0.5669291338582677
        },
        {
          "duration": 0.1739130434782581,
          "durationTicks": 16,
          "midi": 70,
          "name": "A#4",
          "ticks": 1705,
          "time": 18.532608695652176,
          "velocity": 0.2440944881889764
        },
        {
          "duration": 0.07608695652173836,
          "durationTicks": 7,
          "midi": 74,
          "name": "D5",
          "ticks": 1705,
          "time": 18.532608695652176,
          "velocity": 0.1968503937007874
        },
        {
          "duration": 0.14130434782608603,
          "durationTicks": 13,
          "midi": 77,
          "name": "F5",
          "ticks": 1705,
          "time": 18.532608695652176,
          "velocity": 0.2677165354330709
        },
        {
          "duration": 0.14130434782608603,
          "durationTicks": 13,
          "midi": 94,
          "name": "A#6",
          "ticks": 1705,
          "time": 18.532608695652176,
          "velocity": 0.2204724409448819
        },
        {
          "duration": 0.021739130434781373,
          "durationTicks": 2,
          "midi": 46,
          "name": "A#2",
          "ticks": 1706,
          "time": 18.543478260869566,
          "velocity": 0.4645669291338583
        },
        {
          "duration": 0.11956521739130466,
          "durationTicks": 11,
          "midi": 53,
          "name": "F3",
          "ticks": 1706,
          "time": 18.543478260869566,
          "velocity": 0.5669291338582677
        },
        {
          "duration": 0.043478260869562746,
          "durationTicks": 4,
          "midi": 81,
          "name": "A5",
          "ticks": 1706,
          "time": 18.543478260869566,
          "velocity": 0.25196850393700787
        },
        {
          "duration": 0.07608695652173836,
          "durationTicks": 7,
          "midi": 98,
          "name": "D7",
          "ticks": 1706,
          "time": 18.543478260869566,
          "velocity": 0.1889763779527559
        },
        {
          "duration": 0.06521739130434767,
          "durationTicks": 6,
          "midi": 62,
          "name": "D4",
          "ticks": 1707,
          "time": 18.554347826086957,
          "velocity": 0.3937007874015748
        },
        {
          "duration": 0.0434782608695663,
          "durationTicks": 4,
          "midi": 46,
          "name": "A#2",
          "ticks": 1709,
          "time": 18.57608695652174,
          "velocity": 0.4566929133858268
        },
        {
          "duration": 0.03260869565217561,
          "durationTicks": 3,
          "midi": 46,
          "name": "A#2",
          "ticks": 1716,
          "time": 18.652173913043477,
          "velocity": 0.2677165354330709
        },
        {
          "duration": 0.03260869565217206,
          "durationTicks": 3,
          "midi": 45,
          "name": "A2",
          "ticks": 1724,
          "time": 18.73913043478261,
          "velocity": 0.33858267716535434
        },
        {
          "duration": 0.021739130434781373,
          "durationTicks": 2,
          "midi": 32,
          "name": "G#1",
          "ticks": 1728,
          "time": 18.782608695652176,
          "velocity": 0.2677165354330709
        },
        {
          "duration": 0.03260869565217206,
          "durationTicks": 3,
          "midi": 36,
          "name": "C2",
          "ticks": 1734,
          "time": 18.847826086956523,
          "velocity": 0.41732283464566927
        },
        {
          "duration": 0.08695652173912904,
          "durationTicks": 8,
          "midi": 65,
          "name": "F4",
          "ticks": 1734,
          "time": 18.847826086956523,
          "velocity": 0.16535433070866143
        },
        {
          "duration": 0.021739130434781373,
          "durationTicks": 2,
          "midi": 55,
          "name": "G3",
          "ticks": 1735,
          "time": 18.858695652173914,
          "velocity": 0.3543307086614173
        },
        {
          "duration": 0.021739130434781373,
          "durationTicks": 2,
          "midi": 37,
          "name": "C#2",
          "ticks": 1737,
          "time": 18.880434782608695,
          "velocity": 0.4251968503937008
        },
        {
          "duration": 0.021739130434781373,
          "durationTicks": 2,
          "midi": 47,
          "name": "B2",
          "ticks": 1737,
          "time": 18.880434782608695,
          "velocity": 0.4645669291338583
        },
        {
          "duration": 0.021739130434781373,
          "durationTicks": 2,
          "midi": 56,
          "name": "G#3",
          "ticks": 1737,
          "time": 18.880434782608695,
          "velocity": 0.3228346456692913
        },
        {
          "duration": 0.07608695652174191,
          "durationTicks": 7,
          "midi": 36,
          "name": "C2",
          "ticks": 1739,
          "time": 18.902173913043477,
          "velocity": 0.3858267716535433
        },
        {
          "duration": 0.25,
          "durationTicks": 23,
          "midi": 48,
          "name": "C3",
          "ticks": 1739,
          "time": 18.902173913043477,
          "velocity": 0.4409448818897638
        },
        {
          "duration": 0.03260869565217206,
          "durationTicks": 3,
          "midi": 36,
          "name": "C2",
          "ticks": 1747,
          "time": 18.98913043478261,
          "velocity": 0.3700787401574803
        },
        {
          "duration": 0.043478260869562746,
          "durationTicks": 4,
          "midi": 58,
          "name": "A#3",
          "ticks": 1752,
          "time": 19.043478260869566,
          "velocity": 0.31496062992125984
        },
        {
          "duration": 0.11956521739130466,
          "durationTicks": 11,
          "midi": 36,
          "name": "C2",
          "ticks": 1753,
          "time": 19.054347826086957,
          "velocity": 0.4251968503937008
        },
        {
          "duration": 0.11956521739130466,
          "durationTicks": 11,
          "midi": 64,
          "name": "E4",
          "ticks": 1761,
          "time": 19.141304347826086,
          "velocity": 0.3464566929133858
        },
        {
          "duration": 0.021739130434784926,
          "durationTicks": 2,
          "midi": 58,
          "name": "A#3",
          "ticks": 1762,
          "time": 19.152173913043477,
          "velocity": 0.44881889763779526
        },
        {
          "duration": 0.16304347826087096,
          "durationTicks": 15,
          "midi": 67,
          "name": "G4",
          "ticks": 1762,
          "time": 19.152173913043477,
          "velocity": 0.49606299212598426
        },
        {
          "duration": 0.10869565217391397,
          "durationTicks": 10,
          "midi": 86,
          "name": "D6",
          "ticks": 1762,
          "time": 19.152173913043477,
          "velocity": 0.2204724409448819
        },
        {
          "duration": 0.043478260869562746,
          "durationTicks": 4,
          "midi": 48,
          "name": "C3",
          "ticks": 1764,
          "time": 19.17391304347826,
          "velocity": 0.3858267716535433
        },
        {
          "duration": 0.08695652173912904,
          "durationTicks": 8,
          "midi": 88,
          "name": "E6",
          "ticks": 1764,
          "time": 19.17391304347826,
          "velocity": 0.11811023622047244
        },
        {
          "duration": 0.07608695652173836,
          "durationTicks": 7,
          "midi": 101,
          "name": "F7",
          "ticks": 1764,
          "time": 19.17391304347826,
          "velocity": 0.13385826771653545
        },
        {
          "duration": 0.11956521739130466,
          "durationTicks": 11,
          "midi": 55,
          "name": "G3",
          "ticks": 1765,
          "time": 19.184782608695652,
          "velocity": 0.44881889763779526
        },
        {
          "duration": 0.054347826086956985,
          "durationTicks": 5,
          "midi": 72,
          "name": "C5",
          "ticks": 1765,
          "time": 19.184782608695652,
          "velocity": 0.2125984251968504
        },
        {
          "duration": 0.09782608695652328,
          "durationTicks": 9,
          "midi": 36,
          "name": "C2",
          "ticks": 1767,
          "time": 19.206521739130434,
          "velocity": 0.3779527559055118
        },
        {
          "duration": 0.03260869565217561,
          "durationTicks": 3,
          "midi": 95,
          "name": "B6",
          "ticks": 1767,
          "time": 19.206521739130434,
          "velocity": 0.07086614173228346
        },
        {
          "duration": 0.0434782608695663,
          "durationTicks": 4,
          "midi": 84,
          "name": "C6",
          "ticks": 1772,
          "time": 19.26086956521739,
          "velocity": 0.13385826771653545
        },
        {
          "duration": 0.0434782608695663,
          "durationTicks": 4,
          "midi": 64,
          "name": "E4",
          "ticks": 1778,
          "time": 19.32608695652174,
          "velocity": 0.14960629921259844
        },
        {
          "duration": 0.0869565217391326,
          "durationTicks": 8,
          "midi": 48,
          "name": "C3",
          "ticks": 1779,
          "time": 19.33695652173913,
          "velocity": 0.3937007874015748
        },
        {
          "duration": 0.021739130434781373,
          "durationTicks": 2,
          "midi": 54,
          "name": "F#3",
          "ticks": 1781,
          "time": 19.358695652173914,
          "velocity": 0.29133858267716534
        },
        {
          "duration": 0.054347826086956985,
          "durationTicks": 5,
          "midi": 55,
          "name": "G3",
          "ticks": 1783,
          "time": 19.380434782608695,
          "velocity": 0.30708661417322836
        },
        {
          "duration": 0.021739130434784926,
          "durationTicks": 2,
          "midi": 37,
          "name": "C#2",
          "ticks": 1784,
          "time": 19.391304347826086,
          "velocity": 0.2677165354330709
        },
        {
          "duration": 0.021739130434781373,
          "durationTicks": 2,
          "midi": 34,
          "name": "A#1",
          "ticks": 1786,
          "time": 19.41304347826087,
          "velocity": 0.29133858267716534
        },
        {
          "duration": 0.03260869565217206,
          "durationTicks": 3,
          "midi": 48,
          "name": "C3",
          "ticks": 1788,
          "time": 19.434782608695652,
          "velocity": 0.30708661417322836
        },
        {
          "duration": 0.03260869565217561,
          "durationTicks": 3,
          "midi": 67,
          "name": "G4",
          "ticks": 1790,
          "time": 19.456521739130434,
          "velocity": 0.11811023622047244
        },
        {
          "duration": 0.11956521739130466,
          "durationTicks": 11,
          "midi": 55,
          "name": "G3",
          "ticks": 1792,
          "time": 19.47826086956522,
          "velocity": 0.4881889763779528
        },
        {
          "duration": 0.11956521739130466,
          "durationTicks": 11,
          "midi": 67,
          "name": "G4",
          "ticks": 1807,
          "time": 19.641304347826086,
          "velocity": 0.2677165354330709
        },
        {
          "duration": 0.03260869565217561,
          "durationTicks": 3,
          "midi": 56,
          "name": "G#3",
          "ticks": 1808,
          "time": 19.652173913043477,
          "velocity": 0.33070866141732286
        },
        {
          "duration": 0.021739130434781373,
          "durationTicks": 2,
          "midi": 47,
          "name": "B2",
          "ticks": 1809,
          "time": 19.66304347826087,
          "velocity": 0.2677165354330709
        },
        {
          "duration": 0.06521739130434767,
          "durationTicks": 6,
          "midi": 86,
          "name": "D6",
          "ticks": 1809,
          "time": 19.66304347826087,
          "velocity": 0.09448818897637795
        },
        {
          "duration": 0.09782608695652328,
          "durationTicks": 9,
          "midi": 55,
          "name": "G3",
          "ticks": 1811,
          "time": 19.684782608695652,
          "velocity": 0.4094488188976378
        },
        {
          "duration": 0.021739130434781373,
          "durationTicks": 2,
          "midi": 48,
          "name": "C3",
          "ticks": 1812,
          "time": 19.695652173913043,
          "velocity": 0.25196850393700787
        },
        {
          "duration": 0.0434782608695663,
          "durationTicks": 4,
          "midi": 60,
          "name": "C4",
          "ticks": 1813,
          "time": 19.706521739130434,
          "velocity": 0.25196850393700787
        },
        {
          "duration": 0.16304347826087096,
          "durationTicks": 15,
          "midi": 86,
          "name": "D6",
          "ticks": 1818,
          "time": 19.76086956521739,
          "velocity": 0.2677165354330709
        },
        {
          "duration": 0.19565217391304301,
          "durationTicks": 18,
          "midi": 67,
          "name": "G4",
          "ticks": 1819,
          "time": 19.77173913043478,
          "velocity": 0.4330708661417323
        },
        {
          "duration": 0.05434782608695343,
          "durationTicks": 5,
          "midi": 49,
          "name": "C#3",
          "ticks": 1820,
          "time": 19.782608695652176,
          "velocity": 0.5433070866141733
        },
        {
          "duration": 0.043478260869562746,
          "durationTicks": 4,
          "midi": 60,
          "name": "C4",
          "ticks": 1820,
          "time": 19.782608695652176,
          "velocity": 0.4015748031496063
        },
        {
          "duration": 0.03260869565217206,
          "durationTicks": 3,
          "midi": 95,
          "name": "B6",
          "ticks": 1820,
          "time": 19.782608695652176,
          "velocity": 0.07086614173228346
        },
        {
          "duration": 0.1630434782608674,
          "durationTicks": 15,
          "midi": 64,
          "name": "E4",
          "ticks": 1821,
          "time": 19.793478260869566,
          "velocity": 0.3464566929133858
        },
        {
          "duration": 0.03260869565217561,
          "durationTicks": 3,
          "midi": 38,
          "name": "D2",
          "ticks": 1823,
          "time": 19.815217391304348,
          "velocity": 0.4015748031496063
        },
        {
          "duration": 0.021739130434784926,
          "durationTicks": 2,
          "midi": 51,
          "name": "D#3",
          "ticks": 1825,
          "time": 19.83695652173913,
          "velocity": 0.3543307086614173
        },
        {
          "duration": 0.2173913043478244,
          "durationTicks": 20,
          "midi": 38,
          "name": "D2",
          "ticks": 1827,
          "time": 19.858695652173914,
          "velocity": 0.4409448818897638
        },
        {
          "duration": 0.03260869565217206,
          "durationTicks": 3,
          "midi": 60,
          "name": "C4",
          "ticks": 1834,
          "time": 19.934782608695652,
          "velocity": 0.11023622047244094
        },
        {
          "duration": 0.03260869565217561,
          "durationTicks": 3,
          "midi": 56,
          "name": "G#3",
          "ticks": 1841,
          "time": 20.01086956521739,
          "velocity": 0.4409448818897638
        },
        {
          "duration": 0.03260869565217206,
          "durationTicks": 3,
          "midi": 57,
          "name": "A3",
          "ticks": 1844,
          "time": 20.043478260869566,
          "velocity": 0.3228346456692913
        },
        {
          "duration": 0.021739130434784926,
          "durationTicks": 2,
          "midi": 37,
          "name": "C#2",
          "ticks": 1847,
          "time": 20.07608695652174,
          "velocity": 0.3464566929133858
        },
        {
          "duration": 0.03260869565217206,
          "durationTicks": 3,
          "midi": 57,
          "name": "A3",
          "ticks": 1850,
          "time": 20.108695652173914,
          "velocity": 0.5275590551181102
        },
        {
          "duration": 0.09782608695651973,
          "durationTicks": 9,
          "midi": 65,
          "name": "F4",
          "ticks": 1850,
          "time": 20.108695652173914,
          "velocity": 0.2992125984251969
        },
        {
          "duration": 0.03260869565217561,
          "durationTicks": 3,
          "midi": 42,
          "name": "F#2",
          "ticks": 1852,
          "time": 20.130434782608695,
          "velocity": 0.5118110236220472
        },
        {
          "duration": 0.010869565217390686,
          "durationTicks": 1,
          "midi": 52,
          "name": "E3",
          "ticks": 1852,
          "time": 20.130434782608695,
          "velocity": 0.5433070866141733
        },
        {
          "duration": 0.06521739130434767,
          "durationTicks": 6,
          "midi": 53,
          "name": "F3",
          "ticks": 1853,
          "time": 20.141304347826086,
          "velocity": 0.5826771653543307
        },
        {
          "duration": 0.06521739130434767,
          "durationTicks": 6,
          "midi": 76,
          "name": "E5",
          "ticks": 1853,
          "time": 20.141304347826086,
          "velocity": 0.07086614173228346
        },
        {
          "duration": 0.01086956521739424,
          "durationTicks": 1,
          "midi": 57,
          "name": "A3",
          "ticks": 1854,
          "time": 20.152173913043477,
          "velocity": 0.5118110236220472
        },
        {
          "duration": 0.2173913043478244,
          "durationTicks": 20,
          "midi": 41,
          "name": "F2",
          "ticks": 1857,
          "time": 20.184782608695652,
          "velocity": 0.4566929133858268
        },
        {
          "duration": 0.07608695652173836,
          "durationTicks": 7,
          "midi": 57,
          "name": "A3",
          "ticks": 1858,
          "time": 20.195652173913043,
          "velocity": 0.5275590551181102
        },
        {
          "duration": 0.03260869565217561,
          "durationTicks": 3,
          "midi": 53,
          "name": "F3",
          "ticks": 1864,
          "time": 20.26086956521739,
          "velocity": 0.4881889763779528
        },
        {
          "duration": 0.054347826086956985,
          "durationTicks": 5,
          "midi": 57,
          "name": "A3",
          "ticks": 1870,
          "time": 20.32608695652174,
          "velocity": 0.4645669291338583
        },
        {
          "duration": 0.021739130434784926,
          "durationTicks": 2,
          "midi": 66,
          "name": "F#4",
          "ticks": 1876,
          "time": 20.391304347826086,
          "velocity": 0.29133858267716534
        },
        {
          "duration": 0.03260869565217561,
          "durationTicks": 3,
          "midi": 52,
          "name": "E3",
          "ticks": 1877,
          "time": 20.402173913043477,
          "velocity": 0.5748031496062992
        },
        {
          "duration": 0.03260869565217561,
          "durationTicks": 3,
          "midi": 81,
          "name": "A5",
          "ticks": 1877,
          "time": 20.402173913043477,
          "velocity": 0.12598425196850394
        },
        {
          "duration": 0.010869565217390686,
          "durationTicks": 1,
          "midi": 59,
          "name": "B3",
          "ticks": 1878,
          "time": 20.41304347826087,
          "velocity": 0.5433070866141733
        },
        {
          "duration": 0.043478260869562746,
          "durationTicks": 4,
          "midi": 65,
          "name": "F4",
          "ticks": 1878,
          "time": 20.41304347826087,
          "velocity": 0.3779527559055118
        },
        {
          "duration": 0.07608695652173836,
          "durationTicks": 7,
          "midi": 84,
          "name": "C6",
          "ticks": 1878,
          "time": 20.41304347826087,
          "velocity": 0.1968503937007874
        },
        {
          "duration": 0.08695652173912904,
          "durationTicks": 8,
          "midi": 91,
          "name": "G6",
          "ticks": 1878,
          "time": 20.41304347826087,
          "velocity": 0.2440944881889764
        },
        {
          "duration": 0.021739130434781373,
          "durationTicks": 2,
          "midi": 60,
          "name": "C4",
          "ticks": 1879,
          "time": 20.42391304347826,
          "velocity": 0.6456692913385826
        },
        {
          "duration": 0.03260869565217206,
          "durationTicks": 3,
          "midi": 79,
          "name": "G5",
          "ticks": 1879,
          "time": 20.42391304347826,
          "velocity": 0.11023622047244094
        },
        {
          "duration": 0.010869565217390686,
          "durationTicks": 1,
          "midi": 58,
          "name": "A#3",
          "ticks": 1881,
          "time": 20.445652173913043,
          "velocity": 0.6220472440944882
        },
        {
          "duration": 0.07608695652173836,
          "durationTicks": 7,
          "midi": 69,
          "name": "A4",
          "ticks": 1881,
          "time": 20.445652173913043,
          "velocity": 0.09448818897637795
        },
        {
          "duration": 0.09782608695652328,
          "durationTicks": 9,
          "midi": 88,
          "name": "E6",
          "ticks": 1881,
          "time": 20.445652173913043,
          "velocity": 0.16535433070866143
        },
        {
          "duration": 0.03260869565217561,
          "durationTicks": 3,
          "midi": 46,
          "name": "A#2",
          "ticks": 1882,
          "time": 20.456521739130434,
          "velocity": 0.3464566929133858
        },
        {
          "duration": 0.03260869565217561,
          "durationTicks": 3,
          "midi": 57,
          "name": "A3",
          "ticks": 1882,
          "time": 20.456521739130434,
          "velocity": 0.5275590551181102
        },
        {
          "duration": 0.23913043478260576,
          "durationTicks": 22,
          "midi": 65,
          "name": "F4",
          "ticks": 1884,
          "time": 20.47826086956522,
          "velocity": 0.2204724409448819
        },
        {
          "duration": 0.010869565217390686,
          "durationTicks": 1,
          "midi": 58,
          "name": "A#3",
          "ticks": 1885,
          "time": 20.48913043478261,
          "velocity": 0.5196850393700787
        },
        {
          "duration": 0.0434782608695663,
          "durationTicks": 4,
          "midi": 57,
          "name": "A3",
          "ticks": 1886,
          "time": 20.5,
          "velocity": 0.4330708661417323
        },
        {
          "duration": 0.0434782608695663,
          "durationTicks": 4,
          "midi": 57,
          "name": "A3",
          "ticks": 1891,
          "time": 20.554347826086957,
          "velocity": 0.3464566929133858
        },
        {
          "duration": 0.021739130434781373,
          "durationTicks": 2,
          "midi": 54,
          "name": "F#3",
          "ticks": 1897,
          "time": 20.619565217391305,
          "velocity": 0.33858267716535434
        },
        {
          "duration": 0.021739130434781373,
          "durationTicks": 2,
          "midi": 41,
          "name": "F2",
          "ticks": 1898,
          "time": 20.630434782608695,
          "velocity": 0.2440944881889764
        },
        {
          "duration": 0.03260869565217561,
          "durationTicks": 3,
          "midi": 56,
          "name": "G#3",
          "ticks": 1899,
          "time": 20.641304347826086,
          "velocity": 0.29133858267716534
        },
        {
          "duration": 0.054347826086956985,
          "durationTicks": 5,
          "midi": 57,
          "name": "A3",
          "ticks": 1902,
          "time": 20.67391304347826,
          "velocity": 0.33070866141732286
        },
        {
          "duration": 0.18478260869565233,
          "durationTicks": 17,
          "midi": 60,
          "name": "C4",
          "ticks": 1907,
          "time": 20.72826086956522,
          "velocity": 0.5354330708661418
        },
        {
          "duration": 0.08695652173912904,
          "durationTicks": 8,
          "midi": 79,
          "name": "G5",
          "ticks": 1907,
          "time": 20.72826086956522,
          "velocity": 0.12598425196850394
        },
        {
          "duration": 0.08695652173912904,
          "durationTicks": 8,
          "midi": 94,
          "name": "A#6",
          "ticks": 1907,
          "time": 20.72826086956522,
          "velocity": 0.25196850393700787
        },
        {
          "duration": 0.2391304347826093,
          "durationTicks": 22,
          "midi": 48,
          "name": "C3",
          "ticks": 1911,
          "time": 20.77173913043478,
          "velocity": 0.49606299212598426
        },
        {
          "duration": 0.05434782608695343,
          "durationTicks": 5,
          "midi": 36,
          "name": "C2",
          "ticks": 1912,
          "time": 20.782608695652176,
          "velocity": 0.4251968503937008
        },
        {
          "duration": 0.13043478260869534,
          "durationTicks": 12,
          "midi": 36,
          "name": "C2",
          "ticks": 1918,
          "time": 20.847826086956523,
          "velocity": 0.4566929133858268
        },
        {
          "duration": 0.03260869565217206,
          "durationTicks": 3,
          "midi": 55,
          "name": "G3",
          "ticks": 1924,
          "time": 20.91304347826087,
          "velocity": 0.3937007874015748
        },
        {
          "duration": 0.0434782608695663,
          "durationTicks": 4,
          "midi": 56,
          "name": "G#3",
          "ticks": 1927,
          "time": 20.945652173913043,
          "velocity": 0.4566929133858268
        },
        {
          "duration": 0.021739130434781373,
          "durationTicks": 2,
          "midi": 36,
          "name": "C2",
          "ticks": 1931,
          "time": 20.98913043478261,
          "velocity": 0.4566929133858268
        },
        {
          "duration": 0.021739130434784926,
          "durationTicks": 2,
          "midi": 37,
          "name": "C#2",
          "ticks": 1933,
          "time": 21.01086956521739,
          "velocity": 0.4566929133858268
        },
        {
          "duration": 0.03260869565217561,
          "durationTicks": 3,
          "midi": 57,
          "name": "A3",
          "ticks": 1933,
          "time": 21.01086956521739,
          "velocity": 0.5433070866141733
        },
        {
          "duration": 0.22826086956521863,
          "durationTicks": 21,
          "midi": 65,
          "name": "F4",
          "ticks": 1933,
          "time": 21.01086956521739,
          "velocity": 0.5275590551181102
        },
        {
          "duration": 0.15217391304348027,
          "durationTicks": 14,
          "midi": 84,
          "name": "C6",
          "ticks": 1934,
          "time": 21.02173913043478,
          "velocity": 0.3858267716535433
        },
        {
          "duration": 0.021739130434781373,
          "durationTicks": 2,
          "midi": 35,
          "name": "B1",
          "ticks": 1935,
          "time": 21.032608695652176,
          "velocity": 0.3779527559055118
        },
        {
          "duration": 0.043478260869562746,
          "durationTicks": 4,
          "midi": 88,
          "name": "E6",
          "ticks": 1935,
          "time": 21.032608695652176,
          "velocity": 0.11811023622047244
        },
        {
          "duration": 0.06521739130434767,
          "durationTicks": 6,
          "midi": 93,
          "name": "A6",
          "ticks": 1935,
          "time": 21.032608695652176,
          "velocity": 0.2440944881889764
        },
        {
          "duration": 0.03260869565217206,
          "durationTicks": 3,
          "midi": 99,
          "name": "D#7",
          "ticks": 1935,
          "time": 21.032608695652176,
          "velocity": 0.15748031496062992
        },
        {
          "duration": 0.03260869565217206,
          "durationTicks": 3,
          "midi": 101,
          "name": "F7",
          "ticks": 1935,
          "time": 21.032608695652176,
          "velocity": 0.10236220472440945
        },
        {
          "duration": 0.18478260869565233,
          "durationTicks": 17,
          "midi": 57,
          "name": "A3",
          "ticks": 1937,
          "time": 21.054347826086957,
          "velocity": 0.5511811023622047
        },
        {
          "duration": 0.0434782608695663,
          "durationTicks": 4,
          "midi": 72,
          "name": "C5",
          "ticks": 1937,
          "time": 21.054347826086957,
          "velocity": 0.12598425196850394
        },
        {
          "duration": 0.08695652173912904,
          "durationTicks": 8,
          "midi": 35,
          "name": "B1",
          "ticks": 1938,
          "time": 21.065217391304348,
          "velocity": 0.30708661417322836
        },
        {
          "duration": 0.021739130434784926,
          "durationTicks": 2,
          "midi": 34,
          "name": "A#1",
          "ticks": 1946,
          "time": 21.152173913043477,
          "velocity": 0.2440944881889764
        },
        {
          "duration": 0.021739130434784926,
          "durationTicks": 2,
          "midi": 45,
          "name": "A2",
          "ticks": 1952,
          "time": 21.217391304347824,
          "velocity": 0.30708661417322836
        },
        {
          "duration": 0.021739130434781373,
          "durationTicks": 2,
          "midi": 36,
          "name": "C2",
          "ticks": 1953,
          "time": 21.22826086956522,
          "velocity": 0.3700787401574803
        },
        {
          "duration": 0.021739130434781373,
          "durationTicks": 2,
          "midi": 56,
          "name": "G#3",
          "ticks": 1954,
          "time": 21.23913043478261,
          "velocity": 0.33070866141732286
        },
        {
          "duration": 0.054347826086956985,
          "durationTicks": 5,
          "midi": 57,
          "name": "A3",
          "ticks": 1956,
          "time": 21.26086956521739,
          "velocity": 0.30708661417322836
        },
        {
          "duration": 0.0434782608695663,
          "durationTicks": 4,
          "midi": 65,
          "name": "F4",
          "ticks": 1957,
          "time": 21.27173913043478,
          "velocity": 0.07086614173228346
        },
        {
          "duration": 0.021739130434784926,
          "durationTicks": 2,
          "midi": 55,
          "name": "G3",
          "ticks": 1962,
          "time": 21.32608695652174,
          "velocity": 0.2440944881889764
        },
        {
          "duration": 0.10869565217391397,
          "durationTicks": 10,
          "midi": 65,
          "name": "F4",
          "ticks": 1963,
          "time": 21.33695652173913,
          "velocity": 0.5039370078740157
        },
        {
          "duration": 0.11956521739130466,
          "durationTicks": 11,
          "midi": 84,
          "name": "C6",
          "ticks": 1963,
          "time": 21.33695652173913,
          "velocity": 0.4566929133858268
        },
        {
          "duration": 0.021739130434781373,
          "durationTicks": 2,
          "midi": 54,
          "name": "F#3",
          "ticks": 1964,
          "time": 21.347826086956523,
          "velocity": 0.48031496062992124
        },
        {
          "duration": 0.07608695652173836,
          "durationTicks": 7,
          "midi": 89,
          "name": "F6",
          "ticks": 1964,
          "time": 21.347826086956523,
          "velocity": 0.11023622047244094
        },
        {
          "duration": 0.05434782608695343,
          "durationTicks": 5,
          "midi": 101,
          "name": "F7",
          "ticks": 1964,
          "time": 21.347826086956523,
          "velocity": 0.2283464566929134
        },
        {
          "duration": 0.31521739130434767,
          "durationTicks": 29,
          "midi": 41,
          "name": "F2",
          "ticks": 1965,
          "time": 21.358695652173914,
          "velocity": 0.5433070866141733
        },
        {
          "duration": 0.07608695652173836,
          "durationTicks": 7,
          "midi": 69,
          "name": "A4",
          "ticks": 1965,
          "time": 21.358695652173914,
          "velocity": 0.09448818897637795
        },
        {
          "duration": 0.0434782608695663,
          "durationTicks": 4,
          "midi": 66,
          "name": "F#4",
          "ticks": 1973,
          "time": 21.445652173913043,
          "velocity": 0.5039370078740157
        },
        {
          "duration": 0.0434782608695663,
          "durationTicks": 4,
          "midi": 85,
          "name": "C#6",
          "ticks": 1973,
          "time": 21.445652173913043,
          "velocity": 0.3228346456692913
        },
        {
          "duration": 0.18478260869565233,
          "durationTicks": 17,
          "midi": 86,
          "name": "D6",
          "ticks": 1976,
          "time": 21.47826086956522,
          "velocity": 0.2992125984251969
        },
        {
          "duration": 0.1630434782608674,
          "durationTicks": 15,
          "midi": 91,
          "name": "G6",
          "ticks": 1976,
          "time": 21.47826086956522,
          "velocity": 0.14960629921259844
        },
        {
          "duration": 0.18478260869565233,
          "durationTicks": 17,
          "midi": 67,
          "name": "G4",
          "ticks": 1977,
          "time": 21.48913043478261,
          "velocity": 0.5118110236220472
        },
        {
          "duration": 0.021739130434784926,
          "durationTicks": 2,
          "midi": 57,
          "name": "A3",
          "ticks": 1991,
          "time": 21.641304347826086,
          "velocity": 0.4409448818897638
        },
        {
          "duration": 0.3478260869565233,
          "durationTicks": 32,
          "midi": 77,
          "name": "F5",
          "ticks": 1992,
          "time": 21.652173913043477,
          "velocity": 0.29133858267716534
        },
        {
          "duration": 0.03260869565217206,
          "durationTicks": 3,
          "midi": 56,
          "name": "G#3",
          "ticks": 1993,
          "time": 21.66304347826087,
          "velocity": 0.5826771653543307
        },
        {
          "duration": 0.14130434782608603,
          "durationTicks": 13,
          "midi": 84,
          "name": "C6",
          "ticks": 1993,
          "time": 21.66304347826087,
          "velocity": 0.25984251968503935
        },
        {
          "duration": 0.010869565217390686,
          "durationTicks": 1,
          "midi": 42,
          "name": "F#2",
          "ticks": 1994,
          "time": 21.67391304347826,
          "velocity": 0.5433070866141733
        },
        {
          "duration": 0.1630434782608674,
          "durationTicks": 15,
          "midi": 65,
          "name": "F4",
          "ticks": 1994,
          "time": 21.67391304347826,
          "velocity": 0.5354330708661418
        },
        {
          "duration": 0.043478260869562746,
          "durationTicks": 4,
          "midi": 72,
          "name": "C5",
          "ticks": 1994,
          "time": 21.67391304347826,
          "velocity": 0.14173228346456693
        },
        {
          "duration": 0.14130434782608603,
          "durationTicks": 13,
          "midi": 57,
          "name": "A3",
          "ticks": 1996,
          "time": 21.695652173913043,
          "velocity": 0.5433070866141733
        },
        {
          "duration": 0.021739130434784926,
          "durationTicks": 2,
          "midi": 51,
          "name": "D#3",
          "ticks": 2008,
          "time": 21.82608695652174,
          "velocity": 0.25196850393700787
        },
        {
          "duration": 0.15217391304348027,
          "durationTicks": 14,
          "midi": 84,
          "name": "C6",
          "ticks": 2009,
          "time": 21.83695652173913,
          "velocity": 0.4015748031496063
        },
        {
          "duration": 0.021739130434781373,
          "durationTicks": 2,
          "midi": 58,
          "name": "A#3",
          "ticks": 2010,
          "time": 21.847826086956523,
          "velocity": 0.4251968503937008
        },
        {
          "duration": 0.10869565217391042,
          "durationTicks": 10,
          "midi": 65,
          "name": "F4",
          "ticks": 2011,
          "time": 21.858695652173914,
          "velocity": 0.4566929133858268
        },
        {
          "duration": 0.03260869565217561,
          "durationTicks": 3,
          "midi": 33,
          "name": "A1",
          "ticks": 2014,
          "time": 21.891304347826086,
          "velocity": 0.4645669291338583
        },
        {
          "duration": 0.03260869565217561,
          "durationTicks": 3,
          "midi": 60,
          "name": "C4",
          "ticks": 2021,
          "time": 21.967391304347824,
          "velocity": 0.13385826771653545
        },
        {
          "duration": 0.03260869565217561,
          "durationTicks": 3,
          "midi": 64,
          "name": "E4",
          "ticks": 2021,
          "time": 21.967391304347824,
          "velocity": 0.3464566929133858
        },
        {
          "duration": 0.021739130434781373,
          "durationTicks": 2,
          "midi": 36,
          "name": "C2",
          "ticks": 2024,
          "time": 22,
          "velocity": 0.3858267716535433
        },
        {
          "duration": 0.13043478260869534,
          "durationTicks": 12,
          "midi": 48,
          "name": "C3",
          "ticks": 2026,
          "time": 22.02173913043478,
          "velocity": 0.4251968503937008
        },
        {
          "duration": 0.15217391304347672,
          "durationTicks": 14,
          "midi": 36,
          "name": "C2",
          "ticks": 2029,
          "time": 22.054347826086957,
          "velocity": 0.4881889763779528
        },
        {
          "duration": 0.06521739130434767,
          "durationTicks": 6,
          "midi": 60,
          "name": "C4",
          "ticks": 2038,
          "time": 22.152173913043477,
          "velocity": 0.4330708661417323
        },
        {
          "duration": 0.1304347826086989,
          "durationTicks": 12,
          "midi": 94,
          "name": "A#6",
          "ticks": 2038,
          "time": 22.152173913043477,
          "velocity": 0.1889763779527559
        },
        {
          "duration": 0.021739130434781373,
          "durationTicks": 2,
          "midi": 55,
          "name": "G3",
          "ticks": 2039,
          "time": 22.16304347826087,
          "velocity": 0.33858267716535434
        },
        {
          "duration": 0.021739130434781373,
          "durationTicks": 2,
          "midi": 64,
          "name": "E4",
          "ticks": 2039,
          "time": 22.16304347826087,
          "velocity": 0.3779527559055118
        },
        {
          "duration": 0.10869565217391042,
          "durationTicks": 10,
          "midi": 79,
          "name": "G5",
          "ticks": 2039,
          "time": 22.16304347826087,
          "velocity": 0.2047244094488189
        },
        {
          "duration": 0.03260869565217206,
          "durationTicks": 3,
          "midi": 84,
          "name": "C6",
          "ticks": 2039,
          "time": 22.16304347826087,
          "velocity": 0.12598425196850394
        },
        {
          "duration": 0.554347826086957,
          "durationTicks": 51,
          "midi": 65,
          "name": "F4",
          "ticks": 2041,
          "time": 22.184782608695652,
          "velocity": 0.4566929133858268
        },
        {
          "duration": 0.021739130434784926,
          "durationTicks": 2,
          "midi": 35,
          "name": "B1",
          "ticks": 2043,
          "time": 22.206521739130434,
          "velocity": 0.4566929133858268
        },
        {
          "duration": 0.03260869565217561,
          "durationTicks": 3,
          "midi": 56,
          "name": "G#3",
          "ticks": 2043,
          "time": 22.206521739130434,
          "velocity": 0.48031496062992124
        },
        {
          "duration": 0.2826086956521756,
          "durationTicks": 26,
          "midi": 69,
          "name": "A4",
          "ticks": 2043,
          "time": 22.206521739130434,
          "velocity": 0.36220472440944884
        },
        {
          "duration": 0.08695652173912904,
          "durationTicks": 8,
          "midi": 36,
          "name": "C2",
          "ticks": 2045,
          "time": 22.22826086956522,
          "velocity": 0.4566929133858268
        },
        {
          "duration": 0.021739130434781373,
          "durationTicks": 2,
          "midi": 61,
          "name": "C#4",
          "ticks": 2046,
          "time": 22.23913043478261,
          "velocity": 0.4015748031496063
        },
        {
          "duration": 0.0434782608695663,
          "durationTicks": 4,
          "midi": 62,
          "name": "D4",
          "ticks": 2048,
          "time": 22.26086956521739,
          "velocity": 0.3937007874015748
        },
        {
          "duration": 0.021739130434781373,
          "durationTicks": 2,
          "midi": 55,
          "name": "G3",
          "ticks": 2050,
          "time": 22.282608695652176,
          "velocity": 0.3858267716535433
        },
        {
          "duration": 0.043478260869562746,
          "durationTicks": 4,
          "midi": 73,
          "name": "C#5",
          "ticks": 2050,
          "time": 22.282608695652176,
          "velocity": 0.2204724409448819
        },
        {
          "duration": 0.021739130434781373,
          "durationTicks": 2,
          "midi": 46,
          "name": "A#2",
          "ticks": 2052,
          "time": 22.304347826086957,
          "velocity": 0.48031496062992124
        },
        {
          "duration": 0.03260869565217206,
          "durationTicks": 3,
          "midi": 79,
          "name": "G5",
          "ticks": 2052,
          "time": 22.304347826086957,
          "velocity": 0.07874015748031496
        },
        {
          "duration": 0.07608695652173836,
          "durationTicks": 7,
          "midi": 57,
          "name": "A3",
          "ticks": 2053,
          "time": 22.315217391304348,
          "velocity": 0.4094488188976378
        },
        {
          "duration": 0.0434782608695663,
          "durationTicks": 4,
          "midi": 62,
          "name": "D4",
          "ticks": 2053,
          "time": 22.315217391304348,
          "velocity": 0.33858267716535434
        },
        {
          "duration": 0.021739130434784926,
          "durationTicks": 2,
          "midi": 55,
          "name": "G3",
          "ticks": 2066,
          "time": 22.456521739130434,
          "velocity": 0.3858267716535433
        },
        {
          "duration": 0.44565217391304657,
          "durationTicks": 41,
          "midi": 72,
          "name": "C5",
          "ticks": 2067,
          "time": 22.467391304347824,
          "velocity": 0.3858267716535433
        },
        {
          "duration": 0.054347826086956985,
          "durationTicks": 5,
          "midi": 46,
          "name": "A#2",
          "ticks": 2068,
          "time": 22.47826086956522,
          "velocity": 0.4409448818897638
        },
        {
          "duration": 0.4130434782608674,
          "durationTicks": 38,
          "midi": 60,
          "name": "C4",
          "ticks": 2068,
          "time": 22.47826086956522,
          "velocity": 0.4881889763779528
        },
        {
          "duration": 0.054347826086956985,
          "durationTicks": 5,
          "midi": 91,
          "name": "G6",
          "ticks": 2068,
          "time": 22.47826086956522,
          "velocity": 0.1889763779527559
        },
        {
          "duration": 0.13043478260869534,
          "durationTicks": 12,
          "midi": 94,
          "name": "A#6",
          "ticks": 2068,
          "time": 22.47826086956522,
          "velocity": 0.25984251968503935
        },
        {
          "duration": 0.0434782608695663,
          "durationTicks": 4,
          "midi": 55,
          "name": "G3",
          "ticks": 2069,
          "time": 22.48913043478261,
          "velocity": 0.4881889763779528
        },
        {
          "duration": 0.03260869565217206,
          "durationTicks": 3,
          "midi": 47,
          "name": "B2",
          "ticks": 2073,
          "time": 22.532608695652176,
          "velocity": 0.33070866141732286
        },
        {
          "duration": 0.25,
          "durationTicks": 23,
          "midi": 91,
          "name": "G6",
          "ticks": 2075,
          "time": 22.554347826086957,
          "velocity": 0.1968503937007874
        },
        {
          "duration": 0.2934782608695663,
          "durationTicks": 27,
          "midi": 46,
          "name": "A#2",
          "ticks": 2081,
          "time": 22.619565217391305,
          "velocity": 0.5354330708661418
        },
        {
          "duration": 0.021739130434784926,
          "durationTicks": 2,
          "midi": 54,
          "name": "F#3",
          "ticks": 2083,
          "time": 22.641304347826086,
          "velocity": 0.30708661417322836
        },
        {
          "duration": 0.06521739130434767,
          "durationTicks": 6,
          "midi": 94,
          "name": "A#6",
          "ticks": 2083,
          "time": 22.641304347826086,
          "velocity": 0.07086614173228346
        },
        {
          "duration": 0.021739130434781373,
          "durationTicks": 2,
          "midi": 34,
          "name": "A#1",
          "ticks": 2088,
          "time": 22.695652173913043,
          "velocity": 0.33070866141732286
        },
        {
          "duration": 0.07608695652173836,
          "durationTicks": 7,
          "midi": 34,
          "name": "A#1",
          "ticks": 2097,
          "time": 22.793478260869566,
          "velocity": 0.3464566929133858
        },
        {
          "duration": 0.2934782608695663,
          "durationTicks": 27,
          "midi": 65,
          "name": "F4",
          "ticks": 2105,
          "time": 22.880434782608695,
          "velocity": 0.4645669291338583
        },
        {
          "duration": 0.03260869565217561,
          "durationTicks": 3,
          "midi": 34,
          "name": "A#1",
          "ticks": 2107,
          "time": 22.902173913043477,
          "velocity": 0.3779527559055118
        },
        {
          "duration": 0.14130434782608958,
          "durationTicks": 13,
          "midi": 74,
          "name": "D5",
          "ticks": 2107,
          "time": 22.902173913043477,
          "velocity": 0.30708661417322836
        },
        {
          "duration": 0.054347826086956985,
          "durationTicks": 5,
          "midi": 89,
          "name": "F6",
          "ticks": 2107,
          "time": 22.902173913043477,
          "velocity": 0.14960629921259844
        },
        {
          "duration": 0.021739130434781373,
          "durationTicks": 2,
          "midi": 56,
          "name": "G#3",
          "ticks": 2108,
          "time": 22.91304347826087,
          "velocity": 0.6062992125984252
        },
        {
          "duration": 0.15217391304347672,
          "durationTicks": 14,
          "midi": 82,
          "name": "A#5",
          "ticks": 2108,
          "time": 22.91304347826087,
          "velocity": 0.23622047244094488
        },
        {
          "duration": 0.043478260869562746,
          "durationTicks": 4,
          "midi": 84,
          "name": "C6",
          "ticks": 2108,
          "time": 22.91304347826087,
          "velocity": 0.09448818897637795
        },
        {
          "duration": 0.03260869565217206,
          "durationTicks": 3,
          "midi": 93,
          "name": "A6",
          "ticks": 2108,
          "time": 22.91304347826087,
          "velocity": 0.13385826771653545
        },
        {
          "duration": 0.05434782608695343,
          "durationTicks": 5,
          "midi": 98,
          "name": "D7",
          "ticks": 2108,
          "time": 22.91304347826087,
          "velocity": 0.12598425196850394
        },
        {
          "duration": 0.19565217391304301,
          "durationTicks": 18,
          "midi": 70,
          "name": "A#4",
          "ticks": 2109,
          "time": 22.92391304347826,
          "velocity": 0.33070866141732286
        },
        {
          "duration": 0.07608695652173836,
          "durationTicks": 7,
          "midi": 57,
          "name": "A3",
          "ticks": 2110,
          "time": 22.934782608695652,
          "velocity": 0.6141732283464567
        },
        {
          "duration": 0.08695652173912904,
          "durationTicks": 8,
          "midi": 62,
          "name": "D4",
          "ticks": 2110,
          "time": 22.934782608695652,
          "velocity": 0.36220472440944884
        },
        {
          "duration": 0.021739130434781373,
          "durationTicks": 2,
          "midi": 35,
          "name": "B1",
          "ticks": 2111,
          "time": 22.945652173913043,
          "velocity": 0.3464566929133858
        },
        {
          "duration": 0.021739130434784926,
          "durationTicks": 2,
          "midi": 46,
          "name": "A#2",
          "ticks": 2112,
          "time": 22.956521739130434,
          "velocity": 0.3779527559055118
        },
        {
          "duration": 0.021739130434781373,
          "durationTicks": 2,
          "midi": 45,
          "name": "A2",
          "ticks": 2114,
          "time": 22.97826086956522,
          "velocity": 0.31496062992125984
        },
        {
          "duration": 0.07608695652173836,
          "durationTicks": 7,
          "midi": 46,
          "name": "A#2",
          "ticks": 2116,
          "time": 23,
          "velocity": 0.3228346456692913
        },
        {
          "duration": 0.021739130434784926,
          "durationTicks": 2,
          "midi": 43,
          "name": "G2",
          "ticks": 2124,
          "time": 23.08695652173913,
          "velocity": 0.2992125984251969
        },
        {
          "duration": 0.021739130434784926,
          "durationTicks": 2,
          "midi": 58,
          "name": "A#3",
          "ticks": 2124,
          "time": 23.08695652173913,
          "velocity": 0.2677165354330709
        },
        {
          "duration": 0.021739130434781373,
          "durationTicks": 2,
          "midi": 57,
          "name": "A3",
          "ticks": 2126,
          "time": 23.108695652173914,
          "velocity": 0.29133858267716534
        },
        {
          "duration": 0.021739130434781373,
          "durationTicks": 2,
          "midi": 46,
          "name": "A#2",
          "ticks": 2127,
          "time": 23.119565217391305,
          "velocity": 0.3779527559055118
        },
        {
          "duration": 0.07608695652173836,
          "durationTicks": 7,
          "midi": 45,
          "name": "A2",
          "ticks": 2129,
          "time": 23.141304347826086,
          "velocity": 0.3779527559055118
        },
        {
          "duration": 0.03260869565217206,
          "durationTicks": 3,
          "midi": 56,
          "name": "G#3",
          "ticks": 2131,
          "time": 23.16304347826087,
          "velocity": 0.2440944881889764
        },
        {
          "duration": 0.021739130434781373,
          "durationTicks": 2,
          "midi": 56,
          "name": "G#3",
          "ticks": 2137,
          "time": 23.22826086956522,
          "velocity": 0.4330708661417323
        },
        {
          "duration": 0.021739130434781373,
          "durationTicks": 2,
          "midi": 41,
          "name": "F2",
          "ticks": 2139,
          "time": 23.25,
          "velocity": 0.5118110236220472
        },
        {
          "duration": 0.021739130434781373,
          "durationTicks": 2,
          "midi": 58,
          "name": "A#3",
          "ticks": 2139,
          "time": 23.25,
          "velocity": 0.3937007874015748
        },
        {
          "duration": 0.021739130434781373,
          "durationTicks": 2,
          "midi": 41,
          "name": "F2",
          "ticks": 2142,
          "time": 23.282608695652176,
          "velocity": 0.5354330708661418
        },
        {
          "duration": 0.16304347826087096,
          "durationTicks": 15,
          "midi": 41,
          "name": "F2",
          "ticks": 2145,
          "time": 23.315217391304348,
          "velocity": 0.5039370078740157
        },
        {
          "duration": 0.021739130434781373,
          "durationTicks": 2,
          "midi": 58,
          "name": "A#3",
          "ticks": 2154,
          "time": 23.41304347826087,
          "velocity": 0.23622047244094488
        },
        {
          "duration": 0.1739130434782581,
          "durationTicks": 16,
          "midi": 65,
          "name": "F4",
          "ticks": 2154,
          "time": 23.41304347826087,
          "velocity": 0.5118110236220472
        },
        {
          "duration": 0.0434782608695663,
          "durationTicks": 4,
          "midi": 58,
          "name": "A#3",
          "ticks": 2157,
          "time": 23.445652173913043,
          "velocity": 0.3464566929133858
        },
        {
          "duration": 0.021739130434781373,
          "durationTicks": 2,
          "midi": 41,
          "name": "F2",
          "ticks": 2161,
          "time": 23.48913043478261,
          "velocity": 0.4645669291338583
        },
        {
          "duration": 0.021739130434784926,
          "durationTicks": 2,
          "midi": 42,
          "name": "F#2",
          "ticks": 2163,
          "time": 23.51086956521739,
          "velocity": 0.44881889763779526
        },
        {
          "duration": 0.010869565217390686,
          "durationTicks": 1,
          "midi": 41,
          "name": "F2",
          "ticks": 2165,
          "time": 23.532608695652176,
          "velocity": 0.5433070866141733
        },
        {
          "duration": 0.021739130434781373,
          "durationTicks": 2,
          "midi": 54,
          "name": "F#3",
          "ticks": 2165,
          "time": 23.532608695652176,
          "velocity": 0.4330708661417323
        },
        {
          "duration": 0.09782608695651973,
          "durationTicks": 9,
          "midi": 94,
          "name": "A#6",
          "ticks": 2165,
          "time": 23.532608695652176,
          "velocity": 0.2755905511811024
        },
        {
          "duration": 0.03260869565217206,
          "durationTicks": 3,
          "midi": 96,
          "name": "C7",
          "ticks": 2165,
          "time": 23.532608695652176,
          "velocity": 0.16535433070866143
        },
        {
          "duration": 0.03260869565217206,
          "durationTicks": 3,
          "midi": 45,
          "name": "A2",
          "ticks": 2166,
          "time": 23.543478260869566,
          "velocity": 0.5669291338582677
        },
        {
          "duration": 0.13043478260869534,
          "durationTicks": 12,
          "midi": 62,
          "name": "D4",
          "ticks": 2166,
          "time": 23.543478260869566,
          "velocity": 0.3937007874015748
        },
        {
          "duration": 0.15217391304347672,
          "durationTicks": 14,
          "midi": 70,
          "name": "A#4",
          "ticks": 2166,
          "time": 23.543478260869566,
          "velocity": 0.14960629921259844
        },
        {
          "duration": 0.054347826086956985,
          "durationTicks": 5,
          "midi": 84,
          "name": "C6",
          "ticks": 2166,
          "time": 23.543478260869566,
          "velocity": 0.09448818897637795
        },
        {
          "duration": 0.054347826086956985,
          "durationTicks": 5,
          "midi": 89,
          "name": "F6",
          "ticks": 2166,
          "time": 23.543478260869566,
          "velocity": 0.15748031496062992
        },
        {
          "duration": 0.10869565217391397,
          "durationTicks": 10,
          "midi": 82,
          "name": "A#5",
          "ticks": 2168,
          "time": 23.565217391304348,
          "velocity": 0.16535433070866143
        },
        {
          "duration": 0.021739130434784926,
          "durationTicks": 2,
          "midi": 46,
          "name": "A#2",
          "ticks": 2169,
          "time": 23.57608695652174,
          "velocity": 0.3700787401574803
        },
        {
          "duration": 0.06521739130434767,
          "durationTicks": 6,
          "midi": 98,
          "name": "D7",
          "ticks": 2169,
          "time": 23.57608695652174,
          "velocity": 0.10236220472440945
        },
        {
          "duration": 0.03260869565217561,
          "durationTicks": 3,
          "midi": 58,
          "name": "A#3",
          "ticks": 2181,
          "time": 23.706521739130434,
          "velocity": 0.33858267716535434
        },
        {
          "duration": 0.021739130434781373,
          "durationTicks": 2,
          "midi": 46,
          "name": "A#2",
          "ticks": 2184,
          "time": 23.73913043478261,
          "velocity": 0.30708661417322836
        },
        {
          "duration": 0.03260869565217561,
          "durationTicks": 3,
          "midi": 56,
          "name": "G#3",
          "ticks": 2187,
          "time": 23.77173913043478,
          "velocity": 0.3228346456692913
        },
        {
          "duration": 0.03260869565217206,
          "durationTicks": 3,
          "midi": 57,
          "name": "A3",
          "ticks": 2190,
          "time": 23.804347826086957,
          "velocity": 0.18110236220472442
        },
        {
          "duration": 0.021739130434781373,
          "durationTicks": 2,
          "midi": 31,
          "name": "G1",
          "ticks": 2194,
          "time": 23.847826086956523,
          "velocity": 0.2992125984251969
        },
        {
          "duration": 0.021739130434781373,
          "durationTicks": 2,
          "midi": 43,
          "name": "G2",
          "ticks": 2196,
          "time": 23.869565217391305,
          "velocity": 0.4330708661417323
        },
        {
          "duration": 0.021739130434784926,
          "durationTicks": 2,
          "midi": 56,
          "name": "G#3",
          "ticks": 2198,
          "time": 23.891304347826086,
          "velocity": 0.44881889763779526
        },
        {
          "duration": 0.021739130434781373,
          "durationTicks": 2,
          "midi": 47,
          "name": "B2",
          "ticks": 2200,
          "time": 23.91304347826087,
          "velocity": 0.4251968503937008
        },
        {
          "duration": 0.22826086956521507,
          "durationTicks": 21,
          "midi": 55,
          "name": "G3",
          "ticks": 2200,
          "time": 23.91304347826087,
          "velocity": 0.3858267716535433
        },
        {
          "duration": 0.22826086956521863,
          "durationTicks": 21,
          "midi": 48,
          "name": "C3",
          "ticks": 2202,
          "time": 23.934782608695652,
          "velocity": 0.41732283464566927
        },
        {
          "duration": 0.021739130434784926,
          "durationTicks": 2,
          "midi": 36,
          "name": "C2",
          "ticks": 2205,
          "time": 23.967391304347824,
          "velocity": 0.3937007874015748
        },
        {
          "duration": 0.14130434782608958,
          "durationTicks": 13,
          "midi": 36,
          "name": "C2",
          "ticks": 2210,
          "time": 24.02173913043478,
          "velocity": 0.3858267716535433
        },
        {
          "duration": 0.07608695652173836,
          "durationTicks": 7,
          "midi": 64,
          "name": "E4",
          "ticks": 2213,
          "time": 24.054347826086957,
          "velocity": 0.09448818897637795
        },
        {
          "duration": 0.17391304347826164,
          "durationTicks": 16,
          "midi": 64,
          "name": "E4",
          "ticks": 2222,
          "time": 24.152173913043477,
          "velocity": 0.3543307086614173
        },
        {
          "duration": 0.0869565217391326,
          "durationTicks": 8,
          "midi": 67,
          "name": "G4",
          "ticks": 2222,
          "time": 24.152173913043477,
          "velocity": 0.33070866141732286
        },
        {
          "duration": 0.14130434782608958,
          "durationTicks": 13,
          "midi": 72,
          "name": "C5",
          "ticks": 2222,
          "time": 24.152173913043477,
          "velocity": 0.2755905511811024
        },
        {
          "duration": 0.16304347826087096,
          "durationTicks": 15,
          "midi": 84,
          "name": "C6",
          "ticks": 2222,
          "time": 24.152173913043477,
          "velocity": 0.36220472440944884
        },
        {
          "duration": 0.07608695652174191,
          "durationTicks": 7,
          "midi": 86,
          "name": "D6",
          "ticks": 2222,
          "time": 24.152173913043477,
          "velocity": 0.16535433070866143
        },
        {
          "duration": 0.03260869565217561,
          "durationTicks": 3,
          "midi": 95,
          "name": "B6",
          "ticks": 2222,
          "time": 24.152173913043477,
          "velocity": 0.08661417322834646
        },
        {
          "duration": 0.010869565217390686,
          "durationTicks": 1,
          "midi": 56,
          "name": "G#3",
          "ticks": 2223,
          "time": 24.16304347826087,
          "velocity": 0.5196850393700787
        },
        {
          "duration": 0.03260869565217206,
          "durationTicks": 3,
          "midi": 36,
          "name": "C2",
          "ticks": 2224,
          "time": 24.17391304347826,
          "velocity": 0.28346456692913385
        },
        {
          "duration": 0.08695652173912904,
          "durationTicks": 8,
          "midi": 55,
          "name": "G3",
          "ticks": 2224,
          "time": 24.17391304347826,
          "velocity": 0.6220472440944882
        },
        {
          "duration": 0.19565217391304301,
          "durationTicks": 18,
          "midi": 60,
          "name": "C4",
          "ticks": 2224,
          "time": 24.17391304347826,
          "velocity": 0.5275590551181102
        },
        {
          "duration": 0.03260869565217561,
          "durationTicks": 3,
          "midi": 47,
          "name": "B2",
          "ticks": 2227,
          "time": 24.206521739130434,
          "velocity": 0.3228346456692913
        },
        {
          "duration": 0.03260869565217206,
          "durationTicks": 3,
          "midi": 48,
          "name": "C3",
          "ticks": 2230,
          "time": 24.23913043478261,
          "velocity": 0.28346456692913385
        },
        {
          "duration": 0.10869565217391397,
          "durationTicks": 10,
          "midi": 67,
          "name": "G4",
          "ticks": 2232,
          "time": 24.26086956521739,
          "velocity": 0.25984251968503935
        },
        {
          "duration": 0.021739130434781373,
          "durationTicks": 2,
          "midi": 47,
          "name": "B2",
          "ticks": 2235,
          "time": 24.293478260869566,
          "velocity": 0.23622047244094488
        },
        {
          "duration": 0.054347826086956985,
          "durationTicks": 5,
          "midi": 55,
          "name": "G3",
          "ticks": 2235,
          "time": 24.293478260869566,
          "velocity": 0.23622047244094488
        },
        {
          "duration": 0.0434782608695663,
          "durationTicks": 4,
          "midi": 48,
          "name": "C3",
          "ticks": 2237,
          "time": 24.315217391304348,
          "velocity": 0.2047244094488189
        },
        {
          "duration": 0.021739130434781373,
          "durationTicks": 2,
          "midi": 47,
          "name": "B2",
          "ticks": 2241,
          "time": 24.358695652173914,
          "velocity": 0.4015748031496063
        },
        {
          "duration": 0.03260869565217206,
          "durationTicks": 3,
          "midi": 61,
          "name": "C#4",
          "ticks": 2242,
          "time": 24.369565217391305,
          "velocity": 0.2677165354330709
        },
        {
          "duration": 0.03260869565217206,
          "durationTicks": 3,
          "midi": 66,
          "name": "F#4",
          "ticks": 2242,
          "time": 24.369565217391305,
          "velocity": 0.14960629921259844
        },
        {
          "duration": 0.021739130434781373,
          "durationTicks": 2,
          "midi": 48,
          "name": "C3",
          "ticks": 2243,
          "time": 24.380434782608695,
          "velocity": 0.41732283464566927
        },
        {
          "duration": 0.021739130434781373,
          "durationTicks": 2,
          "midi": 56,
          "name": "G#3",
          "ticks": 2243,
          "time": 24.380434782608695,
          "velocity": 0.3700787401574803
        },
        {
          "duration": 0.03260869565217561,
          "durationTicks": 3,
          "midi": 64,
          "name": "E4",
          "ticks": 2244,
          "time": 24.391304347826086,
          "velocity": 0.14173228346456693
        },
        {
          "duration": 0.03260869565217561,
          "durationTicks": 3,
          "midi": 47,
          "name": "B2",
          "ticks": 2245,
          "time": 24.402173913043477,
          "velocity": 0.4566929133858268
        },
        {
          "duration": 0.03260869565217561,
          "durationTicks": 3,
          "midi": 55,
          "name": "G3",
          "ticks": 2245,
          "time": 24.402173913043477,
          "velocity": 0.31496062992125984
        },
        {
          "duration": 0.0434782608695663,
          "durationTicks": 4,
          "midi": 60,
          "name": "C4",
          "ticks": 2245,
          "time": 24.402173913043477,
          "velocity": 0.25984251968503935
        },
        {
          "duration": 0.021739130434781373,
          "durationTicks": 2,
          "midi": 36,
          "name": "C2",
          "ticks": 2246,
          "time": 24.41304347826087,
          "velocity": 0.4094488188976378
        },
        {
          "duration": 0.03260869565217561,
          "durationTicks": 3,
          "midi": 35,
          "name": "B1",
          "ticks": 2249,
          "time": 24.445652173913043,
          "velocity": 0.36220472440944884
        },
        {
          "duration": 0.03260869565217561,
          "durationTicks": 3,
          "midi": 47,
          "name": "B2",
          "ticks": 2249,
          "time": 24.445652173913043,
          "velocity": 0.3779527559055118
        },
        {
          "duration": 0.054347826086956985,
          "durationTicks": 5,
          "midi": 64,
          "name": "E4",
          "ticks": 2251,
          "time": 24.467391304347824,
          "velocity": 0.2125984251968504
        },
        {
          "duration": 0.03260869565217206,
          "durationTicks": 3,
          "midi": 56,
          "name": "G#3",
          "ticks": 2253,
          "time": 24.48913043478261,
          "velocity": 0.3937007874015748
        },
        {
          "duration": 0.021739130434781373,
          "durationTicks": 2,
          "midi": 46,
          "name": "A#2",
          "ticks": 2254,
          "time": 24.5,
          "velocity": 0.4251968503937008
        },
        {
          "duration": 0.0869565217391326,
          "durationTicks": 8,
          "midi": 55,
          "name": "G3",
          "ticks": 2256,
          "time": 24.52173913043478,
          "velocity": 0.30708661417322836
        },
        {
          "duration": 0.03260869565217206,
          "durationTicks": 3,
          "midi": 36,
          "name": "C2",
          "ticks": 2258,
          "time": 24.543478260869566,
          "velocity": 0.2992125984251969
        },
        {
          "duration": 0.021739130434781373,
          "durationTicks": 2,
          "midi": 46,
          "name": "A#2",
          "ticks": 2270,
          "time": 24.67391304347826,
          "velocity": 0.28346456692913385
        },
        {
          "duration": 0.28260869565217206,
          "durationTicks": 26,
          "midi": 67,
          "name": "G4",
          "ticks": 2270,
          "time": 24.67391304347826,
          "velocity": 0.5196850393700787
        },
        {
          "duration": 0.021739130434781373,
          "durationTicks": 2,
          "midi": 60,
          "name": "C4",
          "ticks": 2271,
          "time": 24.684782608695652,
          "velocity": 0.3228346456692913
        },
        {
          "duration": 0.03260869565217561,
          "durationTicks": 3,
          "midi": 47,
          "name": "B2",
          "ticks": 2272,
          "time": 24.695652173913043,
          "velocity": 0.29133858267716534
        },
        {
          "duration": 0.021739130434781373,
          "durationTicks": 2,
          "midi": 55,
          "name": "G3",
          "ticks": 2272,
          "time": 24.695652173913043,
          "velocity": 0.3464566929133858
        },
        {
          "duration": 0.03260869565217561,
          "durationTicks": 3,
          "midi": 56,
          "name": "G#3",
          "ticks": 2274,
          "time": 24.717391304347824,
          "velocity": 0.3858267716535433
        },
        {
          "duration": 0.03260869565217206,
          "durationTicks": 3,
          "midi": 60,
          "name": "C4",
          "ticks": 2275,
          "time": 24.72826086956522,
          "velocity": 0.2125984251968504
        },
        {
          "duration": 0.09782608695652328,
          "durationTicks": 9,
          "midi": 55,
          "name": "G3",
          "ticks": 2277,
          "time": 24.75,
          "velocity": 0.5826771653543307
        },
        {
          "duration": 0.021739130434784926,
          "durationTicks": 2,
          "midi": 46,
          "name": "A#2",
          "ticks": 2278,
          "time": 24.76086956521739,
          "velocity": 0.4015748031496063
        },
        {
          "duration": 0.11956521739130466,
          "durationTicks": 11,
          "midi": 60,
          "name": "C4",
          "ticks": 2279,
          "time": 24.77173913043478,
          "velocity": 0.3937007874015748
        },
        {
          "duration": 0.10869565217391397,
          "durationTicks": 10,
          "midi": 84,
          "name": "C6",
          "ticks": 2279,
          "time": 24.77173913043478,
          "velocity": 0.1732283464566929
        },
        {
          "duration": 0.10869565217391397,
          "durationTicks": 10,
          "midi": 86,
          "name": "D6",
          "ticks": 2279,
          "time": 24.77173913043478,
          "velocity": 0.2283464566929134
        },
        {
          "duration": 0.03260869565217561,
          "durationTicks": 3,
          "midi": 95,
          "name": "B6",
          "ticks": 2279,
          "time": 24.77173913043478,
          "velocity": 0.11811023622047244
        },
        {
          "duration": 0.0434782608695663,
          "durationTicks": 4,
          "midi": 64,
          "name": "E4",
          "ticks": 2283,
          "time": 24.815217391304348,
          "velocity": 0.25196850393700787
        },
        {
          "duration": 0.021739130434784926,
          "durationTicks": 2,
          "midi": 37,
          "name": "C#2",
          "ticks": 2285,
          "time": 24.83695652173913,
          "velocity": 0.4251968503937008
        },
        {
          "duration": 0.10869565217391042,
          "durationTicks": 10,
          "midi": 38,
          "name": "D2",
          "ticks": 2287,
          "time": 24.858695652173914,
          "velocity": 0.4645669291338583
        },
        {
          "duration": 0.03260869565217561,
          "durationTicks": 3,
          "midi": 56,
          "name": "G#3",
          "ticks": 2300,
          "time": 25,
          "velocity": 0.4015748031496063
        },
        {
          "duration": 0.03260869565217561,
          "durationTicks": 3,
          "midi": 65,
          "name": "F4",
          "ticks": 2300,
          "time": 25,
          "velocity": 0.23622047244094488
        },
        {
          "duration": 0.06521739130434767,
          "durationTicks": 6,
          "midi": 50,
          "name": "D3",
          "ticks": 2301,
          "time": 25.01086956521739,
          "velocity": 0.3937007874015748
        },
        {
          "duration": 0.021739130434784926,
          "durationTicks": 2,
          "midi": 62,
          "name": "D4",
          "ticks": 2307,
          "time": 25.07608695652174,
          "velocity": 0.2283464566929134
        },
        {
          "duration": 0.021739130434784926,
          "durationTicks": 2,
          "midi": 37,
          "name": "C#2",
          "ticks": 2308,
          "time": 25.08695652173913,
          "velocity": 0.5118110236220472
        },
        {
          "duration": 0.14130434782608958,
          "durationTicks": 13,
          "midi": 72,
          "name": "C5",
          "ticks": 2308,
          "time": 25.08695652173913,
          "velocity": 0.18110236220472442
        },
        {
          "duration": 0.14130434782608958,
          "durationTicks": 13,
          "midi": 81,
          "name": "A5",
          "ticks": 2308,
          "time": 25.08695652173913,
          "velocity": 0.2283464566929134
        },
        {
          "duration": 0.021739130434781373,
          "durationTicks": 2,
          "midi": 54,
          "name": "F#3",
          "ticks": 2309,
          "time": 25.097826086956523,
          "velocity": 0.6299212598425197
        },
        {
          "duration": 0.23913043478260576,
          "durationTicks": 22,
          "midi": 76,
          "name": "E5",
          "ticks": 2309,
          "time": 25.097826086956523,
          "velocity": 0.14173228346456693
        },
        {
          "duration": 0.28260869565217206,
          "durationTicks": 26,
          "midi": 65,
          "name": "F4",
          "ticks": 2310,
          "time": 25.108695652173914,
          "velocity": 0.29133858267716534
        },
        {
          "duration": 0.010869565217390686,
          "durationTicks": 1,
          "midi": 53,
          "name": "F3",
          "ticks": 2311,
          "time": 25.119565217391305,
          "velocity": 0.5275590551181102
        },
        {
          "duration": 0.11956521739130466,
          "durationTicks": 11,
          "midi": 57,
          "name": "A3",
          "ticks": 2311,
          "time": 25.119565217391305,
          "velocity": 0.5511811023622047
        },
        {
          "duration": 0.021739130434781373,
          "durationTicks": 2,
          "midi": 42,
          "name": "F#2",
          "ticks": 2312,
          "time": 25.130434782608695,
          "velocity": 0.49606299212598426
        },
        {
          "duration": 0.25,
          "durationTicks": 23,
          "midi": 41,
          "name": "F2",
          "ticks": 2314,
          "time": 25.152173913043477,
          "velocity": 0.49606299212598426
        },
        {
          "duration": 0.054347826086956985,
          "durationTicks": 5,
          "midi": 57,
          "name": "A3",
          "ticks": 2323,
          "time": 25.25,
          "velocity": 0.4409448818897638
        },
        {
          "duration": 0.06521739130434767,
          "durationTicks": 6,
          "midi": 57,
          "name": "A3",
          "ticks": 2331,
          "time": 25.33695652173913,
          "velocity": 0.4094488188976378
        },
        {
          "duration": 0.03260869565217561,
          "durationTicks": 3,
          "midi": 52,
          "name": "E3",
          "ticks": 2335,
          "time": 25.380434782608695,
          "velocity": 0.4566929133858268
        },
        {
          "duration": 0.13043478260869534,
          "durationTicks": 12,
          "midi": 72,
          "name": "C5",
          "ticks": 2335,
          "time": 25.380434782608695,
          "velocity": 0.29133858267716534
        },
        {
          "duration": 0.13043478260869534,
          "durationTicks": 12,
          "midi": 81,
          "name": "A5",
          "ticks": 2335,
          "time": 25.380434782608695,
          "velocity": 0.1889763779527559
        },
        {
          "duration": 0.09782608695652328,
          "durationTicks": 9,
          "midi": 88,
          "name": "E6",
          "ticks": 2336,
          "time": 25.391304347826086,
          "velocity": 0.12598425196850394
        },
        {
          "duration": 0.054347826086956985,
          "durationTicks": 5,
          "midi": 91,
          "name": "G6",
          "ticks": 2336,
          "time": 25.391304347826086,
          "velocity": 0.10236220472440945
        },
        {
          "duration": 0.01086956521739424,
          "durationTicks": 1,
          "midi": 58,
          "name": "A#3",
          "ticks": 2337,
          "time": 25.402173913043477,
          "velocity": 0.5275590551181102
        },
        {
          "duration": 0.021739130434784926,
          "durationTicks": 2,
          "midi": 66,
          "name": "F#4",
          "ticks": 2337,
          "time": 25.402173913043477,
          "velocity": 0.36220472440944884
        },
        {
          "duration": 0.21739130434782794,
          "durationTicks": 20,
          "midi": 77,
          "name": "F5",
          "ticks": 2337,
          "time": 25.402173913043477,
          "velocity": 0.3228346456692913
        },
        {
          "duration": 0.07608695652173836,
          "durationTicks": 7,
          "midi": 41,
          "name": "F2",
          "ticks": 2338,
          "time": 25.41304347826087,
          "velocity": 0.4881889763779528
        },
        {
          "duration": 0.021739130434781373,
          "durationTicks": 2,
          "midi": 57,
          "name": "A3",
          "ticks": 2338,
          "time": 25.41304347826087,
          "velocity": 0.5669291338582677
        },
        {
          "duration": 0.29347826086956275,
          "durationTicks": 27,
          "midi": 65,
          "name": "F4",
          "ticks": 2339,
          "time": 25.42391304347826,
          "velocity": 0.4566929133858268
        },
        {
          "duration": 0.021739130434781373,
          "durationTicks": 2,
          "midi": 55,
          "name": "G3",
          "ticks": 2341,
          "time": 25.445652173913043,
          "velocity": 0.3937007874015748
        },
        {
          "duration": 0.021739130434781373,
          "durationTicks": 2,
          "midi": 60,
          "name": "C4",
          "ticks": 2341,
          "time": 25.445652173913043,
          "velocity": 0.3228346456692913
        },
        {
          "duration": 0.021739130434784926,
          "durationTicks": 2,
          "midi": 56,
          "name": "G#3",
          "ticks": 2343,
          "time": 25.467391304347824,
          "velocity": 0.4251968503937008
        },
        {
          "duration": 0.09782608695651973,
          "durationTicks": 9,
          "midi": 57,
          "name": "A3",
          "ticks": 2345,
          "time": 25.48913043478261,
          "velocity": 0.3937007874015748
        },
        {
          "duration": 0.03260869565217206,
          "durationTicks": 3,
          "midi": 39,
          "name": "D#2",
          "ticks": 2355,
          "time": 25.597826086956523,
          "velocity": 0.2992125984251969
        },
        {
          "duration": 0.03260869565217206,
          "durationTicks": 3,
          "midi": 57,
          "name": "A3",
          "ticks": 2361,
          "time": 25.66304347826087,
          "velocity": 0.08661417322834646
        },
        {
          "duration": 0.021739130434784926,
          "durationTicks": 2,
          "midi": 73,
          "name": "C#5",
          "ticks": 2365,
          "time": 25.706521739130434,
          "velocity": 0.23622047244094488
        },
        {
          "duration": 0.0869565217391326,
          "durationTicks": 8,
          "midi": 79,
          "name": "G5",
          "ticks": 2365,
          "time": 25.706521739130434,
          "velocity": 0.1889763779527559
        },
        {
          "duration": 0.07608695652174191,
          "durationTicks": 7,
          "midi": 94,
          "name": "A#6",
          "ticks": 2365,
          "time": 25.706521739130434,
          "velocity": 0.1889763779527559
        },
        {
          "duration": 0.09782608695652328,
          "durationTicks": 9,
          "midi": 60,
          "name": "C4",
          "ticks": 2366,
          "time": 25.717391304347824,
          "velocity": 0.5433070866141733
        },
        {
          "duration": 0.021739130434781373,
          "durationTicks": 2,
          "midi": 47,
          "name": "B2",
          "ticks": 2367,
          "time": 25.72826086956522,
          "velocity": 0.4645669291338583
        },
        {
          "duration": 0.17391304347826164,
          "durationTicks": 16,
          "midi": 48,
          "name": "C3",
          "ticks": 2369,
          "time": 25.75,
          "velocity": 0.4015748031496063
        },
        {
          "duration": 0.25,
          "durationTicks": 23,
          "midi": 36,
          "name": "C2",
          "ticks": 2371,
          "time": 25.77173913043478,
          "velocity": 0.47244094488188976
        },
        {
          "duration": 0.021739130434781373,
          "durationTicks": 2,
          "midi": 58,
          "name": "A#3",
          "ticks": 2384,
          "time": 25.91304347826087,
          "velocity": 0.44881889763779526
        },
        {
          "duration": 0.05434782608695343,
          "durationTicks": 5,
          "midi": 67,
          "name": "G4",
          "ticks": 2384,
          "time": 25.91304347826087,
          "velocity": 0.1732283464566929
        },
        {
          "duration": 0.06521739130434767,
          "durationTicks": 6,
          "midi": 57,
          "name": "A3",
          "ticks": 2386,
          "time": 25.934782608695652,
          "velocity": 0.4251968503937008
        },
        {
          "duration": 0.15217391304347672,
          "durationTicks": 14,
          "midi": 84,
          "name": "C6",
          "ticks": 2392,
          "time": 26,
          "velocity": 0.4330708661417323
        },
        {
          "duration": 0.13043478260869534,
          "durationTicks": 12,
          "midi": 69,
          "name": "A4",
          "ticks": 2393,
          "time": 26.01086956521739,
          "velocity": 0.2283464566929134
        },
        {
          "duration": 0.10869565217391397,
          "durationTicks": 10,
          "midi": 72,
          "name": "C5",
          "ticks": 2393,
          "time": 26.01086956521739,
          "velocity": 0.15748031496062992
        },
        {
          "duration": 0.09782608695652328,
          "durationTicks": 9,
          "midi": 81,
          "name": "A5",
          "ticks": 2393,
          "time": 26.01086956521739,
          "velocity": 0.23622047244094488
        },
        {
          "duration": 0.021739130434784926,
          "durationTicks": 2,
          "midi": 48,
          "name": "C3",
          "ticks": 2394,
          "time": 26.02173913043478,
          "velocity": 0.41732283464566927
        },
        {
          "duration": 0.01086956521739424,
          "durationTicks": 1,
          "midi": 54,
          "name": "F#3",
          "ticks": 2394,
          "time": 26.02173913043478,
          "velocity": 0.5354330708661418
        },
        {
          "duration": 0.304347826086957,
          "durationTicks": 28,
          "midi": 65,
          "name": "F4",
          "ticks": 2394,
          "time": 26.02173913043478,
          "velocity": 0.5118110236220472
        },
        {
          "duration": 0.11956521739130466,
          "durationTicks": 11,
          "midi": 89,
          "name": "F6",
          "ticks": 2394,
          "time": 26.02173913043478,
          "velocity": 0.28346456692913385
        },
        {
          "duration": 0.0434782608695663,
          "durationTicks": 4,
          "midi": 99,
          "name": "D#7",
          "ticks": 2394,
          "time": 26.02173913043478,
          "velocity": 0.11023622047244094
        },
        {
          "duration": 0.03260869565217206,
          "durationTicks": 3,
          "midi": 36,
          "name": "C2",
          "ticks": 2395,
          "time": 26.032608695652176,
          "velocity": 0.4645669291338583
        },
        {
          "duration": 0.010869565217390686,
          "durationTicks": 1,
          "midi": 55,
          "name": "G3",
          "ticks": 2395,
          "time": 26.032608695652176,
          "velocity": 0.5275590551181102
        },
        {
          "duration": 0.054347826086956985,
          "durationTicks": 5,
          "midi": 47,
          "name": "B2",
          "ticks": 2396,
          "time": 26.043478260869566,
          "velocity": 0.4015748031496063
        },
        {
          "duration": 0.021739130434781373,
          "durationTicks": 2,
          "midi": 56,
          "name": "G#3",
          "ticks": 2396,
          "time": 26.043478260869566,
          "velocity": 0.5669291338582677
        },
        {
          "duration": 0.16304347826087096,
          "durationTicks": 15,
          "midi": 57,
          "name": "A3",
          "ticks": 2398,
          "time": 26.065217391304348,
          "velocity": 0.5118110236220472
        },
        {
          "duration": 0.0434782608695663,
          "durationTicks": 4,
          "midi": 36,
          "name": "C2",
          "ticks": 2399,
          "time": 26.07608695652174,
          "velocity": 0.41732283464566927
        },
        {
          "duration": 0.021739130434781373,
          "durationTicks": 2,
          "midi": 49,
          "name": "C#3",
          "ticks": 2402,
          "time": 26.108695652173914,
          "velocity": 0.29133858267716534
        },
        {
          "duration": 0.021739130434781373,
          "durationTicks": 2,
          "midi": 41,
          "name": "F2",
          "ticks": 2413,
          "time": 26.22826086956522,
          "velocity": 0.44881889763779526
        },
        {
          "duration": 0.054347826086956985,
          "durationTicks": 5,
          "midi": 57,
          "name": "A3",
          "ticks": 2416,
          "time": 26.26086956521739,
          "velocity": 0.3228346456692913
        },
        {
          "duration": 0.021739130434784926,
          "durationTicks": 2,
          "midi": 42,
          "name": "F#2",
          "ticks": 2417,
          "time": 26.27173913043478,
          "velocity": 0.4330708661417323
        },
        {
          "duration": 0.11956521739130466,
          "durationTicks": 11,
          "midi": 77,
          "name": "F5",
          "ticks": 2422,
          "time": 26.32608695652174,
          "velocity": 0.29133858267716534
        },
        {
          "duration": 0.13043478260869534,
          "durationTicks": 12,
          "midi": 84,
          "name": "C6",
          "ticks": 2422,
          "time": 26.32608695652174,
          "velocity": 0.4645669291338583
        },
        {
          "duration": 0.03260869565217561,
          "durationTicks": 3,
          "midi": 91,
          "name": "G6",
          "ticks": 2422,
          "time": 26.32608695652174,
          "velocity": 0.1889763779527559
        },
        {
          "duration": 0.021739130434784926,
          "durationTicks": 2,
          "midi": 39,
          "name": "D#2",
          "ticks": 2423,
          "time": 26.33695652173913,
          "velocity": 0.49606299212598426
        },
        {
          "duration": 0.09782608695652328,
          "durationTicks": 9,
          "midi": 65,
          "name": "F4",
          "ticks": 2423,
          "time": 26.33695652173913,
          "velocity": 0.3858267716535433
        },
        {
          "duration": 0.021739130434781373,
          "durationTicks": 2,
          "midi": 53,
          "name": "F3",
          "ticks": 2424,
          "time": 26.347826086956523,
          "velocity": 0.5039370078740157
        },
        {
          "duration": 0.021739130434781373,
          "durationTicks": 2,
          "midi": 42,
          "name": "F#2",
          "ticks": 2425,
          "time": 26.358695652173914,
          "velocity": 0.5118110236220472
        },
        {
          "duration": 0.09782608695651973,
          "durationTicks": 9,
          "midi": 101,
          "name": "F7",
          "ticks": 2425,
          "time": 26.358695652173914,
          "velocity": 0.2204724409448819
        },
        {
          "duration": 0.010869565217390686,
          "durationTicks": 1,
          "midi": 38,
          "name": "D2",
          "ticks": 2427,
          "time": 26.380434782608695,
          "velocity": 0.5196850393700787
        },
        {
          "duration": 0.0434782608695663,
          "durationTicks": 4,
          "midi": 69,
          "name": "A4",
          "ticks": 2427,
          "time": 26.380434782608695,
          "velocity": 0.12598425196850394
        },
        {
          "duration": 0.25,
          "durationTicks": 23,
          "midi": 53,
          "name": "F3",
          "ticks": 2428,
          "time": 26.391304347826086,
          "velocity": 0.4015748031496063
        },
        {
          "duration": 0.2173913043478244,
          "durationTicks": 20,
          "midi": 86,
          "name": "D6",
          "ticks": 2431,
          "time": 26.42391304347826,
          "velocity": 0.3543307086614173
        },
        {
          "duration": 0.09782608695651973,
          "durationTicks": 9,
          "midi": 91,
          "name": "G6",
          "ticks": 2431,
          "time": 26.42391304347826,
          "velocity": 0.2125984251968504
        },
        {
          "duration": 0.18478260869565233,
          "durationTicks": 17,
          "midi": 95,
          "name": "B6",
          "ticks": 2431,
          "time": 26.42391304347826,
          "velocity": 0.13385826771653545
        },
        {
          "duration": 0.021739130434781373,
          "durationTicks": 2,
          "midi": 42,
          "name": "F#2",
          "ticks": 2432,
          "time": 26.434782608695652,
          "velocity": 0.47244094488188976
        },
        {
          "duration": 0.021739130434781373,
          "durationTicks": 2,
          "midi": 66,
          "name": "F#4",
          "ticks": 2432,
          "time": 26.434782608695652,
          "velocity": 0.4330708661417323
        },
        {
          "duration": 0.2173913043478244,
          "durationTicks": 20,
          "midi": 79,
          "name": "G5",
          "ticks": 2432,
          "time": 26.434782608695652,
          "velocity": 0.1889763779527559
        },
        {
          "duration": 0.20652173913043725,
          "durationTicks": 19,
          "midi": 67,
          "name": "G4",
          "ticks": 2434,
          "time": 26.456521739130434,
          "velocity": 0.5275590551181102
        },
        {
          "duration": 0.054347826086956985,
          "durationTicks": 5,
          "midi": 41,
          "name": "F2",
          "ticks": 2435,
          "time": 26.467391304347824,
          "velocity": 0.4409448818897638
        },
        {
          "duration": 0.021739130434781373,
          "durationTicks": 2,
          "midi": 42,
          "name": "F#2",
          "ticks": 2441,
          "time": 26.532608695652176,
          "velocity": 0.33070866141732286
        },
        {
          "duration": 0.021739130434781373,
          "durationTicks": 2,
          "midi": 41,
          "name": "F2",
          "ticks": 2443,
          "time": 26.554347826086957,
          "velocity": 0.3937007874015748
        },
        {
          "duration": 0.021739130434784926,
          "durationTicks": 2,
          "midi": 42,
          "name": "F#2",
          "ticks": 2445,
          "time": 26.57608695652174,
          "velocity": 0.4094488188976378
        },
        {
          "duration": 0.07608695652173836,
          "durationTicks": 7,
          "midi": 41,
          "name": "F2",
          "ticks": 2447,
          "time": 26.597826086956523,
          "velocity": 0.41732283464566927
        },
        {
          "duration": 0.03260869565217561,
          "durationTicks": 3,
          "midi": 73,
          "name": "C#5",
          "ticks": 2451,
          "time": 26.641304347826086,
          "velocity": 0.2125984251968504
        },
        {
          "duration": 0.17391304347826164,
          "durationTicks": 16,
          "midi": 77,
          "name": "F5",
          "ticks": 2451,
          "time": 26.641304347826086,
          "velocity": 0.2755905511811024
        },
        {
          "duration": 0.17391304347826164,
          "durationTicks": 16,
          "midi": 84,
          "name": "C6",
          "ticks": 2451,
          "time": 26.641304347826086,
          "velocity": 0.36220472440944884
        },
        {
          "duration": 0.0434782608695663,
          "durationTicks": 4,
          "midi": 69,
          "name": "A4",
          "ticks": 2452,
          "time": 26.652173913043477,
          "velocity": 0.3228346456692913
        },
        {
          "duration": 0.03260869565217561,
          "durationTicks": 3,
          "midi": 86,
          "name": "D6",
          "ticks": 2452,
          "time": 26.652173913043477,
          "velocity": 0.10236220472440945
        },
        {
          "duration": 0.021739130434781373,
          "durationTicks": 2,
          "midi": 58,
          "name": "A#3",
          "ticks": 2453,
          "time": 26.66304347826087,
          "velocity": 0.5354330708661418
        },
        {
          "duration": 0.14130434782608603,
          "durationTicks": 13,
          "midi": 65,
          "name": "F4",
          "ticks": 2453,
          "time": 26.66304347826087,
          "velocity": 0.5354330708661418
        },
        {
          "duration": 0.11956521739130466,
          "durationTicks": 11,
          "midi": 57,
          "name": "A3",
          "ticks": 2455,
          "time": 26.684782608695652,
          "velocity": 0.4566929133858268
        },
        {
          "duration": 0.021739130434781373,
          "durationTicks": 2,
          "midi": 67,
          "name": "G4",
          "ticks": 2464,
          "time": 26.782608695652176,
          "velocity": 0.29133858267716534
        },
        {
          "duration": 0.03260869565217206,
          "durationTicks": 3,
          "midi": 32,
          "name": "G#1",
          "ticks": 2465,
          "time": 26.793478260869566,
          "velocity": 0.07086614173228346
        },
        {
          "duration": 0.14130434782608603,
          "durationTicks": 13,
          "midi": 65,
          "name": "F4",
          "ticks": 2467,
          "time": 26.815217391304348,
          "velocity": 0.4645669291338583
        },
        {
          "duration": 0.021739130434784926,
          "durationTicks": 2,
          "midi": 49,
          "name": "C#3",
          "ticks": 2468,
          "time": 26.82608695652174,
          "velocity": 0.25196850393700787
        },
        {
          "duration": 0.021739130434784926,
          "durationTicks": 2,
          "midi": 57,
          "name": "A3",
          "ticks": 2469,
          "time": 26.83695652173913,
          "velocity": 0.4330708661417323
        },
        {
          "duration": 0.14130434782608958,
          "durationTicks": 13,
          "midi": 84,
          "name": "C6",
          "ticks": 2469,
          "time": 26.83695652173913,
          "velocity": 0.4094488188976378
        },
        {
          "duration": 0.08695652173912904,
          "durationTicks": 8,
          "midi": 101,
          "name": "F7",
          "ticks": 2470,
          "time": 26.847826086956523,
          "velocity": 0.11023622047244094
        },
        {
          "duration": 0.021739130434781373,
          "durationTicks": 2,
          "midi": 45,
          "name": "A2",
          "ticks": 2471,
          "time": 26.858695652173914,
          "velocity": 0.29133858267716534
        },
        {
          "duration": 0.021739130434781373,
          "durationTicks": 2,
          "midi": 56,
          "name": "G#3",
          "ticks": 2471,
          "time": 26.858695652173914,
          "velocity": 0.4645669291338583
        },
        {
          "duration": 0.08695652173912904,
          "durationTicks": 8,
          "midi": 57,
          "name": "A3",
          "ticks": 2473,
          "time": 26.880434782608695,
          "velocity": 0.3543307086614173
        },
        {
          "duration": 0.0434782608695663,
          "durationTicks": 4,
          "midi": 46,
          "name": "A#2",
          "ticks": 2474,
          "time": 26.891304347826086,
          "velocity": 0.30708661417322836
        },
        {
          "duration": 0.0434782608695663,
          "durationTicks": 4,
          "midi": 47,
          "name": "B2",
          "ticks": 2478,
          "time": 26.934782608695652,
          "velocity": 0.49606299212598426
        },
        {
          "duration": 0.021739130434784926,
          "durationTicks": 2,
          "midi": 64,
          "name": "E4",
          "ticks": 2480,
          "time": 26.956521739130434,
          "velocity": 0.2755905511811024
        },
        {
          "duration": 0.18478260869565233,
          "durationTicks": 17,
          "midi": 48,
          "name": "C3",
          "ticks": 2482,
          "time": 26.97826086956522,
          "velocity": 0.4881889763779528
        },
        {
          "duration": 0.22826086956521507,
          "durationTicks": 21,
          "midi": 36,
          "name": "C2",
          "ticks": 2488,
          "time": 27.043478260869566,
          "velocity": 0.4645669291338583
        },
        {
          "duration": 0.021739130434781373,
          "durationTicks": 2,
          "midi": 57,
          "name": "A3",
          "ticks": 2496,
          "time": 27.130434782608695,
          "velocity": 0.2283464566929134
        },
        {
          "duration": 0.021739130434784926,
          "durationTicks": 2,
          "midi": 73,
          "name": "C#5",
          "ticks": 2497,
          "time": 27.141304347826086,
          "velocity": 0.3228346456692913
        },
        {
          "duration": 0.03260869565217561,
          "durationTicks": 3,
          "midi": 58,
          "name": "A#3",
          "ticks": 2498,
          "time": 27.152173913043477,
          "velocity": 0.4881889763779528
        },
        {
          "duration": 0.11956521739130466,
          "durationTicks": 11,
          "midi": 69,
          "name": "A4",
          "ticks": 2498,
          "time": 27.152173913043477,
          "velocity": 0.2755905511811024
        },
        {
          "duration": 0.09782608695651973,
          "durationTicks": 9,
          "midi": 62,
          "name": "D4",
          "ticks": 2499,
          "time": 27.16304347826087,
          "velocity": 0.4094488188976378
        },
        {
          "duration": 0.043478260869562746,
          "durationTicks": 4,
          "midi": 84,
          "name": "C6",
          "ticks": 2499,
          "time": 27.16304347826087,
          "velocity": 0.15748031496062992
        },
        {
          "duration": 0.08695652173912904,
          "durationTicks": 8,
          "midi": 57,
          "name": "A3",
          "ticks": 2501,
          "time": 27.184782608695652,
          "velocity": 0.47244094488188976
        },
        {
          "duration": 0.28260869565217206,
          "durationTicks": 26,
          "midi": 65,
          "name": "F4",
          "ticks": 2501,
          "time": 27.184782608695652,
          "velocity": 0.44881889763779526
        },
        {
          "duration": 0.021739130434784926,
          "durationTicks": 2,
          "midi": 35,
          "name": "B1",
          "ticks": 2509,
          "time": 27.27173913043478,
          "velocity": 0.48031496062992124
        },
        {
          "duration": 0.01086956521739424,
          "durationTicks": 1,
          "midi": 58,
          "name": "A#3",
          "ticks": 2509,
          "time": 27.27173913043478,
          "velocity": 0.5118110236220472
        },
        {
          "duration": 0.054347826086956985,
          "durationTicks": 5,
          "midi": 84,
          "name": "C6",
          "ticks": 2509,
          "time": 27.27173913043478,
          "velocity": 0.1889763779527559
        },
        {
          "duration": 0.021739130434781373,
          "durationTicks": 2,
          "midi": 56,
          "name": "G#3",
          "ticks": 2510,
          "time": 27.282608695652176,
          "velocity": 0.6220472440944882
        },
        {
          "duration": 0.03260869565217206,
          "durationTicks": 3,
          "midi": 36,
          "name": "C2",
          "ticks": 2511,
          "time": 27.293478260869566,
          "velocity": 0.49606299212598426
        },
        {
          "duration": 0.09782608695651973,
          "durationTicks": 9,
          "midi": 57,
          "name": "A3",
          "ticks": 2512,
          "time": 27.304347826086957,
          "velocity": 0.5511811023622047
        },
        {
          "duration": 0.021739130434784926,
          "durationTicks": 2,
          "midi": 33,
          "name": "A1",
          "ticks": 2514,
          "time": 27.32608695652174,
          "velocity": 0.3543307086614173
        },
        {
          "duration": 0.054347826086956985,
          "durationTicks": 5,
          "midi": 56,
          "name": "G#3",
          "ticks": 2521,
          "time": 27.402173913043477,
          "velocity": 0.25196850393700787
        },
        {
          "duration": 0.13043478260869534,
          "durationTicks": 12,
          "midi": 84,
          "name": "C6",
          "ticks": 2526,
          "time": 27.456521739130434,
          "velocity": 0.1732283464566929
        },
        {
          "duration": 0.17391304347826164,
          "durationTicks": 16,
          "midi": 86,
          "name": "D6",
          "ticks": 2526,
          "time": 27.456521739130434,
          "velocity": 0.4094488188976378
        },
        {
          "duration": 0.03260869565217561,
          "durationTicks": 3,
          "midi": 56,
          "name": "G#3",
          "ticks": 2527,
          "time": 27.467391304347824,
          "velocity": 0.5511811023622047
        },
        {
          "duration": 0.16304347826087096,
          "durationTicks": 15,
          "midi": 79,
          "name": "G5",
          "ticks": 2527,
          "time": 27.467391304347824,
          "velocity": 0.25984251968503935
        },
        {
          "duration": 0.15217391304347672,
          "durationTicks": 14,
          "midi": 67,
          "name": "G4",
          "ticks": 2528,
          "time": 27.47826086956522,
          "velocity": 0.4881889763779528
        },
        {
          "duration": 0.11956521739130466,
          "durationTicks": 11,
          "midi": 101,
          "name": "F7",
          "ticks": 2528,
          "time": 27.47826086956522,
          "velocity": 0.13385826771653545
        },
        {
          "duration": 0.021739130434784926,
          "durationTicks": 2,
          "midi": 54,
          "name": "F#3",
          "ticks": 2531,
          "time": 27.51086956521739,
          "velocity": 0.33070866141732286
        },
        {
          "duration": 0.03260869565217561,
          "durationTicks": 3,
          "midi": 60,
          "name": "C4",
          "ticks": 2531,
          "time": 27.51086956521739,
          "velocity": 0.3228346456692913
        },
        {
          "duration": 0.021739130434784926,
          "durationTicks": 2,
          "midi": 47,
          "name": "B2",
          "ticks": 2532,
          "time": 27.52173913043478,
          "velocity": 0.3700787401574803
        },
        {
          "duration": 0.021739130434781373,
          "durationTicks": 2,
          "midi": 35,
          "name": "B1",
          "ticks": 2533,
          "time": 27.532608695652176,
          "velocity": 0.3464566929133858
        },
        {
          "duration": 0.021739130434781373,
          "durationTicks": 2,
          "midi": 55,
          "name": "G3",
          "ticks": 2533,
          "time": 27.532608695652176,
          "velocity": 0.33858267716535434
        },
        {
          "duration": 0.03260869565217206,
          "durationTicks": 3,
          "midi": 36,
          "name": "C2",
          "ticks": 2535,
          "time": 27.554347826086957,
          "velocity": 0.3543307086614173
        },
        {
          "duration": 0.021739130434781373,
          "durationTicks": 2,
          "midi": 49,
          "name": "C#3",
          "ticks": 2535,
          "time": 27.554347826086957,
          "velocity": 0.2677165354330709
        },
        {
          "duration": 0.054347826086956985,
          "durationTicks": 5,
          "midi": 95,
          "name": "B6",
          "ticks": 2536,
          "time": 27.565217391304348,
          "velocity": 0.11023622047244094
        },
        {
          "duration": 0.03260869565217561,
          "durationTicks": 3,
          "midi": 55,
          "name": "G3",
          "ticks": 2537,
          "time": 27.57608695652174,
          "velocity": 0.3779527559055118
        },
        {
          "duration": 0.021739130434781373,
          "durationTicks": 2,
          "midi": 47,
          "name": "B2",
          "ticks": 2541,
          "time": 27.619565217391305,
          "velocity": 0.5669291338582677
        },
        {
          "duration": 0.03260869565217561,
          "durationTicks": 3,
          "midi": 68,
          "name": "G#4",
          "ticks": 2542,
          "time": 27.630434782608695,
          "velocity": 0.44881889763779526
        },
        {
          "duration": 0.2717391304347849,
          "durationTicks": 25,
          "midi": 48,
          "name": "C3",
          "ticks": 2543,
          "time": 27.641304347826086,
          "velocity": 0.5118110236220472
        },
        {
          "duration": 0.03260869565217561,
          "durationTicks": 3,
          "midi": 56,
          "name": "G#3",
          "ticks": 2543,
          "time": 27.641304347826086,
          "velocity": 0.33070866141732286
        },
        {
          "duration": 0.2717391304347849,
          "durationTicks": 25,
          "midi": 88,
          "name": "E6",
          "ticks": 2543,
          "time": 27.641304347826086,
          "velocity": 0.2125984251968504
        },
        {
          "duration": 0.054347826086956985,
          "durationTicks": 5,
          "midi": 37,
          "name": "C#2",
          "ticks": 2544,
          "time": 27.652173913043477,
          "velocity": 0.4094488188976378
        },
        {
          "duration": 0.22826086956521863,
          "durationTicks": 21,
          "midi": 81,
          "name": "A5",
          "ticks": 2544,
          "time": 27.652173913043477,
          "velocity": 0.2677165354330709
        },
        {
          "duration": 0.23913043478260576,
          "durationTicks": 22,
          "midi": 69,
          "name": "A4",
          "ticks": 2545,
          "time": 27.66304347826087,
          "velocity": 0.4330708661417323
        },
        {
          "duration": 0.0434782608695663,
          "durationTicks": 4,
          "midi": 97,
          "name": "C#7",
          "ticks": 2548,
          "time": 27.695652173913043,
          "velocity": 0.07874015748031496
        },
        {
          "duration": 0.15217391304348027,
          "durationTicks": 14,
          "midi": 36,
          "name": "C2",
          "ticks": 2549,
          "time": 27.706521739130434,
          "velocity": 0.4251968503937008
        },
        {
          "duration": 0.054347826086956985,
          "durationTicks": 5,
          "midi": 103,
          "name": "G7",
          "ticks": 2549,
          "time": 27.706521739130434,
          "velocity": 0.10236220472440945
        },
        {
          "duration": 0.021739130434781373,
          "durationTicks": 2,
          "midi": 36,
          "name": "C2",
          "ticks": 2564,
          "time": 27.869565217391305,
          "velocity": 0.48031496062992124
        },
        {
          "duration": 0.021739130434781373,
          "durationTicks": 2,
          "midi": 56,
          "name": "G#3",
          "ticks": 2564,
          "time": 27.869565217391305,
          "velocity": 0.2440944881889764
        },
        {
          "duration": 0.07608695652173836,
          "durationTicks": 7,
          "midi": 72,
          "name": "C5",
          "ticks": 2566,
          "time": 27.891304347826086,
          "velocity": 0.33070866141732286
        },
        {
          "duration": 0.03260869565217561,
          "durationTicks": 3,
          "midi": 79,
          "name": "G5",
          "ticks": 2566,
          "time": 27.891304347826086,
          "velocity": 0.11811023622047244
        },
        {
          "duration": 0.16304347826087096,
          "durationTicks": 15,
          "midi": 84,
          "name": "C6",
          "ticks": 2566,
          "time": 27.891304347826086,
          "velocity": 0.3700787401574803
        },
        {
          "duration": 0.608695652173914,
          "durationTicks": 56,
          "midi": 67,
          "name": "G4",
          "ticks": 2567,
          "time": 27.902173913043477,
          "velocity": 0.5039370078740157
        },
        {
          "duration": 0.3478260869565233,
          "durationTicks": 32,
          "midi": 86,
          "name": "D6",
          "ticks": 2567,
          "time": 27.902173913043477,
          "velocity": 0.29133858267716534
        },
        {
          "duration": 0.021739130434781373,
          "durationTicks": 2,
          "midi": 35,
          "name": "B1",
          "ticks": 2568,
          "time": 27.91304347826087,
          "velocity": 0.4566929133858268
        },
        {
          "duration": 0.010869565217390686,
          "durationTicks": 1,
          "midi": 47,
          "name": "B2",
          "ticks": 2568,
          "time": 27.91304347826087,
          "velocity": 0.5118110236220472
        },
        {
          "duration": 0.021739130434781373,
          "durationTicks": 2,
          "midi": 56,
          "name": "G#3",
          "ticks": 2568,
          "time": 27.91304347826087,
          "velocity": 0.5511811023622047
        },
        {
          "duration": 0.07608695652173836,
          "durationTicks": 7,
          "midi": 48,
          "name": "C3",
          "ticks": 2569,
          "time": 27.92391304347826,
          "velocity": 0.48031496062992124
        },
        {
          "duration": 0.054347826086956985,
          "durationTicks": 5,
          "midi": 64,
          "name": "E4",
          "ticks": 2569,
          "time": 27.92391304347826,
          "velocity": 0.2677165354330709
        },
        {
          "duration": 0.10869565217391397,
          "durationTicks": 10,
          "midi": 55,
          "name": "G3",
          "ticks": 2570,
          "time": 27.934782608695652,
          "velocity": 0.4881889763779528
        },
        {
          "duration": 0.054347826086956985,
          "durationTicks": 5,
          "midi": 100,
          "name": "E7",
          "ticks": 2570,
          "time": 27.934782608695652,
          "velocity": 0.07086614173228346
        },
        {
          "duration": 0.021739130434784926,
          "durationTicks": 2,
          "midi": 48,
          "name": "C3",
          "ticks": 2577,
          "time": 28.01086956521739,
          "velocity": 0.30708661417322836
        },
        {
          "duration": 0.14130434782608603,
          "durationTicks": 13,
          "midi": 55,
          "name": "G3",
          "ticks": 2581,
          "time": 28.054347826086957,
          "velocity": 0.2677165354330709
        },
        {
          "duration": 0.021739130434781373,
          "durationTicks": 2,
          "midi": 47,
          "name": "B2",
          "ticks": 2582,
          "time": 28.065217391304348,
          "velocity": 0.25196850393700787
        },
        {
          "duration": 0.03260869565217561,
          "durationTicks": 3,
          "midi": 58,
          "name": "A#3",
          "ticks": 2594,
          "time": 28.195652173913043,
          "velocity": 0.2992125984251969
        },
        {
          "duration": 0.03260869565217206,
          "durationTicks": 3,
          "midi": 54,
          "name": "F#3",
          "ticks": 2598,
          "time": 28.23913043478261,
          "velocity": 0.2992125984251969
        },
        {
          "duration": 0.021739130434781373,
          "durationTicks": 2,
          "midi": 42,
          "name": "F#2",
          "ticks": 2599,
          "time": 28.25,
          "velocity": 0.5118110236220472
        },
        {
          "duration": 0.25,
          "durationTicks": 23,
          "midi": 43,
          "name": "G2",
          "ticks": 2601,
          "time": 28.27173913043478,
          "velocity": 0.5354330708661418
        },
        {
          "duration": 0.06521739130434767,
          "durationTicks": 6,
          "midi": 62,
          "name": "D4",
          "ticks": 2604,
          "time": 28.304347826086957,
          "velocity": 0.12598425196850394
        },
        {
          "duration": 0.03260869565217561,
          "durationTicks": 3,
          "midi": 60,
          "name": "C4",
          "ticks": 2612,
          "time": 28.391304347826086,
          "velocity": 0.2755905511811024
        },
        {
          "duration": 0.03260869565217206,
          "durationTicks": 3,
          "midi": 60,
          "name": "C4",
          "ticks": 2616,
          "time": 28.434782608695652,
          "velocity": 0.25196850393700787
        },
        {
          "duration": 0.03260869565217561,
          "durationTicks": 3,
          "midi": 54,
          "name": "F#3",
          "ticks": 2622,
          "time": 28.5,
          "velocity": 0.5905511811023622
        },
        {
          "duration": 0.01086956521739424,
          "durationTicks": 1,
          "midi": 45,
          "name": "A2",
          "ticks": 2624,
          "time": 28.52173913043478,
          "velocity": 0.5905511811023622
        },
        {
          "duration": 0.15217391304348027,
          "durationTicks": 14,
          "midi": 67,
          "name": "G4",
          "ticks": 2624,
          "time": 28.52173913043478,
          "velocity": 0.47244094488188976
        },
        {
          "duration": 0.021739130434781373,
          "durationTicks": 2,
          "midi": 46,
          "name": "A#2",
          "ticks": 2625,
          "time": 28.532608695652176,
          "velocity": 0.5590551181102362
        },
        {
          "duration": 0.05434782608695343,
          "durationTicks": 5,
          "midi": 55,
          "name": "G3",
          "ticks": 2625,
          "time": 28.532608695652176,
          "velocity": 0.5669291338582677
        },
        {
          "duration": 0.043478260869562746,
          "durationTicks": 4,
          "midi": 60,
          "name": "C4",
          "ticks": 2625,
          "time": 28.532608695652176,
          "velocity": 0.4409448818897638
        },
        {
          "duration": 0.1195652173913011,
          "durationTicks": 11,
          "midi": 86,
          "name": "D6",
          "ticks": 2625,
          "time": 28.532608695652176,
          "velocity": 0.2677165354330709
        },
        {
          "duration": 0.05434782608695343,
          "durationTicks": 5,
          "midi": 95,
          "name": "B6",
          "ticks": 2625,
          "time": 28.532608695652176,
          "velocity": 0.11023622047244094
        },
        {
          "duration": 0.10869565217391042,
          "durationTicks": 10,
          "midi": 64,
          "name": "E4",
          "ticks": 2626,
          "time": 28.543478260869566,
          "velocity": 0.3464566929133858
        },
        {
          "duration": 0.03260869565217561,
          "durationTicks": 3,
          "midi": 46,
          "name": "A#2",
          "ticks": 2628,
          "time": 28.565217391304348,
          "velocity": 0.5118110236220472
        },
        {
          "duration": 0.021739130434781373,
          "durationTicks": 2,
          "midi": 55,
          "name": "G3",
          "ticks": 2631,
          "time": 28.597826086956523,
          "velocity": 0.30708661417322836
        },
        {
          "duration": 0.03260869565217206,
          "durationTicks": 3,
          "midi": 60,
          "name": "C4",
          "ticks": 2631,
          "time": 28.597826086956523,
          "velocity": 0.23622047244094488
        },
        {
          "duration": 0.021739130434781373,
          "durationTicks": 2,
          "midi": 45,
          "name": "A2",
          "ticks": 2632,
          "time": 28.608695652173914,
          "velocity": 0.36220472440944884
        },
        {
          "duration": 0.07608695652173836,
          "durationTicks": 7,
          "midi": 67,
          "name": "G4",
          "ticks": 2639,
          "time": 28.684782608695652,
          "velocity": 0.2204724409448819
        },
        {
          "duration": 0.021739130434784926,
          "durationTicks": 2,
          "midi": 56,
          "name": "G#3",
          "ticks": 2642,
          "time": 28.717391304347824,
          "velocity": 0.2755905511811024
        },
        {
          "duration": 0.021739130434781373,
          "durationTicks": 2,
          "midi": 46,
          "name": "A#2",
          "ticks": 2643,
          "time": 28.72826086956522,
          "velocity": 0.33070866141732286
        },
        {
          "duration": 0.0434782608695663,
          "durationTicks": 4,
          "midi": 55,
          "name": "G3",
          "ticks": 2644,
          "time": 28.73913043478261,
          "velocity": 0.33070866141732286
        },
        {
          "duration": 0.03260869565217561,
          "durationTicks": 3,
          "midi": 48,
          "name": "C3",
          "ticks": 2647,
          "time": 28.77173913043478,
          "velocity": 0.29133858267716534
        },
        {
          "duration": 0.021739130434781373,
          "durationTicks": 2,
          "midi": 57,
          "name": "A3",
          "ticks": 2649,
          "time": 28.793478260869566,
          "velocity": 0.2440944881889764
        },
        {
          "duration": 0.03260869565217206,
          "durationTicks": 3,
          "midi": 47,
          "name": "B2",
          "ticks": 2650,
          "time": 28.804347826086957,
          "velocity": 0.3937007874015748
        },
        {
          "duration": 0.021739130434781373,
          "durationTicks": 2,
          "midi": 58,
          "name": "A#3",
          "ticks": 2651,
          "time": 28.815217391304348,
          "velocity": 0.3228346456692913
        },
        {
          "duration": 0.11956521739130466,
          "durationTicks": 11,
          "midi": 64,
          "name": "E4",
          "ticks": 2652,
          "time": 28.82608695652174,
          "velocity": 0.3700787401574803
        },
        {
          "duration": 0.021739130434784926,
          "durationTicks": 2,
          "midi": 38,
          "name": "D2",
          "ticks": 2653,
          "time": 28.83695652173913,
          "velocity": 0.4645669291338583
        },
        {
          "duration": 0.01086956521739424,
          "durationTicks": 1,
          "midi": 49,
          "name": "C#3",
          "ticks": 2653,
          "time": 28.83695652173913,
          "velocity": 0.5118110236220472
        },
        {
          "duration": 0.021739130434784926,
          "durationTicks": 2,
          "midi": 68,
          "name": "G#4",
          "ticks": 2653,
          "time": 28.83695652173913,
          "velocity": 0.2677165354330709
        },
        {
          "duration": 0.07608695652174191,
          "durationTicks": 7,
          "midi": 86,
          "name": "D6",
          "ticks": 2653,
          "time": 28.83695652173913,
          "velocity": 0.16535433070866143
        },
        {
          "duration": 0.010869565217390686,
          "durationTicks": 1,
          "midi": 50,
          "name": "D3",
          "ticks": 2654,
          "time": 28.847826086956523,
          "velocity": 0.5590551181102362
        },
        {
          "duration": 0.05434782608695343,
          "durationTicks": 5,
          "midi": 72,
          "name": "C5",
          "ticks": 2654,
          "time": 28.847826086956523,
          "velocity": 0.1889763779527559
        },
        {
          "duration": 0.010869565217390686,
          "durationTicks": 1,
          "midi": 48,
          "name": "C3",
          "ticks": 2655,
          "time": 28.858695652173914,
          "velocity": 0.5905511811023622
        },
        {
          "duration": 0.043478260869562746,
          "durationTicks": 4,
          "midi": 67,
          "name": "G4",
          "ticks": 2655,
          "time": 28.858695652173914,
          "velocity": 0.33858267716535434
        },
        {
          "duration": 0.010869565217390686,
          "durationTicks": 1,
          "midi": 46,
          "name": "A#2",
          "ticks": 2656,
          "time": 28.869565217391305,
          "velocity": 0.5905511811023622
        },
        {
          "duration": 0.06521739130434767,
          "durationTicks": 6,
          "midi": 60,
          "name": "C4",
          "ticks": 2656,
          "time": 28.869565217391305,
          "velocity": 0.3543307086614173
        },
        {
          "duration": 0.03260869565217561,
          "durationTicks": 3,
          "midi": 31,
          "name": "G1",
          "ticks": 2657,
          "time": 28.880434782608695,
          "velocity": 0.41732283464566927
        },
        {
          "duration": 0.35869565217391397,
          "durationTicks": 33,
          "midi": 48,
          "name": "C3",
          "ticks": 2657,
          "time": 28.880434782608695,
          "velocity": 0.5275590551181102
        },
        {
          "duration": 0.2608695652173907,
          "durationTicks": 24,
          "midi": 55,
          "name": "G3",
          "ticks": 2658,
          "time": 28.891304347826086,
          "velocity": 0.49606299212598426
        },
        {
          "duration": 0.06521739130434767,
          "durationTicks": 6,
          "midi": 36,
          "name": "C2",
          "ticks": 2662,
          "time": 28.934782608695652,
          "velocity": 0.3228346456692913
        },
        {
          "duration": 0.22826086956521863,
          "durationTicks": 21,
          "midi": 36,
          "name": "C2",
          "ticks": 2669,
          "time": 29.01086956521739,
          "velocity": 0.3858267716535433
        },
        {
          "duration": 0.11956521739130466,
          "durationTicks": 11,
          "midi": 88,
          "name": "E6",
          "ticks": 2680,
          "time": 29.130434782608695,
          "velocity": 0.3937007874015748
        },
        {
          "duration": 0.11956521739130466,
          "durationTicks": 11,
          "midi": 69,
          "name": "A4",
          "ticks": 2681,
          "time": 29.141304347826086,
          "velocity": 0.4094488188976378
        },
        {
          "duration": 0.07608695652174191,
          "durationTicks": 7,
          "midi": 93,
          "name": "A6",
          "ticks": 2682,
          "time": 29.152173913043477,
          "velocity": 0.2204724409448819
        },
        {
          "duration": 0.07608695652174191,
          "durationTicks": 7,
          "midi": 97,
          "name": "C#7",
          "ticks": 2682,
          "time": 29.152173913043477,
          "velocity": 0.09448818897637795
        },
        {
          "duration": 0.10869565217391042,
          "durationTicks": 10,
          "midi": 89,
          "name": "F6",
          "ticks": 2689,
          "time": 29.22826086956522,
          "velocity": 0.1889763779527559
        },
        {
          "duration": 0.0434782608695663,
          "durationTicks": 4,
          "midi": 36,
          "name": "C2",
          "ticks": 2691,
          "time": 29.25,
          "velocity": 0.3228346456692913
        },
        {
          "duration": 0.09782608695652328,
          "durationTicks": 9,
          "midi": 70,
          "name": "A#4",
          "ticks": 2691,
          "time": 29.25,
          "velocity": 0.3779527559055118
        },
        {
          "duration": 0.06521739130434767,
          "durationTicks": 6,
          "midi": 48,
          "name": "C3",
          "ticks": 2695,
          "time": 29.293478260869566,
          "velocity": 0.12598425196850394
        },
        {
          "duration": 0.2065217391304337,
          "durationTicks": 19,
          "midi": 36,
          "name": "C2",
          "ticks": 2696,
          "time": 29.304347826086957,
          "velocity": 0.33858267716535434
        },
        {
          "duration": 0.13043478260869534,
          "durationTicks": 12,
          "midi": 81,
          "name": "A5",
          "ticks": 2698,
          "time": 29.32608695652174,
          "velocity": 0.18110236220472442
        },
        {
          "duration": 0.0869565217391326,
          "durationTicks": 8,
          "midi": 88,
          "name": "E6",
          "ticks": 2699,
          "time": 29.33695652173913,
          "velocity": 0.14173228346456693
        },
        {
          "duration": 0.09782608695651973,
          "durationTicks": 9,
          "midi": 69,
          "name": "A4",
          "ticks": 2700,
          "time": 29.347826086956523,
          "velocity": 0.3464566929133858
        },
        {
          "duration": 0.054347826086956985,
          "durationTicks": 5,
          "midi": 56,
          "name": "G#3",
          "ticks": 2707,
          "time": 29.42391304347826,
          "velocity": 0.25196850393700787
        },
        {
          "duration": 0.19565217391304301,
          "durationTicks": 18,
          "midi": 67,
          "name": "G4",
          "ticks": 2709,
          "time": 29.445652173913043,
          "velocity": 0.44881889763779526
        },
        {
          "duration": 0.18478260869565233,
          "durationTicks": 17,
          "midi": 86,
          "name": "D6",
          "ticks": 2709,
          "time": 29.445652173913043,
          "velocity": 0.2125984251968504
        },
        {
          "duration": 0.09782608695652328,
          "durationTicks": 9,
          "midi": 36,
          "name": "C2",
          "ticks": 2716,
          "time": 29.52173913043478,
          "velocity": 0.2440944881889764
        },
        {
          "duration": 0.03260869565217561,
          "durationTicks": 3,
          "midi": 54,
          "name": "F#3",
          "ticks": 2726,
          "time": 29.630434782608695,
          "velocity": 0.2755905511811024
        },
        {
          "duration": 0.42391304347826164,
          "durationTicks": 39,
          "midi": 84,
          "name": "C6",
          "ticks": 2726,
          "time": 29.630434782608695,
          "velocity": 0.33858267716535434
        },
        {
          "duration": 0.09782608695652328,
          "durationTicks": 9,
          "midi": 36,
          "name": "C2",
          "ticks": 2727,
          "time": 29.641304347826086,
          "velocity": 0.2677165354330709
        },
        {
          "duration": 0.40217391304348027,
          "durationTicks": 37,
          "midi": 65,
          "name": "F4",
          "ticks": 2727,
          "time": 29.641304347826086,
          "velocity": 0.44881889763779526
        },
        {
          "duration": 0.16304347826087096,
          "durationTicks": 15,
          "midi": 89,
          "name": "F6",
          "ticks": 2727,
          "time": 29.641304347826086,
          "velocity": 0.1889763779527559
        },
        {
          "duration": 0.15217391304347672,
          "durationTicks": 14,
          "midi": 36,
          "name": "C2",
          "ticks": 2737,
          "time": 29.75,
          "velocity": 0.2283464566929134
        },
        {
          "duration": 0.33695652173912904,
          "durationTicks": 31,
          "midi": 60,
          "name": "C4",
          "ticks": 2763,
          "time": 30.032608695652176,
          "velocity": 0.49606299212598426
        },
        {
          "duration": 0.03260869565217206,
          "durationTicks": 3,
          "midi": 66,
          "name": "F#4",
          "ticks": 2764,
          "time": 30.043478260869566,
          "velocity": 0.23622047244094488
        },
        {
          "duration": 0.10869565217391397,
          "durationTicks": 10,
          "midi": 79,
          "name": "G5",
          "ticks": 2765,
          "time": 30.054347826086957,
          "velocity": 0.14173228346456693
        },
        {
          "duration": 0.5652173913043477,
          "durationTicks": 52,
          "midi": 65,
          "name": "F4",
          "ticks": 2767,
          "time": 30.07608695652174,
          "velocity": 0.3937007874015748
        },
        {
          "duration": 0.021739130434784926,
          "durationTicks": 2,
          "midi": 52,
          "name": "E3",
          "ticks": 2768,
          "time": 30.08695652173913,
          "velocity": 0.4645669291338583
        },
        {
          "duration": 0.010869565217390686,
          "durationTicks": 1,
          "midi": 39,
          "name": "D#2",
          "ticks": 2770,
          "time": 30.108695652173914,
          "velocity": 0.5118110236220472
        },
        {
          "duration": 0.28260869565217206,
          "durationTicks": 26,
          "midi": 53,
          "name": "F3",
          "ticks": 2770,
          "time": 30.108695652173914,
          "velocity": 0.4881889763779528
        },
        {
          "duration": 0.28260869565217206,
          "durationTicks": 26,
          "midi": 41,
          "name": "F2",
          "ticks": 2771,
          "time": 30.119565217391305,
          "velocity": 0.5511811023622047
        },
        {
          "duration": 0.11956521739130466,
          "durationTicks": 11,
          "midi": 69,
          "name": "A4",
          "ticks": 2794,
          "time": 30.369565217391305,
          "velocity": 0.25984251968503935
        },
        {
          "duration": 0.15217391304348027,
          "durationTicks": 14,
          "midi": 84,
          "name": "C6",
          "ticks": 2795,
          "time": 30.380434782608695,
          "velocity": 0.28346456692913385
        },
        {
          "duration": 0.010869565217390686,
          "durationTicks": 1,
          "midi": 57,
          "name": "A3",
          "ticks": 2796,
          "time": 30.391304347826086,
          "velocity": 0.5984251968503937
        },
        {
          "duration": 0.03260869565217561,
          "durationTicks": 3,
          "midi": 42,
          "name": "F#2",
          "ticks": 2797,
          "time": 30.402173913043477,
          "velocity": 0.4094488188976378
        },
        {
          "duration": 0.01086956521739424,
          "durationTicks": 1,
          "midi": 56,
          "name": "G#3",
          "ticks": 2797,
          "time": 30.402173913043477,
          "velocity": 0.6456692913385826
        },
        {
          "duration": 0.08695652173912904,
          "durationTicks": 8,
          "midi": 57,
          "name": "A3",
          "ticks": 2798,
          "time": 30.41304347826087,
          "velocity": 0.6456692913385826
        },
        {
          "duration": 0.03260869565217561,
          "durationTicks": 3,
          "midi": 46,
          "name": "A#2",
          "ticks": 2802,
          "time": 30.456521739130434,
          "velocity": 0.2440944881889764
        },
        {
          "duration": 0.0434782608695663,
          "durationTicks": 4,
          "midi": 57,
          "name": "A3",
          "ticks": 2807,
          "time": 30.51086956521739,
          "velocity": 0.2677165354330709
        },
        {
          "duration": 0.03260869565217561,
          "durationTicks": 3,
          "midi": 57,
          "name": "A3",
          "ticks": 2814,
          "time": 30.58695652173913,
          "velocity": 0.2125984251968504
        },
        {
          "duration": 0.021739130434781373,
          "durationTicks": 2,
          "midi": 36,
          "name": "C2",
          "ticks": 2816,
          "time": 30.608695652173914,
          "velocity": 0.31496062992125984
        },
        {
          "duration": 0.03260869565217561,
          "durationTicks": 3,
          "midi": 57,
          "name": "A3",
          "ticks": 2818,
          "time": 30.630434782608695,
          "velocity": 0.10236220472440945
        },
        {
          "duration": 0.021739130434784926,
          "durationTicks": 2,
          "midi": 56,
          "name": "G#3",
          "ticks": 2825,
          "time": 30.706521739130434,
          "velocity": 0.3464566929133858
        },
        {
          "duration": 0.03260869565217561,
          "durationTicks": 3,
          "midi": 66,
          "name": "F#4",
          "ticks": 2825,
          "time": 30.706521739130434,
          "velocity": 0.1732283464566929
        },
        {
          "duration": 0.1630434782608674,
          "durationTicks": 15,
          "midi": 55,
          "name": "G3",
          "ticks": 2827,
          "time": 30.72826086956522,
          "velocity": 0.41732283464566927
        },
        {
          "duration": 0.13043478260869534,
          "durationTicks": 12,
          "midi": 36,
          "name": "C2",
          "ticks": 2830,
          "time": 30.76086956521739,
          "velocity": 0.4881889763779528
        },
        {
          "duration": 0.10869565217391042,
          "durationTicks": 10,
          "midi": 60,
          "name": "C4",
          "ticks": 2832,
          "time": 30.782608695652176,
          "velocity": 0.11023622047244094
        },
        {
          "duration": 0.021739130434784926,
          "durationTicks": 2,
          "midi": 36,
          "name": "C2",
          "ticks": 2843,
          "time": 30.902173913043477,
          "velocity": 0.41732283464566927
        },
        {
          "duration": 0.01086956521739424,
          "durationTicks": 1,
          "midi": 58,
          "name": "A#3",
          "ticks": 2843,
          "time": 30.902173913043477,
          "velocity": 0.5354330708661418
        },
        {
          "duration": 0.010869565217390686,
          "durationTicks": 1,
          "midi": 57,
          "name": "A3",
          "ticks": 2844,
          "time": 30.91304347826087,
          "velocity": 0.5275590551181102
        },
        {
          "duration": 0.021739130434781373,
          "durationTicks": 2,
          "midi": 35,
          "name": "B1",
          "ticks": 2845,
          "time": 30.92391304347826,
          "velocity": 0.3858267716535433
        },
        {
          "duration": 0.021739130434781373,
          "durationTicks": 2,
          "midi": 56,
          "name": "G#3",
          "ticks": 2845,
          "time": 30.92391304347826,
          "velocity": 0.5511811023622047
        },
        {
          "duration": 0.03260869565217206,
          "durationTicks": 3,
          "midi": 64,
          "name": "E4",
          "ticks": 2845,
          "time": 30.92391304347826,
          "velocity": 0.08661417322834646
        },
        {
          "duration": 0.054347826086956985,
          "durationTicks": 5,
          "midi": 36,
          "name": "C2",
          "ticks": 2847,
          "time": 30.945652173913043,
          "velocity": 0.3779527559055118
        },
        {
          "duration": 0.03260869565217561,
          "durationTicks": 3,
          "midi": 57,
          "name": "A3",
          "ticks": 2847,
          "time": 30.945652173913043,
          "velocity": 0.44881889763779526
        },
        {
          "duration": 0.043478260869562746,
          "durationTicks": 4,
          "midi": 56,
          "name": "G#3",
          "ticks": 2850,
          "time": 30.97826086956522,
          "velocity": 0.5275590551181102
        },
        {
          "duration": 0.021739130434781373,
          "durationTicks": 2,
          "midi": 66,
          "name": "F#4",
          "ticks": 2851,
          "time": 30.98913043478261,
          "velocity": 0.3700787401574803
        },
        {
          "duration": 0.10869565217391397,
          "durationTicks": 10,
          "midi": 84,
          "name": "C6",
          "ticks": 2852,
          "time": 31,
          "velocity": 0.2125984251968504
        },
        {
          "duration": 0.021739130434784926,
          "durationTicks": 2,
          "midi": 49,
          "name": "C#3",
          "ticks": 2853,
          "time": 31.01086956521739,
          "velocity": 0.44881889763779526
        },
        {
          "duration": 0.2608695652173907,
          "durationTicks": 24,
          "midi": 65,
          "name": "F4",
          "ticks": 2853,
          "time": 31.01086956521739,
          "velocity": 0.5826771653543307
        },
        {
          "duration": 0.15217391304348027,
          "durationTicks": 14,
          "midi": 69,
          "name": "A4",
          "ticks": 2853,
          "time": 31.01086956521739,
          "velocity": 0.3779527559055118
        },
        {
          "duration": 0.17391304347826164,
          "durationTicks": 16,
          "midi": 57,
          "name": "A3",
          "ticks": 2854,
          "time": 31.02173913043478,
          "velocity": 0.5905511811023622
        },
        {
          "duration": 0.0434782608695663,
          "durationTicks": 4,
          "midi": 88,
          "name": "E6",
          "ticks": 2859,
          "time": 31.07608695652174,
          "velocity": 0.07874015748031496
        },
        {
          "duration": 0.03260869565217561,
          "durationTicks": 3,
          "midi": 45,
          "name": "A2",
          "ticks": 2866,
          "time": 31.152173913043477,
          "velocity": 0.15748031496062992
        },
        {
          "duration": 0.021739130434784926,
          "durationTicks": 2,
          "midi": 56,
          "name": "G#3",
          "ticks": 2872,
          "time": 31.217391304347824,
          "velocity": 0.3543307086614173
        },
        {
          "duration": 0.054347826086956985,
          "durationTicks": 5,
          "midi": 57,
          "name": "A3",
          "ticks": 2874,
          "time": 31.23913043478261,
          "velocity": 0.31496062992125984
        },
        {
          "duration": 0.03260869565217206,
          "durationTicks": 3,
          "midi": 47,
          "name": "B2",
          "ticks": 2878,
          "time": 31.282608695652176,
          "velocity": 0.16535433070866143
        },
        {
          "duration": 0.0434782608695663,
          "durationTicks": 4,
          "midi": 55,
          "name": "G3",
          "ticks": 2881,
          "time": 31.315217391304348,
          "velocity": 0.48031496062992124
        },
        {
          "duration": 0.28260869565217206,
          "durationTicks": 26,
          "midi": 41,
          "name": "F2",
          "ticks": 2885,
          "time": 31.358695652173914,
          "velocity": 0.5275590551181102
        },
        {
          "duration": 0.021739130434781373,
          "durationTicks": 2,
          "midi": 60,
          "name": "C4",
          "ticks": 2909,
          "time": 31.619565217391305,
          "velocity": 0.28346456692913385
        },
        {
          "duration": 0.03260869565217561,
          "durationTicks": 3,
          "midi": 66,
          "name": "F#4",
          "ticks": 2910,
          "time": 31.630434782608695,
          "velocity": 0.3464566929133858
        },
        {
          "duration": 0.010869565217390686,
          "durationTicks": 1,
          "midi": 55,
          "name": "G3",
          "ticks": 2911,
          "time": 31.641304347826086,
          "velocity": 0.5433070866141733
        },
        {
          "duration": 0.021739130434784926,
          "durationTicks": 2,
          "midi": 70,
          "name": "A#4",
          "ticks": 2911,
          "time": 31.641304347826086,
          "velocity": 0.3464566929133858
        },
        {
          "duration": 0.18478260869565233,
          "durationTicks": 17,
          "midi": 77,
          "name": "F5",
          "ticks": 2911,
          "time": 31.641304347826086,
          "velocity": 0.2440944881889764
        },
        {
          "duration": 0.0434782608695663,
          "durationTicks": 4,
          "midi": 91,
          "name": "G6",
          "ticks": 2911,
          "time": 31.641304347826086,
          "velocity": 0.09448818897637795
        },
        {
          "duration": 0.03260869565217561,
          "durationTicks": 3,
          "midi": 93,
          "name": "A6",
          "ticks": 2911,
          "time": 31.641304347826086,
          "velocity": 0.14173228346456693
        },
        {
          "duration": 0.021739130434784926,
          "durationTicks": 2,
          "midi": 56,
          "name": "G#3",
          "ticks": 2912,
          "time": 31.652173913043477,
          "velocity": 0.6535433070866141
        },
        {
          "duration": 0.11956521739130466,
          "durationTicks": 11,
          "midi": 72,
          "name": "C5",
          "ticks": 2912,
          "time": 31.652173913043477,
          "velocity": 0.14960629921259844
        },
        {
          "duration": 0.16304347826087096,
          "durationTicks": 15,
          "midi": 81,
          "name": "A5",
          "ticks": 2912,
          "time": 31.652173913043477,
          "velocity": 0.16535433070866143
        },
        {
          "duration": 0.03260869565217561,
          "durationTicks": 3,
          "midi": 96,
          "name": "C7",
          "ticks": 2912,
          "time": 31.652173913043477,
          "velocity": 0.10236220472440945
        },
        {
          "duration": 0.1739130434782581,
          "durationTicks": 16,
          "midi": 69,
          "name": "A4",
          "ticks": 2913,
          "time": 31.66304347826087,
          "velocity": 0.36220472440944884
        },
        {
          "duration": 0.07608695652173836,
          "durationTicks": 7,
          "midi": 57,
          "name": "A3",
          "ticks": 2914,
          "time": 31.67391304347826,
          "velocity": 0.6062992125984252
        },
        {
          "duration": 0.2173913043478244,
          "durationTicks": 20,
          "midi": 65,
          "name": "F4",
          "ticks": 2914,
          "time": 31.67391304347826,
          "velocity": 0.4015748031496063
        },
        {
          "duration": 0.0434782608695663,
          "durationTicks": 4,
          "midi": 31,
          "name": "G1",
          "ticks": 2916,
          "time": 31.695652173913043,
          "velocity": 0.18110236220472442
        },
        {
          "duration": 0.03260869565217561,
          "durationTicks": 3,
          "midi": 57,
          "name": "A3",
          "ticks": 2922,
          "time": 31.76086956521739,
          "velocity": 0.2125984251968504
        },
        {
          "duration": 0.054347826086956985,
          "durationTicks": 5,
          "midi": 60,
          "name": "C4",
          "ticks": 2923,
          "time": 31.77173913043478,
          "velocity": 0.15748031496062992
        },
        {
          "duration": 0.03260869565217561,
          "durationTicks": 3,
          "midi": 58,
          "name": "A#3",
          "ticks": 2928,
          "time": 31.82608695652174,
          "velocity": 0.4330708661417323
        },
        {
          "duration": 0.03260869565217206,
          "durationTicks": 3,
          "midi": 57,
          "name": "A3",
          "ticks": 2931,
          "time": 31.858695652173914,
          "velocity": 0.48031496062992124
        },
        {
          "duration": 0.1304347826086989,
          "durationTicks": 12,
          "midi": 65,
          "name": "F4",
          "ticks": 2939,
          "time": 31.945652173913043,
          "velocity": 0.2204724409448819
        },
        {
          "duration": 0.021739130434781373,
          "durationTicks": 2,
          "midi": 57,
          "name": "A3",
          "ticks": 2942,
          "time": 31.97826086956522,
          "velocity": 0.2755905511811024
        },
        {
          "duration": 0.021739130434781373,
          "durationTicks": 2,
          "midi": 48,
          "name": "C3",
          "ticks": 2944,
          "time": 32,
          "velocity": 0.3937007874015748
        },
        {
          "duration": 0.10869565217391397,
          "durationTicks": 10,
          "midi": 36,
          "name": "C2",
          "ticks": 2947,
          "time": 32.03260869565217,
          "velocity": 0.44881889763779526
        },
        {
          "duration": 0.13043478260869534,
          "durationTicks": 12,
          "midi": 36,
          "name": "C2",
          "ticks": 2958,
          "time": 32.15217391304348,
          "velocity": 0.48031496062992124
        },
        {
          "duration": 0.032608695652179165,
          "durationTicks": 3,
          "midi": 64,
          "name": "E4",
          "ticks": 2960,
          "time": 32.17391304347826,
          "velocity": 0.07874015748031496
        },
        {
          "duration": 0.04347826086956985,
          "durationTicks": 4,
          "midi": 57,
          "name": "A3",
          "ticks": 2961,
          "time": 32.18478260869565,
          "velocity": 0.4566929133858268
        },
        {
          "duration": 0.021739130434781373,
          "durationTicks": 2,
          "midi": 57,
          "name": "A3",
          "ticks": 2966,
          "time": 32.23913043478261,
          "velocity": 0.4409448818897638
        },
        {
          "duration": 0.3260869565217419,
          "durationTicks": 30,
          "midi": 65,
          "name": "F4",
          "ticks": 2967,
          "time": 32.25,
          "velocity": 0.3858267716535433
        },
        {
          "duration": 0.14130434782608603,
          "durationTicks": 13,
          "midi": 84,
          "name": "C6",
          "ticks": 2967,
          "time": 32.25,
          "velocity": 0.30708661417322836
        },
        {
          "duration": 0.1630434782608674,
          "durationTicks": 15,
          "midi": 93,
          "name": "A6",
          "ticks": 2967,
          "time": 32.25,
          "velocity": 0.1889763779527559
        },
        {
          "duration": 0.04347826086956985,
          "durationTicks": 4,
          "midi": 56,
          "name": "G#3",
          "ticks": 2969,
          "time": 32.27173913043478,
          "velocity": 0.5826771653543307
        },
        {
          "duration": 0.032608695652179165,
          "durationTicks": 3,
          "midi": 37,
          "name": "C#2",
          "ticks": 2970,
          "time": 32.28260869565217,
          "velocity": 0.48031496062992124
        },
        {
          "duration": 0.11956521739129755,
          "durationTicks": 11,
          "midi": 57,
          "name": "A3",
          "ticks": 2973,
          "time": 32.31521739130435,
          "velocity": 0.4881889763779528
        },
        {
          "duration": 0.021739130434781373,
          "durationTicks": 2,
          "midi": 36,
          "name": "C2",
          "ticks": 2974,
          "time": 32.32608695652174,
          "velocity": 0.4566929133858268
        },
        {
          "duration": 0.03260869565217206,
          "durationTicks": 3,
          "midi": 33,
          "name": "A1",
          "ticks": 2977,
          "time": 32.358695652173914,
          "velocity": 0.3228346456692913
        },
        {
          "duration": 0.021739130434781373,
          "durationTicks": 2,
          "midi": 46,
          "name": "A#2",
          "ticks": 2977,
          "time": 32.358695652173914,
          "velocity": 0.25196850393700787
        },
        {
          "duration": 0.03260869565217206,
          "durationTicks": 3,
          "midi": 46,
          "name": "A#2",
          "ticks": 2980,
          "time": 32.391304347826086,
          "velocity": 0.13385826771653545
        },
        {
          "duration": 0.021739130434781373,
          "durationTicks": 2,
          "midi": 58,
          "name": "A#3",
          "ticks": 2988,
          "time": 32.47826086956522,
          "velocity": 0.3543307086614173
        },
        {
          "duration": 0.043478260869562746,
          "durationTicks": 4,
          "midi": 46,
          "name": "A#2",
          "ticks": 2990,
          "time": 32.5,
          "velocity": 0.25196850393700787
        },
        {
          "duration": 0.06521739130435122,
          "durationTicks": 6,
          "midi": 57,
          "name": "A3",
          "ticks": 2990,
          "time": 32.5,
          "velocity": 0.41732283464566927
        },
        {
          "duration": 0.05434782608695343,
          "durationTicks": 5,
          "midi": 45,
          "name": "A2",
          "ticks": 2997,
          "time": 32.57608695652174,
          "velocity": 0.5196850393700787
        },
        {
          "duration": 0.09782608695652328,
          "durationTicks": 9,
          "midi": 65,
          "name": "F4",
          "ticks": 2999,
          "time": 32.59782608695652,
          "velocity": 0.23622047244094488
        },
        {
          "duration": 0.11956521739130466,
          "durationTicks": 11,
          "midi": 58,
          "name": "A#3",
          "ticks": 3001,
          "time": 32.619565217391305,
          "velocity": 0.31496062992125984
        },
        {
          "duration": 0.2608695652173907,
          "durationTicks": 24,
          "midi": 46,
          "name": "A#2",
          "ticks": 3002,
          "time": 32.630434782608695,
          "velocity": 0.5275590551181102
        },
        {
          "duration": 0.021739130434781373,
          "durationTicks": 2,
          "midi": 33,
          "name": "A1",
          "ticks": 3003,
          "time": 32.641304347826086,
          "velocity": 0.4015748031496063
        },
        {
          "duration": 0.04347826086956985,
          "durationTicks": 4,
          "midi": 34,
          "name": "A#1",
          "ticks": 3007,
          "time": 32.68478260869565,
          "velocity": 0.3779527559055118
        },
        {
          "duration": 0.021739130434781373,
          "durationTicks": 2,
          "midi": 34,
          "name": "A#1",
          "ticks": 3014,
          "time": 32.76086956521739,
          "velocity": 0.3464566929133858
        },
        {
          "duration": 0.05434782608696054,
          "durationTicks": 5,
          "midi": 34,
          "name": "A#1",
          "ticks": 3017,
          "time": 32.79347826086956,
          "velocity": 0.3543307086614173
        },
        {
          "duration": 0.03260869565217206,
          "durationTicks": 3,
          "midi": 53,
          "name": "F3",
          "ticks": 3021,
          "time": 32.83695652173913,
          "velocity": 0.2125984251968504
        },
        {
          "duration": 0.05434782608695343,
          "durationTicks": 5,
          "midi": 64,
          "name": "E4",
          "ticks": 3024,
          "time": 32.869565217391305,
          "velocity": 0.2440944881889764
        },
        {
          "duration": 0.09782608695652328,
          "durationTicks": 9,
          "midi": 57,
          "name": "A3",
          "ticks": 3025,
          "time": 32.880434782608695,
          "velocity": 0.5669291338582677
        },
        {
          "duration": 0.18478260869565588,
          "durationTicks": 17,
          "midi": 74,
          "name": "D5",
          "ticks": 3025,
          "time": 32.880434782608695,
          "velocity": 0.2047244094488189
        },
        {
          "duration": 0.13043478260869534,
          "durationTicks": 12,
          "midi": 82,
          "name": "A#5",
          "ticks": 3025,
          "time": 32.880434782608695,
          "velocity": 0.33858267716535434
        },
        {
          "duration": 0.043478260869562746,
          "durationTicks": 4,
          "midi": 70,
          "name": "A#4",
          "ticks": 3026,
          "time": 32.891304347826086,
          "velocity": 0.25196850393700787
        },
        {
          "duration": 0.03260869565217206,
          "durationTicks": 3,
          "midi": 81,
          "name": "A5",
          "ticks": 3026,
          "time": 32.891304347826086,
          "velocity": 0.2755905511811024
        },
        {
          "duration": 0.0869565217391326,
          "durationTicks": 8,
          "midi": 98,
          "name": "D7",
          "ticks": 3026,
          "time": 32.891304347826086,
          "velocity": 0.1732283464566929
        },
        {
          "duration": 0.010869565217390686,
          "durationTicks": 1,
          "midi": 47,
          "name": "B2",
          "ticks": 3028,
          "time": 32.91304347826087,
          "velocity": 0.5354330708661418
        },
        {
          "duration": 0.010869565217390686,
          "durationTicks": 1,
          "midi": 46,
          "name": "A#2",
          "ticks": 3029,
          "time": 32.92391304347826,
          "velocity": 0.5669291338582677
        },
        {
          "duration": 0.04347826086956985,
          "durationTicks": 4,
          "midi": 65,
          "name": "F4",
          "ticks": 3029,
          "time": 32.92391304347826,
          "velocity": 0.30708661417322836
        },
        {
          "duration": 0.010869565217397792,
          "durationTicks": 1,
          "midi": 43,
          "name": "G2",
          "ticks": 3030,
          "time": 32.93478260869565,
          "velocity": 0.5275590551181102
        },
        {
          "duration": 0.11956521739130466,
          "durationTicks": 11,
          "midi": 62,
          "name": "D4",
          "ticks": 3030,
          "time": 32.93478260869565,
          "velocity": 0.2755905511811024
        },
        {
          "duration": 0.021739130434781373,
          "durationTicks": 2,
          "midi": 33,
          "name": "A1",
          "ticks": 3033,
          "time": 32.96739130434783,
          "velocity": 0.2755905511811024
        },
        {
          "duration": 0.03260869565217206,
          "durationTicks": 3,
          "midi": 58,
          "name": "A#3",
          "ticks": 3034,
          "time": 32.97826086956522,
          "velocity": 0.30708661417322836
        },
        {
          "duration": 0.05434782608695343,
          "durationTicks": 5,
          "midi": 46,
          "name": "A#2",
          "ticks": 3035,
          "time": 32.98913043478261,
          "velocity": 0.25196850393700787
        },
        {
          "duration": 0.15217391304347672,
          "durationTicks": 14,
          "midi": 65,
          "name": "F4",
          "ticks": 3036,
          "time": 33,
          "velocity": 0.18110236220472442
        },
        {
          "duration": 0.03260869565217206,
          "durationTicks": 3,
          "midi": 70,
          "name": "A#4",
          "ticks": 3038,
          "time": 33.02173913043478,
          "velocity": 0.12598425196850394
        },
        {
          "duration": 0.032608695652179165,
          "durationTicks": 3,
          "midi": 46,
          "name": "A#2",
          "ticks": 3041,
          "time": 33.05434782608695,
          "velocity": 0.2992125984251969
        },
        {
          "duration": 0.03260869565217206,
          "durationTicks": 3,
          "midi": 45,
          "name": "A2",
          "ticks": 3044,
          "time": 33.08695652173913,
          "velocity": 0.4251968503937008
        },
        {
          "duration": 0.06521739130434412,
          "durationTicks": 6,
          "midi": 46,
          "name": "A#2",
          "ticks": 3047,
          "time": 33.119565217391305,
          "velocity": 0.4566929133858268
        },
        {
          "duration": 0.02173913043478848,
          "durationTicks": 2,
          "midi": 45,
          "name": "A2",
          "ticks": 3053,
          "time": 33.18478260869565,
          "velocity": 0.3858267716535433
        },
        {
          "duration": 0.03260869565217206,
          "durationTicks": 3,
          "midi": 61,
          "name": "C#4",
          "ticks": 3054,
          "time": 33.19565217391305,
          "velocity": 0.1968503937007874
        },
        {
          "duration": 0.021739130434781373,
          "durationTicks": 2,
          "midi": 42,
          "name": "F#2",
          "ticks": 3057,
          "time": 33.22826086956522,
          "velocity": 0.5354330708661418
        },
        {
          "duration": 0.021739130434781373,
          "durationTicks": 2,
          "midi": 52,
          "name": "E3",
          "ticks": 3058,
          "time": 33.23913043478261,
          "velocity": 0.44881889763779526
        },
        {
          "duration": 0.1630434782608674,
          "durationTicks": 15,
          "midi": 53,
          "name": "F3",
          "ticks": 3060,
          "time": 33.26086956521739,
          "velocity": 0.5275590551181102
        },
        {
          "duration": 0.021739130434781373,
          "durationTicks": 2,
          "midi": 41,
          "name": "F2",
          "ticks": 3061,
          "time": 33.27173913043478,
          "velocity": 0.5118110236220472
        },
        {
          "duration": 0.10869565217391397,
          "durationTicks": 10,
          "midi": 41,
          "name": "F2",
          "ticks": 3064,
          "time": 33.30434782608695,
          "velocity": 0.4881889763779528
        },
        {
          "duration": 0.04347826086956985,
          "durationTicks": 4,
          "midi": 67,
          "name": "G4",
          "ticks": 3073,
          "time": 33.40217391304348,
          "velocity": 0.1968503937007874
        },
        {
          "duration": 0.06521739130435122,
          "durationTicks": 6,
          "midi": 53,
          "name": "F3",
          "ticks": 3076,
          "time": 33.43478260869565,
          "velocity": 0.47244094488188976
        },
        {
          "duration": 0.05434782608695343,
          "durationTicks": 5,
          "midi": 41,
          "name": "F2",
          "ticks": 3077,
          "time": 33.44565217391305,
          "velocity": 0.44881889763779526
        },
        {
          "duration": 0.021739130434781373,
          "durationTicks": 2,
          "midi": 64,
          "name": "E4",
          "ticks": 3082,
          "time": 33.5,
          "velocity": 0.33858267716535434
        },
        {
          "duration": 0.22826086956521863,
          "durationTicks": 21,
          "midi": 70,
          "name": "A#4",
          "ticks": 3082,
          "time": 33.5,
          "velocity": 0.4015748031496063
        },
        {
          "duration": 0.10869565217391397,
          "durationTicks": 10,
          "midi": 74,
          "name": "D5",
          "ticks": 3082,
          "time": 33.5,
          "velocity": 0.14173228346456693
        },
        {
          "duration": 0.021739130434781373,
          "durationTicks": 2,
          "midi": 41,
          "name": "F2",
          "ticks": 3083,
          "time": 33.51086956521739,
          "velocity": 0.48031496062992124
        },
        {
          "duration": 0.03260869565217206,
          "durationTicks": 3,
          "midi": 58,
          "name": "A#3",
          "ticks": 3083,
          "time": 33.51086956521739,
          "velocity": 0.5433070866141733
        },
        {
          "duration": 0.0869565217391326,
          "durationTicks": 8,
          "midi": 86,
          "name": "D6",
          "ticks": 3083,
          "time": 33.51086956521739,
          "velocity": 0.25984251968503935
        },
        {
          "duration": 0.2391304347826093,
          "durationTicks": 22,
          "midi": 65,
          "name": "F4",
          "ticks": 3084,
          "time": 33.52173913043478,
          "velocity": 0.4881889763779528
        },
        {
          "duration": 0.04347826086956985,
          "durationTicks": 4,
          "midi": 57,
          "name": "A3",
          "ticks": 3086,
          "time": 33.54347826086956,
          "velocity": 0.47244094488188976
        },
        {
          "duration": 0.02173913043478848,
          "durationTicks": 2,
          "midi": 62,
          "name": "D4",
          "ticks": 3086,
          "time": 33.54347826086956,
          "velocity": 0.2992125984251969
        },
        {
          "duration": 0.08695652173912549,
          "durationTicks": 8,
          "midi": 89,
          "name": "F6",
          "ticks": 3088,
          "time": 33.56521739130435,
          "velocity": 0.12598425196850394
        },
        {
          "duration": 0.06521739130434412,
          "durationTicks": 6,
          "midi": 53,
          "name": "F3",
          "ticks": 3090,
          "time": 33.58695652173913,
          "velocity": 0.2440944881889764
        },
        {
          "duration": 0.09782608695651618,
          "durationTicks": 9,
          "midi": 58,
          "name": "A#3",
          "ticks": 3090,
          "time": 33.58695652173913,
          "velocity": 0.3464566929133858
        },
        {
          "duration": 0.03260869565217206,
          "durationTicks": 3,
          "midi": 52,
          "name": "E3",
          "ticks": 3102,
          "time": 33.71739130434783,
          "velocity": 0.29133858267716534
        },
        {
          "duration": 0.021739130434781373,
          "durationTicks": 2,
          "midi": 47,
          "name": "B2",
          "ticks": 3113,
          "time": 33.83695652173913,
          "velocity": 0.5433070866141733
        },
        {
          "duration": 0.2717391304347814,
          "durationTicks": 25,
          "midi": 48,
          "name": "C3",
          "ticks": 3115,
          "time": 33.858695652173914,
          "velocity": 0.5118110236220472
        },
        {
          "duration": 0.021739130434781373,
          "durationTicks": 2,
          "midi": 55,
          "name": "G3",
          "ticks": 3117,
          "time": 33.880434782608695,
          "velocity": 0.2440944881889764
        },
        {
          "duration": 0.021739130434781373,
          "durationTicks": 2,
          "midi": 32,
          "name": "G#1",
          "ticks": 3118,
          "time": 33.891304347826086,
          "velocity": 0.4094488188976378
        },
        {
          "duration": 0.032608695652179165,
          "durationTicks": 3,
          "midi": 55,
          "name": "G3",
          "ticks": 3120,
          "time": 33.91304347826087,
          "velocity": 0.1968503937007874
        },
        {
          "duration": 0.19565217391303946,
          "durationTicks": 18,
          "midi": 36,
          "name": "C2",
          "ticks": 3124,
          "time": 33.95652173913044,
          "velocity": 0.4409448818897638
        },
        {
          "duration": 0.043478260869562746,
          "durationTicks": 4,
          "midi": 55,
          "name": "G3",
          "ticks": 3126,
          "time": 33.97826086956522,
          "velocity": 0.1732283464566929
        },
        {
          "duration": 0.13043478260869534,
          "durationTicks": 12,
          "midi": 72,
          "name": "C5",
          "ticks": 3139,
          "time": 34.119565217391305,
          "velocity": 0.28346456692913385
        },
        {
          "duration": 0.021739130434781373,
          "durationTicks": 2,
          "midi": 54,
          "name": "F#3",
          "ticks": 3140,
          "time": 34.130434782608695,
          "velocity": 0.4566929133858268
        },
        {
          "duration": 0.05434782608695343,
          "durationTicks": 5,
          "midi": 67,
          "name": "G4",
          "ticks": 3140,
          "time": 34.130434782608695,
          "velocity": 0.47244094488188976
        },
        {
          "duration": 0.15217391304347672,
          "durationTicks": 14,
          "midi": 76,
          "name": "E5",
          "ticks": 3140,
          "time": 34.130434782608695,
          "velocity": 0.2204724409448819
        },
        {
          "duration": 0.10869565217391397,
          "durationTicks": 10,
          "midi": 86,
          "name": "D6",
          "ticks": 3140,
          "time": 34.130434782608695,
          "velocity": 0.3228346456692913
        },
        {
          "duration": 0.10869565217391397,
          "durationTicks": 10,
          "midi": 95,
          "name": "B6",
          "ticks": 3140,
          "time": 34.130434782608695,
          "velocity": 0.1889763779527559
        },
        {
          "duration": 0.043478260869562746,
          "durationTicks": 4,
          "midi": 83,
          "name": "B5",
          "ticks": 3141,
          "time": 34.141304347826086,
          "velocity": 0.14960629921259844
        },
        {
          "duration": 0.05434782608696054,
          "durationTicks": 5,
          "midi": 91,
          "name": "G6",
          "ticks": 3141,
          "time": 34.141304347826086,
          "velocity": 0.15748031496062992
        },
        {
          "duration": 0.021739130434781373,
          "durationTicks": 2,
          "midi": 35,
          "name": "B1",
          "ticks": 3142,
          "time": 34.15217391304348,
          "velocity": 0.36220472440944884
        },
        {
          "duration": 0.010869565217390686,
          "durationTicks": 1,
          "midi": 56,
          "name": "G#3",
          "ticks": 3143,
          "time": 34.16304347826087,
          "velocity": 0.5511811023622047
        },
        {
          "duration": 0.18478260869565588,
          "durationTicks": 17,
          "midi": 64,
          "name": "E4",
          "ticks": 3143,
          "time": 34.16304347826087,
          "velocity": 0.33070866141732286
        },
        {
          "duration": 0.15217391304348382,
          "durationTicks": 14,
          "midi": 55,
          "name": "G3",
          "ticks": 3144,
          "time": 34.17391304347826,
          "velocity": 0.5039370078740157
        },
        {
          "duration": 0.032608695652179165,
          "durationTicks": 3,
          "midi": 60,
          "name": "C4",
          "ticks": 3144,
          "time": 34.17391304347826,
          "velocity": 0.23622047244094488
        },
        {
          "duration": 0.043478260869562746,
          "durationTicks": 4,
          "midi": 79,
          "name": "G5",
          "ticks": 3148,
          "time": 34.21739130434783,
          "velocity": 0.12598425196850394
        },
        {
          "duration": 0.11956521739130466,
          "durationTicks": 11,
          "midi": 48,
          "name": "C3",
          "ticks": 3150,
          "time": 34.23913043478261,
          "velocity": 0.4645669291338583
        },
        {
          "duration": 0.021739130434781373,
          "durationTicks": 2,
          "midi": 55,
          "name": "G3",
          "ticks": 3161,
          "time": 34.358695652173914,
          "velocity": 0.4566929133858268
        },
        {
          "duration": 0.05434782608695343,
          "durationTicks": 5,
          "midi": 64,
          "name": "E4",
          "ticks": 3161,
          "time": 34.358695652173914,
          "velocity": 0.13385826771653545
        },
        {
          "duration": 0.05434782608695343,
          "durationTicks": 5,
          "midi": 48,
          "name": "C3",
          "ticks": 3162,
          "time": 34.369565217391305,
          "velocity": 0.4566929133858268
        },
        {
          "duration": 0.03260869565217206,
          "durationTicks": 3,
          "midi": 36,
          "name": "C2",
          "ticks": 3164,
          "time": 34.391304347826086,
          "velocity": 0.3700787401574803
        },
        {
          "duration": 0.05434782608696054,
          "durationTicks": 5,
          "midi": 55,
          "name": "G3",
          "ticks": 3164,
          "time": 34.391304347826086,
          "velocity": 0.3937007874015748
        },
        {
          "duration": 0.05434782608695343,
          "durationTicks": 5,
          "midi": 67,
          "name": "G4",
          "ticks": 3169,
          "time": 34.44565217391305,
          "velocity": 0.2047244094488189
        },
        {
          "duration": 0.15217391304347672,
          "durationTicks": 14,
          "midi": 55,
          "name": "G3",
          "ticks": 3171,
          "time": 34.46739130434783,
          "velocity": 0.5118110236220472
        },
        {
          "duration": 0.021739130434781373,
          "durationTicks": 2,
          "midi": 32,
          "name": "G#1",
          "ticks": 3172,
          "time": 34.47826086956522,
          "velocity": 0.4409448818897638
        },
        {
          "duration": 0.2608695652173907,
          "durationTicks": 24,
          "midi": 43,
          "name": "G2",
          "ticks": 3174,
          "time": 34.5,
          "velocity": 0.5354330708661418
        },
        {
          "duration": 0.021739130434781373,
          "durationTicks": 2,
          "midi": 54,
          "name": "F#3",
          "ticks": 3185,
          "time": 34.619565217391305,
          "velocity": 0.29133858267716534
        },
        {
          "duration": 0.10869565217391397,
          "durationTicks": 10,
          "midi": 67,
          "name": "G4",
          "ticks": 3186,
          "time": 34.630434782608695,
          "velocity": 0.3543307086614173
        },
        {
          "duration": 0.03260869565217206,
          "durationTicks": 3,
          "midi": 84,
          "name": "C6",
          "ticks": 3188,
          "time": 34.65217391304348,
          "velocity": 0.07874015748031496
        },
        {
          "duration": 0.032608695652179165,
          "durationTicks": 3,
          "midi": 60,
          "name": "C4",
          "ticks": 3189,
          "time": 34.66304347826087,
          "velocity": 0.1732283464566929
        },
        {
          "duration": 0.021739130434781373,
          "durationTicks": 2,
          "midi": 56,
          "name": "G#3",
          "ticks": 3197,
          "time": 34.75,
          "velocity": 0.5196850393700787
        },
        {
          "duration": 0.19565217391304657,
          "durationTicks": 18,
          "midi": 67,
          "name": "G4",
          "ticks": 3197,
          "time": 34.75,
          "velocity": 0.4015748031496063
        },
        {
          "duration": 0.1739130434782581,
          "durationTicks": 16,
          "midi": 72,
          "name": "C5",
          "ticks": 3197,
          "time": 34.75,
          "velocity": 0.2047244094488189
        },
        {
          "duration": 0.11956521739130466,
          "durationTicks": 11,
          "midi": 86,
          "name": "D6",
          "ticks": 3197,
          "time": 34.75,
          "velocity": 0.15748031496062992
        },
        {
          "duration": 0.010869565217390686,
          "durationTicks": 1,
          "midi": 44,
          "name": "G#2",
          "ticks": 3198,
          "time": 34.76086956521739,
          "velocity": 0.5196850393700787
        },
        {
          "duration": 0.043478260869562746,
          "durationTicks": 4,
          "midi": 95,
          "name": "B6",
          "ticks": 3198,
          "time": 34.76086956521739,
          "velocity": 0.08661417322834646
        },
        {
          "duration": 0.04347826086956985,
          "durationTicks": 4,
          "midi": 46,
          "name": "A#2",
          "ticks": 3199,
          "time": 34.77173913043478,
          "velocity": 0.5511811023622047
        },
        {
          "duration": 0.19565217391304657,
          "durationTicks": 18,
          "midi": 64,
          "name": "E4",
          "ticks": 3199,
          "time": 34.77173913043478,
          "velocity": 0.33070866141732286
        },
        {
          "duration": 0.09782608695652328,
          "durationTicks": 9,
          "midi": 55,
          "name": "G3",
          "ticks": 3201,
          "time": 34.79347826086956,
          "velocity": 0.4094488188976378
        },
        {
          "duration": 0.021739130434781373,
          "durationTicks": 2,
          "midi": 47,
          "name": "B2",
          "ticks": 3203,
          "time": 34.81521739130435,
          "velocity": 0.4330708661417323
        },
        {
          "duration": 0.021739130434781373,
          "durationTicks": 2,
          "midi": 46,
          "name": "A#2",
          "ticks": 3205,
          "time": 34.83695652173913,
          "velocity": 0.25984251968503935
        },
        {
          "duration": 0.043478260869562746,
          "durationTicks": 4,
          "midi": 60,
          "name": "C4",
          "ticks": 3205,
          "time": 34.83695652173913,
          "velocity": 0.07874015748031496
        },
        {
          "duration": 0.03260869565217206,
          "durationTicks": 3,
          "midi": 56,
          "name": "G#3",
          "ticks": 3215,
          "time": 34.94565217391305,
          "velocity": 0.2204724409448819
        },
        {
          "duration": 0.03260869565217206,
          "durationTicks": 3,
          "midi": 56,
          "name": "G#3",
          "ticks": 3219,
          "time": 34.98913043478261,
          "velocity": 0.5118110236220472
        },
        {
          "duration": 0.05434782608696054,
          "durationTicks": 5,
          "midi": 55,
          "name": "G3",
          "ticks": 3222,
          "time": 35.02173913043478,
          "velocity": 0.4409448818897638
        },
        {
          "duration": 0.032608695652179165,
          "durationTicks": 3,
          "midi": 45,
          "name": "A2",
          "ticks": 3223,
          "time": 35.03260869565217,
          "velocity": 0.3464566929133858
        },
        {
          "duration": 0.29347826086956985,
          "durationTicks": 27,
          "midi": 65,
          "name": "F4",
          "ticks": 3225,
          "time": 35.05434782608695,
          "velocity": 0.4409448818897638
        },
        {
          "duration": 0.29347826086956275,
          "durationTicks": 27,
          "midi": 57,
          "name": "A3",
          "ticks": 3227,
          "time": 35.07608695652174,
          "velocity": 0.5905511811023622
        },
        {
          "duration": 0.0760869565217348,
          "durationTicks": 7,
          "midi": 81,
          "name": "A5",
          "ticks": 3227,
          "time": 35.07608695652174,
          "velocity": 0.12598425196850394
        },
        {
          "duration": 0.0760869565217348,
          "durationTicks": 7,
          "midi": 88,
          "name": "E6",
          "ticks": 3228,
          "time": 35.08695652173913,
          "velocity": 0.10236220472440945
        },
        {
          "duration": 0.021739130434781373,
          "durationTicks": 2,
          "midi": 42,
          "name": "F#2",
          "ticks": 3232,
          "time": 35.130434782608695,
          "velocity": 0.4330708661417323
        },
        {
          "duration": 0.20652173913043725,
          "durationTicks": 19,
          "midi": 41,
          "name": "F2",
          "ticks": 3234,
          "time": 35.15217391304348,
          "velocity": 0.4015748031496063
        },
        {
          "duration": 0.021739130434781373,
          "durationTicks": 2,
          "midi": 53,
          "name": "F3",
          "ticks": 3249,
          "time": 35.31521739130435,
          "velocity": 0.4409448818897638
        },
        {
          "duration": 0.021739130434781373,
          "durationTicks": 2,
          "midi": 53,
          "name": "F3",
          "ticks": 3253,
          "time": 35.358695652173914,
          "velocity": 0.31496062992125984
        },
        {
          "duration": 0.1630434782608674,
          "durationTicks": 15,
          "midi": 65,
          "name": "F4",
          "ticks": 3254,
          "time": 35.369565217391305,
          "velocity": 0.48031496062992124
        },
        {
          "duration": 0.0869565217391326,
          "durationTicks": 8,
          "midi": 72,
          "name": "C5",
          "ticks": 3254,
          "time": 35.369565217391305,
          "velocity": 0.29133858267716534
        },
        {
          "duration": 0.07608695652174191,
          "durationTicks": 7,
          "midi": 69,
          "name": "A4",
          "ticks": 3255,
          "time": 35.380434782608695,
          "velocity": 0.2440944881889764
        },
        {
          "duration": 0.03260869565217206,
          "durationTicks": 3,
          "midi": 85,
          "name": "C#6",
          "ticks": 3255,
          "time": 35.380434782608695,
          "velocity": 0.15748031496062992
        },
        {
          "duration": 0.010869565217390686,
          "durationTicks": 1,
          "midi": 58,
          "name": "A#3",
          "ticks": 3256,
          "time": 35.391304347826086,
          "velocity": 0.5984251968503937
        },
        {
          "duration": 0.0869565217391326,
          "durationTicks": 8,
          "midi": 84,
          "name": "C6",
          "ticks": 3256,
          "time": 35.391304347826086,
          "velocity": 0.2992125984251969
        },
        {
          "duration": 0.03260869565217206,
          "durationTicks": 3,
          "midi": 57,
          "name": "A3",
          "ticks": 3257,
          "time": 35.40217391304348,
          "velocity": 0.5984251968503937
        },
        {
          "duration": 0.03260869565217206,
          "durationTicks": 3,
          "midi": 29,
          "name": "F1",
          "ticks": 3261,
          "time": 35.44565217391305,
          "velocity": 0.3228346456692913
        },
        {
          "duration": 0.10869565217390686,
          "durationTicks": 10,
          "midi": 60,
          "name": "C4",
          "ticks": 3261,
          "time": 35.44565217391305,
          "velocity": 0.36220472440944884
        },
        {
          "duration": 0.021739130434781373,
          "durationTicks": 2,
          "midi": 57,
          "name": "A3",
          "ticks": 3272,
          "time": 35.56521739130435,
          "velocity": 0.2755905511811024
        },
        {
          "duration": 0.05434782608695343,
          "durationTicks": 5,
          "midi": 57,
          "name": "A3",
          "ticks": 3276,
          "time": 35.608695652173914,
          "velocity": 0.36220472440944884
        },
        {
          "duration": 0.043478260869562746,
          "durationTicks": 4,
          "midi": 46,
          "name": "A#2",
          "ticks": 3277,
          "time": 35.619565217391305,
          "velocity": 0.25196850393700787
        },
        {
          "duration": 0.021739130434781373,
          "durationTicks": 2,
          "midi": 33,
          "name": "A1",
          "ticks": 3281,
          "time": 35.66304347826087,
          "velocity": 0.2283464566929134
        },
        {
          "duration": 0.02173913043478848,
          "durationTicks": 2,
          "midi": 44,
          "name": "G#2",
          "ticks": 3283,
          "time": 35.68478260869565,
          "velocity": 0.28346456692913385
        },
        {
          "duration": 0.08695652173912549,
          "durationTicks": 8,
          "midi": 79,
          "name": "G5",
          "ticks": 3284,
          "time": 35.69565217391305,
          "velocity": 0.1889763779527559
        },
        {
          "duration": 0.03260869565217206,
          "durationTicks": 3,
          "midi": 96,
          "name": "C7",
          "ticks": 3285,
          "time": 35.70652173913044,
          "velocity": 0.13385826771653545
        },
        {
          "duration": 0.021739130434781373,
          "durationTicks": 2,
          "midi": 47,
          "name": "B2",
          "ticks": 3286,
          "time": 35.71739130434783,
          "velocity": 0.5905511811023622
        },
        {
          "duration": 0.1739130434782581,
          "durationTicks": 16,
          "midi": 60,
          "name": "C4",
          "ticks": 3286,
          "time": 35.71739130434783,
          "velocity": 0.5118110236220472
        },
        {
          "duration": 0.043478260869562746,
          "durationTicks": 4,
          "midi": 94,
          "name": "A#6",
          "ticks": 3286,
          "time": 35.71739130434783,
          "velocity": 0.13385826771653545
        },
        {
          "duration": 0.043478260869562746,
          "durationTicks": 4,
          "midi": 100,
          "name": "E7",
          "ticks": 3286,
          "time": 35.71739130434783,
          "velocity": 0.11023622047244094
        },
        {
          "duration": 0.06521739130434412,
          "durationTicks": 6,
          "midi": 91,
          "name": "G6",
          "ticks": 3287,
          "time": 35.72826086956522,
          "velocity": 0.1968503937007874
        },
        {
          "duration": 0.2608695652173907,
          "durationTicks": 24,
          "midi": 48,
          "name": "C3",
          "ticks": 3288,
          "time": 35.73913043478261,
          "velocity": 0.5511811023622047
        },
        {
          "duration": 0.021739130434781373,
          "durationTicks": 2,
          "midi": 34,
          "name": "A#1",
          "ticks": 3289,
          "time": 35.75,
          "velocity": 0.4409448818897638
        },
        {
          "duration": 0.25,
          "durationTicks": 23,
          "midi": 36,
          "name": "C2",
          "ticks": 3292,
          "time": 35.78260869565217,
          "velocity": 0.4645669291338583
        },
        {
          "duration": 0.03260869565217206,
          "durationTicks": 3,
          "midi": 56,
          "name": "G#3",
          "ticks": 3302,
          "time": 35.891304347826086,
          "velocity": 0.4409448818897638
        },
        {
          "duration": 0.04347826086956985,
          "durationTicks": 4,
          "midi": 67,
          "name": "G4",
          "ticks": 3304,
          "time": 35.91304347826087,
          "velocity": 0.08661417322834646
        },
        {
          "duration": 0.04347826086956985,
          "durationTicks": 4,
          "midi": 86,
          "name": "D6",
          "ticks": 3304,
          "time": 35.91304347826087,
          "velocity": 0.09448818897637795
        },
        {
          "duration": 0.02173913043478848,
          "durationTicks": 2,
          "midi": 57,
          "name": "A3",
          "ticks": 3305,
          "time": 35.92391304347826,
          "velocity": 0.33858267716535434
        },
        {
          "duration": 0.021739130434781373,
          "durationTicks": 2,
          "midi": 57,
          "name": "A3",
          "ticks": 3308,
          "time": 35.95652173913044,
          "velocity": 0.36220472440944884
        },
        {
          "duration": 0.043478260869562746,
          "durationTicks": 4,
          "midi": 55,
          "name": "G3",
          "ticks": 3311,
          "time": 35.98913043478261,
          "velocity": 0.5196850393700787
        },
        {
          "duration": 0.15217391304347672,
          "durationTicks": 14,
          "midi": 69,
          "name": "A4",
          "ticks": 3312,
          "time": 36,
          "velocity": 0.2125984251968504
        },
        {
          "duration": 0.05434782608695343,
          "durationTicks": 5,
          "midi": 72,
          "name": "C5",
          "ticks": 3312,
          "time": 36,
          "velocity": 0.14173228346456693
        },
        {
          "duration": 0.13043478260869534,
          "durationTicks": 12,
          "midi": 89,
          "name": "F6",
          "ticks": 3312,
          "time": 36,
          "velocity": 0.1732283464566929
        },
        {
          "duration": 0.29347826086956275,
          "durationTicks": 27,
          "midi": 65,
          "name": "F4",
          "ticks": 3313,
          "time": 36.01086956521739,
          "velocity": 0.5826771653543307
        },
        {
          "duration": 0.11956521739130466,
          "durationTicks": 11,
          "midi": 81,
          "name": "A5",
          "ticks": 3313,
          "time": 36.01086956521739,
          "velocity": 0.2677165354330709
        },
        {
          "duration": 0.13043478260869534,
          "durationTicks": 12,
          "midi": 84,
          "name": "C6",
          "ticks": 3313,
          "time": 36.01086956521739,
          "velocity": 0.3700787401574803
        },
        {
          "duration": 0.07608695652174191,
          "durationTicks": 7,
          "midi": 99,
          "name": "D#7",
          "ticks": 3313,
          "time": 36.01086956521739,
          "velocity": 0.10236220472440945
        },
        {
          "duration": 0.021739130434781373,
          "durationTicks": 2,
          "midi": 49,
          "name": "C#3",
          "ticks": 3314,
          "time": 36.02173913043478,
          "velocity": 0.3700787401574803
        },
        {
          "duration": 0.021739130434781373,
          "durationTicks": 2,
          "midi": 56,
          "name": "G#3",
          "ticks": 3315,
          "time": 36.03260869565217,
          "velocity": 0.49606299212598426
        },
        {
          "duration": 0.14130434782609314,
          "durationTicks": 13,
          "midi": 57,
          "name": "A3",
          "ticks": 3317,
          "time": 36.05434782608695,
          "velocity": 0.4566929133858268
        },
        {
          "duration": 0.021739130434781373,
          "durationTicks": 2,
          "midi": 48,
          "name": "C3",
          "ticks": 3319,
          "time": 36.07608695652174,
          "velocity": 0.3228346456692913
        },
        {
          "duration": 0.021739130434781373,
          "durationTicks": 2,
          "midi": 42,
          "name": "F#2",
          "ticks": 3331,
          "time": 36.20652173913044,
          "velocity": 0.31496062992125984
        },
        {
          "duration": 0.021739130434781373,
          "durationTicks": 2,
          "midi": 42,
          "name": "F#2",
          "ticks": 3334,
          "time": 36.23913043478261,
          "velocity": 0.2992125984251969
        },
        {
          "duration": 0.021739130434781373,
          "durationTicks": 2,
          "midi": 58,
          "name": "A#3",
          "ticks": 3334,
          "time": 36.23913043478261,
          "velocity": 0.2440944881889764
        },
        {
          "duration": 0.02173913043478848,
          "durationTicks": 2,
          "midi": 57,
          "name": "A3",
          "ticks": 3340,
          "time": 36.30434782608695,
          "velocity": 0.44881889763779526
        },
        {
          "duration": 0.021739130434781373,
          "durationTicks": 2,
          "midi": 37,
          "name": "C#2",
          "ticks": 3341,
          "time": 36.31521739130435,
          "velocity": 0.3779527559055118
        },
        {
          "duration": 0.09782608695651618,
          "durationTicks": 9,
          "midi": 65,
          "name": "F4",
          "ticks": 3341,
          "time": 36.31521739130435,
          "velocity": 0.5354330708661418
        },
        {
          "duration": 0.11956521739129755,
          "durationTicks": 11,
          "midi": 84,
          "name": "C6",
          "ticks": 3341,
          "time": 36.31521739130435,
          "velocity": 0.4645669291338583
        },
        {
          "duration": 0.09782608695651618,
          "durationTicks": 9,
          "midi": 89,
          "name": "F6",
          "ticks": 3341,
          "time": 36.31521739130435,
          "velocity": 0.3464566929133858
        },
        {
          "duration": 0.010869565217390686,
          "durationTicks": 1,
          "midi": 56,
          "name": "G#3",
          "ticks": 3342,
          "time": 36.32608695652174,
          "velocity": 0.5196850393700787
        },
        {
          "duration": 0.03260869565217206,
          "durationTicks": 3,
          "midi": 70,
          "name": "A#4",
          "ticks": 3342,
          "time": 36.32608695652174,
          "velocity": 0.16535433070866143
        },
        {
          "duration": 0.03260869565217206,
          "durationTicks": 3,
          "midi": 58,
          "name": "A#3",
          "ticks": 3343,
          "time": 36.33695652173913,
          "velocity": 0.4330708661417323
        },
        {
          "duration": 0.25,
          "durationTicks": 23,
          "midi": 53,
          "name": "F3",
          "ticks": 3344,
          "time": 36.34782608695652,
          "velocity": 0.3464566929133858
        },
        {
          "duration": 0.2391304347826093,
          "durationTicks": 22,
          "midi": 41,
          "name": "F2",
          "ticks": 3347,
          "time": 36.380434782608695,
          "velocity": 0.5118110236220472
        },
        {
          "duration": 0.05434782608696054,
          "durationTicks": 5,
          "midi": 78,
          "name": "F#5",
          "ticks": 3349,
          "time": 36.40217391304348,
          "velocity": 0.2125984251968504
        },
        {
          "duration": 0.03260869565217206,
          "durationTicks": 3,
          "midi": 102,
          "name": "F#7",
          "ticks": 3349,
          "time": 36.40217391304348,
          "velocity": 0.11811023622047244
        },
        {
          "duration": 0.021739130434781373,
          "durationTicks": 2,
          "midi": 66,
          "name": "F#4",
          "ticks": 3350,
          "time": 36.41304347826087,
          "velocity": 0.4881889763779528
        },
        {
          "duration": 0.2391304347826093,
          "durationTicks": 22,
          "midi": 86,
          "name": "D6",
          "ticks": 3350,
          "time": 36.41304347826087,
          "velocity": 0.3228346456692913
        },
        {
          "duration": 0.20652173913043725,
          "durationTicks": 19,
          "midi": 67,
          "name": "G4",
          "ticks": 3352,
          "time": 36.43478260869565,
          "velocity": 0.5196850393700787
        },
        {
          "duration": 0.09782608695652328,
          "durationTicks": 9,
          "midi": 91,
          "name": "G6",
          "ticks": 3352,
          "time": 36.43478260869565,
          "velocity": 0.09448818897637795
        },
        {
          "duration": 0.05434782608695343,
          "durationTicks": 5,
          "midi": 101,
          "name": "F7",
          "ticks": 3353,
          "time": 36.44565217391305,
          "velocity": 0.10236220472440945
        },
        {
          "duration": 0.021739130434781373,
          "durationTicks": 2,
          "midi": 40,
          "name": "E2",
          "ticks": 3369,
          "time": 36.619565217391305,
          "velocity": 0.44881889763779526
        },
        {
          "duration": 0.19565217391304657,
          "durationTicks": 18,
          "midi": 69,
          "name": "A4",
          "ticks": 3370,
          "time": 36.630434782608695,
          "velocity": 0.41732283464566927
        },
        {
          "duration": 0.0869565217391326,
          "durationTicks": 8,
          "midi": 72,
          "name": "C5",
          "ticks": 3370,
          "time": 36.630434782608695,
          "velocity": 0.2283464566929134
        },
        {
          "duration": 0.2608695652173907,
          "durationTicks": 24,
          "midi": 77,
          "name": "F5",
          "ticks": 3370,
          "time": 36.630434782608695,
          "velocity": 0.2992125984251969
        },
        {
          "duration": 0.3369565217391326,
          "durationTicks": 31,
          "midi": 84,
          "name": "C6",
          "ticks": 3370,
          "time": 36.630434782608695,
          "velocity": 0.41732283464566927
        },
        {
          "duration": 0.021739130434781373,
          "durationTicks": 2,
          "midi": 66,
          "name": "F#4",
          "ticks": 3371,
          "time": 36.641304347826086,
          "velocity": 0.4015748031496063
        },
        {
          "duration": 0.03260869565217206,
          "durationTicks": 3,
          "midi": 39,
          "name": "D#2",
          "ticks": 3372,
          "time": 36.65217391304348,
          "velocity": 0.4015748031496063
        },
        {
          "duration": 0.03260869565217206,
          "durationTicks": 3,
          "midi": 56,
          "name": "G#3",
          "ticks": 3372,
          "time": 36.65217391304348,
          "velocity": 0.4251968503937008
        },
        {
          "duration": 0.29347826086956985,
          "durationTicks": 27,
          "midi": 65,
          "name": "F4",
          "ticks": 3373,
          "time": 36.66304347826087,
          "velocity": 0.44881889763779526
        },
        {
          "duration": 0.07608695652174191,
          "durationTicks": 7,
          "midi": 93,
          "name": "A6",
          "ticks": 3374,
          "time": 36.67391304347826,
          "velocity": 0.11811023622047244
        },
        {
          "duration": 0.02173913043478848,
          "durationTicks": 2,
          "midi": 41,
          "name": "F2",
          "ticks": 3375,
          "time": 36.68478260869565,
          "velocity": 0.33858267716535434
        },
        {
          "duration": 0.032608695652179165,
          "durationTicks": 3,
          "midi": 52,
          "name": "E3",
          "ticks": 3375,
          "time": 36.68478260869565,
          "velocity": 0.25984251968503935
        },
        {
          "duration": 0.021739130434781373,
          "durationTicks": 2,
          "midi": 41,
          "name": "F2",
          "ticks": 3380,
          "time": 36.73913043478261,
          "velocity": 0.2755905511811024
        },
        {
          "duration": 0.0869565217391326,
          "durationTicks": 8,
          "midi": 57,
          "name": "A3",
          "ticks": 3381,
          "time": 36.75,
          "velocity": 0.3779527559055118
        },
        {
          "duration": 0.021739130434781373,
          "durationTicks": 2,
          "midi": 39,
          "name": "D#2",
          "ticks": 3382,
          "time": 36.76086956521739,
          "velocity": 0.2992125984251969
        },
        {
          "duration": 0.02173913043478848,
          "durationTicks": 2,
          "midi": 51,
          "name": "D#3",
          "ticks": 3386,
          "time": 36.80434782608695,
          "velocity": 0.2755905511811024
        },
        {
          "duration": 0.08695652173912549,
          "durationTicks": 8,
          "midi": 101,
          "name": "F7",
          "ticks": 3387,
          "time": 36.81521739130435,
          "velocity": 0.18110236220472442
        },
        {
          "duration": 0.021739130434781373,
          "durationTicks": 2,
          "midi": 45,
          "name": "A2",
          "ticks": 3389,
          "time": 36.83695652173913,
          "velocity": 0.41732283464566927
        },
        {
          "duration": 0.043478260869562746,
          "durationTicks": 4,
          "midi": 32,
          "name": "G#1",
          "ticks": 3391,
          "time": 36.858695652173914,
          "velocity": 0.5354330708661418
        },
        {
          "duration": 0.032608695652179165,
          "durationTicks": 3,
          "midi": 55,
          "name": "G3",
          "ticks": 3397,
          "time": 36.92391304347826,
          "velocity": 0.30708661417322836
        },
        {
          "duration": 0.02173913043478848,
          "durationTicks": 2,
          "midi": 47,
          "name": "B2",
          "ticks": 3398,
          "time": 36.93478260869565,
          "velocity": 0.41732283464566927
        },
        {
          "duration": 0.021739130434781373,
          "durationTicks": 2,
          "midi": 48,
          "name": "C3",
          "ticks": 3401,
          "time": 36.96739130434783,
          "velocity": 0.2992125984251969
        },
        {
          "duration": 0.043478260869562746,
          "durationTicks": 4,
          "midi": 56,
          "name": "G#3",
          "ticks": 3401,
          "time": 36.96739130434783,
          "velocity": 0.4330708661417323
        },
        {
          "duration": 0.03260869565217206,
          "durationTicks": 3,
          "midi": 36,
          "name": "C2",
          "ticks": 3405,
          "time": 37.01086956521739,
          "velocity": 0.47244094488188976
        },
        {
          "duration": 0.13043478260869534,
          "durationTicks": 12,
          "midi": 48,
          "name": "C3",
          "ticks": 3408,
          "time": 37.04347826086956,
          "velocity": 0.36220472440944884
        },
        {
          "duration": 0.08695652173912549,
          "durationTicks": 8,
          "midi": 36,
          "name": "C2",
          "ticks": 3411,
          "time": 37.07608695652174,
          "velocity": 0.47244094488188976
        },
        {
          "duration": 0.13043478260869534,
          "durationTicks": 12,
          "midi": 62,
          "name": "D4",
          "ticks": 3416,
          "time": 37.130434782608695,
          "velocity": 0.48031496062992124
        },
        {
          "duration": 0.09782608695652328,
          "durationTicks": 9,
          "midi": 81,
          "name": "A5",
          "ticks": 3416,
          "time": 37.130434782608695,
          "velocity": 0.33858267716535434
        },
        {
          "duration": 0.05434782608696054,
          "durationTicks": 5,
          "midi": 69,
          "name": "A4",
          "ticks": 3417,
          "time": 37.141304347826086,
          "velocity": 0.08661417322834646
        },
        {
          "duration": 0.0869565217391326,
          "durationTicks": 8,
          "midi": 96,
          "name": "C7",
          "ticks": 3417,
          "time": 37.141304347826086,
          "velocity": 0.2440944881889764
        },
        {
          "duration": 0.04347826086956985,
          "durationTicks": 4,
          "midi": 65,
          "name": "F4",
          "ticks": 3418,
          "time": 37.15217391304348,
          "velocity": 0.30708661417322836
        },
        {
          "duration": 0.06521739130435122,
          "durationTicks": 6,
          "midi": 90,
          "name": "F#6",
          "ticks": 3418,
          "time": 37.15217391304348,
          "velocity": 0.12598425196850394
        },
        {
          "duration": 0.021739130434781373,
          "durationTicks": 2,
          "midi": 57,
          "name": "A3",
          "ticks": 3419,
          "time": 37.16304347826087,
          "velocity": 0.30708661417322836
        },
        {
          "duration": 0.05434782608696054,
          "durationTicks": 5,
          "midi": 37,
          "name": "C#2",
          "ticks": 3421,
          "time": 37.18478260869565,
          "velocity": 0.5039370078740157
        },
        {
          "duration": 0.02173913043478848,
          "durationTicks": 2,
          "midi": 58,
          "name": "A#3",
          "ticks": 3421,
          "time": 37.18478260869565,
          "velocity": 0.30708661417322836
        },
        {
          "duration": 0.05434782608695343,
          "durationTicks": 5,
          "midi": 48,
          "name": "C3",
          "ticks": 3424,
          "time": 37.21739130434783,
          "velocity": 0.3779527559055118
        },
        {
          "duration": 0.03260869565217206,
          "durationTicks": 3,
          "midi": 56,
          "name": "G#3",
          "ticks": 3424,
          "time": 37.21739130434783,
          "velocity": 0.3228346456692913
        },
        {
          "duration": 0.21739130434782794,
          "durationTicks": 20,
          "midi": 65,
          "name": "F4",
          "ticks": 3425,
          "time": 37.22826086956522,
          "velocity": 0.5118110236220472
        },
        {
          "duration": 0.021739130434781373,
          "durationTicks": 2,
          "midi": 36,
          "name": "C2",
          "ticks": 3426,
          "time": 37.23913043478261,
          "velocity": 0.4566929133858268
        },
        {
          "duration": 0.021739130434781373,
          "durationTicks": 2,
          "midi": 57,
          "name": "A3",
          "ticks": 3427,
          "time": 37.25,
          "velocity": 0.4094488188976378
        },
        {
          "duration": 0.13043478260869534,
          "durationTicks": 12,
          "midi": 84,
          "name": "C6",
          "ticks": 3427,
          "time": 37.25,
          "velocity": 0.2992125984251969
        },
        {
          "duration": 0.1630434782608745,
          "durationTicks": 15,
          "midi": 57,
          "name": "A3",
          "ticks": 3430,
          "time": 37.28260869565217,
          "velocity": 0.5196850393700787
        },
        {
          "duration": 0.04347826086956985,
          "durationTicks": 4,
          "midi": 39,
          "name": "D#2",
          "ticks": 3431,
          "time": 37.29347826086956,
          "velocity": 0.4094488188976378
        },
        {
          "duration": 0.15217391304348382,
          "durationTicks": 14,
          "midi": 74,
          "name": "D5",
          "ticks": 3431,
          "time": 37.29347826086956,
          "velocity": 0.15748031496062992
        },
        {
          "duration": 0.021739130434781373,
          "durationTicks": 2,
          "midi": 62,
          "name": "D4",
          "ticks": 3433,
          "time": 37.31521739130435,
          "velocity": 0.30708661417322836
        },
        {
          "duration": 0.03260869565217206,
          "durationTicks": 3,
          "midi": 35,
          "name": "B1",
          "ticks": 3438,
          "time": 37.369565217391305,
          "velocity": 0.2677165354330709
        },
        {
          "duration": 0.032608695652179165,
          "durationTicks": 3,
          "midi": 49,
          "name": "C#3",
          "ticks": 3442,
          "time": 37.41304347826087,
          "velocity": 0.1889763779527559
        },
        {
          "duration": 0.021739130434781373,
          "durationTicks": 2,
          "midi": 64,
          "name": "E4",
          "ticks": 3445,
          "time": 37.44565217391305,
          "velocity": 0.31496062992125984
        },
        {
          "duration": 0.15217391304347672,
          "durationTicks": 14,
          "midi": 77,
          "name": "F5",
          "ticks": 3445,
          "time": 37.44565217391305,
          "velocity": 0.25196850393700787
        },
        {
          "duration": 0.15217391304347672,
          "durationTicks": 14,
          "midi": 84,
          "name": "C6",
          "ticks": 3445,
          "time": 37.44565217391305,
          "velocity": 0.4409448818897638
        },
        {
          "duration": 0.021739130434781373,
          "durationTicks": 2,
          "midi": 38,
          "name": "D2",
          "ticks": 3446,
          "time": 37.45652173913044,
          "velocity": 0.4566929133858268
        },
        {
          "duration": 0.03260869565217206,
          "durationTicks": 3,
          "midi": 56,
          "name": "G#3",
          "ticks": 3446,
          "time": 37.45652173913044,
          "velocity": 0.49606299212598426
        },
        {
          "duration": 0.13043478260869534,
          "durationTicks": 12,
          "midi": 65,
          "name": "F4",
          "ticks": 3447,
          "time": 37.46739130434783,
          "velocity": 0.48031496062992124
        },
        {
          "duration": 0.03260869565217206,
          "durationTicks": 3,
          "midi": 57,
          "name": "A3",
          "ticks": 3451,
          "time": 37.51086956521739,
          "velocity": 0.4330708661417323
        },
        {
          "duration": 0.021739130434781373,
          "durationTicks": 2,
          "midi": 36,
          "name": "C2",
          "ticks": 3453,
          "time": 37.53260869565217,
          "velocity": 0.44881889763779526
        },
        {
          "duration": 0.04347826086956985,
          "durationTicks": 4,
          "midi": 58,
          "name": "A#3",
          "ticks": 3454,
          "time": 37.54347826086956,
          "velocity": 0.3228346456692913
        },
        {
          "duration": 0.02173913043478848,
          "durationTicks": 2,
          "midi": 38,
          "name": "D2",
          "ticks": 3455,
          "time": 37.55434782608695,
          "velocity": 0.2755905511811024
        },
        {
          "duration": 0.3152173913043441,
          "durationTicks": 29,
          "midi": 86,
          "name": "D6",
          "ticks": 3456,
          "time": 37.56521739130435,
          "velocity": 0.2283464566929134
        },
        {
          "duration": 0.021739130434781373,
          "durationTicks": 2,
          "midi": 52,
          "name": "E3",
          "ticks": 3457,
          "time": 37.57608695652174,
          "velocity": 0.44881889763779526
        },
        {
          "duration": 0.05434782608695343,
          "durationTicks": 5,
          "midi": 91,
          "name": "G6",
          "ticks": 3457,
          "time": 37.57608695652174,
          "velocity": 0.13385826771653545
        },
        {
          "duration": 0.021739130434781373,
          "durationTicks": 2,
          "midi": 67,
          "name": "G4",
          "ticks": 3458,
          "time": 37.58695652173913,
          "velocity": 0.36220472440944884
        },
        {
          "duration": 0.010869565217390686,
          "durationTicks": 1,
          "midi": 56,
          "name": "G#3",
          "ticks": 3459,
          "time": 37.59782608695652,
          "velocity": 0.5669291338582677
        },
        {
          "duration": 0.25,
          "durationTicks": 23,
          "midi": 46,
          "name": "A#2",
          "ticks": 3460,
          "time": 37.608695652173914,
          "velocity": 0.47244094488188976
        },
        {
          "duration": 0.010869565217390686,
          "durationTicks": 1,
          "midi": 58,
          "name": "A#3",
          "ticks": 3460,
          "time": 37.608695652173914,
          "velocity": 0.5826771653543307
        },
        {
          "duration": 0.010869565217390686,
          "durationTicks": 1,
          "midi": 57,
          "name": "A3",
          "ticks": 3461,
          "time": 37.619565217391305,
          "velocity": 0.5511811023622047
        },
        {
          "duration": 0.2608695652173907,
          "durationTicks": 24,
          "midi": 67,
          "name": "G4",
          "ticks": 3461,
          "time": 37.619565217391305,
          "velocity": 0.48031496062992124
        },
        {
          "duration": 0.10869565217391397,
          "durationTicks": 10,
          "midi": 53,
          "name": "F3",
          "ticks": 3462,
          "time": 37.630434782608695,
          "velocity": 0.47244094488188976
        },
        {
          "duration": 0.22826086956521863,
          "durationTicks": 21,
          "midi": 58,
          "name": "A#3",
          "ticks": 3462,
          "time": 37.630434782608695,
          "velocity": 0.5196850393700787
        },
        {
          "duration": 0.021739130434781373,
          "durationTicks": 2,
          "midi": 34,
          "name": "A#1",
          "ticks": 3465,
          "time": 37.66304347826087,
          "velocity": 0.31496062992125984
        },
        {
          "duration": 0.0760869565217348,
          "durationTicks": 7,
          "midi": 34,
          "name": "A#1",
          "ticks": 3470,
          "time": 37.71739130434783,
          "velocity": 0.3543307086614173
        },
        {
          "duration": 0.021739130434781373,
          "durationTicks": 2,
          "midi": 53,
          "name": "F3",
          "ticks": 3475,
          "time": 37.77173913043478,
          "velocity": 0.30708661417322836
        },
        {
          "duration": 0.04347826086956985,
          "durationTicks": 4,
          "midi": 34,
          "name": "A#1",
          "ticks": 3478,
          "time": 37.80434782608695,
          "velocity": 0.3700787401574803
        },
        {
          "duration": 0.02173913043478848,
          "durationTicks": 2,
          "midi": 53,
          "name": "F3",
          "ticks": 3478,
          "time": 37.80434782608695,
          "velocity": 0.2992125984251969
        },
        {
          "duration": 0.021739130434781373,
          "durationTicks": 2,
          "midi": 54,
          "name": "F#3",
          "ticks": 3484,
          "time": 37.869565217391305,
          "velocity": 0.3858267716535433
        },
        {
          "duration": 0.30434782608695343,
          "durationTicks": 28,
          "midi": 65,
          "name": "F4",
          "ticks": 3484,
          "time": 37.869565217391305,
          "velocity": 0.3858267716535433
        },
        {
          "duration": 0.05434782608695343,
          "durationTicks": 5,
          "midi": 81,
          "name": "A5",
          "ticks": 3484,
          "time": 37.869565217391305,
          "velocity": 0.33070866141732286
        },
        {
          "duration": 0.043478260869562746,
          "durationTicks": 4,
          "midi": 84,
          "name": "C6",
          "ticks": 3484,
          "time": 37.869565217391305,
          "velocity": 0.16535433070866143
        },
        {
          "duration": 0.13043478260869534,
          "durationTicks": 12,
          "midi": 82,
          "name": "A#5",
          "ticks": 3485,
          "time": 37.880434782608695,
          "velocity": 0.3228346456692913
        },
        {
          "duration": 0.07608695652174191,
          "durationTicks": 7,
          "midi": 88,
          "name": "E6",
          "ticks": 3485,
          "time": 37.880434782608695,
          "velocity": 0.14173228346456693
        },
        {
          "duration": 0.0869565217391326,
          "durationTicks": 8,
          "midi": 97,
          "name": "C#7",
          "ticks": 3485,
          "time": 37.880434782608695,
          "velocity": 0.10236220472440945
        },
        {
          "duration": 0.608695652173914,
          "durationTicks": 56,
          "midi": 69,
          "name": "A4",
          "ticks": 3486,
          "time": 37.891304347826086,
          "velocity": 0.4015748031496063
        },
        {
          "duration": 0.043478260869562746,
          "durationTicks": 4,
          "midi": 86,
          "name": "D6",
          "ticks": 3486,
          "time": 37.891304347826086,
          "velocity": 0.08661417322834646
        },
        {
          "duration": 0.010869565217390686,
          "durationTicks": 1,
          "midi": 53,
          "name": "F3",
          "ticks": 3487,
          "time": 37.90217391304348,
          "velocity": 0.5590551181102362
        },
        {
          "duration": 0.010869565217390686,
          "durationTicks": 1,
          "midi": 54,
          "name": "F#3",
          "ticks": 3488,
          "time": 37.91304347826087,
          "velocity": 0.5433070866141733
        },
        {
          "duration": 0.02173913043478848,
          "durationTicks": 2,
          "midi": 47,
          "name": "B2",
          "ticks": 3489,
          "time": 37.92391304347826,
          "velocity": 0.4015748031496063
        },
        {
          "duration": 0.04347826086956985,
          "durationTicks": 4,
          "midi": 58,
          "name": "A#3",
          "ticks": 3490,
          "time": 37.93478260869565,
          "velocity": 0.33070866141732286
        },
        {
          "duration": 0.08695652173912549,
          "durationTicks": 8,
          "midi": 46,
          "name": "A#2",
          "ticks": 3491,
          "time": 37.94565217391305,
          "velocity": 0.28346456692913385
        },
        {
          "duration": 0.03260869565217206,
          "durationTicks": 3,
          "midi": 33,
          "name": "A1",
          "ticks": 3492,
          "time": 37.95652173913044,
          "velocity": 0.23622047244094488
        },
        {
          "duration": 0.05434782608695343,
          "durationTicks": 5,
          "midi": 53,
          "name": "F3",
          "ticks": 3493,
          "time": 37.96739130434783,
          "velocity": 0.23622047244094488
        },
        {
          "duration": 0.14130434782608603,
          "durationTicks": 13,
          "midi": 46,
          "name": "A#2",
          "ticks": 3500,
          "time": 38.04347826086956,
          "velocity": 0.4409448818897638
        },
        {
          "duration": 0.03260869565217206,
          "durationTicks": 3,
          "midi": 54,
          "name": "F#3",
          "ticks": 3515,
          "time": 38.20652173913044,
          "velocity": 0.5196850393700787
        },
        {
          "duration": 0.021739130434781373,
          "durationTicks": 2,
          "midi": 38,
          "name": "D2",
          "ticks": 3516,
          "time": 38.21739130434783,
          "velocity": 0.4566929133858268
        },
        {
          "duration": 0.021739130434781373,
          "durationTicks": 2,
          "midi": 42,
          "name": "F#2",
          "ticks": 3518,
          "time": 38.23913043478261,
          "velocity": 0.5275590551181102
        },
        {
          "duration": 0.14130434782608603,
          "durationTicks": 13,
          "midi": 53,
          "name": "F3",
          "ticks": 3518,
          "time": 38.23913043478261,
          "velocity": 0.5039370078740157
        },
        {
          "duration": 0.021739130434781373,
          "durationTicks": 2,
          "midi": 41,
          "name": "F2",
          "ticks": 3521,
          "time": 38.27173913043478,
          "velocity": 0.5196850393700787
        },
        {
          "duration": 0.06521739130435122,
          "durationTicks": 6,
          "midi": 41,
          "name": "F2",
          "ticks": 3524,
          "time": 38.30434782608695,
          "velocity": 0.5039370078740157
        },
        {
          "duration": 0.010869565217390686,
          "durationTicks": 1,
          "midi": 54,
          "name": "F#3",
          "ticks": 3531,
          "time": 38.380434782608695,
          "velocity": 0.5433070866141733
        },
        {
          "duration": 0.09782608695652328,
          "durationTicks": 9,
          "midi": 65,
          "name": "F4",
          "ticks": 3531,
          "time": 38.380434782608695,
          "velocity": 0.18110236220472442
        },
        {
          "duration": 0.0869565217391326,
          "durationTicks": 8,
          "midi": 41,
          "name": "F2",
          "ticks": 3534,
          "time": 38.41304347826087,
          "velocity": 0.4645669291338583
        },
        {
          "duration": 0.032608695652179165,
          "durationTicks": 3,
          "midi": 58,
          "name": "A#3",
          "ticks": 3534,
          "time": 38.41304347826087,
          "velocity": 0.5118110236220472
        },
        {
          "duration": 0.021739130434781373,
          "durationTicks": 2,
          "midi": 57,
          "name": "A3",
          "ticks": 3537,
          "time": 38.44565217391305,
          "velocity": 0.4330708661417323
        },
        {
          "duration": 0.20652173913043725,
          "durationTicks": 19,
          "midi": 65,
          "name": "F4",
          "ticks": 3541,
          "time": 38.48913043478261,
          "velocity": 0.5275590551181102
        },
        {
          "duration": 0.11956521739130466,
          "durationTicks": 11,
          "midi": 82,
          "name": "A#5",
          "ticks": 3541,
          "time": 38.48913043478261,
          "velocity": 0.28346456692913385
        },
        {
          "duration": 0.10869565217391397,
          "durationTicks": 10,
          "midi": 84,
          "name": "C6",
          "ticks": 3541,
          "time": 38.48913043478261,
          "velocity": 0.18110236220472442
        },
        {
          "duration": 0.010869565217390686,
          "durationTicks": 1,
          "midi": 50,
          "name": "D3",
          "ticks": 3542,
          "time": 38.5,
          "velocity": 0.5196850393700787
        },
        {
          "duration": 0.021739130434781373,
          "durationTicks": 2,
          "midi": 70,
          "name": "A#4",
          "ticks": 3542,
          "time": 38.5,
          "velocity": 0.25196850393700787
        },
        {
          "duration": 0.010869565217390686,
          "durationTicks": 1,
          "midi": 47,
          "name": "B2",
          "ticks": 3543,
          "time": 38.51086956521739,
          "velocity": 0.5196850393700787
        },
        {
          "duration": 0.021739130434781373,
          "durationTicks": 2,
          "midi": 58,
          "name": "A#3",
          "ticks": 3543,
          "time": 38.51086956521739,
          "velocity": 0.3937007874015748
        },
        {
          "duration": 0.021739130434781373,
          "durationTicks": 2,
          "midi": 69,
          "name": "A4",
          "ticks": 3543,
          "time": 38.51086956521739,
          "velocity": 0.3543307086614173
        },
        {
          "duration": 0.010869565217390686,
          "durationTicks": 1,
          "midi": 46,
          "name": "A#2",
          "ticks": 3544,
          "time": 38.52173913043478,
          "velocity": 0.5118110236220472
        },
        {
          "duration": 0.0869565217391326,
          "durationTicks": 8,
          "midi": 86,
          "name": "D6",
          "ticks": 3544,
          "time": 38.52173913043478,
          "velocity": 0.07086614173228346
        },
        {
          "duration": 0.021739130434781373,
          "durationTicks": 2,
          "midi": 54,
          "name": "F#3",
          "ticks": 3545,
          "time": 38.53260869565217,
          "velocity": 0.5118110236220472
        },
        {
          "duration": 0.1630434782608745,
          "durationTicks": 15,
          "midi": 70,
          "name": "A#4",
          "ticks": 3545,
          "time": 38.53260869565217,
          "velocity": 0.3700787401574803
        },
        {
          "duration": 0.02173913043478848,
          "durationTicks": 2,
          "midi": 53,
          "name": "F3",
          "ticks": 3547,
          "time": 38.55434782608695,
          "velocity": 0.4330708661417323
        },
        {
          "duration": 0.021739130434781373,
          "durationTicks": 2,
          "midi": 58,
          "name": "A#3",
          "ticks": 3548,
          "time": 38.56521739130435,
          "velocity": 0.3543307086614173
        },
        {
          "duration": 0.021739130434781373,
          "durationTicks": 2,
          "midi": 40,
          "name": "E2",
          "ticks": 3549,
          "time": 38.57608695652174,
          "velocity": 0.31496062992125984
        },
        {
          "duration": 0.021739130434781373,
          "durationTicks": 2,
          "midi": 53,
          "name": "F3",
          "ticks": 3550,
          "time": 38.58695652173913,
          "velocity": 0.30708661417322836
        },
        {
          "duration": 0.021739130434781373,
          "durationTicks": 2,
          "midi": 46,
          "name": "A#2",
          "ticks": 3553,
          "time": 38.619565217391305,
          "velocity": 0.2755905511811024
        },
        {
          "duration": 0.04347826086956985,
          "durationTicks": 4,
          "midi": 62,
          "name": "D4",
          "ticks": 3556,
          "time": 38.65217391304348,
          "velocity": 0.1732283464566929
        },
        {
          "duration": 0.04347826086956985,
          "durationTicks": 4,
          "midi": 58,
          "name": "A#3",
          "ticks": 3557,
          "time": 38.66304347826087,
          "velocity": 0.36220472440944884
        },
        {
          "duration": 0.021739130434781373,
          "durationTicks": 2,
          "midi": 49,
          "name": "C#3",
          "ticks": 3560,
          "time": 38.69565217391305,
          "velocity": 0.29133858267716534
        },
        {
          "duration": 0.043478260869562746,
          "durationTicks": 4,
          "midi": 69,
          "name": "A4",
          "ticks": 3560,
          "time": 38.69565217391305,
          "velocity": 0.18110236220472442
        },
        {
          "duration": 0.03260869565217206,
          "durationTicks": 3,
          "midi": 56,
          "name": "G#3",
          "ticks": 3561,
          "time": 38.70652173913044,
          "velocity": 0.4566929133858268
        },
        {
          "duration": 0.043478260869562746,
          "durationTicks": 4,
          "midi": 57,
          "name": "A3",
          "ticks": 3564,
          "time": 38.73913043478261,
          "velocity": 0.28346456692913385
        },
        {
          "duration": 0.03260869565217206,
          "durationTicks": 3,
          "midi": 47,
          "name": "B2",
          "ticks": 3566,
          "time": 38.76086956521739,
          "velocity": 0.18110236220472442
        },
        {
          "duration": 0.02173913043478848,
          "durationTicks": 2,
          "midi": 46,
          "name": "A#2",
          "ticks": 3569,
          "time": 38.79347826086956,
          "velocity": 0.3228346456692913
        },
        {
          "duration": 0.04347826086956985,
          "durationTicks": 4,
          "midi": 67,
          "name": "G4",
          "ticks": 3570,
          "time": 38.80434782608695,
          "velocity": 0.11811023622047244
        },
        {
          "duration": 0.021739130434781373,
          "durationTicks": 2,
          "midi": 48,
          "name": "C3",
          "ticks": 3571,
          "time": 38.81521739130435,
          "velocity": 0.49606299212598426
        },
        {
          "duration": 0.010869565217390686,
          "durationTicks": 1,
          "midi": 46,
          "name": "A#2",
          "ticks": 3573,
          "time": 38.83695652173913,
          "velocity": 0.5590551181102362
        },
        {
          "duration": 0.1630434782608674,
          "durationTicks": 15,
          "midi": 55,
          "name": "G3",
          "ticks": 3573,
          "time": 38.83695652173913,
          "velocity": 0.4251968503937008
        },
        {
          "duration": 0.010869565217390686,
          "durationTicks": 1,
          "midi": 47,
          "name": "B2",
          "ticks": 3574,
          "time": 38.84782608695652,
          "velocity": 0.5275590551181102
        },
        {
          "duration": 0.10869565217391397,
          "durationTicks": 10,
          "midi": 48,
          "name": "C3",
          "ticks": 3575,
          "time": 38.858695652173914,
          "velocity": 0.4881889763779528
        },
        {
          "duration": 0.06521739130435122,
          "durationTicks": 6,
          "midi": 36,
          "name": "C2",
          "ticks": 3577,
          "time": 38.880434782608695,
          "velocity": 0.3858267716535433
        },
        {
          "duration": 0.05434782608695343,
          "durationTicks": 5,
          "midi": 36,
          "name": "C2",
          "ticks": 3584,
          "time": 38.95652173913044,
          "velocity": 0.41732283464566927
        },
        {
          "duration": 0.021739130434781373,
          "durationTicks": 2,
          "midi": 47,
          "name": "B2",
          "ticks": 3585,
          "time": 38.96739130434783,
          "velocity": 0.30708661417322836
        },
        {
          "duration": 0.05434782608695343,
          "durationTicks": 5,
          "midi": 54,
          "name": "F#3",
          "ticks": 3588,
          "time": 39,
          "velocity": 0.3779527559055118
        },
        {
          "duration": 0.03260869565217206,
          "durationTicks": 3,
          "midi": 67,
          "name": "G4",
          "ticks": 3588,
          "time": 39,
          "velocity": 0.15748031496062992
        },
        {
          "duration": 0.043478260869562746,
          "durationTicks": 4,
          "midi": 64,
          "name": "E4",
          "ticks": 3589,
          "time": 39.01086956521739,
          "velocity": 0.1889763779527559
        },
        {
          "duration": 0.11956521739130466,
          "durationTicks": 11,
          "midi": 36,
          "name": "C2",
          "ticks": 3590,
          "time": 39.02173913043478,
          "velocity": 0.4251968503937008
        },
        {
          "duration": 0.03260869565217206,
          "durationTicks": 3,
          "midi": 55,
          "name": "G3",
          "ticks": 3595,
          "time": 39.07608695652174,
          "velocity": 0.33070866141732286
        },
        {
          "duration": 0.18478260869564878,
          "durationTicks": 17,
          "midi": 67,
          "name": "G4",
          "ticks": 3596,
          "time": 39.08695652173913,
          "velocity": 0.44881889763779526
        },
        {
          "duration": 0.10869565217391397,
          "durationTicks": 10,
          "midi": 86,
          "name": "D6",
          "ticks": 3597,
          "time": 39.09782608695652,
          "velocity": 0.29133858267716534
        },
        {
          "duration": 0.03260869565217206,
          "durationTicks": 3,
          "midi": 56,
          "name": "G#3",
          "ticks": 3598,
          "time": 39.108695652173914,
          "velocity": 0.5511811023622047
        },
        {
          "duration": 0.0869565217391326,
          "durationTicks": 8,
          "midi": 72,
          "name": "C5",
          "ticks": 3598,
          "time": 39.108695652173914,
          "velocity": 0.08661417322834646
        },
        {
          "duration": 0.03260869565217206,
          "durationTicks": 3,
          "midi": 76,
          "name": "E5",
          "ticks": 3598,
          "time": 39.108695652173914,
          "velocity": 0.15748031496062992
        },
        {
          "duration": 0.15217391304347672,
          "durationTicks": 14,
          "midi": 55,
          "name": "G3",
          "ticks": 3601,
          "time": 39.141304347826086,
          "velocity": 0.5590551181102362
        },
        {
          "duration": 0.03260869565217206,
          "durationTicks": 3,
          "midi": 64,
          "name": "E4",
          "ticks": 3601,
          "time": 39.141304347826086,
          "velocity": 0.28346456692913385
        },
        {
          "duration": 0.04347826086956985,
          "durationTicks": 4,
          "midi": 37,
          "name": "C#2",
          "ticks": 3605,
          "time": 39.18478260869565,
          "velocity": 0.1968503937007874
        },
        {
          "duration": 0.06521739130434412,
          "durationTicks": 6,
          "midi": 64,
          "name": "E4",
          "ticks": 3606,
          "time": 39.19565217391305,
          "velocity": 0.12598425196850394
        },
        {
          "duration": 0.15217391304348382,
          "durationTicks": 14,
          "midi": 67,
          "name": "G4",
          "ticks": 3616,
          "time": 39.30434782608695,
          "velocity": 0.15748031496062992
        },
        {
          "duration": 0.03260869565217206,
          "durationTicks": 3,
          "midi": 64,
          "name": "E4",
          "ticks": 3618,
          "time": 39.32608695652174,
          "velocity": 0.12598425196850394
        },
        {
          "duration": 0.021739130434781373,
          "durationTicks": 2,
          "midi": 55,
          "name": "G3",
          "ticks": 3619,
          "time": 39.33695652173913,
          "velocity": 0.2992125984251969
        },
        {
          "duration": 0.021739130434781373,
          "durationTicks": 2,
          "midi": 47,
          "name": "B2",
          "ticks": 3620,
          "time": 39.34782608695652,
          "velocity": 0.3779527559055118
        },
        {
          "duration": 0.021739130434781373,
          "durationTicks": 2,
          "midi": 36,
          "name": "C2",
          "ticks": 3622,
          "time": 39.369565217391305,
          "velocity": 0.25984251968503935
        },
        {
          "duration": 0.021739130434781373,
          "durationTicks": 2,
          "midi": 48,
          "name": "C3",
          "ticks": 3622,
          "time": 39.369565217391305,
          "velocity": 0.33070866141732286
        },
        {
          "duration": 0.021739130434781373,
          "durationTicks": 2,
          "midi": 38,
          "name": "D2",
          "ticks": 3626,
          "time": 39.41304347826087,
          "velocity": 0.30708661417322836
        },
        {
          "duration": 0.02173913043478848,
          "durationTicks": 2,
          "midi": 54,
          "name": "F#3",
          "ticks": 3627,
          "time": 39.42391304347826,
          "velocity": 0.3543307086614173
        },
        {
          "duration": 0.10869565217390686,
          "durationTicks": 10,
          "midi": 55,
          "name": "G3",
          "ticks": 3629,
          "time": 39.44565217391305,
          "velocity": 0.4330708661417323
        },
        {
          "duration": 0.021739130434781373,
          "durationTicks": 2,
          "midi": 33,
          "name": "A1",
          "ticks": 3631,
          "time": 39.46739130434783,
          "velocity": 0.3700787401574803
        },
        {
          "duration": 0.021739130434781373,
          "durationTicks": 2,
          "midi": 36,
          "name": "C2",
          "ticks": 3634,
          "time": 39.5,
          "velocity": 0.2677165354330709
        },
        {
          "duration": 0.043478260869562746,
          "durationTicks": 4,
          "midi": 60,
          "name": "C4",
          "ticks": 3645,
          "time": 39.619565217391305,
          "velocity": 0.2755905511811024
        },
        {
          "duration": 0.10869565217391397,
          "durationTicks": 10,
          "midi": 67,
          "name": "G4",
          "ticks": 3645,
          "time": 39.619565217391305,
          "velocity": 0.2283464566929134
        },
        {
          "duration": 0.021739130434781373,
          "durationTicks": 2,
          "midi": 41,
          "name": "F2",
          "ticks": 3646,
          "time": 39.630434782608695,
          "velocity": 0.2677165354330709
        },
        {
          "duration": 0.021739130434781373,
          "durationTicks": 2,
          "midi": 54,
          "name": "F#3",
          "ticks": 3647,
          "time": 39.641304347826086,
          "velocity": 0.5433070866141733
        },
        {
          "duration": 0.06521739130435122,
          "durationTicks": 6,
          "midi": 86,
          "name": "D6",
          "ticks": 3648,
          "time": 39.65217391304348,
          "velocity": 0.07874015748031496
        },
        {
          "duration": 0.021739130434781373,
          "durationTicks": 2,
          "midi": 55,
          "name": "G3",
          "ticks": 3649,
          "time": 39.66304347826087,
          "velocity": 0.41732283464566927
        },
        {
          "duration": 0.021739130434781373,
          "durationTicks": 2,
          "midi": 46,
          "name": "A#2",
          "ticks": 3653,
          "time": 39.70652173913044,
          "velocity": 0.28346456692913385
        },
        {
          "duration": 0.22826086956521863,
          "durationTicks": 21,
          "midi": 64,
          "name": "E4",
          "ticks": 3654,
          "time": 39.71739130434783,
          "velocity": 0.44881889763779526
        },
        {
          "duration": 0.15217391304347672,
          "durationTicks": 14,
          "midi": 79,
          "name": "G5",
          "ticks": 3655,
          "time": 39.72826086956522,
          "velocity": 0.1732283464566929
        },
        {
          "duration": 0.10869565217391397,
          "durationTicks": 10,
          "midi": 86,
          "name": "D6",
          "ticks": 3655,
          "time": 39.72826086956522,
          "velocity": 0.25984251968503935
        },
        {
          "duration": 0.010869565217390686,
          "durationTicks": 1,
          "midi": 49,
          "name": "C#3",
          "ticks": 3656,
          "time": 39.73913043478261,
          "velocity": 0.5196850393700787
        },
        {
          "duration": 0.010869565217390686,
          "durationTicks": 1,
          "midi": 55,
          "name": "G3",
          "ticks": 3656,
          "time": 39.73913043478261,
          "velocity": 0.5590551181102362
        },
        {
          "duration": 0.010869565217390686,
          "durationTicks": 1,
          "midi": 54,
          "name": "F#3",
          "ticks": 3657,
          "time": 39.75,
          "velocity": 0.5984251968503937
        },
        {
          "duration": 0.05434782608695343,
          "durationTicks": 5,
          "midi": 72,
          "name": "C5",
          "ticks": 3657,
          "time": 39.75,
          "velocity": 0.1968503937007874
        },
        {
          "duration": 0.010869565217390686,
          "durationTicks": 1,
          "midi": 50,
          "name": "D3",
          "ticks": 3658,
          "time": 39.76086956521739,
          "velocity": 0.5196850393700787
        },
        {
          "duration": 0.03260869565217206,
          "durationTicks": 3,
          "midi": 55,
          "name": "G3",
          "ticks": 3658,
          "time": 39.76086956521739,
          "velocity": 0.5669291338582677
        },
        {
          "duration": 0.03260869565217206,
          "durationTicks": 3,
          "midi": 101,
          "name": "F7",
          "ticks": 3658,
          "time": 39.76086956521739,
          "velocity": 0.09448818897637795
        },
        {
          "duration": 0.14130434782608603,
          "durationTicks": 13,
          "midi": 50,
          "name": "D3",
          "ticks": 3660,
          "time": 39.78260869565217,
          "velocity": 0.4881889763779528
        },
        {
          "duration": 0.05434782608696054,
          "durationTicks": 5,
          "midi": 60,
          "name": "C4",
          "ticks": 3660,
          "time": 39.78260869565217,
          "velocity": 0.2125984251968504
        },
        {
          "duration": 0.032608695652179165,
          "durationTicks": 3,
          "midi": 88,
          "name": "E6",
          "ticks": 3661,
          "time": 39.79347826086956,
          "velocity": 0.11811023622047244
        },
        {
          "duration": 0.032608695652179165,
          "durationTicks": 3,
          "midi": 37,
          "name": "C#2",
          "ticks": 3662,
          "time": 39.80434782608695,
          "velocity": 0.4409448818897638
        },
        {
          "duration": 0.10869565217391397,
          "durationTicks": 10,
          "midi": 38,
          "name": "D2",
          "ticks": 3665,
          "time": 39.83695652173913,
          "velocity": 0.36220472440944884
        },
        {
          "duration": 0.05434782608696054,
          "durationTicks": 5,
          "midi": 67,
          "name": "G4",
          "ticks": 3673,
          "time": 39.92391304347826,
          "velocity": 0.1732283464566929
        },
        {
          "duration": 0.02173913043478848,
          "durationTicks": 2,
          "midi": 49,
          "name": "C#3",
          "ticks": 3674,
          "time": 39.93478260869565,
          "velocity": 0.4015748031496063
        },
        {
          "duration": 0.02173913043478848,
          "durationTicks": 2,
          "midi": 55,
          "name": "G3",
          "ticks": 3674,
          "time": 39.93478260869565,
          "velocity": 0.4015748031496063
        },
        {
          "duration": 0.021739130434781373,
          "durationTicks": 2,
          "midi": 55,
          "name": "G3",
          "ticks": 3677,
          "time": 39.96739130434783,
          "velocity": 0.33858267716535434
        },
        {
          "duration": 0.03260869565217206,
          "durationTicks": 3,
          "midi": 49,
          "name": "C#3",
          "ticks": 3680,
          "time": 40,
          "velocity": 0.10236220472440945
        },
        {
          "duration": 0.021739130434781373,
          "durationTicks": 2,
          "midi": 25,
          "name": "C#1",
          "ticks": 3683,
          "time": 40.03260869565217,
          "velocity": 0.28346456692913385
        },
        {
          "duration": 0.3152173913043512,
          "durationTicks": 29,
          "midi": 65,
          "name": "F4",
          "ticks": 3684,
          "time": 40.04347826086956,
          "velocity": 0.36220472440944884
        },
        {
          "duration": 0.2391304347826093,
          "durationTicks": 22,
          "midi": 69,
          "name": "A4",
          "ticks": 3685,
          "time": 40.05434782608695,
          "velocity": 0.3228346456692913
        },
        {
          "duration": 0.021739130434781373,
          "durationTicks": 2,
          "midi": 58,
          "name": "A#3",
          "ticks": 3686,
          "time": 40.06521739130435,
          "velocity": 0.44881889763779526
        },
        {
          "duration": 0.010869565217390686,
          "durationTicks": 1,
          "midi": 41,
          "name": "F2",
          "ticks": 3687,
          "time": 40.07608695652174,
          "velocity": 0.5433070866141733
        },
        {
          "duration": 0.010869565217390686,
          "durationTicks": 1,
          "midi": 42,
          "name": "F#2",
          "ticks": 3688,
          "time": 40.08695652173913,
          "velocity": 0.5826771653543307
        },
        {
          "duration": 0.010869565217390686,
          "durationTicks": 1,
          "midi": 57,
          "name": "A3",
          "ticks": 3688,
          "time": 40.08695652173913,
          "velocity": 0.5748031496062992
        },
        {
          "duration": 0.2608695652173907,
          "durationTicks": 24,
          "midi": 41,
          "name": "F2",
          "ticks": 3689,
          "time": 40.09782608695652,
          "velocity": 0.5669291338582677
        },
        {
          "duration": 0.010869565217390686,
          "durationTicks": 1,
          "midi": 56,
          "name": "G#3",
          "ticks": 3689,
          "time": 40.09782608695652,
          "velocity": 0.6062992125984252
        },
        {
          "duration": 0.1630434782608674,
          "durationTicks": 15,
          "midi": 57,
          "name": "A3",
          "ticks": 3690,
          "time": 40.108695652173914,
          "velocity": 0.5590551181102362
        },
        {
          "duration": 0.021739130434781373,
          "durationTicks": 2,
          "midi": 64,
          "name": "E4",
          "ticks": 3713,
          "time": 40.358695652173914,
          "velocity": 0.33858267716535434
        },
        {
          "duration": 0.09782608695652328,
          "durationTicks": 9,
          "midi": 69,
          "name": "A4",
          "ticks": 3713,
          "time": 40.358695652173914,
          "velocity": 0.3228346456692913
        },
        {
          "duration": 0.14130434782608603,
          "durationTicks": 13,
          "midi": 72,
          "name": "C5",
          "ticks": 3713,
          "time": 40.358695652173914,
          "velocity": 0.3700787401574803
        },
        {
          "duration": 0.03260869565217206,
          "durationTicks": 3,
          "midi": 58,
          "name": "A#3",
          "ticks": 3714,
          "time": 40.369565217391305,
          "velocity": 0.6456692913385826
        },
        {
          "duration": 0.1739130434782581,
          "durationTicks": 16,
          "midi": 77,
          "name": "F5",
          "ticks": 3714,
          "time": 40.369565217391305,
          "velocity": 0.2677165354330709
        },
        {
          "duration": 0.07608695652174191,
          "durationTicks": 7,
          "midi": 91,
          "name": "G6",
          "ticks": 3714,
          "time": 40.369565217391305,
          "velocity": 0.11023622047244094
        },
        {
          "duration": 0.20652173913043725,
          "durationTicks": 19,
          "midi": 65,
          "name": "F4",
          "ticks": 3715,
          "time": 40.380434782608695,
          "velocity": 0.3937007874015748
        },
        {
          "duration": 0.0869565217391326,
          "durationTicks": 8,
          "midi": 93,
          "name": "A6",
          "ticks": 3715,
          "time": 40.380434782608695,
          "velocity": 0.23622047244094488
        },
        {
          "duration": 0.07608695652174191,
          "durationTicks": 7,
          "midi": 96,
          "name": "C7",
          "ticks": 3715,
          "time": 40.380434782608695,
          "velocity": 0.14960629921259844
        },
        {
          "duration": 0.021739130434781373,
          "durationTicks": 2,
          "midi": 45,
          "name": "A2",
          "ticks": 3717,
          "time": 40.40217391304348,
          "velocity": 0.33070866141732286
        },
        {
          "duration": 0.04347826086956985,
          "durationTicks": 4,
          "midi": 57,
          "name": "A3",
          "ticks": 3717,
          "time": 40.40217391304348,
          "velocity": 0.5905511811023622
        },
        {
          "duration": 0.0869565217391326,
          "durationTicks": 8,
          "midi": 88,
          "name": "E6",
          "ticks": 3718,
          "time": 40.41304347826087,
          "velocity": 0.12598425196850394
        },
        {
          "duration": 0.02173913043478848,
          "durationTicks": 2,
          "midi": 43,
          "name": "G2",
          "ticks": 3719,
          "time": 40.42391304347826,
          "velocity": 0.30708661417322836
        },
        {
          "duration": 0.10869565217391397,
          "durationTicks": 10,
          "midi": 57,
          "name": "A3",
          "ticks": 3722,
          "time": 40.45652173913044,
          "velocity": 0.3543307086614173
        },
        {
          "duration": 0.02173913043478848,
          "durationTicks": 2,
          "midi": 49,
          "name": "C#3",
          "ticks": 3731,
          "time": 40.55434782608695,
          "velocity": 0.33858267716535434
        },
        {
          "duration": 0.06521739130434412,
          "durationTicks": 6,
          "midi": 56,
          "name": "G#3",
          "ticks": 3732,
          "time": 40.56521739130435,
          "velocity": 0.4094488188976378
        },
        {
          "duration": 0.021739130434781373,
          "durationTicks": 2,
          "midi": 47,
          "name": "B2",
          "ticks": 3733,
          "time": 40.57608695652174,
          "velocity": 0.3779527559055118
        },
        {
          "duration": 0.021739130434781373,
          "durationTicks": 2,
          "midi": 31,
          "name": "G1",
          "ticks": 3740,
          "time": 40.65217391304348,
          "velocity": 0.2283464566929134
        },
        {
          "duration": 0.032608695652179165,
          "durationTicks": 3,
          "midi": 69,
          "name": "A4",
          "ticks": 3742,
          "time": 40.67391304347826,
          "velocity": 0.1732283464566929
        },
        {
          "duration": 0.032608695652179165,
          "durationTicks": 3,
          "midi": 72,
          "name": "C5",
          "ticks": 3742,
          "time": 40.67391304347826,
          "velocity": 0.2283464566929134
        },
        {
          "duration": 0.02173913043478848,
          "durationTicks": 2,
          "midi": 42,
          "name": "F#2",
          "ticks": 3743,
          "time": 40.68478260869565,
          "velocity": 0.3700787401574803
        },
        {
          "duration": 0.18478260869565588,
          "durationTicks": 17,
          "midi": 60,
          "name": "C4",
          "ticks": 3743,
          "time": 40.68478260869565,
          "velocity": 0.5196850393700787
        },
        {
          "duration": 0.09782608695652328,
          "durationTicks": 9,
          "midi": 94,
          "name": "A#6",
          "ticks": 3743,
          "time": 40.68478260869565,
          "velocity": 0.14173228346456693
        },
        {
          "duration": 0.05434782608695343,
          "durationTicks": 5,
          "midi": 55,
          "name": "G3",
          "ticks": 3744,
          "time": 40.69565217391305,
          "velocity": 0.4409448818897638
        },
        {
          "duration": 0.043478260869562746,
          "durationTicks": 4,
          "midi": 65,
          "name": "F4",
          "ticks": 3744,
          "time": 40.69565217391305,
          "velocity": 0.13385826771653545
        },
        {
          "duration": 0.021739130434781373,
          "durationTicks": 2,
          "midi": 38,
          "name": "D2",
          "ticks": 3747,
          "time": 40.72826086956522,
          "velocity": 0.4566929133858268
        },
        {
          "duration": 0.15217391304347672,
          "durationTicks": 14,
          "midi": 48,
          "name": "C3",
          "ticks": 3747,
          "time": 40.72826086956522,
          "velocity": 0.48031496062992124
        },
        {
          "duration": 0.06521739130434412,
          "durationTicks": 6,
          "midi": 91,
          "name": "G6",
          "ticks": 3747,
          "time": 40.72826086956522,
          "velocity": 0.14960629921259844
        },
        {
          "duration": 0.22826086956521863,
          "durationTicks": 21,
          "midi": 36,
          "name": "C2",
          "ticks": 3750,
          "time": 40.76086956521739,
          "velocity": 0.49606299212598426
        },
        {
          "duration": 0.11956521739130466,
          "durationTicks": 11,
          "midi": 55,
          "name": "G3",
          "ticks": 3750,
          "time": 40.76086956521739,
          "velocity": 0.2677165354330709
        },
        {
          "duration": 0.021739130434781373,
          "durationTicks": 2,
          "midi": 59,
          "name": "B3",
          "ticks": 3760,
          "time": 40.869565217391305,
          "velocity": 0.28346456692913385
        },
        {
          "duration": 0.021739130434781373,
          "durationTicks": 2,
          "midi": 54,
          "name": "F#3",
          "ticks": 3763,
          "time": 40.90217391304348,
          "velocity": 0.3543307086614173
        },
        {
          "duration": 0.02173913043478848,
          "durationTicks": 2,
          "midi": 56,
          "name": "G#3",
          "ticks": 3765,
          "time": 40.92391304347826,
          "velocity": 0.41732283464566927
        },
        {
          "duration": 0.03260869565217206,
          "durationTicks": 3,
          "midi": 57,
          "name": "A3",
          "ticks": 3767,
          "time": 40.94565217391305,
          "velocity": 0.3543307086614173
        },
        {
          "duration": 0.043478260869562746,
          "durationTicks": 4,
          "midi": 72,
          "name": "C5",
          "ticks": 3771,
          "time": 40.98913043478261,
          "velocity": 0.25196850393700787
        },
        {
          "duration": 0.15217391304347672,
          "durationTicks": 14,
          "midi": 84,
          "name": "C6",
          "ticks": 3771,
          "time": 40.98913043478261,
          "velocity": 0.3779527559055118
        },
        {
          "duration": 0.10869565217391397,
          "durationTicks": 10,
          "midi": 89,
          "name": "F6",
          "ticks": 3771,
          "time": 40.98913043478261,
          "velocity": 0.09448818897637795
        },
        {
          "duration": 0.021739130434781373,
          "durationTicks": 2,
          "midi": 37,
          "name": "C#2",
          "ticks": 3772,
          "time": 41,
          "velocity": 0.5433070866141733
        },
        {
          "duration": 0.38043478260869534,
          "durationTicks": 35,
          "midi": 65,
          "name": "F4",
          "ticks": 3772,
          "time": 41,
          "velocity": 0.5984251968503937
        },
        {
          "duration": 0.05434782608695343,
          "durationTicks": 5,
          "midi": 93,
          "name": "A6",
          "ticks": 3772,
          "time": 41,
          "velocity": 0.1889763779527559
        },
        {
          "duration": 0.07608695652174191,
          "durationTicks": 7,
          "midi": 101,
          "name": "F7",
          "ticks": 3772,
          "time": 41,
          "velocity": 0.1889763779527559
        },
        {
          "duration": 0.13043478260869534,
          "durationTicks": 12,
          "midi": 57,
          "name": "A3",
          "ticks": 3773,
          "time": 41.01086956521739,
          "velocity": 0.5196850393700787
        },
        {
          "duration": 0.11956521739130466,
          "durationTicks": 11,
          "midi": 81,
          "name": "A5",
          "ticks": 3773,
          "time": 41.01086956521739,
          "velocity": 0.15748031496062992
        },
        {
          "duration": 0.010869565217390686,
          "durationTicks": 1,
          "midi": 36,
          "name": "C2",
          "ticks": 3774,
          "time": 41.02173913043478,
          "velocity": 0.5511811023622047
        },
        {
          "duration": 0.021739130434781373,
          "durationTicks": 2,
          "midi": 30,
          "name": "F#1",
          "ticks": 3781,
          "time": 41.09782608695652,
          "velocity": 0.25984251968503935
        },
        {
          "duration": 0.021739130434781373,
          "durationTicks": 2,
          "midi": 47,
          "name": "B2",
          "ticks": 3782,
          "time": 41.108695652173914,
          "velocity": 0.25196850393700787
        },
        {
          "duration": 0.021739130434781373,
          "durationTicks": 2,
          "midi": 56,
          "name": "G#3",
          "ticks": 3785,
          "time": 41.141304347826086,
          "velocity": 0.25984251968503935
        },
        {
          "duration": 0.021739130434781373,
          "durationTicks": 2,
          "midi": 29,
          "name": "F1",
          "ticks": 3787,
          "time": 41.16304347826087,
          "velocity": 0.2755905511811024
        },
        {
          "duration": 0.021739130434781373,
          "durationTicks": 2,
          "midi": 29,
          "name": "F1",
          "ticks": 3790,
          "time": 41.19565217391305,
          "velocity": 0.29133858267716534
        },
        {
          "duration": 0.021739130434781373,
          "durationTicks": 2,
          "midi": 54,
          "name": "F#3",
          "ticks": 3792,
          "time": 41.21739130434783,
          "velocity": 0.29133858267716534
        },
        {
          "duration": 0.03260869565217206,
          "durationTicks": 3,
          "midi": 42,
          "name": "F#2",
          "ticks": 3796,
          "time": 41.26086956521739,
          "velocity": 0.29133858267716534
        },
        {
          "duration": 0.032608695652179165,
          "durationTicks": 3,
          "midi": 74,
          "name": "D5",
          "ticks": 3799,
          "time": 41.29347826086956,
          "velocity": 0.14173228346456693
        },
        {
          "duration": 0.14130434782608603,
          "durationTicks": 13,
          "midi": 84,
          "name": "C6",
          "ticks": 3799,
          "time": 41.29347826086956,
          "velocity": 0.4645669291338583
        },
        {
          "duration": 0.07608695652174191,
          "durationTicks": 7,
          "midi": 89,
          "name": "F6",
          "ticks": 3799,
          "time": 41.29347826086956,
          "velocity": 0.25196850393700787
        },
        {
          "duration": 0.02173913043478848,
          "durationTicks": 2,
          "midi": 52,
          "name": "E3",
          "ticks": 3800,
          "time": 41.30434782608695,
          "velocity": 0.49606299212598426
        },
        {
          "duration": 0.010869565217390686,
          "durationTicks": 1,
          "midi": 54,
          "name": "F#3",
          "ticks": 3802,
          "time": 41.32608695652174,
          "velocity": 0.5511811023622047
        },
        {
          "duration": 0.010869565217390686,
          "durationTicks": 1,
          "midi": 42,
          "name": "F#2",
          "ticks": 3803,
          "time": 41.33695652173913,
          "velocity": 0.5196850393700787
        },
        {
          "duration": 0.03260869565217206,
          "durationTicks": 3,
          "midi": 53,
          "name": "F3",
          "ticks": 3803,
          "time": 41.33695652173913,
          "velocity": 0.47244094488188976
        },
        {
          "duration": 0.28260869565217206,
          "durationTicks": 26,
          "midi": 41,
          "name": "F2",
          "ticks": 3804,
          "time": 41.34782608695652,
          "velocity": 0.5354330708661418
        },
        {
          "duration": 0.043478260869562746,
          "durationTicks": 4,
          "midi": 66,
          "name": "F#4",
          "ticks": 3807,
          "time": 41.380434782608695,
          "velocity": 0.5039370078740157
        },
        {
          "duration": 0.021739130434781373,
          "durationTicks": 2,
          "midi": 85,
          "name": "C#6",
          "ticks": 3808,
          "time": 41.391304347826086,
          "velocity": 0.3464566929133858
        },
        {
          "duration": 0.2717391304347814,
          "durationTicks": 25,
          "midi": 86,
          "name": "D6",
          "ticks": 3809,
          "time": 41.40217391304348,
          "velocity": 0.44881889763779526
        },
        {
          "duration": 0.19565217391304657,
          "durationTicks": 18,
          "midi": 67,
          "name": "G4",
          "ticks": 3811,
          "time": 41.42391304347826,
          "velocity": 0.5275590551181102
        },
        {
          "duration": 0.06521739130435122,
          "durationTicks": 6,
          "midi": 91,
          "name": "G6",
          "ticks": 3812,
          "time": 41.43478260869565,
          "velocity": 0.14960629921259844
        },
        {
          "duration": 0.0760869565217348,
          "durationTicks": 7,
          "midi": 101,
          "name": "F7",
          "ticks": 3813,
          "time": 41.44565217391305,
          "velocity": 0.07086614173228346
        },
        {
          "duration": 0.043478260869562746,
          "durationTicks": 4,
          "midi": 84,
          "name": "C6",
          "ticks": 3817,
          "time": 41.48913043478261,
          "velocity": 0.07086614173228346
        },
        {
          "duration": 0.04347826086956985,
          "durationTicks": 4,
          "midi": 91,
          "name": "G6",
          "ticks": 3822,
          "time": 41.54347826086956,
          "velocity": 0.07086614173228346
        },
        {
          "duration": 0.021739130434781373,
          "durationTicks": 2,
          "midi": 54,
          "name": "F#3",
          "ticks": 3826,
          "time": 41.58695652173913,
          "velocity": 0.4094488188976378
        },
        {
          "duration": 0.03260869565217206,
          "durationTicks": 3,
          "midi": 56,
          "name": "G#3",
          "ticks": 3828,
          "time": 41.608695652173914,
          "velocity": 0.6456692913385826
        },
        {
          "duration": 0.3152173913043441,
          "durationTicks": 29,
          "midi": 65,
          "name": "F4",
          "ticks": 3829,
          "time": 41.619565217391305,
          "velocity": 0.5275590551181102
        },
        {
          "duration": 0.10869565217391397,
          "durationTicks": 10,
          "midi": 89,
          "name": "F6",
          "ticks": 3829,
          "time": 41.619565217391305,
          "velocity": 0.16535433070866143
        },
        {
          "duration": 0.13043478260869534,
          "durationTicks": 12,
          "midi": 84,
          "name": "C6",
          "ticks": 3830,
          "time": 41.630434782608695,
          "velocity": 0.23622047244094488
        },
        {
          "duration": 0.010869565217390686,
          "durationTicks": 1,
          "midi": 57,
          "name": "A3",
          "ticks": 3831,
          "time": 41.641304347826086,
          "velocity": 0.5984251968503937
        },
        {
          "duration": 0.05434782608696054,
          "durationTicks": 5,
          "midi": 79,
          "name": "G5",
          "ticks": 3831,
          "time": 41.641304347826086,
          "velocity": 0.16535433070866143
        },
        {
          "duration": 0.010869565217390686,
          "durationTicks": 1,
          "midi": 58,
          "name": "A#3",
          "ticks": 3832,
          "time": 41.65217391304348,
          "velocity": 0.5275590551181102
        },
        {
          "duration": 0.18478260869565588,
          "durationTicks": 17,
          "midi": 57,
          "name": "A3",
          "ticks": 3833,
          "time": 41.66304347826087,
          "velocity": 0.5196850393700787
        },
        {
          "duration": 0.1630434782608745,
          "durationTicks": 15,
          "midi": 84,
          "name": "C6",
          "ticks": 3845,
          "time": 41.79347826086956,
          "velocity": 0.4251968503937008
        },
        {
          "duration": 0.03260869565217206,
          "durationTicks": 3,
          "midi": 46,
          "name": "A#2",
          "ticks": 3849,
          "time": 41.83695652173913,
          "velocity": 0.3228346456692913
        },
        {
          "duration": 0.06521739130434412,
          "durationTicks": 6,
          "midi": 57,
          "name": "A3",
          "ticks": 3851,
          "time": 41.858695652173914,
          "velocity": 0.2755905511811024
        },
        {
          "duration": 0.021739130434781373,
          "durationTicks": 2,
          "midi": 34,
          "name": "A#1",
          "ticks": 3852,
          "time": 41.869565217391305,
          "velocity": 0.2992125984251969
        },
        {
          "duration": 0.03260869565217206,
          "durationTicks": 3,
          "midi": 35,
          "name": "B1",
          "ticks": 3854,
          "time": 41.891304347826086,
          "velocity": 0.31496062992125984
        },
        {
          "duration": 0.021739130434781373,
          "durationTicks": 2,
          "midi": 56,
          "name": "G#3",
          "ticks": 3859,
          "time": 41.94565217391305,
          "velocity": 0.4409448818897638
        },
        {
          "duration": 0.021739130434781373,
          "durationTicks": 2,
          "midi": 57,
          "name": "A3",
          "ticks": 3861,
          "time": 41.96739130434783,
          "velocity": 0.2677165354330709
        },
        {
          "duration": 0.043478260869562746,
          "durationTicks": 4,
          "midi": 65,
          "name": "F4",
          "ticks": 3861,
          "time": 41.96739130434783,
          "velocity": 0.12598425196850394
        },
        {
          "duration": 0.021739130434781373,
          "durationTicks": 2,
          "midi": 49,
          "name": "C#3",
          "ticks": 3862,
          "time": 41.97826086956522,
          "velocity": 0.3543307086614173
        },
        {
          "duration": 0.043478260869562746,
          "durationTicks": 4,
          "midi": 36,
          "name": "C2",
          "ticks": 3863,
          "time": 41.98913043478261,
          "velocity": 0.44881889763779526
        },
        {
          "duration": 0.03260869565217206,
          "durationTicks": 3,
          "midi": 55,
          "name": "G3",
          "ticks": 3864,
          "time": 42,
          "velocity": 0.2047244094488189
        },
        {
          "duration": 0.032608695652179165,
          "durationTicks": 3,
          "midi": 36,
          "name": "C2",
          "ticks": 3868,
          "time": 42.04347826086956,
          "velocity": 0.47244094488188976
        },
        {
          "duration": 0.05434782608695343,
          "durationTicks": 5,
          "midi": 36,
          "name": "C2",
          "ticks": 3872,
          "time": 42.08695652173913,
          "velocity": 0.47244094488188976
        },
        {
          "duration": 0.09782608695652328,
          "durationTicks": 9,
          "midi": 84,
          "name": "C6",
          "ticks": 3875,
          "time": 42.119565217391305,
          "velocity": 0.2677165354330709
        },
        {
          "duration": 0.021739130434781373,
          "durationTicks": 2,
          "midi": 55,
          "name": "G3",
          "ticks": 3876,
          "time": 42.130434782608695,
          "velocity": 0.4015748031496063
        },
        {
          "duration": 0.10869565217391397,
          "durationTicks": 10,
          "midi": 65,
          "name": "F4",
          "ticks": 3876,
          "time": 42.130434782608695,
          "velocity": 0.2677165354330709
        },
        {
          "duration": 0.22826086956521863,
          "durationTicks": 21,
          "midi": 72,
          "name": "C5",
          "ticks": 3876,
          "time": 42.130434782608695,
          "velocity": 0.44881889763779526
        },
        {
          "duration": 0.043478260869562746,
          "durationTicks": 4,
          "midi": 91,
          "name": "G6",
          "ticks": 3876,
          "time": 42.130434782608695,
          "velocity": 0.2047244094488189
        },
        {
          "duration": 0.03260869565217206,
          "durationTicks": 3,
          "midi": 94,
          "name": "A#6",
          "ticks": 3876,
          "time": 42.130434782608695,
          "velocity": 0.14960629921259844
        },
        {
          "duration": 0.05434782608696054,
          "durationTicks": 5,
          "midi": 48,
          "name": "C3",
          "ticks": 3877,
          "time": 42.141304347826086,
          "velocity": 0.3779527559055118
        },
        {
          "duration": 0.03260869565217206,
          "durationTicks": 3,
          "midi": 100,
          "name": "E7",
          "ticks": 3877,
          "time": 42.141304347826086,
          "velocity": 0.10236220472440945
        },
        {
          "duration": 0.04347826086956985,
          "durationTicks": 4,
          "midi": 36,
          "name": "C2",
          "ticks": 3878,
          "time": 42.15217391304348,
          "velocity": 0.44881889763779526
        },
        {
          "duration": 0.02173913043478848,
          "durationTicks": 2,
          "midi": 54,
          "name": "F#3",
          "ticks": 3880,
          "time": 42.17391304347826,
          "velocity": 0.29133858267716534
        },
        {
          "duration": 0.02173913043478848,
          "durationTicks": 2,
          "midi": 61,
          "name": "C#4",
          "ticks": 3880,
          "time": 42.17391304347826,
          "velocity": 0.3937007874015748
        },
        {
          "duration": 0.043478260869562746,
          "durationTicks": 4,
          "midi": 95,
          "name": "B6",
          "ticks": 3882,
          "time": 42.19565217391305,
          "velocity": 0.15748031496062992
        },
        {
          "duration": 0.021739130434781373,
          "durationTicks": 2,
          "midi": 35,
          "name": "B1",
          "ticks": 3883,
          "time": 42.20652173913044,
          "velocity": 0.3937007874015748
        },
        {
          "duration": 0.021739130434781373,
          "durationTicks": 2,
          "midi": 61,
          "name": "C#4",
          "ticks": 3884,
          "time": 42.21739130434783,
          "velocity": 0.4094488188976378
        },
        {
          "duration": 0.08695652173912549,
          "durationTicks": 8,
          "midi": 74,
          "name": "D5",
          "ticks": 3884,
          "time": 42.21739130434783,
          "velocity": 0.25984251968503935
        },
        {
          "duration": 0.021739130434781373,
          "durationTicks": 2,
          "midi": 36,
          "name": "C2",
          "ticks": 3885,
          "time": 42.22826086956522,
          "velocity": 0.41732283464566927
        },
        {
          "duration": 0.03260869565217206,
          "durationTicks": 3,
          "midi": 49,
          "name": "C#3",
          "ticks": 3885,
          "time": 42.22826086956522,
          "velocity": 0.4645669291338583
        },
        {
          "duration": 0.021739130434781373,
          "durationTicks": 2,
          "midi": 62,
          "name": "D4",
          "ticks": 3886,
          "time": 42.23913043478261,
          "velocity": 0.4015748031496063
        },
        {
          "duration": 0.11956521739130466,
          "durationTicks": 11,
          "midi": 77,
          "name": "F5",
          "ticks": 3886,
          "time": 42.23913043478261,
          "velocity": 0.18110236220472442
        },
        {
          "duration": 0.021739130434781373,
          "durationTicks": 2,
          "midi": 35,
          "name": "B1",
          "ticks": 3887,
          "time": 42.25,
          "velocity": 0.31496062992125984
        },
        {
          "duration": 0.4021739130434767,
          "durationTicks": 37,
          "midi": 65,
          "name": "F4",
          "ticks": 3887,
          "time": 42.25,
          "velocity": 0.4566929133858268
        },
        {
          "duration": 0.15217391304347672,
          "durationTicks": 14,
          "midi": 69,
          "name": "A4",
          "ticks": 3887,
          "time": 42.25,
          "velocity": 0.1732283464566929
        },
        {
          "duration": 0.021739130434781373,
          "durationTicks": 2,
          "midi": 61,
          "name": "C#4",
          "ticks": 3888,
          "time": 42.26086956521739,
          "velocity": 0.4251968503937008
        },
        {
          "duration": 0.021739130434781373,
          "durationTicks": 2,
          "midi": 36,
          "name": "C2",
          "ticks": 3889,
          "time": 42.27173913043478,
          "velocity": 0.30708661417322836
        },
        {
          "duration": 0.05434782608696054,
          "durationTicks": 5,
          "midi": 88,
          "name": "E6",
          "ticks": 3889,
          "time": 42.27173913043478,
          "velocity": 0.11023622047244094
        },
        {
          "duration": 0.04347826086956985,
          "durationTicks": 4,
          "midi": 93,
          "name": "A6",
          "ticks": 3889,
          "time": 42.27173913043478,
          "velocity": 0.11023622047244094
        },
        {
          "duration": 0.021739130434781373,
          "durationTicks": 2,
          "midi": 49,
          "name": "C#3",
          "ticks": 3890,
          "time": 42.28260869565217,
          "velocity": 0.3937007874015748
        },
        {
          "duration": 0.02173913043478848,
          "durationTicks": 2,
          "midi": 34,
          "name": "A#1",
          "ticks": 3891,
          "time": 42.29347826086956,
          "velocity": 0.2283464566929134
        },
        {
          "duration": 0.02173913043478848,
          "durationTicks": 2,
          "midi": 54,
          "name": "F#3",
          "ticks": 3892,
          "time": 42.30434782608695,
          "velocity": 0.3543307086614173
        },
        {
          "duration": 0.02173913043478848,
          "durationTicks": 2,
          "midi": 60,
          "name": "C4",
          "ticks": 3892,
          "time": 42.30434782608695,
          "velocity": 0.2992125984251969
        },
        {
          "duration": 0.03260869565217206,
          "durationTicks": 3,
          "midi": 38,
          "name": "D2",
          "ticks": 3894,
          "time": 42.32608695652174,
          "velocity": 0.2047244094488189
        },
        {
          "duration": 0.021739130434781373,
          "durationTicks": 2,
          "midi": 56,
          "name": "G#3",
          "ticks": 3895,
          "time": 42.33695652173913,
          "velocity": 0.30708661417322836
        },
        {
          "duration": 0.021739130434781373,
          "durationTicks": 2,
          "midi": 53,
          "name": "F3",
          "ticks": 3896,
          "time": 42.34782608695652,
          "velocity": 0.2283464566929134
        },
        {
          "duration": 0.06521739130434412,
          "durationTicks": 6,
          "midi": 57,
          "name": "A3",
          "ticks": 3897,
          "time": 42.358695652173914,
          "velocity": 0.2283464566929134
        },
        {
          "duration": 0.03260869565217206,
          "durationTicks": 3,
          "midi": 36,
          "name": "C2",
          "ticks": 3898,
          "time": 42.369565217391305,
          "velocity": 0.2677165354330709
        },
        {
          "duration": 0.02173913043478848,
          "durationTicks": 2,
          "midi": 49,
          "name": "C#3",
          "ticks": 3903,
          "time": 42.42391304347826,
          "velocity": 0.23622047244094488
        },
        {
          "duration": 0.4239130434782652,
          "durationTicks": 39,
          "midi": 60,
          "name": "C4",
          "ticks": 3903,
          "time": 42.42391304347826,
          "velocity": 0.44881889763779526
        },
        {
          "duration": 0.46739130434782794,
          "durationTicks": 43,
          "midi": 72,
          "name": "C5",
          "ticks": 3903,
          "time": 42.42391304347826,
          "velocity": 0.44881889763779526
        },
        {
          "duration": 0.1630434782608745,
          "durationTicks": 15,
          "midi": 79,
          "name": "G5",
          "ticks": 3903,
          "time": 42.42391304347826,
          "velocity": 0.2204724409448819
        },
        {
          "duration": 0.36956521739130466,
          "durationTicks": 34,
          "midi": 91,
          "name": "G6",
          "ticks": 3903,
          "time": 42.42391304347826,
          "velocity": 0.23622047244094488
        },
        {
          "duration": 0.02173913043478848,
          "durationTicks": 2,
          "midi": 38,
          "name": "D2",
          "ticks": 3904,
          "time": 42.43478260869565,
          "velocity": 0.2283464566929134
        },
        {
          "duration": 0.032608695652179165,
          "durationTicks": 3,
          "midi": 54,
          "name": "F#3",
          "ticks": 3904,
          "time": 42.43478260869565,
          "velocity": 0.4251968503937008
        },
        {
          "duration": 0.19565217391304657,
          "durationTicks": 18,
          "midi": 94,
          "name": "A#6",
          "ticks": 3904,
          "time": 42.43478260869565,
          "velocity": 0.30708661417322836
        },
        {
          "duration": 0.032608695652179165,
          "durationTicks": 3,
          "midi": 98,
          "name": "D7",
          "ticks": 3904,
          "time": 42.43478260869565,
          "velocity": 0.14173228346456693
        },
        {
          "duration": 0.05434782608696054,
          "durationTicks": 5,
          "midi": 100,
          "name": "E7",
          "ticks": 3904,
          "time": 42.43478260869565,
          "velocity": 0.08661417322834646
        },
        {
          "duration": 0.05434782608695343,
          "durationTicks": 5,
          "midi": 46,
          "name": "A#2",
          "ticks": 3910,
          "time": 42.5,
          "velocity": 0.30708661417322836
        },
        {
          "duration": 0.03260869565217206,
          "durationTicks": 3,
          "midi": 30,
          "name": "F#1",
          "ticks": 3912,
          "time": 42.52173913043478,
          "velocity": 0.3700787401574803
        },
        {
          "duration": 0.010869565217390686,
          "durationTicks": 1,
          "midi": 47,
          "name": "B2",
          "ticks": 3917,
          "time": 42.57608695652174,
          "velocity": 0.5354330708661418
        },
        {
          "duration": 0.2608695652173907,
          "durationTicks": 24,
          "midi": 46,
          "name": "A#2",
          "ticks": 3918,
          "time": 42.58695652173913,
          "velocity": 0.5826771653543307
        },
        {
          "duration": 0.021739130434781373,
          "durationTicks": 2,
          "midi": 34,
          "name": "A#1",
          "ticks": 3933,
          "time": 42.75,
          "velocity": 0.25984251968503935
        },
        {
          "duration": 0.03260869565217206,
          "durationTicks": 3,
          "midi": 47,
          "name": "B2",
          "ticks": 3942,
          "time": 42.84782608695652,
          "velocity": 0.5118110236220472
        },
        {
          "duration": 0.021739130434781373,
          "durationTicks": 2,
          "midi": 66,
          "name": "F#4",
          "ticks": 3942,
          "time": 42.84782608695652,
          "velocity": 0.28346456692913385
        },
        {
          "duration": 0.021739130434781373,
          "durationTicks": 2,
          "midi": 69,
          "name": "A4",
          "ticks": 3943,
          "time": 42.858695652173914,
          "velocity": 0.36220472440944884
        },
        {
          "duration": 0.18478260869564878,
          "durationTicks": 17,
          "midi": 82,
          "name": "A#5",
          "ticks": 3943,
          "time": 42.858695652173914,
          "velocity": 0.3464566929133858
        },
        {
          "duration": 0.021739130434781373,
          "durationTicks": 2,
          "midi": 61,
          "name": "C#4",
          "ticks": 3944,
          "time": 42.869565217391305,
          "velocity": 0.29133858267716534
        },
        {
          "duration": 0.3152173913043441,
          "durationTicks": 29,
          "midi": 65,
          "name": "F4",
          "ticks": 3944,
          "time": 42.869565217391305,
          "velocity": 0.44881889763779526
        },
        {
          "duration": 0.09782608695652328,
          "durationTicks": 9,
          "midi": 98,
          "name": "D7",
          "ticks": 3944,
          "time": 42.869565217391305,
          "velocity": 0.14960629921259844
        },
        {
          "duration": 0.021739130434781373,
          "durationTicks": 2,
          "midi": 31,
          "name": "G1",
          "ticks": 3945,
          "time": 42.880434782608695,
          "velocity": 0.47244094488188976
        },
        {
          "duration": 0.010869565217390686,
          "durationTicks": 1,
          "midi": 46,
          "name": "A#2",
          "ticks": 3945,
          "time": 42.880434782608695,
          "velocity": 0.5354330708661418
        },
        {
          "duration": 0.021739130434781373,
          "durationTicks": 2,
          "midi": 54,
          "name": "F#3",
          "ticks": 3945,
          "time": 42.880434782608695,
          "velocity": 0.5354330708661418
        },
        {
          "duration": 0.07608695652174191,
          "durationTicks": 7,
          "midi": 70,
          "name": "A#4",
          "ticks": 3945,
          "time": 42.880434782608695,
          "velocity": 0.36220472440944884
        },
        {
          "duration": 0.021739130434781373,
          "durationTicks": 2,
          "midi": 44,
          "name": "G#2",
          "ticks": 3946,
          "time": 42.891304347826086,
          "velocity": 0.5118110236220472
        },
        {
          "duration": 0.03260869565217206,
          "durationTicks": 3,
          "midi": 86,
          "name": "D6",
          "ticks": 3946,
          "time": 42.891304347826086,
          "velocity": 0.09448818897637795
        },
        {
          "duration": 0.010869565217390686,
          "durationTicks": 1,
          "midi": 58,
          "name": "A#3",
          "ticks": 3947,
          "time": 42.90217391304348,
          "velocity": 0.5826771653543307
        },
        {
          "duration": 0.021739130434781373,
          "durationTicks": 2,
          "midi": 57,
          "name": "A3",
          "ticks": 3948,
          "time": 42.91304347826087,
          "velocity": 0.6220472440944882
        },
        {
          "duration": 0.09782608695652328,
          "durationTicks": 9,
          "midi": 74,
          "name": "D5",
          "ticks": 3948,
          "time": 42.91304347826087,
          "velocity": 0.11811023622047244
        },
        {
          "duration": 0.032608695652179165,
          "durationTicks": 3,
          "midi": 34,
          "name": "A#1",
          "ticks": 3949,
          "time": 42.92391304347826,
          "velocity": 0.2677165354330709
        },
        {
          "duration": 0.032608695652179165,
          "durationTicks": 3,
          "midi": 47,
          "name": "B2",
          "ticks": 3949,
          "time": 42.92391304347826,
          "velocity": 0.36220472440944884
        },
        {
          "duration": 0.032608695652179165,
          "durationTicks": 3,
          "midi": 58,
          "name": "A#3",
          "ticks": 3950,
          "time": 42.93478260869565,
          "velocity": 0.5590551181102362
        },
        {
          "duration": 0.0869565217391326,
          "durationTicks": 8,
          "midi": 62,
          "name": "D4",
          "ticks": 3950,
          "time": 42.93478260869565,
          "velocity": 0.3228346456692913
        },
        {
          "duration": 0.06521739130434412,
          "durationTicks": 6,
          "midi": 46,
          "name": "A#2",
          "ticks": 3952,
          "time": 42.95652173913044,
          "velocity": 0.4094488188976378
        },
        {
          "duration": 0.021739130434781373,
          "durationTicks": 2,
          "midi": 56,
          "name": "G#3",
          "ticks": 3953,
          "time": 42.96739130434783,
          "velocity": 0.2992125984251969
        },
        {
          "duration": 0.11956521739130466,
          "durationTicks": 11,
          "midi": 70,
          "name": "A#4",
          "ticks": 3953,
          "time": 42.96739130434783,
          "velocity": 0.23622047244094488
        },
        {
          "duration": 0.043478260869562746,
          "durationTicks": 4,
          "midi": 58,
          "name": "A#3",
          "ticks": 3955,
          "time": 42.98913043478261,
          "velocity": 0.4094488188976378
        },
        {
          "duration": 0.04347826086956985,
          "durationTicks": 4,
          "midi": 45,
          "name": "A2",
          "ticks": 3958,
          "time": 43.02173913043478,
          "velocity": 0.2047244094488189
        },
        {
          "duration": 0.021739130434781373,
          "durationTicks": 2,
          "midi": 57,
          "name": "A3",
          "ticks": 3959,
          "time": 43.03260869565217,
          "velocity": 0.3228346456692913
        },
        {
          "duration": 0.02173913043478848,
          "durationTicks": 2,
          "midi": 56,
          "name": "G#3",
          "ticks": 3961,
          "time": 43.05434782608695,
          "velocity": 0.3543307086614173
        },
        {
          "duration": 0.043478260869562746,
          "durationTicks": 4,
          "midi": 46,
          "name": "A#2",
          "ticks": 3962,
          "time": 43.06521739130435,
          "velocity": 0.4094488188976378
        },
        {
          "duration": 0.03260869565217206,
          "durationTicks": 3,
          "midi": 47,
          "name": "B2",
          "ticks": 3966,
          "time": 43.108695652173914,
          "velocity": 0.2992125984251969
        },
        {
          "duration": 0.03260869565217206,
          "durationTicks": 3,
          "midi": 46,
          "name": "A#2",
          "ticks": 3969,
          "time": 43.141304347826086,
          "velocity": 0.29133858267716534
        },
        {
          "duration": 0.02173913043478848,
          "durationTicks": 2,
          "midi": 45,
          "name": "A2",
          "ticks": 3972,
          "time": 43.17391304347826,
          "velocity": 0.4015748031496063
        },
        {
          "duration": 0.28260869565217206,
          "durationTicks": 26,
          "midi": 53,
          "name": "F3",
          "ticks": 3974,
          "time": 43.19565217391305,
          "velocity": 0.5118110236220472
        },
        {
          "duration": 0.10869565217391397,
          "durationTicks": 10,
          "midi": 41,
          "name": "F2",
          "ticks": 3979,
          "time": 43.25,
          "velocity": 0.48031496062992124
        },
        {
          "duration": 0.043478260869562746,
          "durationTicks": 4,
          "midi": 66,
          "name": "F#4",
          "ticks": 3991,
          "time": 43.380434782608695,
          "velocity": 0.14960629921259844
        },
        {
          "duration": 0.021739130434781373,
          "durationTicks": 2,
          "midi": 40,
          "name": "E2",
          "ticks": 3992,
          "time": 43.391304347826086,
          "velocity": 0.4566929133858268
        },
        {
          "duration": 0.06521739130435122,
          "durationTicks": 6,
          "midi": 70,
          "name": "A#4",
          "ticks": 3992,
          "time": 43.391304347826086,
          "velocity": 0.10236220472440945
        },
        {
          "duration": 0.06521739130435122,
          "durationTicks": 6,
          "midi": 58,
          "name": "A#3",
          "ticks": 3993,
          "time": 43.40217391304348,
          "velocity": 0.41732283464566927
        },
        {
          "duration": 0.021739130434781373,
          "durationTicks": 2,
          "midi": 42,
          "name": "F#2",
          "ticks": 3997,
          "time": 43.44565217391305,
          "velocity": 0.5039370078740157
        },
        {
          "duration": 0.021739130434781373,
          "durationTicks": 2,
          "midi": 59,
          "name": "B3",
          "ticks": 3999,
          "time": 43.46739130434783,
          "velocity": 0.3700787401574803
        },
        {
          "duration": 0.021739130434781373,
          "durationTicks": 2,
          "midi": 41,
          "name": "F2",
          "ticks": 4000,
          "time": 43.47826086956522,
          "velocity": 0.4251968503937008
        },
        {
          "duration": 0.0869565217391326,
          "durationTicks": 8,
          "midi": 74,
          "name": "D5",
          "ticks": 4001,
          "time": 43.48913043478261,
          "velocity": 0.1968503937007874
        },
        {
          "duration": 0.10869565217391397,
          "durationTicks": 10,
          "midi": 82,
          "name": "A#5",
          "ticks": 4001,
          "time": 43.48913043478261,
          "velocity": 0.2992125984251969
        },
        {
          "duration": 0.05434782608695343,
          "durationTicks": 5,
          "midi": 84,
          "name": "C6",
          "ticks": 4001,
          "time": 43.48913043478261,
          "velocity": 0.11811023622047244
        },
        {
          "duration": 0.021739130434781373,
          "durationTicks": 2,
          "midi": 56,
          "name": "G#3",
          "ticks": 4002,
          "time": 43.5,
          "velocity": 0.5275590551181102
        },
        {
          "duration": 0.05434782608696054,
          "durationTicks": 5,
          "midi": 70,
          "name": "A#4",
          "ticks": 4003,
          "time": 43.51086956521739,
          "velocity": 0.18110236220472442
        },
        {
          "duration": 0.021739130434781373,
          "durationTicks": 2,
          "midi": 42,
          "name": "F#2",
          "ticks": 4004,
          "time": 43.52173913043478,
          "velocity": 0.3779527559055118
        },
        {
          "duration": 0.03260869565217206,
          "durationTicks": 3,
          "midi": 57,
          "name": "A3",
          "ticks": 4004,
          "time": 43.52173913043478,
          "velocity": 0.5118110236220472
        },
        {
          "duration": 0.10869565217391397,
          "durationTicks": 10,
          "midi": 62,
          "name": "D4",
          "ticks": 4004,
          "time": 43.52173913043478,
          "velocity": 0.4251968503937008
        },
        {
          "duration": 0.03260869565217206,
          "durationTicks": 3,
          "midi": 53,
          "name": "F3",
          "ticks": 4008,
          "time": 43.56521739130435,
          "velocity": 0.18110236220472442
        },
        {
          "duration": 0.03260869565217206,
          "durationTicks": 3,
          "midi": 57,
          "name": "A3",
          "ticks": 4012,
          "time": 43.608695652173914,
          "velocity": 0.2204724409448819
        },
        {
          "duration": 0.021739130434781373,
          "durationTicks": 2,
          "midi": 48,
          "name": "C3",
          "ticks": 4021,
          "time": 43.70652173913044,
          "velocity": 0.3228346456692913
        },
        {
          "duration": 0.03260869565217206,
          "durationTicks": 3,
          "midi": 47,
          "name": "B2",
          "ticks": 4023,
          "time": 43.72826086956522,
          "velocity": 0.33070866141732286
        },
        {
          "duration": 0.03260869565217206,
          "durationTicks": 3,
          "midi": 58,
          "name": "A#3",
          "ticks": 4023,
          "time": 43.72826086956522,
          "velocity": 0.25196850393700787
        },
        {
          "duration": 0.03260869565217206,
          "durationTicks": 3,
          "midi": 46,
          "name": "A#2",
          "ticks": 4026,
          "time": 43.76086956521739,
          "velocity": 0.33070866141732286
        },
        {
          "duration": 0.04347826086956985,
          "durationTicks": 4,
          "midi": 64,
          "name": "E4",
          "ticks": 4030,
          "time": 43.80434782608695,
          "velocity": 0.12598425196850394
        },
        {
          "duration": 0.021739130434781373,
          "durationTicks": 2,
          "midi": 49,
          "name": "C#3",
          "ticks": 4031,
          "time": 43.81521739130435,
          "velocity": 0.3937007874015748
        },
        {
          "duration": 0.021739130434781373,
          "durationTicks": 2,
          "midi": 32,
          "name": "G#1",
          "ticks": 4032,
          "time": 43.82608695652174,
          "velocity": 0.4409448818897638
        },
        {
          "duration": 0.021739130434781373,
          "durationTicks": 2,
          "midi": 56,
          "name": "G#3",
          "ticks": 4032,
          "time": 43.82608695652174,
          "velocity": 0.5039370078740157
        },
        {
          "duration": 0.29347826086956275,
          "durationTicks": 27,
          "midi": 48,
          "name": "C3",
          "ticks": 4033,
          "time": 43.83695652173913,
          "velocity": 0.4645669291338583
        },
        {
          "duration": 0.021739130434781373,
          "durationTicks": 2,
          "midi": 35,
          "name": "B1",
          "ticks": 4040,
          "time": 43.91304347826087,
          "velocity": 0.4330708661417323
        },
        {
          "duration": 0.15217391304348382,
          "durationTicks": 14,
          "midi": 36,
          "name": "C2",
          "ticks": 4042,
          "time": 43.93478260869565,
          "velocity": 0.4330708661417323
        },
        {
          "duration": 0.043478260869562746,
          "durationTicks": 4,
          "midi": 56,
          "name": "G#3",
          "ticks": 4048,
          "time": 44,
          "velocity": 0.33858267716535434
        },
        {
          "duration": 0.04347826086956985,
          "durationTicks": 4,
          "midi": 55,
          "name": "G3",
          "ticks": 4052,
          "time": 44.04347826086956,
          "velocity": 0.30708661417322836
        },
        {
          "duration": 0.03260869565217206,
          "durationTicks": 3,
          "midi": 56,
          "name": "G#3",
          "ticks": 4057,
          "time": 44.09782608695652,
          "velocity": 0.4645669291338583
        },
        {
          "duration": 0.05434782608695343,
          "durationTicks": 5,
          "midi": 84,
          "name": "C6",
          "ticks": 4057,
          "time": 44.09782608695652,
          "velocity": 0.18110236220472442
        },
        {
          "duration": 0.15217391304347672,
          "durationTicks": 14,
          "midi": 86,
          "name": "D6",
          "ticks": 4057,
          "time": 44.09782608695652,
          "velocity": 0.2755905511811024
        },
        {
          "duration": 0.03260869565217206,
          "durationTicks": 3,
          "midi": 37,
          "name": "C#2",
          "ticks": 4058,
          "time": 44.108695652173914,
          "velocity": 0.3700787401574803
        },
        {
          "duration": 0.14130434782608603,
          "durationTicks": 13,
          "midi": 72,
          "name": "C5",
          "ticks": 4058,
          "time": 44.108695652173914,
          "velocity": 0.2677165354330709
        },
        {
          "duration": 0.13043478260869534,
          "durationTicks": 12,
          "midi": 79,
          "name": "G5",
          "ticks": 4058,
          "time": 44.108695652173914,
          "velocity": 0.33858267716535434
        },
        {
          "duration": 0.021739130434781373,
          "durationTicks": 2,
          "midi": 64,
          "name": "E4",
          "ticks": 4059,
          "time": 44.119565217391305,
          "velocity": 0.2440944881889764
        },
        {
          "duration": 0.03260869565217206,
          "durationTicks": 3,
          "midi": 95,
          "name": "B6",
          "ticks": 4059,
          "time": 44.119565217391305,
          "velocity": 0.11023622047244094
        },
        {
          "duration": 0.25,
          "durationTicks": 23,
          "midi": 67,
          "name": "G4",
          "ticks": 4060,
          "time": 44.130434782608695,
          "velocity": 0.3543307086614173
        },
        {
          "duration": 0.021739130434781373,
          "durationTicks": 2,
          "midi": 47,
          "name": "B2",
          "ticks": 4062,
          "time": 44.15217391304348,
          "velocity": 0.4881889763779528
        },
        {
          "duration": 0.03260869565217206,
          "durationTicks": 3,
          "midi": 56,
          "name": "G#3",
          "ticks": 4062,
          "time": 44.15217391304348,
          "velocity": 0.4251968503937008
        },
        {
          "duration": 0.10869565217391397,
          "durationTicks": 10,
          "midi": 64,
          "name": "E4",
          "ticks": 4063,
          "time": 44.16304347826087,
          "velocity": 0.2204724409448819
        },
        {
          "duration": 0.05434782608696054,
          "durationTicks": 5,
          "midi": 48,
          "name": "C3",
          "ticks": 4064,
          "time": 44.17391304347826,
          "velocity": 0.4409448818897638
        },
        {
          "duration": 0.032608695652179165,
          "durationTicks": 3,
          "midi": 57,
          "name": "A3",
          "ticks": 4065,
          "time": 44.18478260869565,
          "velocity": 0.2755905511811024
        },
        {
          "duration": 0.021739130434781373,
          "durationTicks": 2,
          "midi": 47,
          "name": "B2",
          "ticks": 4069,
          "time": 44.22826086956522,
          "velocity": 0.3228346456692913
        },
        {
          "duration": 0.05434782608695343,
          "durationTicks": 5,
          "midi": 55,
          "name": "G3",
          "ticks": 4069,
          "time": 44.22826086956522,
          "velocity": 0.2125984251968504
        },
        {
          "duration": 0.032608695652179165,
          "durationTicks": 3,
          "midi": 48,
          "name": "C3",
          "ticks": 4075,
          "time": 44.29347826086956,
          "velocity": 0.3228346456692913
        },
        {
          "duration": 0.032608695652179165,
          "durationTicks": 3,
          "midi": 57,
          "name": "A3",
          "ticks": 4076,
          "time": 44.30434782608695,
          "velocity": 0.1968503937007874
        },
        {
          "duration": 0.06521739130434412,
          "durationTicks": 6,
          "midi": 48,
          "name": "C3",
          "ticks": 4079,
          "time": 44.33695652173913,
          "velocity": 0.36220472440944884
        },
        {
          "duration": 0.021739130434781373,
          "durationTicks": 2,
          "midi": 56,
          "name": "G#3",
          "ticks": 4080,
          "time": 44.34782608695652,
          "velocity": 0.2283464566929134
        },
        {
          "duration": 0.03260869565217206,
          "durationTicks": 3,
          "midi": 56,
          "name": "G#3",
          "ticks": 4084,
          "time": 44.391304347826086,
          "velocity": 0.28346456692913385
        },
        {
          "duration": 0.1739130434782652,
          "durationTicks": 16,
          "midi": 55,
          "name": "G3",
          "ticks": 4087,
          "time": 44.42391304347826,
          "velocity": 0.44881889763779526
        },
        {
          "duration": 0.021739130434781373,
          "durationTicks": 2,
          "midi": 44,
          "name": "G#2",
          "ticks": 4089,
          "time": 44.44565217391305,
          "velocity": 0.4409448818897638
        },
        {
          "duration": 0.2608695652173907,
          "durationTicks": 24,
          "midi": 43,
          "name": "G2",
          "ticks": 4091,
          "time": 44.46739130434783,
          "velocity": 0.5433070866141733
        },
        {
          "duration": 0.021739130434781373,
          "durationTicks": 2,
          "midi": 56,
          "name": "G#3",
          "ticks": 4103,
          "time": 44.59782608695652,
          "velocity": 0.2440944881889764
        },
        {
          "duration": 0.11956521739130466,
          "durationTicks": 11,
          "midi": 67,
          "name": "G4",
          "ticks": 4103,
          "time": 44.59782608695652,
          "velocity": 0.1732283464566929
        },
        {
          "duration": 0.021739130434781373,
          "durationTicks": 2,
          "midi": 56,
          "name": "G#3",
          "ticks": 4106,
          "time": 44.630434782608695,
          "velocity": 0.4645669291338583
        },
        {
          "duration": 0.06521739130435122,
          "durationTicks": 6,
          "midi": 60,
          "name": "C4",
          "ticks": 4108,
          "time": 44.65217391304348,
          "velocity": 0.2283464566929134
        },
        {
          "duration": 0.021739130434781373,
          "durationTicks": 2,
          "midi": 64,
          "name": "E4",
          "ticks": 4115,
          "time": 44.72826086956522,
          "velocity": 0.33070866141732286
        },
        {
          "duration": 0.22826086956521863,
          "durationTicks": 21,
          "midi": 67,
          "name": "G4",
          "ticks": 4115,
          "time": 44.72826086956522,
          "velocity": 0.29133858267716534
        },
        {
          "duration": 0.13043478260869534,
          "durationTicks": 12,
          "midi": 72,
          "name": "C5",
          "ticks": 4115,
          "time": 44.72826086956522,
          "velocity": 0.3779527559055118
        },
        {
          "duration": 0.03260869565217206,
          "durationTicks": 3,
          "midi": 83,
          "name": "B5",
          "ticks": 4115,
          "time": 44.72826086956522,
          "velocity": 0.13385826771653545
        },
        {
          "duration": 0.010869565217390686,
          "durationTicks": 1,
          "midi": 45,
          "name": "A2",
          "ticks": 4116,
          "time": 44.73913043478261,
          "velocity": 0.5669291338582677
        },
        {
          "duration": 0.14130434782608603,
          "durationTicks": 13,
          "midi": 86,
          "name": "D6",
          "ticks": 4116,
          "time": 44.73913043478261,
          "velocity": 0.2992125984251969
        },
        {
          "duration": 0.06521739130434412,
          "durationTicks": 6,
          "midi": 101,
          "name": "F7",
          "ticks": 4116,
          "time": 44.73913043478261,
          "velocity": 0.09448818897637795
        },
        {
          "duration": 0.010869565217390686,
          "durationTicks": 1,
          "midi": 46,
          "name": "A#2",
          "ticks": 4117,
          "time": 44.75,
          "velocity": 0.5748031496062992
        },
        {
          "duration": 0.010869565217390686,
          "durationTicks": 1,
          "midi": 58,
          "name": "A#3",
          "ticks": 4118,
          "time": 44.76086956521739,
          "velocity": 0.5196850393700787
        },
        {
          "duration": 0.19565217391304657,
          "durationTicks": 18,
          "midi": 64,
          "name": "E4",
          "ticks": 4118,
          "time": 44.76086956521739,
          "velocity": 0.4094488188976378
        },
        {
          "duration": 0.021739130434781373,
          "durationTicks": 2,
          "midi": 55,
          "name": "G3",
          "ticks": 4119,
          "time": 44.77173913043478,
          "velocity": 0.33070866141732286
        },
        {
          "duration": 0.11956521739130466,
          "durationTicks": 11,
          "midi": 60,
          "name": "C4",
          "ticks": 4120,
          "time": 44.78260869565217,
          "velocity": 0.4094488188976378
        },
        {
          "duration": 0.0869565217391326,
          "durationTicks": 8,
          "midi": 55,
          "name": "G3",
          "ticks": 4122,
          "time": 44.80434782608695,
          "velocity": 0.29133858267716534
        },
        {
          "duration": 0.021739130434781373,
          "durationTicks": 2,
          "midi": 35,
          "name": "B1",
          "ticks": 4125,
          "time": 44.83695652173913,
          "velocity": 0.2677165354330709
        },
        {
          "duration": 0.03260869565217206,
          "durationTicks": 3,
          "midi": 45,
          "name": "A2",
          "ticks": 4126,
          "time": 44.84782608695652,
          "velocity": 0.23622047244094488
        },
        {
          "duration": 0.021739130434781373,
          "durationTicks": 2,
          "midi": 32,
          "name": "G#1",
          "ticks": 4128,
          "time": 44.869565217391305,
          "velocity": 0.28346456692913385
        },
        {
          "duration": 0.032608695652179165,
          "durationTicks": 3,
          "midi": 54,
          "name": "F#3",
          "ticks": 4132,
          "time": 44.91304347826087,
          "velocity": 0.30708661417322836
        },
        {
          "duration": 0.03260869565217206,
          "durationTicks": 3,
          "midi": 55,
          "name": "G3",
          "ticks": 4135,
          "time": 44.94565217391305,
          "velocity": 0.4015748031496063
        },
        {
          "duration": 0.021739130434781373,
          "durationTicks": 2,
          "midi": 51,
          "name": "D#3",
          "ticks": 4141,
          "time": 45.01086956521739,
          "velocity": 0.25984251968503935
        },
        {
          "duration": 0.010869565217397792,
          "durationTicks": 1,
          "midi": 45,
          "name": "A2",
          "ticks": 4145,
          "time": 45.05434782608695,
          "velocity": 0.5196850393700787
        },
        {
          "duration": 0.010869565217397792,
          "durationTicks": 1,
          "midi": 51,
          "name": "D#3",
          "ticks": 4145,
          "time": 45.05434782608695,
          "velocity": 0.5196850393700787
        },
        {
          "duration": 0.22826086956521863,
          "durationTicks": 21,
          "midi": 65,
          "name": "F4",
          "ticks": 4145,
          "time": 45.05434782608695,
          "velocity": 0.36220472440944884
        },
        {
          "duration": 0.010869565217390686,
          "durationTicks": 1,
          "midi": 52,
          "name": "E3",
          "ticks": 4146,
          "time": 45.06521739130435,
          "velocity": 0.5511811023622047
        },
        {
          "duration": 0.05434782608695343,
          "durationTicks": 5,
          "midi": 69,
          "name": "A4",
          "ticks": 4146,
          "time": 45.06521739130435,
          "velocity": 0.23622047244094488
        },
        {
          "duration": 0.21739130434782084,
          "durationTicks": 20,
          "midi": 76,
          "name": "E5",
          "ticks": 4146,
          "time": 45.06521739130435,
          "velocity": 0.14960629921259844
        },
        {
          "duration": 0.021739130434781373,
          "durationTicks": 2,
          "midi": 54,
          "name": "F#3",
          "ticks": 4147,
          "time": 45.07608695652174,
          "velocity": 0.5275590551181102
        },
        {
          "duration": 0.03260869565217206,
          "durationTicks": 3,
          "midi": 57,
          "name": "A3",
          "ticks": 4148,
          "time": 45.08695652173913,
          "velocity": 0.5118110236220472
        },
        {
          "duration": 0.043478260869562746,
          "durationTicks": 4,
          "midi": 53,
          "name": "F3",
          "ticks": 4149,
          "time": 45.09782608695652,
          "velocity": 0.5196850393700787
        },
        {
          "duration": 0.21739130434782794,
          "durationTicks": 20,
          "midi": 41,
          "name": "F2",
          "ticks": 4153,
          "time": 45.141304347826086,
          "velocity": 0.4409448818897638
        },
        {
          "duration": 0.021739130434781373,
          "durationTicks": 2,
          "midi": 53,
          "name": "F3",
          "ticks": 4154,
          "time": 45.15217391304348,
          "velocity": 0.49606299212598426
        },
        {
          "duration": 0.09782608695652328,
          "durationTicks": 9,
          "midi": 57,
          "name": "A3",
          "ticks": 4155,
          "time": 45.16304347826087,
          "velocity": 0.5039370078740157
        },
        {
          "duration": 0.19565217391304657,
          "durationTicks": 18,
          "midi": 53,
          "name": "F3",
          "ticks": 4157,
          "time": 45.18478260869565,
          "velocity": 0.4881889763779528
        },
        {
          "duration": 0.14130434782608603,
          "durationTicks": 13,
          "midi": 84,
          "name": "C6",
          "ticks": 4172,
          "time": 45.34782608695652,
          "velocity": 0.2755905511811024
        },
        {
          "duration": 0.03260869565217206,
          "durationTicks": 3,
          "midi": 60,
          "name": "C4",
          "ticks": 4173,
          "time": 45.358695652173914,
          "velocity": 0.5433070866141733
        },
        {
          "duration": 0.15217391304347672,
          "durationTicks": 14,
          "midi": 81,
          "name": "A5",
          "ticks": 4173,
          "time": 45.358695652173914,
          "velocity": 0.23622047244094488
        },
        {
          "duration": 0.06521739130434412,
          "durationTicks": 6,
          "midi": 94,
          "name": "A#6",
          "ticks": 4173,
          "time": 45.358695652173914,
          "velocity": 0.14960629921259844
        },
        {
          "duration": 0.06521739130434412,
          "durationTicks": 6,
          "midi": 96,
          "name": "C7",
          "ticks": 4173,
          "time": 45.358695652173914,
          "velocity": 0.2992125984251969
        },
        {
          "duration": 0.043478260869562746,
          "durationTicks": 4,
          "midi": 100,
          "name": "E7",
          "ticks": 4173,
          "time": 45.358695652173914,
          "velocity": 0.14960629921259844
        },
        {
          "duration": 0.021739130434781373,
          "durationTicks": 2,
          "midi": 45,
          "name": "A2",
          "ticks": 4174,
          "time": 45.369565217391305,
          "velocity": 0.3779527559055118
        },
        {
          "duration": 0.07608695652174191,
          "durationTicks": 7,
          "midi": 91,
          "name": "G6",
          "ticks": 4174,
          "time": 45.369565217391305,
          "velocity": 0.1889763779527559
        },
        {
          "duration": 0.021739130434781373,
          "durationTicks": 2,
          "midi": 30,
          "name": "F#1",
          "ticks": 4175,
          "time": 45.380434782608695,
          "velocity": 0.33070866141732286
        },
        {
          "duration": 0.06521739130435122,
          "durationTicks": 6,
          "midi": 89,
          "name": "F6",
          "ticks": 4175,
          "time": 45.380434782608695,
          "velocity": 0.12598425196850394
        },
        {
          "duration": 0.010869565217390686,
          "durationTicks": 1,
          "midi": 58,
          "name": "A#3",
          "ticks": 4176,
          "time": 45.391304347826086,
          "velocity": 0.5275590551181102
        },
        {
          "duration": 0.010869565217390686,
          "durationTicks": 1,
          "midi": 57,
          "name": "A3",
          "ticks": 4177,
          "time": 45.40217391304348,
          "velocity": 0.5196850393700787
        },
        {
          "duration": 0.021739130434781373,
          "durationTicks": 2,
          "midi": 29,
          "name": "F1",
          "ticks": 4178,
          "time": 45.41304347826087,
          "velocity": 0.3700787401574803
        },
        {
          "duration": 0.010869565217390686,
          "durationTicks": 1,
          "midi": 58,
          "name": "A#3",
          "ticks": 4178,
          "time": 45.41304347826087,
          "velocity": 0.5433070866141733
        },
        {
          "duration": 0.032608695652179165,
          "durationTicks": 3,
          "midi": 88,
          "name": "E6",
          "ticks": 4178,
          "time": 45.41304347826087,
          "velocity": 0.12598425196850394
        },
        {
          "duration": 0.032608695652179165,
          "durationTicks": 3,
          "midi": 57,
          "name": "A3",
          "ticks": 4179,
          "time": 45.42391304347826,
          "velocity": 0.5118110236220472
        },
        {
          "duration": 0.0760869565217348,
          "durationTicks": 7,
          "midi": 57,
          "name": "A3",
          "ticks": 4184,
          "time": 45.47826086956522,
          "velocity": 0.3700787401574803
        },
        {
          "duration": 0.03260869565217206,
          "durationTicks": 3,
          "midi": 55,
          "name": "G3",
          "ticks": 4192,
          "time": 45.56521739130435,
          "velocity": 0.29133858267716534
        },
        {
          "duration": 0.02173913043478848,
          "durationTicks": 2,
          "midi": 52,
          "name": "E3",
          "ticks": 4202,
          "time": 45.67391304347826,
          "velocity": 0.4330708661417323
        },
        {
          "duration": 0.20652173913043725,
          "durationTicks": 19,
          "midi": 60,
          "name": "C4",
          "ticks": 4202,
          "time": 45.67391304347826,
          "velocity": 0.5196850393700787
        },
        {
          "duration": 0.0869565217391326,
          "durationTicks": 8,
          "midi": 91,
          "name": "G6",
          "ticks": 4202,
          "time": 45.67391304347826,
          "velocity": 0.25196850393700787
        },
        {
          "duration": 0.06521739130435122,
          "durationTicks": 6,
          "midi": 79,
          "name": "G5",
          "ticks": 4203,
          "time": 45.68478260869565,
          "velocity": 0.12598425196850394
        },
        {
          "duration": 0.06521739130434412,
          "durationTicks": 6,
          "midi": 67,
          "name": "G4",
          "ticks": 4204,
          "time": 45.69565217391305,
          "velocity": 0.12598425196850394
        },
        {
          "duration": 0.1739130434782581,
          "durationTicks": 16,
          "midi": 55,
          "name": "G3",
          "ticks": 4205,
          "time": 45.70652173913044,
          "velocity": 0.4094488188976378
        },
        {
          "duration": 0.043478260869562746,
          "durationTicks": 4,
          "midi": 64,
          "name": "E4",
          "ticks": 4205,
          "time": 45.70652173913044,
          "velocity": 0.12598425196850394
        },
        {
          "duration": 0.010869565217390686,
          "durationTicks": 1,
          "midi": 38,
          "name": "D2",
          "ticks": 4206,
          "time": 45.71739130434783,
          "velocity": 0.5354330708661418
        },
        {
          "duration": 0.010869565217390686,
          "durationTicks": 1,
          "midi": 37,
          "name": "C#2",
          "ticks": 4207,
          "time": 45.72826086956522,
          "velocity": 0.5590551181102362
        },
        {
          "duration": 0.021739130434781373,
          "durationTicks": 2,
          "midi": 36,
          "name": "C2",
          "ticks": 4208,
          "time": 45.73913043478261,
          "velocity": 0.5354330708661418
        },
        {
          "duration": 0.0869565217391326,
          "durationTicks": 8,
          "midi": 48,
          "name": "C3",
          "ticks": 4210,
          "time": 45.76086956521739,
          "velocity": 0.33858267716535434
        },
        {
          "duration": 0.13043478260869534,
          "durationTicks": 12,
          "midi": 36,
          "name": "C2",
          "ticks": 4211,
          "time": 45.77173913043478,
          "velocity": 0.48031496062992124
        },
        {
          "duration": 0.10869565217391397,
          "durationTicks": 10,
          "midi": 48,
          "name": "C3",
          "ticks": 4222,
          "time": 45.891304347826086,
          "velocity": 0.4881889763779528
        },
        {
          "duration": 0.03260869565217206,
          "durationTicks": 3,
          "midi": 57,
          "name": "A3",
          "ticks": 4222,
          "time": 45.891304347826086,
          "velocity": 0.4881889763779528
        },
        {
          "duration": 0.021739130434781373,
          "durationTicks": 2,
          "midi": 35,
          "name": "B1",
          "ticks": 4223,
          "time": 45.90217391304348,
          "velocity": 0.4251968503937008
        },
        {
          "duration": 0.05434782608696054,
          "durationTicks": 5,
          "midi": 67,
          "name": "G4",
          "ticks": 4223,
          "time": 45.90217391304348,
          "velocity": 0.08661417322834646
        },
        {
          "duration": 0.032608695652179165,
          "durationTicks": 3,
          "midi": 36,
          "name": "C2",
          "ticks": 4225,
          "time": 45.92391304347826,
          "velocity": 0.41732283464566927
        },
        {
          "duration": 0.02173913043478848,
          "durationTicks": 2,
          "midi": 56,
          "name": "G#3",
          "ticks": 4225,
          "time": 45.92391304347826,
          "velocity": 0.48031496062992124
        },
        {
          "duration": 0.03260869565217206,
          "durationTicks": 3,
          "midi": 36,
          "name": "C2",
          "ticks": 4229,
          "time": 45.96739130434783,
          "velocity": 0.4094488188976378
        },
        {
          "duration": 0.05434782608695343,
          "durationTicks": 5,
          "midi": 56,
          "name": "G#3",
          "ticks": 4229,
          "time": 45.96739130434783,
          "velocity": 0.5590551181102362
        },
        {
          "duration": 0.18478260869564878,
          "durationTicks": 17,
          "midi": 69,
          "name": "A4",
          "ticks": 4229,
          "time": 45.96739130434783,
          "velocity": 0.2992125984251969
        },
        {
          "duration": 0.1739130434782581,
          "durationTicks": 16,
          "midi": 72,
          "name": "C5",
          "ticks": 4229,
          "time": 45.96739130434783,
          "velocity": 0.25196850393700787
        },
        {
          "duration": 0.15217391304347672,
          "durationTicks": 14,
          "midi": 84,
          "name": "C6",
          "ticks": 4229,
          "time": 45.96739130434783,
          "velocity": 0.3779527559055118
        },
        {
          "duration": 0.11956521739130466,
          "durationTicks": 11,
          "midi": 77,
          "name": "F5",
          "ticks": 4230,
          "time": 45.97826086956522,
          "velocity": 0.2992125984251969
        },
        {
          "duration": 0.03260869565217206,
          "durationTicks": 3,
          "midi": 80,
          "name": "G#5",
          "ticks": 4230,
          "time": 45.97826086956522,
          "velocity": 0.07874015748031496
        },
        {
          "duration": 0.10869565217391397,
          "durationTicks": 10,
          "midi": 93,
          "name": "A6",
          "ticks": 4230,
          "time": 45.97826086956522,
          "velocity": 0.2047244094488189
        },
        {
          "duration": 0.18478260869564878,
          "durationTicks": 17,
          "midi": 65,
          "name": "F4",
          "ticks": 4231,
          "time": 45.98913043478261,
          "velocity": 0.5354330708661418
        },
        {
          "duration": 0.010869565217390686,
          "durationTicks": 1,
          "midi": 49,
          "name": "C#3",
          "ticks": 4232,
          "time": 46,
          "velocity": 0.5275590551181102
        },
        {
          "duration": 0.043478260869562746,
          "durationTicks": 4,
          "midi": 79,
          "name": "G5",
          "ticks": 4232,
          "time": 46,
          "velocity": 0.14960629921259844
        },
        {
          "duration": 0.05434782608696054,
          "durationTicks": 5,
          "midi": 99,
          "name": "D#7",
          "ticks": 4233,
          "time": 46.01086956521739,
          "velocity": 0.1732283464566929
        },
        {
          "duration": 0.15217391304347672,
          "durationTicks": 14,
          "midi": 57,
          "name": "A3",
          "ticks": 4234,
          "time": 46.02173913043478,
          "velocity": 0.5433070866141733
        },
        {
          "duration": 0.02173913043478848,
          "durationTicks": 2,
          "midi": 49,
          "name": "C#3",
          "ticks": 4236,
          "time": 46.04347826086956,
          "velocity": 0.3700787401574803
        },
        {
          "duration": 0.021739130434781373,
          "durationTicks": 2,
          "midi": 41,
          "name": "F2",
          "ticks": 4238,
          "time": 46.06521739130435,
          "velocity": 0.3228346456692913
        },
        {
          "duration": 0.043478260869562746,
          "durationTicks": 4,
          "midi": 48,
          "name": "C3",
          "ticks": 4243,
          "time": 46.119565217391305,
          "velocity": 0.25196850393700787
        },
        {
          "duration": 0.021739130434781373,
          "durationTicks": 2,
          "midi": 30,
          "name": "F#1",
          "ticks": 4244,
          "time": 46.130434782608695,
          "velocity": 0.25984251968503935
        },
        {
          "duration": 0.04347826086956985,
          "durationTicks": 4,
          "midi": 66,
          "name": "F#4",
          "ticks": 4248,
          "time": 46.17391304347826,
          "velocity": 0.14173228346456693
        },
        {
          "duration": 0.02173913043478848,
          "durationTicks": 2,
          "midi": 41,
          "name": "F2",
          "ticks": 4249,
          "time": 46.18478260869565,
          "velocity": 0.3543307086614173
        },
        {
          "duration": 0.043478260869562746,
          "durationTicks": 4,
          "midi": 56,
          "name": "G#3",
          "ticks": 4251,
          "time": 46.20652173913044,
          "velocity": 0.2204724409448819
        },
        {
          "duration": 0.021739130434781373,
          "durationTicks": 2,
          "midi": 40,
          "name": "E2",
          "ticks": 4252,
          "time": 46.21739130434783,
          "velocity": 0.31496062992125984
        },
        {
          "duration": 0.043478260869562746,
          "durationTicks": 4,
          "midi": 65,
          "name": "F4",
          "ticks": 4252,
          "time": 46.21739130434783,
          "velocity": 0.1889763779527559
        },
        {
          "duration": 0.09782608695652328,
          "durationTicks": 9,
          "midi": 65,
          "name": "F4",
          "ticks": 4259,
          "time": 46.29347826086956,
          "velocity": 0.5590551181102362
        },
        {
          "duration": 0.1739130434782652,
          "durationTicks": 16,
          "midi": 84,
          "name": "C6",
          "ticks": 4259,
          "time": 46.29347826086956,
          "velocity": 0.5275590551181102
        },
        {
          "duration": 0.032608695652179165,
          "durationTicks": 3,
          "midi": 87,
          "name": "D#6",
          "ticks": 4259,
          "time": 46.29347826086956,
          "velocity": 0.2047244094488189
        },
        {
          "duration": 0.0869565217391326,
          "durationTicks": 8,
          "midi": 89,
          "name": "F6",
          "ticks": 4259,
          "time": 46.29347826086956,
          "velocity": 0.33070866141732286
        },
        {
          "duration": 0.010869565217397792,
          "durationTicks": 1,
          "midi": 49,
          "name": "C#3",
          "ticks": 4260,
          "time": 46.30434782608695,
          "velocity": 0.5511811023622047
        },
        {
          "duration": 0.010869565217390686,
          "durationTicks": 1,
          "midi": 52,
          "name": "E3",
          "ticks": 4261,
          "time": 46.31521739130435,
          "velocity": 0.5511811023622047
        },
        {
          "duration": 0.03260869565217206,
          "durationTicks": 3,
          "midi": 41,
          "name": "F2",
          "ticks": 4262,
          "time": 46.32608695652174,
          "velocity": 0.5118110236220472
        },
        {
          "duration": 0.05434782608695343,
          "durationTicks": 5,
          "midi": 41,
          "name": "F2",
          "ticks": 4266,
          "time": 46.369565217391305,
          "velocity": 0.4251968503937008
        },
        {
          "duration": 0.03260869565217206,
          "durationTicks": 3,
          "midi": 78,
          "name": "F#5",
          "ticks": 4267,
          "time": 46.380434782608695,
          "velocity": 0.2125984251968504
        },
        {
          "duration": 0.03260869565217206,
          "durationTicks": 3,
          "midi": 85,
          "name": "C#6",
          "ticks": 4267,
          "time": 46.380434782608695,
          "velocity": 0.23622047244094488
        },
        {
          "duration": 0.021739130434781373,
          "durationTicks": 2,
          "midi": 66,
          "name": "F#4",
          "ticks": 4268,
          "time": 46.391304347826086,
          "velocity": 0.5039370078740157
        },
        {
          "duration": 0.18478260869565588,
          "durationTicks": 17,
          "midi": 67,
          "name": "G4",
          "ticks": 4270,
          "time": 46.41304347826087,
          "velocity": 0.5590551181102362
        },
        {
          "duration": 0.22826086956521863,
          "durationTicks": 21,
          "midi": 86,
          "name": "D6",
          "ticks": 4270,
          "time": 46.41304347826087,
          "velocity": 0.25984251968503935
        },
        {
          "duration": 0.18478260869565588,
          "durationTicks": 17,
          "midi": 91,
          "name": "G6",
          "ticks": 4270,
          "time": 46.41304347826087,
          "velocity": 0.1889763779527559
        },
        {
          "duration": 0.1630434782608745,
          "durationTicks": 15,
          "midi": 41,
          "name": "F2",
          "ticks": 4272,
          "time": 46.43478260869565,
          "velocity": 0.4409448818897638
        },
        {
          "duration": 0.021739130434781373,
          "durationTicks": 2,
          "midi": 54,
          "name": "F#3",
          "ticks": 4278,
          "time": 46.5,
          "velocity": 0.2283464566929134
        },
        {
          "duration": 0.021739130434781373,
          "durationTicks": 2,
          "midi": 66,
          "name": "F#4",
          "ticks": 4287,
          "time": 46.59782608695652,
          "velocity": 0.5354330708661418
        },
        {
          "duration": 0.021739130434781373,
          "durationTicks": 2,
          "midi": 58,
          "name": "A#3",
          "ticks": 4288,
          "time": 46.608695652173914,
          "velocity": 0.5354330708661418
        },
        {
          "duration": 0.1630434782608674,
          "durationTicks": 15,
          "midi": 84,
          "name": "C6",
          "ticks": 4288,
          "time": 46.608695652173914,
          "velocity": 0.3543307086614173
        },
        {
          "duration": 0.021739130434781373,
          "durationTicks": 2,
          "midi": 53,
          "name": "F3",
          "ticks": 4289,
          "time": 46.619565217391305,
          "velocity": 0.47244094488188976
        },
        {
          "duration": 0.3260869565217419,
          "durationTicks": 30,
          "midi": 65,
          "name": "F4",
          "ticks": 4289,
          "time": 46.619565217391305,
          "velocity": 0.5275590551181102
        },
        {
          "duration": 0.05434782608695343,
          "durationTicks": 5,
          "midi": 72,
          "name": "C5",
          "ticks": 4289,
          "time": 46.619565217391305,
          "velocity": 0.2125984251968504
        },
        {
          "duration": 0.05434782608695343,
          "durationTicks": 5,
          "midi": 93,
          "name": "A6",
          "ticks": 4289,
          "time": 46.619565217391305,
          "velocity": 0.07874015748031496
        },
        {
          "duration": 0.021739130434781373,
          "durationTicks": 2,
          "midi": 42,
          "name": "F#2",
          "ticks": 4290,
          "time": 46.630434782608695,
          "velocity": 0.4015748031496063
        },
        {
          "duration": 0.1630434782608674,
          "durationTicks": 15,
          "midi": 57,
          "name": "A3",
          "ticks": 4290,
          "time": 46.630434782608695,
          "velocity": 0.5590551181102362
        },
        {
          "duration": 0.03260869565217206,
          "durationTicks": 3,
          "midi": 52,
          "name": "E3",
          "ticks": 4291,
          "time": 46.641304347826086,
          "velocity": 0.49606299212598426
        },
        {
          "duration": 0.032608695652179165,
          "durationTicks": 3,
          "midi": 45,
          "name": "A2",
          "ticks": 4294,
          "time": 46.67391304347826,
          "velocity": 0.36220472440944884
        },
        {
          "duration": 0.021739130434781373,
          "durationTicks": 2,
          "midi": 44,
          "name": "G#2",
          "ticks": 4297,
          "time": 46.70652173913044,
          "velocity": 0.2283464566929134
        },
        {
          "duration": 0.11956521739130466,
          "durationTicks": 11,
          "midi": 84,
          "name": "C6",
          "ticks": 4305,
          "time": 46.79347826086956,
          "velocity": 0.3858267716535433
        },
        {
          "duration": 0.11956521739130466,
          "durationTicks": 11,
          "midi": 89,
          "name": "F6",
          "ticks": 4305,
          "time": 46.79347826086956,
          "velocity": 0.18110236220472442
        },
        {
          "duration": 0.0869565217391326,
          "durationTicks": 8,
          "midi": 101,
          "name": "F7",
          "ticks": 4306,
          "time": 46.80434782608695,
          "velocity": 0.1889763779527559
        },
        {
          "duration": 0.03260869565217206,
          "durationTicks": 3,
          "midi": 58,
          "name": "A#3",
          "ticks": 4307,
          "time": 46.81521739130435,
          "velocity": 0.1889763779527559
        },
        {
          "duration": 0.03260869565217206,
          "durationTicks": 3,
          "midi": 47,
          "name": "B2",
          "ticks": 4308,
          "time": 46.82608695652174,
          "velocity": 0.3779527559055118
        },
        {
          "duration": 0.03260869565217206,
          "durationTicks": 3,
          "midi": 57,
          "name": "A3",
          "ticks": 4315,
          "time": 46.90217391304348,
          "velocity": 0.33070866141732286
        },
        {
          "duration": 0.021739130434781373,
          "durationTicks": 2,
          "midi": 45,
          "name": "A2",
          "ticks": 4316,
          "time": 46.91304347826087,
          "velocity": 0.3779527559055118
        },
        {
          "duration": 0.02173913043478848,
          "durationTicks": 2,
          "midi": 48,
          "name": "C3",
          "ticks": 4318,
          "time": 46.93478260869565,
          "velocity": 0.5433070866141733
        },
        {
          "duration": 0.010869565217390686,
          "durationTicks": 1,
          "midi": 47,
          "name": "B2",
          "ticks": 4320,
          "time": 46.95652173913044,
          "velocity": 0.5354330708661418
        },
        {
          "duration": 0.11956521739130466,
          "durationTicks": 11,
          "midi": 65,
          "name": "F4",
          "ticks": 4320,
          "time": 46.95652173913044,
          "velocity": 0.2047244094488189
        },
        {
          "duration": 0.010869565217390686,
          "durationTicks": 1,
          "midi": 48,
          "name": "C3",
          "ticks": 4321,
          "time": 46.96739130434783,
          "velocity": 0.5196850393700787
        },
        {
          "duration": 0.03260869565217206,
          "durationTicks": 3,
          "midi": 57,
          "name": "A3",
          "ticks": 4322,
          "time": 46.97826086956522,
          "velocity": 0.2755905511811024
        },
        {
          "duration": 0.13043478260869534,
          "durationTicks": 12,
          "midi": 48,
          "name": "C3",
          "ticks": 4323,
          "time": 46.98913043478261,
          "velocity": 0.4251968503937008
        },
        {
          "duration": 0.10869565217391397,
          "durationTicks": 10,
          "midi": 36,
          "name": "C2",
          "ticks": 4324,
          "time": 47,
          "velocity": 0.41732283464566927
        },
        {
          "duration": 0.021739130434781373,
          "durationTicks": 2,
          "midi": 58,
          "name": "A#3",
          "ticks": 4333,
          "time": 47.09782608695652,
          "velocity": 0.4645669291338583
        },
        {
          "duration": 0.09782608695652328,
          "durationTicks": 9,
          "midi": 69,
          "name": "A4",
          "ticks": 4333,
          "time": 47.09782608695652,
          "velocity": 0.1889763779527559
        },
        {
          "duration": 0.08695652173912549,
          "durationTicks": 8,
          "midi": 74,
          "name": "D5",
          "ticks": 4333,
          "time": 47.09782608695652,
          "velocity": 0.4015748031496063
        },
        {
          "duration": 0.14130434782608603,
          "durationTicks": 13,
          "midi": 62,
          "name": "D4",
          "ticks": 4334,
          "time": 47.108695652173914,
          "velocity": 0.41732283464566927
        },
        {
          "duration": 0.03260869565217206,
          "durationTicks": 3,
          "midi": 93,
          "name": "A6",
          "ticks": 4334,
          "time": 47.108695652173914,
          "velocity": 0.1732283464566929
        },
        {
          "duration": 0.10869565217391397,
          "durationTicks": 10,
          "midi": 57,
          "name": "A3",
          "ticks": 4335,
          "time": 47.119565217391305,
          "velocity": 0.5118110236220472
        },
        {
          "duration": 0.18478260869564878,
          "durationTicks": 17,
          "midi": 81,
          "name": "A5",
          "ticks": 4335,
          "time": 47.119565217391305,
          "velocity": 0.3779527559055118
        },
        {
          "duration": 0.0869565217391326,
          "durationTicks": 8,
          "midi": 48,
          "name": "C3",
          "ticks": 4336,
          "time": 47.130434782608695,
          "velocity": 0.4015748031496063
        },
        {
          "duration": 0.06521739130435122,
          "durationTicks": 6,
          "midi": 36,
          "name": "C2",
          "ticks": 4339,
          "time": 47.16304347826087,
          "velocity": 0.3228346456692913
        },
        {
          "duration": 0.20652173913043015,
          "durationTicks": 19,
          "midi": 65,
          "name": "F4",
          "ticks": 4344,
          "time": 47.21739130434783,
          "velocity": 0.3858267716535433
        },
        {
          "duration": 0.021739130434781373,
          "durationTicks": 2,
          "midi": 52,
          "name": "E3",
          "ticks": 4346,
          "time": 47.23913043478261,
          "velocity": 0.3858267716535433
        },
        {
          "duration": 0.09782608695652328,
          "durationTicks": 9,
          "midi": 69,
          "name": "A4",
          "ticks": 4346,
          "time": 47.23913043478261,
          "velocity": 0.28346456692913385
        },
        {
          "duration": 0.05434782608695343,
          "durationTicks": 5,
          "midi": 72,
          "name": "C5",
          "ticks": 4346,
          "time": 47.23913043478261,
          "velocity": 0.13385826771653545
        },
        {
          "duration": 0.1630434782608674,
          "durationTicks": 15,
          "midi": 84,
          "name": "C6",
          "ticks": 4346,
          "time": 47.23913043478261,
          "velocity": 0.2755905511811024
        },
        {
          "duration": 0.010869565217390686,
          "durationTicks": 1,
          "midi": 57,
          "name": "A3",
          "ticks": 4348,
          "time": 47.26086956521739,
          "velocity": 0.5354330708661418
        },
        {
          "duration": 0.021739130434781373,
          "durationTicks": 2,
          "midi": 56,
          "name": "G#3",
          "ticks": 4349,
          "time": 47.27173913043478,
          "velocity": 0.5590551181102362
        },
        {
          "duration": 0.02173913043478848,
          "durationTicks": 2,
          "midi": 46,
          "name": "A#2",
          "ticks": 4351,
          "time": 47.29347826086956,
          "velocity": 0.2755905511811024
        },
        {
          "duration": 0.11956521739130466,
          "durationTicks": 11,
          "midi": 57,
          "name": "A3",
          "ticks": 4351,
          "time": 47.29347826086956,
          "velocity": 0.4645669291338583
        },
        {
          "duration": 0.021739130434781373,
          "durationTicks": 2,
          "midi": 50,
          "name": "D3",
          "ticks": 4361,
          "time": 47.40217391304348,
          "velocity": 0.2677165354330709
        },
        {
          "duration": 0.14130434782609314,
          "durationTicks": 13,
          "midi": 67,
          "name": "G4",
          "ticks": 4363,
          "time": 47.42391304347826,
          "velocity": 0.5669291338582677
        },
        {
          "duration": 0.5869565217391326,
          "durationTicks": 54,
          "midi": 84,
          "name": "C6",
          "ticks": 4363,
          "time": 47.42391304347826,
          "velocity": 0.41732283464566927
        },
        {
          "duration": 0.15217391304348382,
          "durationTicks": 14,
          "midi": 86,
          "name": "D6",
          "ticks": 4363,
          "time": 47.42391304347826,
          "velocity": 0.4566929133858268
        },
        {
          "duration": 0.05434782608696054,
          "durationTicks": 5,
          "midi": 91,
          "name": "G6",
          "ticks": 4363,
          "time": 47.42391304347826,
          "velocity": 0.18110236220472442
        },
        {
          "duration": 0.02173913043478848,
          "durationTicks": 2,
          "midi": 50,
          "name": "D3",
          "ticks": 4364,
          "time": 47.43478260869565,
          "velocity": 0.4881889763779528
        },
        {
          "duration": 0.032608695652179165,
          "durationTicks": 3,
          "midi": 77,
          "name": "F5",
          "ticks": 4364,
          "time": 47.43478260869565,
          "velocity": 0.11023622047244094
        },
        {
          "duration": 0.03260869565217206,
          "durationTicks": 3,
          "midi": 60,
          "name": "C4",
          "ticks": 4366,
          "time": 47.45652173913044,
          "velocity": 0.07874015748031496
        },
        {
          "duration": 0.06521739130434412,
          "durationTicks": 6,
          "midi": 101,
          "name": "F7",
          "ticks": 4368,
          "time": 47.47826086956522,
          "velocity": 0.12598425196850394
        },
        {
          "duration": 0.043478260869562746,
          "durationTicks": 4,
          "midi": 56,
          "name": "G#3",
          "ticks": 4370,
          "time": 47.5,
          "velocity": 0.18110236220472442
        },
        {
          "duration": 0.03260869565217206,
          "durationTicks": 3,
          "midi": 48,
          "name": "C3",
          "ticks": 4371,
          "time": 47.51086956521739,
          "velocity": 0.2204724409448819
        },
        {
          "duration": 0.032608695652179165,
          "durationTicks": 3,
          "midi": 95,
          "name": "B6",
          "ticks": 4373,
          "time": 47.53260869565217,
          "velocity": 0.09448818897637795
        },
        {
          "duration": 0.02173913043478848,
          "durationTicks": 2,
          "midi": 36,
          "name": "C2",
          "ticks": 4374,
          "time": 47.54347826086956,
          "velocity": 0.33070866141732286
        },
        {
          "duration": 0.032608695652179165,
          "durationTicks": 3,
          "midi": 77,
          "name": "F5",
          "ticks": 4374,
          "time": 47.54347826086956,
          "velocity": 0.10236220472440945
        },
        {
          "duration": 0.04347826086956985,
          "durationTicks": 4,
          "midi": 80,
          "name": "G#5",
          "ticks": 4374,
          "time": 47.54347826086956,
          "velocity": 0.2047244094488189
        },
        {
          "duration": 0.05434782608696054,
          "durationTicks": 5,
          "midi": 56,
          "name": "G#3",
          "ticks": 4375,
          "time": 47.55434782608695,
          "velocity": 0.4330708661417323
        },
        {
          "duration": 0.06521739130435122,
          "durationTicks": 6,
          "midi": 88,
          "name": "E6",
          "ticks": 4375,
          "time": 47.55434782608695,
          "velocity": 0.10236220472440945
        },
        {
          "duration": 0.010869565217390686,
          "durationTicks": 1,
          "midi": 47,
          "name": "B2",
          "ticks": 4376,
          "time": 47.56521739130435,
          "velocity": 0.5669291338582677
        },
        {
          "duration": 0.28260869565217206,
          "durationTicks": 26,
          "midi": 69,
          "name": "A4",
          "ticks": 4376,
          "time": 47.56521739130435,
          "velocity": 0.4409448818897638
        },
        {
          "duration": 0.3369565217391255,
          "durationTicks": 31,
          "midi": 93,
          "name": "A6",
          "ticks": 4376,
          "time": 47.56521739130435,
          "velocity": 0.25196850393700787
        },
        {
          "duration": 0.010869565217390686,
          "durationTicks": 1,
          "midi": 46,
          "name": "A#2",
          "ticks": 4377,
          "time": 47.57608695652174,
          "velocity": 0.5984251968503937
        },
        {
          "duration": 0.010869565217390686,
          "durationTicks": 1,
          "midi": 41,
          "name": "F2",
          "ticks": 4379,
          "time": 47.59782608695652,
          "velocity": 0.5433070866141733
        },
        {
          "duration": 0.010869565217390686,
          "durationTicks": 1,
          "midi": 38,
          "name": "D2",
          "ticks": 4380,
          "time": 47.608695652173914,
          "velocity": 0.5590551181102362
        },
        {
          "duration": 0.010869565217390686,
          "durationTicks": 1,
          "midi": 47,
          "name": "B2",
          "ticks": 4380,
          "time": 47.608695652173914,
          "velocity": 0.5118110236220472
        },
        {
          "duration": 0.2391304347826093,
          "durationTicks": 22,
          "midi": 60,
          "name": "C4",
          "ticks": 4380,
          "time": 47.608695652173914,
          "velocity": 0.2755905511811024
        },
        {
          "duration": 0.021739130434781373,
          "durationTicks": 2,
          "midi": 35,
          "name": "B1",
          "ticks": 4381,
          "time": 47.619565217391305,
          "velocity": 0.5275590551181102
        },
        {
          "duration": 0.25,
          "durationTicks": 23,
          "midi": 48,
          "name": "C3",
          "ticks": 4381,
          "time": 47.619565217391305,
          "velocity": 0.48031496062992124
        },
        {
          "duration": 0.21739130434782794,
          "durationTicks": 20,
          "midi": 36,
          "name": "C2",
          "ticks": 4383,
          "time": 47.641304347826086,
          "velocity": 0.49606299212598426
        },
        {
          "duration": 0.2608695652173907,
          "durationTicks": 24,
          "midi": 72,
          "name": "C5",
          "ticks": 4397,
          "time": 47.79347826086956,
          "velocity": 0.36220472440944884
        },
        {
          "duration": 0.03260869565217206,
          "durationTicks": 3,
          "midi": 56,
          "name": "G#3",
          "ticks": 4402,
          "time": 47.84782608695652,
          "velocity": 0.48031496062992124
        },
        {
          "duration": 0.3369565217391255,
          "durationTicks": 31,
          "midi": 86,
          "name": "D6",
          "ticks": 4402,
          "time": 47.84782608695652,
          "velocity": 0.25196850393700787
        },
        {
          "duration": 0.021739130434781373,
          "durationTicks": 2,
          "midi": 37,
          "name": "C#2",
          "ticks": 4403,
          "time": 47.858695652173914,
          "velocity": 0.47244094488188976
        },
        {
          "duration": 0.1630434782608674,
          "durationTicks": 15,
          "midi": 60,
          "name": "C4",
          "ticks": 4403,
          "time": 47.858695652173914,
          "velocity": 0.5275590551181102
        },
        {
          "duration": 0.021739130434781373,
          "durationTicks": 2,
          "midi": 67,
          "name": "G4",
          "ticks": 4403,
          "time": 47.858695652173914,
          "velocity": 0.4094488188976378
        },
        {
          "duration": 0.021739130434781373,
          "durationTicks": 2,
          "midi": 69,
          "name": "A4",
          "ticks": 4403,
          "time": 47.858695652173914,
          "velocity": 0.25196850393700787
        },
        {
          "duration": 0.05434782608695343,
          "durationTicks": 5,
          "midi": 74,
          "name": "D5",
          "ticks": 4403,
          "time": 47.858695652173914,
          "velocity": 0.13385826771653545
        },
        {
          "duration": 0.0869565217391326,
          "durationTicks": 8,
          "midi": 91,
          "name": "G6",
          "ticks": 4403,
          "time": 47.858695652173914,
          "velocity": 0.11023622047244094
        },
        {
          "duration": 0.021739130434781373,
          "durationTicks": 2,
          "midi": 47,
          "name": "B2",
          "ticks": 4404,
          "time": 47.869565217391305,
          "velocity": 0.4881889763779528
        },
        {
          "duration": 0.09782608695652328,
          "durationTicks": 9,
          "midi": 76,
          "name": "E5",
          "ticks": 4404,
          "time": 47.869565217391305,
          "velocity": 0.16535433070866143
        },
        {
          "duration": 0.021739130434781373,
          "durationTicks": 2,
          "midi": 54,
          "name": "F#3",
          "ticks": 4406,
          "time": 47.891304347826086,
          "velocity": 0.4409448818897638
        },
        {
          "duration": 0.29347826086956275,
          "durationTicks": 27,
          "midi": 67,
          "name": "G4",
          "ticks": 4406,
          "time": 47.891304347826086,
          "velocity": 0.5275590551181102
        },
        {
          "duration": 0.021739130434781373,
          "durationTicks": 2,
          "midi": 35,
          "name": "B1",
          "ticks": 4407,
          "time": 47.90217391304348,
          "velocity": 0.33858267716535434
        },
        {
          "duration": 0.06521739130435122,
          "durationTicks": 6,
          "midi": 95,
          "name": "B6",
          "ticks": 4407,
          "time": 47.90217391304348,
          "velocity": 0.10236220472440945
        },
        {
          "duration": 0.032608695652179165,
          "durationTicks": 3,
          "midi": 48,
          "name": "C3",
          "ticks": 4408,
          "time": 47.91304347826087,
          "velocity": 0.2992125984251969
        },
        {
          "duration": 0.05434782608696054,
          "durationTicks": 5,
          "midi": 55,
          "name": "G3",
          "ticks": 4408,
          "time": 47.91304347826087,
          "velocity": 0.4645669291338583
        },
        {
          "duration": 0.03260869565217206,
          "durationTicks": 3,
          "midi": 48,
          "name": "C3",
          "ticks": 4412,
          "time": 47.95652173913044,
          "velocity": 0.1968503937007874
        },
        {
          "duration": 0.021739130434781373,
          "durationTicks": 2,
          "midi": 56,
          "name": "G#3",
          "ticks": 4413,
          "time": 47.96739130434783,
          "velocity": 0.2755905511811024
        },
        {
          "duration": 0.03260869565217206,
          "durationTicks": 3,
          "midi": 48,
          "name": "C3",
          "ticks": 4416,
          "time": 48,
          "velocity": 0.09448818897637795
        },
        {
          "duration": 0.032608695652179165,
          "durationTicks": 3,
          "midi": 47,
          "name": "B2",
          "ticks": 4420,
          "time": 48.04347826086956,
          "velocity": 0.2992125984251969
        },
        {
          "duration": 0.04347826086956985,
          "durationTicks": 4,
          "midi": 56,
          "name": "G#3",
          "ticks": 4420,
          "time": 48.04347826086956,
          "velocity": 0.3228346456692913
        },
        {
          "duration": 0.03260869565217206,
          "durationTicks": 3,
          "midi": 39,
          "name": "D#2",
          "ticks": 4423,
          "time": 48.07608695652174,
          "velocity": 0.2440944881889764
        },
        {
          "duration": 0.08695652173912549,
          "durationTicks": 8,
          "midi": 55,
          "name": "G3",
          "ticks": 4424,
          "time": 48.08695652173913,
          "velocity": 0.33858267716535434
        },
        {
          "duration": 0.021739130434781373,
          "durationTicks": 2,
          "midi": 48,
          "name": "C3",
          "ticks": 4425,
          "time": 48.09782608695652,
          "velocity": 0.2677165354330709
        },
        {
          "duration": 0.021739130434781373,
          "durationTicks": 2,
          "midi": 41,
          "name": "F2",
          "ticks": 4426,
          "time": 48.108695652173914,
          "velocity": 0.25196850393700787
        },
        {
          "duration": 0.22826086956521863,
          "durationTicks": 21,
          "midi": 72,
          "name": "C5",
          "ticks": 4426,
          "time": 48.108695652173914,
          "velocity": 0.2204724409448819
        },
        {
          "duration": 0.02173913043478848,
          "durationTicks": 2,
          "midi": 46,
          "name": "A#2",
          "ticks": 4432,
          "time": 48.17391304347826,
          "velocity": 0.4566929133858268
        },
        {
          "duration": 0.02173913043478848,
          "durationTicks": 2,
          "midi": 66,
          "name": "F#4",
          "ticks": 4433,
          "time": 48.18478260869565,
          "velocity": 0.25196850393700787
        },
        {
          "duration": 0.14130434782608603,
          "durationTicks": 13,
          "midi": 55,
          "name": "G3",
          "ticks": 4435,
          "time": 48.20652173913044,
          "velocity": 0.25984251968503935
        },
        {
          "duration": 0.2608695652173907,
          "durationTicks": 24,
          "midi": 67,
          "name": "G4",
          "ticks": 4435,
          "time": 48.20652173913044,
          "velocity": 0.4094488188976378
        },
        {
          "duration": 0.021739130434781373,
          "durationTicks": 2,
          "midi": 42,
          "name": "F#2",
          "ticks": 4436,
          "time": 48.21739130434783,
          "velocity": 0.5669291338582677
        },
        {
          "duration": 0.13043478260869534,
          "durationTicks": 12,
          "midi": 60,
          "name": "C4",
          "ticks": 4436,
          "time": 48.21739130434783,
          "velocity": 0.2755905511811024
        },
        {
          "duration": 0.25,
          "durationTicks": 23,
          "midi": 43,
          "name": "G2",
          "ticks": 4438,
          "time": 48.23913043478261,
          "velocity": 0.5669291338582677
        },
        {
          "duration": 0.021739130434781373,
          "durationTicks": 2,
          "midi": 54,
          "name": "F#3",
          "ticks": 4448,
          "time": 48.34782608695652,
          "velocity": 0.3228346456692913
        },
        {
          "duration": 0.09782608695652328,
          "durationTicks": 9,
          "midi": 60,
          "name": "C4",
          "ticks": 4449,
          "time": 48.358695652173914,
          "velocity": 0.3858267716535433
        },
        {
          "duration": 0.03260869565217206,
          "durationTicks": 3,
          "midi": 86,
          "name": "D6",
          "ticks": 4449,
          "time": 48.358695652173914,
          "velocity": 0.08661417322834646
        },
        {
          "duration": 0.021739130434781373,
          "durationTicks": 2,
          "midi": 54,
          "name": "F#3",
          "ticks": 4458,
          "time": 48.45652173913044,
          "velocity": 0.5118110236220472
        },
        {
          "duration": 0.1739130434782581,
          "durationTicks": 16,
          "midi": 72,
          "name": "C5",
          "ticks": 4459,
          "time": 48.46739130434783,
          "velocity": 0.2677165354330709
        },
        {
          "duration": 0.11956521739130466,
          "durationTicks": 11,
          "midi": 84,
          "name": "C6",
          "ticks": 4459,
          "time": 48.46739130434783,
          "velocity": 0.3464566929133858
        },
        {
          "duration": 0.03260869565217206,
          "durationTicks": 3,
          "midi": 55,
          "name": "G3",
          "ticks": 4460,
          "time": 48.47826086956522,
          "velocity": 0.6299212598425197
        },
        {
          "duration": 0.14130434782608603,
          "durationTicks": 13,
          "midi": 76,
          "name": "E5",
          "ticks": 4460,
          "time": 48.47826086956522,
          "velocity": 0.2677165354330709
        },
        {
          "duration": 0.14130434782608603,
          "durationTicks": 13,
          "midi": 79,
          "name": "G5",
          "ticks": 4460,
          "time": 48.47826086956522,
          "velocity": 0.2440944881889764
        },
        {
          "duration": 0.15217391304347672,
          "durationTicks": 14,
          "midi": 86,
          "name": "D6",
          "ticks": 4460,
          "time": 48.47826086956522,
          "velocity": 0.33070866141732286
        },
        {
          "duration": 0.021739130434781373,
          "durationTicks": 2,
          "midi": 64,
          "name": "E4",
          "ticks": 4461,
          "time": 48.48913043478261,
          "velocity": 0.33858267716535434
        },
        {
          "duration": 0.010869565217390686,
          "durationTicks": 1,
          "midi": 54,
          "name": "F#3",
          "ticks": 4463,
          "time": 48.51086956521739,
          "velocity": 0.5118110236220472
        },
        {
          "duration": 0.03260869565217206,
          "durationTicks": 3,
          "midi": 55,
          "name": "G3",
          "ticks": 4464,
          "time": 48.52173913043478,
          "velocity": 0.4015748031496063
        },
        {
          "duration": 0.5217391304347814,
          "durationTicks": 48,
          "midi": 64,
          "name": "E4",
          "ticks": 4464,
          "time": 48.52173913043478,
          "velocity": 0.4251968503937008
        },
        {
          "duration": 0.021739130434781373,
          "durationTicks": 2,
          "midi": 47,
          "name": "B2",
          "ticks": 4465,
          "time": 48.53260869565217,
          "velocity": 0.2677165354330709
        },
        {
          "duration": 0.02173913043478848,
          "durationTicks": 2,
          "midi": 38,
          "name": "D2",
          "ticks": 4467,
          "time": 48.55434782608695,
          "velocity": 0.2992125984251969
        },
        {
          "duration": 0.05434782608695343,
          "durationTicks": 5,
          "midi": 55,
          "name": "G3",
          "ticks": 4473,
          "time": 48.619565217391305,
          "velocity": 0.25196850393700787
        },
        {
          "duration": 0.032608695652179165,
          "durationTicks": 3,
          "midi": 55,
          "name": "G3",
          "ticks": 4479,
          "time": 48.68478260869565,
          "velocity": 0.28346456692913385
        },
        {
          "duration": 0.03260869565217206,
          "durationTicks": 3,
          "midi": 54,
          "name": "F#3",
          "ticks": 4482,
          "time": 48.71739130434783,
          "velocity": 0.2677165354330709
        },
        {
          "duration": 0.05434782608695343,
          "durationTicks": 5,
          "midi": 60,
          "name": "C4",
          "ticks": 4484,
          "time": 48.73913043478261,
          "velocity": 0.11023622047244094
        },
        {
          "duration": 0.02173913043478848,
          "durationTicks": 2,
          "midi": 55,
          "name": "G3",
          "ticks": 4489,
          "time": 48.79347826086956,
          "velocity": 0.36220472440944884
        },
        {
          "duration": 0.0869565217391326,
          "durationTicks": 8,
          "midi": 79,
          "name": "G5",
          "ticks": 4489,
          "time": 48.79347826086956,
          "velocity": 0.2125984251968504
        },
        {
          "duration": 0.02173913043478848,
          "durationTicks": 2,
          "midi": 47,
          "name": "B2",
          "ticks": 4490,
          "time": 48.80434782608695,
          "velocity": 0.4881889763779528
        },
        {
          "duration": 0.032608695652179165,
          "durationTicks": 3,
          "midi": 83,
          "name": "B5",
          "ticks": 4490,
          "time": 48.80434782608695,
          "velocity": 0.14960629921259844
        },
        {
          "duration": 0.14130434782609314,
          "durationTicks": 13,
          "midi": 86,
          "name": "D6",
          "ticks": 4490,
          "time": 48.80434782608695,
          "velocity": 0.1968503937007874
        },
        {
          "duration": 0.03260869565217206,
          "durationTicks": 3,
          "midi": 56,
          "name": "G#3",
          "ticks": 4491,
          "time": 48.81521739130435,
          "velocity": 0.4645669291338583
        },
        {
          "duration": 0.021739130434781373,
          "durationTicks": 2,
          "midi": 48,
          "name": "C3",
          "ticks": 4492,
          "time": 48.82608695652174,
          "velocity": 0.48031496062992124
        },
        {
          "duration": 0.19565217391303946,
          "durationTicks": 18,
          "midi": 67,
          "name": "G4",
          "ticks": 4493,
          "time": 48.83695652173913,
          "velocity": 0.29133858267716534
        },
        {
          "duration": 0.021739130434781373,
          "durationTicks": 2,
          "midi": 29,
          "name": "F1",
          "ticks": 4494,
          "time": 48.84782608695652,
          "velocity": 0.4330708661417323
        },
        {
          "duration": 0.043478260869562746,
          "durationTicks": 4,
          "midi": 55,
          "name": "G3",
          "ticks": 4494,
          "time": 48.84782608695652,
          "velocity": 0.36220472440944884
        },
        {
          "duration": 0.2391304347826093,
          "durationTicks": 22,
          "midi": 48,
          "name": "C3",
          "ticks": 4495,
          "time": 48.858695652173914,
          "velocity": 0.47244094488188976
        },
        {
          "duration": 0.021739130434781373,
          "durationTicks": 2,
          "midi": 28,
          "name": "E1",
          "ticks": 4497,
          "time": 48.880434782608695,
          "velocity": 0.2677165354330709
        },
        {
          "duration": 0.0869565217391326,
          "durationTicks": 8,
          "midi": 55,
          "name": "G3",
          "ticks": 4499,
          "time": 48.90217391304348,
          "velocity": 0.3543307086614173
        },
        {
          "duration": 0.03260869565217206,
          "durationTicks": 3,
          "midi": 27,
          "name": "D#1",
          "ticks": 4504,
          "time": 48.95652173913044,
          "velocity": 0.2992125984251969
        },
        {
          "duration": 0.021739130434781373,
          "durationTicks": 2,
          "midi": 29,
          "name": "F1",
          "ticks": 4507,
          "time": 48.98913043478261,
          "velocity": 0.28346456692913385
        },
        {
          "duration": 0.19565217391303946,
          "durationTicks": 18,
          "midi": 72,
          "name": "C5",
          "ticks": 4517,
          "time": 49.09782608695652,
          "velocity": 0.48031496062992124
        },
        {
          "duration": 0.14130434782608603,
          "durationTicks": 13,
          "midi": 91,
          "name": "G6",
          "ticks": 4517,
          "time": 49.09782608695652,
          "velocity": 0.33858267716535434
        },
        {
          "duration": 0.03260869565217206,
          "durationTicks": 3,
          "midi": 58,
          "name": "A#3",
          "ticks": 4518,
          "time": 49.108695652173914,
          "velocity": 0.11023622047244094
        },
        {
          "duration": 0.021739130434781373,
          "durationTicks": 2,
          "midi": 50,
          "name": "D3",
          "ticks": 4519,
          "time": 49.119565217391305,
          "velocity": 0.25984251968503935
        },
        {
          "duration": 0.03260869565217206,
          "durationTicks": 3,
          "midi": 47,
          "name": "B2",
          "ticks": 4521,
          "time": 49.141304347826086,
          "velocity": 0.29133858267716534
        },
        {
          "duration": 0.021739130434781373,
          "durationTicks": 2,
          "midi": 49,
          "name": "C#3",
          "ticks": 4531,
          "time": 49.25,
          "velocity": 0.23622047244094488
        },
        {
          "duration": 0.07608695652174191,
          "durationTicks": 7,
          "midi": 48,
          "name": "C3",
          "ticks": 4533,
          "time": 49.27173913043478,
          "velocity": 0.25984251968503935
        },
        {
          "duration": 0.04347826086956985,
          "durationTicks": 4,
          "midi": 57,
          "name": "A3",
          "ticks": 4534,
          "time": 49.28260869565217,
          "velocity": 0.2125984251968504
        },
        {
          "duration": 0.13043478260869534,
          "durationTicks": 12,
          "midi": 69,
          "name": "A4",
          "ticks": 4535,
          "time": 49.29347826086956,
          "velocity": 0.36220472440944884
        },
        {
          "duration": 0.07608695652174191,
          "durationTicks": 7,
          "midi": 88,
          "name": "E6",
          "ticks": 4535,
          "time": 49.29347826086956,
          "velocity": 0.14173228346456693
        },
        {
          "duration": 0.04347826086956985,
          "durationTicks": 4,
          "midi": 48,
          "name": "C3",
          "ticks": 4546,
          "time": 49.41304347826087,
          "velocity": 0.18110236220472442
        },
        {
          "duration": 0.14130434782608603,
          "durationTicks": 13,
          "midi": 72,
          "name": "C5",
          "ticks": 4546,
          "time": 49.41304347826087,
          "velocity": 0.47244094488188976
        },
        {
          "duration": 0.07608695652174191,
          "durationTicks": 7,
          "midi": 100,
          "name": "E7",
          "ticks": 4546,
          "time": 49.41304347826087,
          "velocity": 0.23622047244094488
        },
        {
          "duration": 0.043478260869562746,
          "durationTicks": 4,
          "midi": 100,
          "name": "E7",
          "ticks": 4555,
          "time": 49.51086956521739,
          "velocity": 0.13385826771653545
        },
        {
          "duration": 0.2391304347826093,
          "durationTicks": 22,
          "midi": 74,
          "name": "D5",
          "ticks": 4562,
          "time": 49.58695652173913,
          "velocity": 0.5039370078740157
        },
        {
          "duration": 0.03260869565217206,
          "durationTicks": 3,
          "midi": 93,
          "name": "A6",
          "ticks": 4563,
          "time": 49.59782608695652,
          "velocity": 0.13385826771653545
        },
        {
          "duration": 0.06521739130434412,
          "durationTicks": 6,
          "midi": 102,
          "name": "F#7",
          "ticks": 4563,
          "time": 49.59782608695652,
          "velocity": 0.13385826771653545
        },
        {
          "duration": 0.03260869565217206,
          "durationTicks": 3,
          "midi": 65,
          "name": "F4",
          "ticks": 4591,
          "time": 49.90217391304348,
          "velocity": 0.30708661417322836
        },
        {
          "duration": 0.20652173913043725,
          "durationTicks": 19,
          "midi": 81,
          "name": "A5",
          "ticks": 4591,
          "time": 49.90217391304348,
          "velocity": 0.3464566929133858
        },
        {
          "duration": 0.1739130434782652,
          "durationTicks": 16,
          "midi": 88,
          "name": "E6",
          "ticks": 4591,
          "time": 49.90217391304348,
          "velocity": 0.4409448818897638
        },
        {
          "duration": 0.04347826086956985,
          "durationTicks": 4,
          "midi": 56,
          "name": "G#3",
          "ticks": 4592,
          "time": 49.91304347826087,
          "velocity": 0.3937007874015748
        },
        {
          "duration": 0.1739130434782652,
          "durationTicks": 16,
          "midi": 69,
          "name": "A4",
          "ticks": 4592,
          "time": 49.91304347826087,
          "velocity": 0.5590551181102362
        },
        {
          "duration": 0.05434782608696054,
          "durationTicks": 5,
          "midi": 103,
          "name": "G7",
          "ticks": 4592,
          "time": 49.91304347826087,
          "velocity": 0.1889763779527559
        },
        {
          "duration": 0.03260869565217206,
          "durationTicks": 3,
          "midi": 47,
          "name": "B2",
          "ticks": 4596,
          "time": 49.95652173913044,
          "velocity": 0.13385826771653545
        },
        {
          "duration": 0.021739130434781373,
          "durationTicks": 2,
          "midi": 55,
          "name": "G3",
          "ticks": 4596,
          "time": 49.95652173913044,
          "velocity": 0.2677165354330709
        },
        {
          "duration": 0.043478260869562746,
          "durationTicks": 4,
          "midi": 103,
          "name": "G7",
          "ticks": 4601,
          "time": 50.01086956521739,
          "velocity": 0.08661417322834646
        },
        {
          "duration": 0.021739130434781373,
          "durationTicks": 2,
          "midi": 52,
          "name": "E3",
          "ticks": 4602,
          "time": 50.02173913043478,
          "velocity": 0.33858267716535434
        },
        {
          "duration": 0.04347826086956985,
          "durationTicks": 4,
          "midi": 65,
          "name": "F4",
          "ticks": 4604,
          "time": 50.04347826086956,
          "velocity": 0.1889763779527559
        },
        {
          "duration": 0.04347826086956985,
          "durationTicks": 4,
          "midi": 56,
          "name": "G#3",
          "ticks": 4605,
          "time": 50.05434782608695,
          "velocity": 0.4566929133858268
        },
        {
          "duration": 0.03260869565217206,
          "durationTicks": 3,
          "midi": 80,
          "name": "G#5",
          "ticks": 4606,
          "time": 50.06521739130435,
          "velocity": 0.11023622047244094
        },
        {
          "duration": 0.010869565217390686,
          "durationTicks": 1,
          "midi": 35,
          "name": "B1",
          "ticks": 4607,
          "time": 50.07608695652174,
          "velocity": 0.5275590551181102
        },
        {
          "duration": 0.05434782608695343,
          "durationTicks": 5,
          "midi": 71,
          "name": "B4",
          "ticks": 4607,
          "time": 50.07608695652174,
          "velocity": 0.33858267716535434
        },
        {
          "duration": 0.021739130434781373,
          "durationTicks": 2,
          "midi": 53,
          "name": "F3",
          "ticks": 4608,
          "time": 50.08695652173913,
          "velocity": 0.3858267716535433
        },
        {
          "duration": 0.8695652173913047,
          "durationTicks": 80,
          "midi": 65,
          "name": "F4",
          "ticks": 4609,
          "time": 50.09782608695652,
          "velocity": 0.5354330708661418
        },
        {
          "duration": 0.021739130434781373,
          "durationTicks": 2,
          "midi": 42,
          "name": "F#2",
          "ticks": 4610,
          "time": 50.108695652173914,
          "velocity": 0.49606299212598426
        },
        {
          "duration": 0.10869565217391397,
          "durationTicks": 10,
          "midi": 53,
          "name": "F3",
          "ticks": 4611,
          "time": 50.119565217391305,
          "velocity": 0.4566929133858268
        },
        {
          "duration": 0.09782608695652328,
          "durationTicks": 9,
          "midi": 41,
          "name": "F2",
          "ticks": 4612,
          "time": 50.130434782608695,
          "velocity": 0.49606299212598426
        },
        {
          "duration": 0.06521739130435122,
          "durationTicks": 6,
          "midi": 69,
          "name": "A4",
          "ticks": 4613,
          "time": 50.141304347826086,
          "velocity": 0.2125984251968504
        },
        {
          "duration": 0.7391304347826093,
          "durationTicks": 68,
          "midi": 84,
          "name": "C6",
          "ticks": 4619,
          "time": 50.20652173913044,
          "velocity": 0.4094488188976378
        },
        {
          "duration": 0.10869565217391397,
          "durationTicks": 10,
          "midi": 41,
          "name": "F2",
          "ticks": 4622,
          "time": 50.23913043478261,
          "velocity": 0.4881889763779528
        },
        {
          "duration": 0.10869565217391397,
          "durationTicks": 10,
          "midi": 69,
          "name": "A4",
          "ticks": 4627,
          "time": 50.29347826086956,
          "velocity": 0.25984251968503935
        },
        {
          "duration": 0.021739130434781373,
          "durationTicks": 2,
          "midi": 61,
          "name": "C#4",
          "ticks": 4630,
          "time": 50.32608695652174,
          "velocity": 0.2677165354330709
        },
        {
          "duration": 0.021739130434781373,
          "durationTicks": 2,
          "midi": 56,
          "name": "G#3",
          "ticks": 4631,
          "time": 50.33695652173913,
          "velocity": 0.5196850393700787
        },
        {
          "duration": 0.14130434782608603,
          "durationTicks": 13,
          "midi": 57,
          "name": "A3",
          "ticks": 4633,
          "time": 50.358695652173914,
          "velocity": 0.6377952755905512
        },
        {
          "duration": 0.021739130434781373,
          "durationTicks": 2,
          "midi": 47,
          "name": "B2",
          "ticks": 4637,
          "time": 50.40217391304348,
          "velocity": 0.30708661417322836
        },
        {
          "duration": 0.032608695652179165,
          "durationTicks": 3,
          "midi": 93,
          "name": "A6",
          "ticks": 4638,
          "time": 50.41304347826087,
          "velocity": 0.09448818897637795
        },
        {
          "duration": 0.06521739130435122,
          "durationTicks": 6,
          "midi": 46,
          "name": "A#2",
          "ticks": 4639,
          "time": 50.42391304347826,
          "velocity": 0.2992125984251969
        },
        {
          "duration": 0.021739130434781373,
          "durationTicks": 2,
          "midi": 36,
          "name": "C2",
          "ticks": 4649,
          "time": 50.53260869565217,
          "velocity": 0.2755905511811024
        },
        {
          "duration": 0.02173913043478848,
          "durationTicks": 2,
          "midi": 56,
          "name": "G#3",
          "ticks": 4650,
          "time": 50.54347826086956,
          "velocity": 0.31496062992125984
        },
        {
          "duration": 0.021739130434781373,
          "durationTicks": 2,
          "midi": 46,
          "name": "A#2",
          "ticks": 4654,
          "time": 50.58695652173913,
          "velocity": 0.2283464566929134
        },
        {
          "duration": 0.04347826086956985,
          "durationTicks": 4,
          "midi": 49,
          "name": "C#3",
          "ticks": 4661,
          "time": 50.66304347826087,
          "velocity": 0.47244094488188976
        },
        {
          "duration": 0.02173913043478848,
          "durationTicks": 2,
          "midi": 32,
          "name": "G#1",
          "ticks": 4663,
          "time": 50.68478260869565,
          "velocity": 0.47244094488188976
        },
        {
          "duration": 0.22826086956521863,
          "durationTicks": 21,
          "midi": 55,
          "name": "G3",
          "ticks": 4663,
          "time": 50.68478260869565,
          "velocity": 0.3937007874015748
        },
        {
          "duration": 0.021739130434781373,
          "durationTicks": 2,
          "midi": 47,
          "name": "B2",
          "ticks": 4665,
          "time": 50.70652173913044,
          "velocity": 0.3937007874015748
        },
        {
          "duration": 0.021739130434781373,
          "durationTicks": 2,
          "midi": 36,
          "name": "C2",
          "ticks": 4666,
          "time": 50.71739130434783,
          "velocity": 0.3858267716535433
        },
        {
          "duration": 0.15217391304347672,
          "durationTicks": 14,
          "midi": 48,
          "name": "C3",
          "ticks": 4667,
          "time": 50.72826086956522,
          "velocity": 0.3937007874015748
        },
        {
          "duration": 0.021739130434781373,
          "durationTicks": 2,
          "midi": 35,
          "name": "B1",
          "ticks": 4668,
          "time": 50.73913043478261,
          "velocity": 0.4251968503937008
        },
        {
          "duration": 0.09782608695652328,
          "durationTicks": 9,
          "midi": 36,
          "name": "C2",
          "ticks": 4670,
          "time": 50.76086956521739,
          "velocity": 0.44881889763779526
        },
        {
          "duration": 0.021739130434781373,
          "durationTicks": 2,
          "midi": 37,
          "name": "C#2",
          "ticks": 4679,
          "time": 50.858695652173914,
          "velocity": 0.41732283464566927
        },
        {
          "duration": 0.0869565217391326,
          "durationTicks": 8,
          "midi": 36,
          "name": "C2",
          "ticks": 4681,
          "time": 50.880434782608695,
          "velocity": 0.44881889763779526
        },
        {
          "duration": 0.1630434782608674,
          "durationTicks": 15,
          "midi": 72,
          "name": "C5",
          "ticks": 4688,
          "time": 50.95652173913044,
          "velocity": 0.2047244094488189
        },
        {
          "duration": 0.021739130434781373,
          "durationTicks": 2,
          "midi": 61,
          "name": "C#4",
          "ticks": 4689,
          "time": 50.96739130434783,
          "velocity": 0.29133858267716534
        },
        {
          "duration": 0.1630434782608674,
          "durationTicks": 15,
          "midi": 84,
          "name": "C6",
          "ticks": 4689,
          "time": 50.96739130434783,
          "velocity": 0.2992125984251969
        },
        {
          "duration": 0.021739130434781373,
          "durationTicks": 2,
          "midi": 52,
          "name": "E3",
          "ticks": 4690,
          "time": 50.97826086956522,
          "velocity": 0.41732283464566927
        },
        {
          "duration": 0.03260869565217206,
          "durationTicks": 3,
          "midi": 57,
          "name": "A3",
          "ticks": 4690,
          "time": 50.97826086956522,
          "velocity": 0.5275590551181102
        },
        {
          "duration": 0.03260869565217206,
          "durationTicks": 3,
          "midi": 77,
          "name": "F5",
          "ticks": 4690,
          "time": 50.97826086956522,
          "velocity": 0.11023622047244094
        },
        {
          "duration": 0.21739130434782794,
          "durationTicks": 20,
          "midi": 65,
          "name": "F4",
          "ticks": 4691,
          "time": 50.98913043478261,
          "velocity": 0.4251968503937008
        },
        {
          "duration": 0.021739130434781373,
          "durationTicks": 2,
          "midi": 43,
          "name": "G2",
          "ticks": 4692,
          "time": 51,
          "velocity": 0.2992125984251969
        },
        {
          "duration": 0.13043478260869534,
          "durationTicks": 12,
          "midi": 57,
          "name": "A3",
          "ticks": 4694,
          "time": 51.02173913043478,
          "velocity": 0.47244094488188976
        },
        {
          "duration": 0.02173913043478848,
          "durationTicks": 2,
          "midi": 42,
          "name": "F#2",
          "ticks": 4697,
          "time": 51.05434782608695,
          "velocity": 0.29133858267716534
        },
        {
          "duration": 0.021739130434781373,
          "durationTicks": 2,
          "midi": 36,
          "name": "C2",
          "ticks": 4703,
          "time": 51.119565217391305,
          "velocity": 0.30708661417322836
        },
        {
          "duration": 0.03260869565217206,
          "durationTicks": 3,
          "midi": 45,
          "name": "A2",
          "ticks": 4710,
          "time": 51.19565217391305,
          "velocity": 0.31496062992125984
        },
        {
          "duration": 0.03260869565217206,
          "durationTicks": 3,
          "midi": 44,
          "name": "G#2",
          "ticks": 4713,
          "time": 51.22826086956522,
          "velocity": 0.25984251968503935
        },
        {
          "duration": 0.03260869565217206,
          "durationTicks": 3,
          "midi": 54,
          "name": "F#3",
          "ticks": 4714,
          "time": 51.23913043478261,
          "velocity": 0.15748031496062992
        },
        {
          "duration": 0.03260869565217206,
          "durationTicks": 3,
          "midi": 45,
          "name": "A2",
          "ticks": 4716,
          "time": 51.26086956521739,
          "velocity": 0.1968503937007874
        },
        {
          "duration": 0.032608695652179165,
          "durationTicks": 3,
          "midi": 42,
          "name": "F#2",
          "ticks": 4719,
          "time": 51.29347826086956,
          "velocity": 0.4566929133858268
        },
        {
          "duration": 0.02173913043478848,
          "durationTicks": 2,
          "midi": 58,
          "name": "A#3",
          "ticks": 4720,
          "time": 51.30434782608695,
          "velocity": 0.3543307086614173
        },
        {
          "duration": 0.2391304347826093,
          "durationTicks": 22,
          "midi": 65,
          "name": "F4",
          "ticks": 4720,
          "time": 51.30434782608695,
          "velocity": 0.2755905511811024
        },
        {
          "duration": 0.03260869565217206,
          "durationTicks": 3,
          "midi": 57,
          "name": "A3",
          "ticks": 4722,
          "time": 51.32608695652174,
          "velocity": 0.29133858267716534
        },
        {
          "duration": 0.021739130434781373,
          "durationTicks": 2,
          "midi": 53,
          "name": "F3",
          "ticks": 4723,
          "time": 51.33695652173913,
          "velocity": 0.2283464566929134
        },
        {
          "duration": 0.28260869565217206,
          "durationTicks": 26,
          "midi": 41,
          "name": "F2",
          "ticks": 4724,
          "time": 51.34782608695652,
          "velocity": 0.5118110236220472
        },
        {
          "duration": 0.18478260869564878,
          "durationTicks": 17,
          "midi": 65,
          "name": "F4",
          "ticks": 4746,
          "time": 51.58695652173913,
          "velocity": 0.4251968503937008
        },
        {
          "duration": 0.19565217391303946,
          "durationTicks": 18,
          "midi": 69,
          "name": "A4",
          "ticks": 4747,
          "time": 51.59782608695652,
          "velocity": 0.4015748031496063
        },
        {
          "duration": 0.14130434782608603,
          "durationTicks": 13,
          "midi": 72,
          "name": "C5",
          "ticks": 4747,
          "time": 51.59782608695652,
          "velocity": 0.2125984251968504
        },
        {
          "duration": 0.11956521739130466,
          "durationTicks": 11,
          "midi": 84,
          "name": "C6",
          "ticks": 4747,
          "time": 51.59782608695652,
          "velocity": 0.3228346456692913
        },
        {
          "duration": 0.03260869565217206,
          "durationTicks": 3,
          "midi": 50,
          "name": "D3",
          "ticks": 4748,
          "time": 51.608695652173914,
          "velocity": 0.36220472440944884
        },
        {
          "duration": 0.021739130434781373,
          "durationTicks": 2,
          "midi": 57,
          "name": "A3",
          "ticks": 4749,
          "time": 51.619565217391305,
          "velocity": 0.44881889763779526
        },
        {
          "duration": 0.14130434782608603,
          "durationTicks": 13,
          "midi": 57,
          "name": "A3",
          "ticks": 4752,
          "time": 51.65217391304348,
          "velocity": 0.3464566929133858
        },
        {
          "duration": 0.03260869565217206,
          "durationTicks": 3,
          "midi": 56,
          "name": "G#3",
          "ticks": 4767,
          "time": 51.81521739130435,
          "velocity": 0.41732283464566927
        },
        {
          "duration": 0.043478260869562746,
          "durationTicks": 4,
          "midi": 57,
          "name": "A3",
          "ticks": 4770,
          "time": 51.84782608695652,
          "velocity": 0.36220472440944884
        },
        {
          "duration": 0.03260869565217206,
          "durationTicks": 3,
          "midi": 56,
          "name": "G#3",
          "ticks": 4774,
          "time": 51.891304347826086,
          "velocity": 0.30708661417322836
        },
        {
          "duration": 0.03260869565217206,
          "durationTicks": 3,
          "midi": 68,
          "name": "G#4",
          "ticks": 4775,
          "time": 51.90217391304348,
          "velocity": 0.5354330708661418
        },
        {
          "duration": 0.04347826086956985,
          "durationTicks": 4,
          "midi": 87,
          "name": "D#6",
          "ticks": 4775,
          "time": 51.90217391304348,
          "velocity": 0.2047244094488189
        },
        {
          "duration": 0.10869565217391397,
          "durationTicks": 10,
          "midi": 103,
          "name": "G7",
          "ticks": 4775,
          "time": 51.90217391304348,
          "velocity": 0.28346456692913385
        },
        {
          "duration": 0.021739130434781373,
          "durationTicks": 2,
          "midi": 60,
          "name": "C4",
          "ticks": 4776,
          "time": 51.91304347826087,
          "velocity": 0.2755905511811024
        },
        {
          "duration": 0.1739130434782652,
          "durationTicks": 16,
          "midi": 81,
          "name": "A5",
          "ticks": 4776,
          "time": 51.91304347826087,
          "velocity": 0.3700787401574803
        },
        {
          "duration": 0.18478260869565588,
          "durationTicks": 17,
          "midi": 88,
          "name": "E6",
          "ticks": 4776,
          "time": 51.91304347826087,
          "velocity": 0.2440944881889764
        },
        {
          "duration": 0.1739130434782652,
          "durationTicks": 16,
          "midi": 69,
          "name": "A4",
          "ticks": 4778,
          "time": 51.93478260869565,
          "velocity": 0.4566929133858268
        },
        {
          "duration": 0.25,
          "durationTicks": 23,
          "midi": 48,
          "name": "C3",
          "ticks": 4779,
          "time": 51.94565217391305,
          "velocity": 0.4566929133858268
        },
        {
          "duration": 0.021739130434781373,
          "durationTicks": 2,
          "midi": 55,
          "name": "G3",
          "ticks": 4779,
          "time": 51.94565217391305,
          "velocity": 0.2283464566929134
        },
        {
          "duration": 0.043478260869562746,
          "durationTicks": 4,
          "midi": 36,
          "name": "C2",
          "ticks": 4780,
          "time": 51.95652173913044,
          "velocity": 0.4566929133858268
        },
        {
          "duration": 0.11956521739130466,
          "durationTicks": 11,
          "midi": 36,
          "name": "C2",
          "ticks": 4785,
          "time": 52.01086956521739,
          "velocity": 0.4881889763779528
        },
        {
          "duration": 0.06521739130434412,
          "durationTicks": 6,
          "midi": 82,
          "name": "A#5",
          "ticks": 4792,
          "time": 52.08695652173913,
          "velocity": 0.23622047244094488
        },
        {
          "duration": 0.021739130434781373,
          "durationTicks": 2,
          "midi": 57,
          "name": "A3",
          "ticks": 4793,
          "time": 52.09782608695652,
          "velocity": 0.3700787401574803
        },
        {
          "duration": 0.11956521739130466,
          "durationTicks": 11,
          "midi": 89,
          "name": "F6",
          "ticks": 4793,
          "time": 52.09782608695652,
          "velocity": 0.2204724409448819
        },
        {
          "duration": 0.05434782608695343,
          "durationTicks": 5,
          "midi": 67,
          "name": "G4",
          "ticks": 4794,
          "time": 52.108695652173914,
          "velocity": 0.14960629921259844
        },
        {
          "duration": 0.11956521739130466,
          "durationTicks": 11,
          "midi": 70,
          "name": "A#4",
          "ticks": 4794,
          "time": 52.108695652173914,
          "velocity": 0.4566929133858268
        },
        {
          "duration": 0.09782608695652328,
          "durationTicks": 9,
          "midi": 36,
          "name": "C2",
          "ticks": 4797,
          "time": 52.141304347826086,
          "velocity": 0.49606299212598426
        },
        {
          "duration": 0.20652173913043015,
          "durationTicks": 19,
          "midi": 65,
          "name": "F4",
          "ticks": 4802,
          "time": 52.19565217391305,
          "velocity": 0.5118110236220472
        },
        {
          "duration": 0.021739130434781373,
          "durationTicks": 2,
          "midi": 54,
          "name": "F#3",
          "ticks": 4804,
          "time": 52.21739130434783,
          "velocity": 0.5196850393700787
        },
        {
          "duration": 0.03260869565217206,
          "durationTicks": 3,
          "midi": 81,
          "name": "A5",
          "ticks": 4804,
          "time": 52.21739130434783,
          "velocity": 0.14173228346456693
        },
        {
          "duration": 0.36956521739130466,
          "durationTicks": 34,
          "midi": 84,
          "name": "C6",
          "ticks": 4804,
          "time": 52.21739130434783,
          "velocity": 0.25984251968503935
        },
        {
          "duration": 0.18478260869564878,
          "durationTicks": 17,
          "midi": 69,
          "name": "A4",
          "ticks": 4805,
          "time": 52.22826086956522,
          "velocity": 0.4330708661417323
        },
        {
          "duration": 0.0869565217391326,
          "durationTicks": 8,
          "midi": 57,
          "name": "A3",
          "ticks": 4807,
          "time": 52.25,
          "velocity": 0.5511811023622047
        },
        {
          "duration": 0.14130434782608603,
          "durationTicks": 13,
          "midi": 93,
          "name": "A6",
          "ticks": 4807,
          "time": 52.25,
          "velocity": 0.13385826771653545
        },
        {
          "duration": 0.021739130434781373,
          "durationTicks": 2,
          "midi": 47,
          "name": "B2",
          "ticks": 4813,
          "time": 52.31521739130435,
          "velocity": 0.2755905511811024
        },
        {
          "duration": 0.05434782608695343,
          "durationTicks": 5,
          "midi": 88,
          "name": "E6",
          "ticks": 4815,
          "time": 52.33695652173913,
          "velocity": 0.07874015748031496
        },
        {
          "duration": 0.021739130434781373,
          "durationTicks": 2,
          "midi": 39,
          "name": "D#2",
          "ticks": 4816,
          "time": 52.34782608695652,
          "velocity": 0.25984251968503935
        },
        {
          "duration": 0.18478260869565588,
          "durationTicks": 17,
          "midi": 89,
          "name": "F6",
          "ticks": 4821,
          "time": 52.40217391304348,
          "velocity": 0.29133858267716534
        },
        {
          "duration": 0.04347826086956985,
          "durationTicks": 4,
          "midi": 46,
          "name": "A#2",
          "ticks": 4823,
          "time": 52.42391304347826,
          "velocity": 0.41732283464566927
        },
        {
          "duration": 0.5760869565217419,
          "durationTicks": 53,
          "midi": 65,
          "name": "F4",
          "ticks": 4823,
          "time": 52.42391304347826,
          "velocity": 0.5039370078740157
        },
        {
          "duration": 0.032608695652179165,
          "durationTicks": 3,
          "midi": 69,
          "name": "A4",
          "ticks": 4823,
          "time": 52.42391304347826,
          "velocity": 0.13385826771653545
        },
        {
          "duration": 0.03260869565217206,
          "durationTicks": 3,
          "midi": 57,
          "name": "A3",
          "ticks": 4825,
          "time": 52.44565217391305,
          "velocity": 0.2204724409448819
        },
        {
          "duration": 0.043478260869562746,
          "durationTicks": 4,
          "midi": 56,
          "name": "G#3",
          "ticks": 4830,
          "time": 52.5,
          "velocity": 0.2204724409448819
        },
        {
          "duration": 0.043478260869562746,
          "durationTicks": 4,
          "midi": 69,
          "name": "A4",
          "ticks": 4830,
          "time": 52.5,
          "velocity": 0.07086614173228346
        },
        {
          "duration": 0.021739130434781373,
          "durationTicks": 2,
          "midi": 43,
          "name": "G2",
          "ticks": 4832,
          "time": 52.52173913043478,
          "velocity": 0.30708661417322836
        },
        {
          "duration": 0.021739130434781373,
          "durationTicks": 2,
          "midi": 36,
          "name": "C2",
          "ticks": 4833,
          "time": 52.53260869565217,
          "velocity": 0.4094488188976378
        },
        {
          "duration": 0.032608695652179165,
          "durationTicks": 3,
          "midi": 46,
          "name": "A#2",
          "ticks": 4835,
          "time": 52.55434782608695,
          "velocity": 0.49606299212598426
        },
        {
          "duration": 0.03260869565217206,
          "durationTicks": 3,
          "midi": 69,
          "name": "A4",
          "ticks": 4836,
          "time": 52.56521739130435,
          "velocity": 0.07086614173228346
        },
        {
          "duration": 0.021739130434781373,
          "durationTicks": 2,
          "midi": 36,
          "name": "C2",
          "ticks": 4837,
          "time": 52.57608695652174,
          "velocity": 0.3228346456692913
        },
        {
          "duration": 0.021739130434781373,
          "durationTicks": 2,
          "midi": 45,
          "name": "A2",
          "ticks": 4838,
          "time": 52.58695652173913,
          "velocity": 0.3543307086614173
        },
        {
          "duration": 0.09782608695651618,
          "durationTicks": 9,
          "midi": 53,
          "name": "F3",
          "ticks": 4838,
          "time": 52.58695652173913,
          "velocity": 0.36220472440944884
        },
        {
          "duration": 0.03260869565217206,
          "durationTicks": 3,
          "midi": 32,
          "name": "G#1",
          "ticks": 4839,
          "time": 52.59782608695652,
          "velocity": 0.4330708661417323
        },
        {
          "duration": 0.2391304347826093,
          "durationTicks": 22,
          "midi": 46,
          "name": "A#2",
          "ticks": 4840,
          "time": 52.608695652173914,
          "velocity": 0.4566929133858268
        },
        {
          "duration": 0.06521739130434412,
          "durationTicks": 6,
          "midi": 84,
          "name": "C6",
          "ticks": 4841,
          "time": 52.619565217391305,
          "velocity": 0.11023622047244094
        },
        {
          "duration": 0.02173913043478848,
          "durationTicks": 2,
          "midi": 32,
          "name": "G#1",
          "ticks": 4846,
          "time": 52.67391304347826,
          "velocity": 0.3937007874015748
        },
        {
          "duration": 0.021739130434781373,
          "durationTicks": 2,
          "midi": 32,
          "name": "G#1",
          "ticks": 4851,
          "time": 52.72826086956522,
          "velocity": 0.3779527559055118
        },
        {
          "duration": 0.05434782608695343,
          "durationTicks": 5,
          "midi": 57,
          "name": "A3",
          "ticks": 4860,
          "time": 52.82608695652174,
          "velocity": 0.5748031496062992
        },
        {
          "duration": 0.22826086956521863,
          "durationTicks": 21,
          "midi": 70,
          "name": "A#4",
          "ticks": 4861,
          "time": 52.83695652173913,
          "velocity": 0.3937007874015748
        },
        {
          "duration": 0.03260869565217206,
          "durationTicks": 3,
          "midi": 45,
          "name": "A2",
          "ticks": 4862,
          "time": 52.84782608695652,
          "velocity": 0.44881889763779526
        },
        {
          "duration": 0.3260869565217348,
          "durationTicks": 30,
          "midi": 74,
          "name": "D5",
          "ticks": 4862,
          "time": 52.84782608695652,
          "velocity": 0.2283464566929134
        },
        {
          "duration": 0.08695652173912549,
          "durationTicks": 8,
          "midi": 84,
          "name": "C6",
          "ticks": 4862,
          "time": 52.84782608695652,
          "velocity": 0.1968503937007874
        },
        {
          "duration": 0.05434782608695343,
          "durationTicks": 5,
          "midi": 90,
          "name": "F#6",
          "ticks": 4863,
          "time": 52.858695652173914,
          "velocity": 0.07874015748031496
        },
        {
          "duration": 0.10869565217391397,
          "durationTicks": 10,
          "midi": 93,
          "name": "A6",
          "ticks": 4863,
          "time": 52.858695652173914,
          "velocity": 0.14960629921259844
        },
        {
          "duration": 0.043478260869562746,
          "durationTicks": 4,
          "midi": 98,
          "name": "D7",
          "ticks": 4863,
          "time": 52.858695652173914,
          "velocity": 0.1732283464566929
        },
        {
          "duration": 0.03260869565217206,
          "durationTicks": 3,
          "midi": 56,
          "name": "G#3",
          "ticks": 4865,
          "time": 52.880434782608695,
          "velocity": 0.4645669291338583
        },
        {
          "duration": 0.3152173913043512,
          "durationTicks": 29,
          "midi": 62,
          "name": "D4",
          "ticks": 4865,
          "time": 52.880434782608695,
          "velocity": 0.4566929133858268
        },
        {
          "duration": 0.0869565217391326,
          "durationTicks": 8,
          "midi": 46,
          "name": "A#2",
          "ticks": 4867,
          "time": 52.90217391304348,
          "velocity": 0.4015748031496063
        },
        {
          "duration": 0.05434782608696054,
          "durationTicks": 5,
          "midi": 57,
          "name": "A3",
          "ticks": 4868,
          "time": 52.91304347826087,
          "velocity": 0.47244094488188976
        },
        {
          "duration": 0.05434782608695343,
          "durationTicks": 5,
          "midi": 81,
          "name": "A5",
          "ticks": 4871,
          "time": 52.94565217391305,
          "velocity": 0.11811023622047244
        },
        {
          "duration": 0.0760869565217348,
          "durationTicks": 7,
          "midi": 58,
          "name": "A#3",
          "ticks": 4873,
          "time": 52.96739130434783,
          "velocity": 0.4015748031496063
        },
        {
          "duration": 0.05434782608696054,
          "durationTicks": 5,
          "midi": 46,
          "name": "A#2",
          "ticks": 4877,
          "time": 53.01086956521739,
          "velocity": 0.33858267716535434
        },
        {
          "duration": 0.6304347826086953,
          "durationTicks": 58,
          "midi": 65,
          "name": "F4",
          "ticks": 4877,
          "time": 53.01086956521739,
          "velocity": 0.5826771653543307
        },
        {
          "duration": 0.0869565217391326,
          "durationTicks": 8,
          "midi": 84,
          "name": "C6",
          "ticks": 4880,
          "time": 53.04347826086956,
          "velocity": 0.14173228346456693
        },
        {
          "duration": 0.03260869565217206,
          "durationTicks": 3,
          "midi": 57,
          "name": "A3",
          "ticks": 4882,
          "time": 53.06521739130435,
          "velocity": 0.2125984251968504
        },
        {
          "duration": 0.021739130434781373,
          "durationTicks": 2,
          "midi": 46,
          "name": "A#2",
          "ticks": 4885,
          "time": 53.09782608695652,
          "velocity": 0.30708661417322836
        },
        {
          "duration": 0.021739130434781373,
          "durationTicks": 2,
          "midi": 45,
          "name": "A2",
          "ticks": 4887,
          "time": 53.119565217391305,
          "velocity": 0.3228346456692913
        },
        {
          "duration": 0.04347826086956985,
          "durationTicks": 4,
          "midi": 54,
          "name": "F#3",
          "ticks": 4891,
          "time": 53.16304347826087,
          "velocity": 0.5196850393700787
        },
        {
          "duration": 0.02173913043478848,
          "durationTicks": 2,
          "midi": 39,
          "name": "D#2",
          "ticks": 4892,
          "time": 53.17391304347826,
          "velocity": 0.4330708661417323
        },
        {
          "duration": 0.08695652173912549,
          "durationTicks": 8,
          "midi": 41,
          "name": "F2",
          "ticks": 4894,
          "time": 53.19565217391305,
          "velocity": 0.48031496062992124
        },
        {
          "duration": 0.02173913043478848,
          "durationTicks": 2,
          "midi": 41,
          "name": "F2",
          "ticks": 4903,
          "time": 53.29347826086956,
          "velocity": 0.48031496062992124
        },
        {
          "duration": 0.021739130434781373,
          "durationTicks": 2,
          "midi": 41,
          "name": "F2",
          "ticks": 4906,
          "time": 53.32608695652174,
          "velocity": 0.4881889763779528
        },
        {
          "duration": 0.11956521739130466,
          "durationTicks": 11,
          "midi": 62,
          "name": "D4",
          "ticks": 4907,
          "time": 53.33695652173913,
          "velocity": 0.2755905511811024
        },
        {
          "duration": 0.03260869565217206,
          "durationTicks": 3,
          "midi": 41,
          "name": "F2",
          "ticks": 4909,
          "time": 53.358695652173914,
          "velocity": 0.5039370078740157
        },
        {
          "duration": 0.05434782608695343,
          "durationTicks": 5,
          "midi": 84,
          "name": "C6",
          "ticks": 4911,
          "time": 53.380434782608695,
          "velocity": 0.07086614173228346
        },
        {
          "duration": 0.010869565217390686,
          "durationTicks": 1,
          "midi": 42,
          "name": "F#2",
          "ticks": 4912,
          "time": 53.391304347826086,
          "velocity": 0.5118110236220472
        },
        {
          "duration": 0.02173913043478848,
          "durationTicks": 2,
          "midi": 41,
          "name": "F2",
          "ticks": 4915,
          "time": 53.42391304347826,
          "velocity": 0.5196850393700787
        },
        {
          "duration": 0.021739130434781373,
          "durationTicks": 2,
          "midi": 41,
          "name": "F2",
          "ticks": 4918,
          "time": 53.45652173913044,
          "velocity": 0.4409448818897638
        },
        {
          "duration": 0.03260869565217206,
          "durationTicks": 3,
          "midi": 69,
          "name": "A4",
          "ticks": 4919,
          "time": 53.46739130434783,
          "velocity": 0.29133858267716534
        },
        {
          "duration": 0.13043478260869534,
          "durationTicks": 12,
          "midi": 82,
          "name": "A#5",
          "ticks": 4919,
          "time": 53.46739130434783,
          "velocity": 0.2440944881889764
        },
        {
          "duration": 0.0760869565217348,
          "durationTicks": 7,
          "midi": 84,
          "name": "C6",
          "ticks": 4919,
          "time": 53.46739130434783,
          "velocity": 0.16535433070866143
        },
        {
          "duration": 0.0760869565217348,
          "durationTicks": 7,
          "midi": 74,
          "name": "D5",
          "ticks": 4920,
          "time": 53.47826086956522,
          "velocity": 0.10236220472440945
        },
        {
          "duration": 0.03260869565217206,
          "durationTicks": 3,
          "midi": 86,
          "name": "D6",
          "ticks": 4920,
          "time": 53.47826086956522,
          "velocity": 0.10236220472440945
        },
        {
          "duration": 0.043478260869562746,
          "durationTicks": 4,
          "midi": 98,
          "name": "D7",
          "ticks": 4920,
          "time": 53.47826086956522,
          "velocity": 0.11023622047244094
        },
        {
          "duration": 0.03260869565217206,
          "durationTicks": 3,
          "midi": 41,
          "name": "F2",
          "ticks": 4921,
          "time": 53.48913043478261,
          "velocity": 0.44881889763779526
        },
        {
          "duration": 0.021739130434781373,
          "durationTicks": 2,
          "midi": 52,
          "name": "E3",
          "ticks": 4921,
          "time": 53.48913043478261,
          "velocity": 0.3937007874015748
        },
        {
          "duration": 0.021739130434781373,
          "durationTicks": 2,
          "midi": 58,
          "name": "A#3",
          "ticks": 4921,
          "time": 53.48913043478261,
          "velocity": 0.4094488188976378
        },
        {
          "duration": 0.021739130434781373,
          "durationTicks": 2,
          "midi": 62,
          "name": "D4",
          "ticks": 4922,
          "time": 53.5,
          "velocity": 0.3779527559055118
        },
        {
          "duration": 0.13043478260869534,
          "durationTicks": 12,
          "midi": 57,
          "name": "A3",
          "ticks": 4923,
          "time": 53.51086956521739,
          "velocity": 0.3228346456692913
        },
        {
          "duration": 0.021739130434781373,
          "durationTicks": 2,
          "midi": 37,
          "name": "C#2",
          "ticks": 4925,
          "time": 53.53260869565217,
          "velocity": 0.33070866141732286
        },
        {
          "duration": 0.021739130434781373,
          "durationTicks": 2,
          "midi": 62,
          "name": "D4",
          "ticks": 4925,
          "time": 53.53260869565217,
          "velocity": 0.33070866141732286
        },
        {
          "duration": 0.03260869565217206,
          "durationTicks": 3,
          "midi": 62,
          "name": "D4",
          "ticks": 4932,
          "time": 53.608695652173914,
          "velocity": 0.07086614173228346
        },
        {
          "duration": 0.021739130434781373,
          "durationTicks": 2,
          "midi": 55,
          "name": "G3",
          "ticks": 4936,
          "time": 53.65217391304348,
          "velocity": 0.2440944881889764
        },
        {
          "duration": 0.021739130434781373,
          "durationTicks": 2,
          "midi": 49,
          "name": "C#3",
          "ticks": 4937,
          "time": 53.66304347826087,
          "velocity": 0.4015748031496063
        },
        {
          "duration": 0.021739130434781373,
          "durationTicks": 2,
          "midi": 58,
          "name": "A#3",
          "ticks": 4941,
          "time": 53.70652173913044,
          "velocity": 0.28346456692913385
        },
        {
          "duration": 0.06521739130434412,
          "durationTicks": 6,
          "midi": 62,
          "name": "D4",
          "ticks": 4941,
          "time": 53.70652173913044,
          "velocity": 0.15748031496062992
        },
        {
          "duration": 0.021739130434781373,
          "durationTicks": 2,
          "midi": 31,
          "name": "G1",
          "ticks": 4942,
          "time": 53.71739130434783,
          "velocity": 0.28346456692913385
        },
        {
          "duration": 0.03260869565217206,
          "durationTicks": 3,
          "midi": 57,
          "name": "A3",
          "ticks": 4943,
          "time": 53.72826086956522,
          "velocity": 0.2440944881889764
        },
        {
          "duration": 0.03260869565217206,
          "durationTicks": 3,
          "midi": 46,
          "name": "A#2",
          "ticks": 4944,
          "time": 53.73913043478261,
          "velocity": 0.31496062992125984
        },
        {
          "duration": 0.02173913043478848,
          "durationTicks": 2,
          "midi": 26,
          "name": "D1",
          "ticks": 4949,
          "time": 53.79347826086956,
          "velocity": 0.33858267716535434
        },
        {
          "duration": 0.1739130434782581,
          "durationTicks": 16,
          "midi": 55,
          "name": "G3",
          "ticks": 4952,
          "time": 53.82608695652174,
          "velocity": 0.3937007874015748
        },
        {
          "duration": 0.021739130434781373,
          "durationTicks": 2,
          "midi": 37,
          "name": "C#2",
          "ticks": 4954,
          "time": 53.84782608695652,
          "velocity": 0.4881889763779528
        },
        {
          "duration": 0.19565217391303946,
          "durationTicks": 18,
          "midi": 48,
          "name": "C3",
          "ticks": 4954,
          "time": 53.84782608695652,
          "velocity": 0.3700787401574803
        },
        {
          "duration": 0.19565217391304657,
          "durationTicks": 18,
          "midi": 36,
          "name": "C2",
          "ticks": 4959,
          "time": 53.90217391304348,
          "velocity": 0.49606299212598426
        },
        {
          "duration": 0.03260869565217206,
          "durationTicks": 3,
          "midi": 56,
          "name": "G#3",
          "ticks": 4968,
          "time": 54,
          "velocity": 0.33070866141732286
        },
        {
          "duration": 0.05434782608696054,
          "durationTicks": 5,
          "midi": 55,
          "name": "G3",
          "ticks": 4971,
          "time": 54.03260869565217,
          "velocity": 0.2204724409448819
        },
        {
          "duration": 0.13043478260869534,
          "durationTicks": 12,
          "midi": 72,
          "name": "C5",
          "ticks": 4976,
          "time": 54.08695652173913,
          "velocity": 0.3543307086614173
        },
        {
          "duration": 0.05434782608695343,
          "durationTicks": 5,
          "midi": 82,
          "name": "A#5",
          "ticks": 4976,
          "time": 54.08695652173913,
          "velocity": 0.13385826771653545
        },
        {
          "duration": 0.14130434782608603,
          "durationTicks": 13,
          "midi": 86,
          "name": "D6",
          "ticks": 4976,
          "time": 54.08695652173913,
          "velocity": 0.28346456692913385
        },
        {
          "duration": 0.05434782608695343,
          "durationTicks": 5,
          "midi": 91,
          "name": "G6",
          "ticks": 4976,
          "time": 54.08695652173913,
          "velocity": 0.1732283464566929
        },
        {
          "duration": 0.09782608695651618,
          "durationTicks": 9,
          "midi": 95,
          "name": "B6",
          "ticks": 4976,
          "time": 54.08695652173913,
          "velocity": 0.13385826771653545
        },
        {
          "duration": 0.021739130434781373,
          "durationTicks": 2,
          "midi": 56,
          "name": "G#3",
          "ticks": 4977,
          "time": 54.09782608695652,
          "velocity": 0.6141732283464567
        },
        {
          "duration": 0.19565217391303946,
          "durationTicks": 18,
          "midi": 64,
          "name": "E4",
          "ticks": 4977,
          "time": 54.09782608695652,
          "velocity": 0.2992125984251969
        },
        {
          "duration": 0.14130434782608603,
          "durationTicks": 13,
          "midi": 67,
          "name": "G4",
          "ticks": 4977,
          "time": 54.09782608695652,
          "velocity": 0.47244094488188976
        },
        {
          "duration": 0.021739130434781373,
          "durationTicks": 2,
          "midi": 47,
          "name": "B2",
          "ticks": 4978,
          "time": 54.108695652173914,
          "velocity": 0.30708661417322836
        },
        {
          "duration": 0.043478260869562746,
          "durationTicks": 4,
          "midi": 55,
          "name": "G3",
          "ticks": 4979,
          "time": 54.119565217391305,
          "velocity": 0.5748031496062992
        },
        {
          "duration": 0.021739130434781373,
          "durationTicks": 2,
          "midi": 60,
          "name": "C4",
          "ticks": 4981,
          "time": 54.141304347826086,
          "velocity": 0.25984251968503935
        },
        {
          "duration": 0.021739130434781373,
          "durationTicks": 2,
          "midi": 36,
          "name": "C2",
          "ticks": 4982,
          "time": 54.15217391304348,
          "velocity": 0.2440944881889764
        },
        {
          "duration": 0.04347826086956985,
          "durationTicks": 4,
          "midi": 83,
          "name": "B5",
          "ticks": 4982,
          "time": 54.15217391304348,
          "velocity": 0.07874015748031496
        },
        {
          "duration": 0.05434782608696054,
          "durationTicks": 5,
          "midi": 56,
          "name": "G#3",
          "ticks": 4983,
          "time": 54.16304347826087,
          "velocity": 0.31496062992125984
        },
        {
          "duration": 0.10869565217391397,
          "durationTicks": 10,
          "midi": 60,
          "name": "C4",
          "ticks": 4984,
          "time": 54.17391304347826,
          "velocity": 0.23622047244094488
        },
        {
          "duration": 0.02173913043478848,
          "durationTicks": 2,
          "midi": 36,
          "name": "C2",
          "ticks": 4985,
          "time": 54.18478260869565,
          "velocity": 0.2283464566929134
        },
        {
          "duration": 0.02173913043478848,
          "durationTicks": 2,
          "midi": 47,
          "name": "B2",
          "ticks": 4985,
          "time": 54.18478260869565,
          "velocity": 0.2283464566929134
        },
        {
          "duration": 0.05434782608695343,
          "durationTicks": 5,
          "midi": 49,
          "name": "C#3",
          "ticks": 4988,
          "time": 54.21739130434783,
          "velocity": 0.1968503937007874
        },
        {
          "duration": 0.043478260869562746,
          "durationTicks": 4,
          "midi": 55,
          "name": "G3",
          "ticks": 4988,
          "time": 54.21739130434783,
          "velocity": 0.25984251968503935
        },
        {
          "duration": 0.02173913043478848,
          "durationTicks": 2,
          "midi": 47,
          "name": "B2",
          "ticks": 4995,
          "time": 54.29347826086956,
          "velocity": 0.4251968503937008
        },
        {
          "duration": 0.02173913043478848,
          "durationTicks": 2,
          "midi": 54,
          "name": "F#3",
          "ticks": 4995,
          "time": 54.29347826086956,
          "velocity": 0.3779527559055118
        },
        {
          "duration": 0.021739130434781373,
          "durationTicks": 2,
          "midi": 35,
          "name": "B1",
          "ticks": 4997,
          "time": 54.31521739130435,
          "velocity": 0.4015748031496063
        },
        {
          "duration": 0.043478260869562746,
          "durationTicks": 4,
          "midi": 48,
          "name": "C3",
          "ticks": 4997,
          "time": 54.31521739130435,
          "velocity": 0.49606299212598426
        },
        {
          "duration": 0.0760869565217348,
          "durationTicks": 7,
          "midi": 55,
          "name": "G3",
          "ticks": 4999,
          "time": 54.33695652173913,
          "velocity": 0.4094488188976378
        },
        {
          "duration": 0.021739130434781373,
          "durationTicks": 2,
          "midi": 36,
          "name": "C2",
          "ticks": 5001,
          "time": 54.358695652173914,
          "velocity": 0.29133858267716534
        },
        {
          "duration": 0.07608695652174191,
          "durationTicks": 7,
          "midi": 72,
          "name": "C5",
          "ticks": 5004,
          "time": 54.391304347826086,
          "velocity": 0.33858267716535434
        },
        {
          "duration": 0.14130434782608603,
          "durationTicks": 13,
          "midi": 76,
          "name": "E5",
          "ticks": 5005,
          "time": 54.40217391304348,
          "velocity": 0.25984251968503935
        },
        {
          "duration": 0.0869565217391326,
          "durationTicks": 8,
          "midi": 102,
          "name": "F#7",
          "ticks": 5005,
          "time": 54.40217391304348,
          "velocity": 0.11811023622047244
        },
        {
          "duration": 0.032608695652179165,
          "durationTicks": 3,
          "midi": 54,
          "name": "F#3",
          "ticks": 5006,
          "time": 54.41304347826087,
          "velocity": 0.4409448818897638
        },
        {
          "duration": 0.13043478260869534,
          "durationTicks": 12,
          "midi": 64,
          "name": "E4",
          "ticks": 5006,
          "time": 54.41304347826087,
          "velocity": 0.5669291338582677
        },
        {
          "duration": 0.11956521739130466,
          "durationTicks": 11,
          "midi": 83,
          "name": "B5",
          "ticks": 5006,
          "time": 54.41304347826087,
          "velocity": 0.2677165354330709
        },
        {
          "duration": 0.14130434782608603,
          "durationTicks": 13,
          "midi": 88,
          "name": "E6",
          "ticks": 5006,
          "time": 54.41304347826087,
          "velocity": 0.3543307086614173
        },
        {
          "duration": 0.04347826086956985,
          "durationTicks": 4,
          "midi": 96,
          "name": "C7",
          "ticks": 5006,
          "time": 54.41304347826087,
          "velocity": 0.07874015748031496
        },
        {
          "duration": 0.11956521739130466,
          "durationTicks": 11,
          "midi": 98,
          "name": "D7",
          "ticks": 5007,
          "time": 54.42391304347826,
          "velocity": 0.11023622047244094
        },
        {
          "duration": 0.02173913043478848,
          "durationTicks": 2,
          "midi": 46,
          "name": "A#2",
          "ticks": 5008,
          "time": 54.43478260869565,
          "velocity": 0.4645669291338583
        },
        {
          "duration": 0.032608695652179165,
          "durationTicks": 3,
          "midi": 69,
          "name": "A4",
          "ticks": 5008,
          "time": 54.43478260869565,
          "velocity": 0.15748031496062992
        },
        {
          "duration": 0.21739130434782084,
          "durationTicks": 20,
          "midi": 60,
          "name": "C4",
          "ticks": 5010,
          "time": 54.45652173913044,
          "velocity": 0.31496062992125984
        },
        {
          "duration": 0.021739130434781373,
          "durationTicks": 2,
          "midi": 35,
          "name": "B1",
          "ticks": 5012,
          "time": 54.47826086956522,
          "velocity": 0.2283464566929134
        },
        {
          "duration": 0.021739130434781373,
          "durationTicks": 2,
          "midi": 47,
          "name": "B2",
          "ticks": 5013,
          "time": 54.48913043478261,
          "velocity": 0.2677165354330709
        },
        {
          "duration": 0.03260869565217206,
          "durationTicks": 3,
          "midi": 55,
          "name": "G3",
          "ticks": 5013,
          "time": 54.48913043478261,
          "velocity": 0.2440944881889764
        },
        {
          "duration": 0.30434782608696054,
          "durationTicks": 28,
          "midi": 84,
          "name": "C6",
          "ticks": 5017,
          "time": 54.53260869565217,
          "velocity": 0.33858267716535434
        },
        {
          "duration": 0.10869565217391397,
          "durationTicks": 10,
          "midi": 65,
          "name": "F4",
          "ticks": 5018,
          "time": 54.54347826086956,
          "velocity": 0.5354330708661418
        },
        {
          "duration": 0.04347826086956985,
          "durationTicks": 4,
          "midi": 89,
          "name": "F6",
          "ticks": 5019,
          "time": 54.55434782608695,
          "velocity": 0.13385826771653545
        },
        {
          "duration": 0.03260869565217206,
          "durationTicks": 3,
          "midi": 46,
          "name": "A#2",
          "ticks": 5022,
          "time": 54.58695652173913,
          "velocity": 0.3228346456692913
        },
        {
          "duration": 0.03260869565217206,
          "durationTicks": 3,
          "midi": 93,
          "name": "A6",
          "ticks": 5023,
          "time": 54.59782608695652,
          "velocity": 0.09448818897637795
        },
        {
          "duration": 0.021739130434781373,
          "durationTicks": 2,
          "midi": 46,
          "name": "A#2",
          "ticks": 5026,
          "time": 54.630434782608695,
          "velocity": 0.3228346456692913
        },
        {
          "duration": 0.0869565217391326,
          "durationTicks": 8,
          "midi": 55,
          "name": "G3",
          "ticks": 5026,
          "time": 54.630434782608695,
          "velocity": 0.47244094488188976
        },
        {
          "duration": 0.10869565217391397,
          "durationTicks": 10,
          "midi": 64,
          "name": "E4",
          "ticks": 5028,
          "time": 54.65217391304348,
          "velocity": 0.49606299212598426
        },
        {
          "duration": 0.032608695652179165,
          "durationTicks": 3,
          "midi": 47,
          "name": "B2",
          "ticks": 5030,
          "time": 54.67391304347826,
          "velocity": 0.30708661417322836
        },
        {
          "duration": 0.043478260869562746,
          "durationTicks": 4,
          "midi": 83,
          "name": "B5",
          "ticks": 5032,
          "time": 54.69565217391305,
          "velocity": 0.1732283464566929
        },
        {
          "duration": 0.13043478260869534,
          "durationTicks": 12,
          "midi": 72,
          "name": "C5",
          "ticks": 5033,
          "time": 54.70652173913044,
          "velocity": 0.1732283464566929
        },
        {
          "duration": 0.06521739130434412,
          "durationTicks": 6,
          "midi": 88,
          "name": "E6",
          "ticks": 5033,
          "time": 54.70652173913044,
          "velocity": 0.14960629921259844
        },
        {
          "duration": 0.010869565217390686,
          "durationTicks": 1,
          "midi": 47,
          "name": "B2",
          "ticks": 5034,
          "time": 54.71739130434783,
          "velocity": 0.5826771653543307
        },
        {
          "duration": 0.021739130434781373,
          "durationTicks": 2,
          "midi": 56,
          "name": "G#3",
          "ticks": 5034,
          "time": 54.71739130434783,
          "velocity": 0.5039370078740157
        },
        {
          "duration": 0.10869565217391397,
          "durationTicks": 10,
          "midi": 86,
          "name": "D6",
          "ticks": 5034,
          "time": 54.71739130434783,
          "velocity": 0.23622047244094488
        },
        {
          "duration": 0.03260869565217206,
          "durationTicks": 3,
          "midi": 48,
          "name": "C3",
          "ticks": 5035,
          "time": 54.72826086956522,
          "velocity": 0.6456692913385826
        },
        {
          "duration": 0.10869565217391397,
          "durationTicks": 10,
          "midi": 67,
          "name": "G4",
          "ticks": 5035,
          "time": 54.72826086956522,
          "velocity": 0.41732283464566927
        },
        {
          "duration": 0.021739130434781373,
          "durationTicks": 2,
          "midi": 61,
          "name": "C#4",
          "ticks": 5037,
          "time": 54.75,
          "velocity": 0.3937007874015748
        },
        {
          "duration": 0.010869565217390686,
          "durationTicks": 1,
          "midi": 47,
          "name": "B2",
          "ticks": 5038,
          "time": 54.76086956521739,
          "velocity": 0.5511811023622047
        },
        {
          "duration": 0.043478260869562746,
          "durationTicks": 4,
          "midi": 60,
          "name": "C4",
          "ticks": 5038,
          "time": 54.76086956521739,
          "velocity": 0.3543307086614173
        },
        {
          "duration": 0.021739130434781373,
          "durationTicks": 2,
          "midi": 48,
          "name": "C3",
          "ticks": 5039,
          "time": 54.77173913043478,
          "velocity": 0.5511811023622047
        },
        {
          "duration": 0.05434782608696054,
          "durationTicks": 5,
          "midi": 38,
          "name": "D2",
          "ticks": 5040,
          "time": 54.78260869565217,
          "velocity": 0.4645669291338583
        },
        {
          "duration": 0.02173913043478848,
          "durationTicks": 2,
          "midi": 49,
          "name": "C#3",
          "ticks": 5041,
          "time": 54.79347826086956,
          "velocity": 0.5354330708661418
        },
        {
          "duration": 0.03260869565217206,
          "durationTicks": 3,
          "midi": 38,
          "name": "D2",
          "ticks": 5046,
          "time": 54.84782608695652,
          "velocity": 0.41732283464566927
        },
        {
          "duration": 0.021739130434781373,
          "durationTicks": 2,
          "midi": 49,
          "name": "C#3",
          "ticks": 5046,
          "time": 54.84782608695652,
          "velocity": 0.48031496062992124
        },
        {
          "duration": 0.043478260869562746,
          "durationTicks": 4,
          "midi": 56,
          "name": "G#3",
          "ticks": 5047,
          "time": 54.858695652173914,
          "velocity": 0.1968503937007874
        },
        {
          "duration": 0.021739130434781373,
          "durationTicks": 2,
          "midi": 39,
          "name": "D#2",
          "ticks": 5049,
          "time": 54.880434782608695,
          "velocity": 0.3700787401574803
        },
        {
          "duration": 0.04347826086956985,
          "durationTicks": 4,
          "midi": 37,
          "name": "C#2",
          "ticks": 5051,
          "time": 54.90217391304348,
          "velocity": 0.4881889763779528
        },
        {
          "duration": 0.021739130434781373,
          "durationTicks": 2,
          "midi": 50,
          "name": "D3",
          "ticks": 5051,
          "time": 54.90217391304348,
          "velocity": 0.44881889763779526
        },
        {
          "duration": 0.35869565217391397,
          "durationTicks": 33,
          "midi": 79,
          "name": "G5",
          "ticks": 5052,
          "time": 54.91304347826087,
          "velocity": 0.23622047244094488
        },
        {
          "duration": 0.4130434782608745,
          "durationTicks": 38,
          "midi": 84,
          "name": "C6",
          "ticks": 5052,
          "time": 54.91304347826087,
          "velocity": 0.25196850393700787
        },
        {
          "duration": 0.7934782608695699,
          "durationTicks": 73,
          "midi": 60,
          "name": "C4",
          "ticks": 5053,
          "time": 54.92391304347826,
          "velocity": 0.5196850393700787
        },
        {
          "duration": 0.043478260869562746,
          "durationTicks": 4,
          "midi": 46,
          "name": "A#2",
          "ticks": 5059,
          "time": 54.98913043478261,
          "velocity": 0.30708661417322836
        },
        {
          "duration": 0.043478260869562746,
          "durationTicks": 4,
          "midi": 65,
          "name": "F4",
          "ticks": 5060,
          "time": 55,
          "velocity": 0.07086614173228346
        },
        {
          "duration": 0.021739130434781373,
          "durationTicks": 2,
          "midi": 30,
          "name": "F#1",
          "ticks": 5062,
          "time": 55.02173913043478,
          "velocity": 0.31496062992125984
        },
        {
          "duration": 0.021739130434781373,
          "durationTicks": 2,
          "midi": 47,
          "name": "B2",
          "ticks": 5063,
          "time": 55.03260869565217,
          "velocity": 0.4015748031496063
        },
        {
          "duration": 0.021739130434781373,
          "durationTicks": 2,
          "midi": 54,
          "name": "F#3",
          "ticks": 5066,
          "time": 55.06521739130435,
          "velocity": 0.5433070866141733
        },
        {
          "duration": 0.2608695652173907,
          "durationTicks": 24,
          "midi": 53,
          "name": "F3",
          "ticks": 5068,
          "time": 55.08695652173913,
          "velocity": 0.5118110236220472
        },
        {
          "duration": 0.021739130434781373,
          "durationTicks": 2,
          "midi": 41,
          "name": "F2",
          "ticks": 5071,
          "time": 55.119565217391305,
          "velocity": 0.2992125984251969
        },
        {
          "duration": 0.021739130434781373,
          "durationTicks": 2,
          "midi": 30,
          "name": "F#1",
          "ticks": 5073,
          "time": 55.141304347826086,
          "velocity": 0.3700787401574803
        },
        {
          "duration": 0.021739130434781373,
          "durationTicks": 2,
          "midi": 29,
          "name": "F1",
          "ticks": 5075,
          "time": 55.16304347826087,
          "velocity": 0.3464566929133858
        },
        {
          "duration": 0.1630434782608674,
          "durationTicks": 15,
          "midi": 41,
          "name": "F2",
          "ticks": 5078,
          "time": 55.19565217391305,
          "velocity": 0.44881889763779526
        },
        {
          "duration": 0.09782608695651618,
          "durationTicks": 9,
          "midi": 77,
          "name": "F5",
          "ticks": 5091,
          "time": 55.33695652173913,
          "velocity": 0.2047244094488189
        },
        {
          "duration": 0.15217391304347672,
          "durationTicks": 14,
          "midi": 81,
          "name": "A5",
          "ticks": 5091,
          "time": 55.33695652173913,
          "velocity": 0.33070866141732286
        },
        {
          "duration": 0.021739130434781373,
          "durationTicks": 2,
          "midi": 52,
          "name": "E3",
          "ticks": 5092,
          "time": 55.34782608695652,
          "velocity": 0.44881889763779526
        },
        {
          "duration": 0.19565217391303946,
          "durationTicks": 18,
          "midi": 65,
          "name": "F4",
          "ticks": 5092,
          "time": 55.34782608695652,
          "velocity": 0.4094488188976378
        },
        {
          "duration": 0.021739130434781373,
          "durationTicks": 2,
          "midi": 67,
          "name": "G4",
          "ticks": 5092,
          "time": 55.34782608695652,
          "velocity": 0.3543307086614173
        },
        {
          "duration": 0.08695652173912549,
          "durationTicks": 8,
          "midi": 88,
          "name": "E6",
          "ticks": 5092,
          "time": 55.34782608695652,
          "velocity": 0.14173228346456693
        },
        {
          "duration": 0.10869565217391397,
          "durationTicks": 10,
          "midi": 69,
          "name": "A4",
          "ticks": 5093,
          "time": 55.358695652173914,
          "velocity": 0.3228346456692913
        },
        {
          "duration": 0.02173913043478848,
          "durationTicks": 2,
          "midi": 32,
          "name": "G#1",
          "ticks": 5099,
          "time": 55.42391304347826,
          "velocity": 0.28346456692913385
        },
        {
          "duration": 0.03260869565217206,
          "durationTicks": 3,
          "midi": 35,
          "name": "B1",
          "ticks": 5106,
          "time": 55.5,
          "velocity": 0.2125984251968504
        },
        {
          "duration": 0.021739130434781373,
          "durationTicks": 2,
          "midi": 45,
          "name": "A2",
          "ticks": 5115,
          "time": 55.59782608695652,
          "velocity": 0.2283464566929134
        },
        {
          "duration": 0.010869565217390686,
          "durationTicks": 1,
          "midi": 49,
          "name": "C#3",
          "ticks": 5122,
          "time": 55.67391304347826,
          "velocity": 0.5118110236220472
        },
        {
          "duration": 0.02173913043478848,
          "durationTicks": 2,
          "midi": 37,
          "name": "C#2",
          "ticks": 5123,
          "time": 55.68478260869565,
          "velocity": 0.4094488188976378
        },
        {
          "duration": 0.2717391304347885,
          "durationTicks": 25,
          "midi": 48,
          "name": "C3",
          "ticks": 5123,
          "time": 55.68478260869565,
          "velocity": 0.5354330708661418
        },
        {
          "duration": 0.032608695652179165,
          "durationTicks": 3,
          "midi": 67,
          "name": "G4",
          "ticks": 5123,
          "time": 55.68478260869565,
          "velocity": 0.16535433070866143
        },
        {
          "duration": 0.10869565217390686,
          "durationTicks": 10,
          "midi": 55,
          "name": "G3",
          "ticks": 5124,
          "time": 55.69565217391305,
          "velocity": 0.33858267716535434
        },
        {
          "duration": 0.010869565217390686,
          "durationTicks": 1,
          "midi": 33,
          "name": "A1",
          "ticks": 5126,
          "time": 55.71739130434783,
          "velocity": 0.5196850393700787
        },
        {
          "duration": 0.20652173913043725,
          "durationTicks": 19,
          "midi": 36,
          "name": "C2",
          "ticks": 5130,
          "time": 55.76086956521739,
          "velocity": 0.47244094488188976
        },
        {
          "duration": 0.03260869565217206,
          "durationTicks": 3,
          "midi": 55,
          "name": "G3",
          "ticks": 5137,
          "time": 55.83695652173913,
          "velocity": 0.2755905511811024
        },
        {
          "duration": 0.06521739130434412,
          "durationTicks": 6,
          "midi": 64,
          "name": "E4",
          "ticks": 5138,
          "time": 55.84782608695652,
          "velocity": 0.07086614173228346
        },
        {
          "duration": 0.021739130434781373,
          "durationTicks": 2,
          "midi": 55,
          "name": "G3",
          "ticks": 5141,
          "time": 55.880434782608695,
          "velocity": 0.2677165354330709
        },
        {
          "duration": 0.04347826086956985,
          "durationTicks": 4,
          "midi": 55,
          "name": "G3",
          "ticks": 5144,
          "time": 55.91304347826087,
          "velocity": 0.4409448818897638
        },
        {
          "duration": 0.19565217391303946,
          "durationTicks": 18,
          "midi": 65,
          "name": "F4",
          "ticks": 5147,
          "time": 55.94565217391305,
          "velocity": 0.3228346456692913
        },
        {
          "duration": 0.03260869565217206,
          "durationTicks": 3,
          "midi": 79,
          "name": "G5",
          "ticks": 5147,
          "time": 55.94565217391305,
          "velocity": 0.1732283464566929
        },
        {
          "duration": 0.010869565217390686,
          "durationTicks": 1,
          "midi": 54,
          "name": "F#3",
          "ticks": 5148,
          "time": 55.95652173913044,
          "velocity": 0.5984251968503937
        },
        {
          "duration": 0.18478260869564878,
          "durationTicks": 17,
          "midi": 69,
          "name": "A4",
          "ticks": 5148,
          "time": 55.95652173913044,
          "velocity": 0.3779527559055118
        },
        {
          "duration": 0.03260869565217206,
          "durationTicks": 3,
          "midi": 90,
          "name": "F#6",
          "ticks": 5148,
          "time": 55.95652173913044,
          "velocity": 0.10236220472440945
        },
        {
          "duration": 0.010869565217390686,
          "durationTicks": 1,
          "midi": 53,
          "name": "F3",
          "ticks": 5149,
          "time": 55.96739130434783,
          "velocity": 0.5669291338582677
        },
        {
          "duration": 0.010869565217390686,
          "durationTicks": 1,
          "midi": 56,
          "name": "G#3",
          "ticks": 5149,
          "time": 55.96739130434783,
          "velocity": 0.5748031496062992
        },
        {
          "duration": 0.09782608695652328,
          "durationTicks": 9,
          "midi": 84,
          "name": "C6",
          "ticks": 5149,
          "time": 55.96739130434783,
          "velocity": 0.15748031496062992
        },
        {
          "duration": 0.05434782608695343,
          "durationTicks": 5,
          "midi": 57,
          "name": "A3",
          "ticks": 5150,
          "time": 55.97826086956522,
          "velocity": 0.47244094488188976
        },
        {
          "duration": 0.09782608695652328,
          "durationTicks": 9,
          "midi": 72,
          "name": "C5",
          "ticks": 5150,
          "time": 55.97826086956522,
          "velocity": 0.14960629921259844
        },
        {
          "duration": 0.021739130434781373,
          "durationTicks": 2,
          "midi": 48,
          "name": "C3",
          "ticks": 5151,
          "time": 55.98913043478261,
          "velocity": 0.4409448818897638
        },
        {
          "duration": 0.021739130434781373,
          "durationTicks": 2,
          "midi": 32,
          "name": "G#1",
          "ticks": 5153,
          "time": 56.01086956521739,
          "velocity": 0.4409448818897638
        },
        {
          "duration": 0.021739130434781373,
          "durationTicks": 2,
          "midi": 46,
          "name": "A#2",
          "ticks": 5155,
          "time": 56.03260869565217,
          "velocity": 0.4015748031496063
        },
        {
          "duration": 0.13043478260869534,
          "durationTicks": 12,
          "midi": 57,
          "name": "A3",
          "ticks": 5156,
          "time": 56.04347826086956,
          "velocity": 0.3937007874015748
        },
        {
          "duration": 0.021739130434781373,
          "durationTicks": 2,
          "midi": 34,
          "name": "A#1",
          "ticks": 5160,
          "time": 56.08695652173913,
          "velocity": 0.2283464566929134
        },
        {
          "duration": 0.03260869565217206,
          "durationTicks": 3,
          "midi": 41,
          "name": "F2",
          "ticks": 5165,
          "time": 56.141304347826086,
          "velocity": 0.2283464566929134
        },
        {
          "duration": 0.04347826086956985,
          "durationTicks": 4,
          "midi": 56,
          "name": "G#3",
          "ticks": 5168,
          "time": 56.17391304347826,
          "velocity": 0.4094488188976378
        },
        {
          "duration": 0.22826086956521863,
          "durationTicks": 21,
          "midi": 65,
          "name": "F4",
          "ticks": 5168,
          "time": 56.17391304347826,
          "velocity": 0.29133858267716534
        },
        {
          "duration": 0.021739130434781373,
          "durationTicks": 2,
          "midi": 61,
          "name": "C#4",
          "ticks": 5170,
          "time": 56.19565217391305,
          "velocity": 0.25196850393700787
        },
        {
          "duration": 0.021739130434781373,
          "durationTicks": 2,
          "midi": 57,
          "name": "A3",
          "ticks": 5172,
          "time": 56.21739130434783,
          "velocity": 0.3779527559055118
        },
        {
          "duration": 0.03260869565217206,
          "durationTicks": 3,
          "midi": 47,
          "name": "B2",
          "ticks": 5173,
          "time": 56.22826086956522,
          "velocity": 0.2204724409448819
        },
        {
          "duration": 0.021739130434781373,
          "durationTicks": 2,
          "midi": 58,
          "name": "A#3",
          "ticks": 5176,
          "time": 56.26086956521739,
          "velocity": 0.25196850393700787
        },
        {
          "duration": 0.04347826086956985,
          "durationTicks": 4,
          "midi": 47,
          "name": "B2",
          "ticks": 5177,
          "time": 56.27173913043478,
          "velocity": 0.33858267716535434
        },
        {
          "duration": 0.2608695652173907,
          "durationTicks": 24,
          "midi": 53,
          "name": "F3",
          "ticks": 5182,
          "time": 56.32608695652174,
          "velocity": 0.3858267716535433
        },
        {
          "duration": 0.21739130434782794,
          "durationTicks": 20,
          "midi": 41,
          "name": "F2",
          "ticks": 5184,
          "time": 56.34782608695652,
          "velocity": 0.4881889763779528
        },
        {
          "duration": 0.36956521739130466,
          "durationTicks": 34,
          "midi": 65,
          "name": "F4",
          "ticks": 5193,
          "time": 56.44565217391305,
          "velocity": 0.44881889763779526
        },
        {
          "duration": 0.28260869565217206,
          "durationTicks": 26,
          "midi": 72,
          "name": "C5",
          "ticks": 5195,
          "time": 56.46739130434783,
          "velocity": 0.33858267716535434
        },
        {
          "duration": 0.05434782608696054,
          "durationTicks": 5,
          "midi": 60,
          "name": "C4",
          "ticks": 5200,
          "time": 56.52173913043478,
          "velocity": 0.2440944881889764
        },
        {
          "duration": 0.1739130434782581,
          "durationTicks": 16,
          "midi": 84,
          "name": "C6",
          "ticks": 5205,
          "time": 56.57608695652174,
          "velocity": 0.3937007874015748
        },
        {
          "duration": 0.03260869565217206,
          "durationTicks": 3,
          "midi": 40,
          "name": "E2",
          "ticks": 5206,
          "time": 56.58695652173913,
          "velocity": 0.33070866141732286
        },
        {
          "duration": 0.03260869565217206,
          "durationTicks": 3,
          "midi": 60,
          "name": "C4",
          "ticks": 5206,
          "time": 56.58695652173913,
          "velocity": 0.5748031496062992
        },
        {
          "duration": 0.0760869565217348,
          "durationTicks": 7,
          "midi": 79,
          "name": "G5",
          "ticks": 5206,
          "time": 56.58695652173913,
          "velocity": 0.1732283464566929
        },
        {
          "duration": 0.1630434782608674,
          "durationTicks": 15,
          "midi": 91,
          "name": "G6",
          "ticks": 5206,
          "time": 56.58695652173913,
          "velocity": 0.2755905511811024
        },
        {
          "duration": 0.043478260869562746,
          "durationTicks": 4,
          "midi": 93,
          "name": "A6",
          "ticks": 5207,
          "time": 56.59782608695652,
          "velocity": 0.12598425196850394
        },
        {
          "duration": 0.13043478260869534,
          "durationTicks": 12,
          "midi": 94,
          "name": "A#6",
          "ticks": 5207,
          "time": 56.59782608695652,
          "velocity": 0.1732283464566929
        },
        {
          "duration": 0.06521739130434412,
          "durationTicks": 6,
          "midi": 100,
          "name": "E7",
          "ticks": 5207,
          "time": 56.59782608695652,
          "velocity": 0.11023622047244094
        },
        {
          "duration": 0.010869565217390686,
          "durationTicks": 1,
          "midi": 57,
          "name": "A3",
          "ticks": 5208,
          "time": 56.608695652173914,
          "velocity": 0.5826771653543307
        },
        {
          "duration": 0.021739130434781373,
          "durationTicks": 2,
          "midi": 41,
          "name": "F2",
          "ticks": 5209,
          "time": 56.619565217391305,
          "velocity": 0.29133858267716534
        },
        {
          "duration": 0.010869565217390686,
          "durationTicks": 1,
          "midi": 58,
          "name": "A#3",
          "ticks": 5209,
          "time": 56.619565217391305,
          "velocity": 0.6220472440944882
        },
        {
          "duration": 0.11956521739130466,
          "durationTicks": 11,
          "midi": 69,
          "name": "A4",
          "ticks": 5209,
          "time": 56.619565217391305,
          "velocity": 0.2283464566929134
        },
        {
          "duration": 0.03260869565217206,
          "durationTicks": 3,
          "midi": 57,
          "name": "A3",
          "ticks": 5210,
          "time": 56.630434782608695,
          "velocity": 0.5669291338582677
        },
        {
          "duration": 0.010869565217390686,
          "durationTicks": 1,
          "midi": 60,
          "name": "C4",
          "ticks": 5210,
          "time": 56.630434782608695,
          "velocity": 0.5275590551181102
        },
        {
          "duration": 0.10869565217391397,
          "durationTicks": 10,
          "midi": 60,
          "name": "C4",
          "ticks": 5212,
          "time": 56.65217391304348,
          "velocity": 0.5354330708661418
        },
        {
          "duration": 0.021739130434781373,
          "durationTicks": 2,
          "midi": 57,
          "name": "A3",
          "ticks": 5221,
          "time": 56.75,
          "velocity": 0.29133858267716534
        },
        {
          "duration": 0.021739130434781373,
          "durationTicks": 2,
          "midi": 60,
          "name": "C4",
          "ticks": 5223,
          "time": 56.77173913043478,
          "velocity": 0.3858267716535433
        },
        {
          "duration": 0.032608695652179165,
          "durationTicks": 3,
          "midi": 52,
          "name": "E3",
          "ticks": 5224,
          "time": 56.78260869565217,
          "velocity": 0.3228346456692913
        },
        {
          "duration": 0.04347826086956985,
          "durationTicks": 4,
          "midi": 60,
          "name": "C4",
          "ticks": 5226,
          "time": 56.80434782608695,
          "velocity": 0.4015748031496063
        },
        {
          "duration": 0.021739130434781373,
          "durationTicks": 2,
          "midi": 54,
          "name": "F#3",
          "ticks": 5228,
          "time": 56.82608695652174,
          "velocity": 0.3464566929133858
        },
        {
          "duration": 0.021739130434781373,
          "durationTicks": 2,
          "midi": 38,
          "name": "D2",
          "ticks": 5230,
          "time": 56.84782608695652,
          "velocity": 0.25196850393700787
        },
        {
          "duration": 0.021739130434781373,
          "durationTicks": 2,
          "midi": 61,
          "name": "C#4",
          "ticks": 5234,
          "time": 56.891304347826086,
          "velocity": 0.4330708661417323
        },
        {
          "duration": 0.03260869565217206,
          "durationTicks": 3,
          "midi": 69,
          "name": "A4",
          "ticks": 5235,
          "time": 56.90217391304348,
          "velocity": 0.08661417322834646
        },
        {
          "duration": 0.11956521739130466,
          "durationTicks": 11,
          "midi": 74,
          "name": "D5",
          "ticks": 5235,
          "time": 56.90217391304348,
          "velocity": 0.25196850393700787
        },
        {
          "duration": 0.05434782608696054,
          "durationTicks": 5,
          "midi": 81,
          "name": "A5",
          "ticks": 5235,
          "time": 56.90217391304348,
          "velocity": 0.18110236220472442
        },
        {
          "duration": 0.021739130434781373,
          "durationTicks": 2,
          "midi": 46,
          "name": "A#2",
          "ticks": 5236,
          "time": 56.91304347826087,
          "velocity": 0.3543307086614173
        },
        {
          "duration": 0.09782608695652328,
          "durationTicks": 9,
          "midi": 62,
          "name": "D4",
          "ticks": 5236,
          "time": 56.91304347826087,
          "velocity": 0.4566929133858268
        },
        {
          "duration": 0.04347826086956985,
          "durationTicks": 4,
          "midi": 96,
          "name": "C7",
          "ticks": 5236,
          "time": 56.91304347826087,
          "velocity": 0.14960629921259844
        },
        {
          "duration": 0.02173913043478848,
          "durationTicks": 2,
          "midi": 32,
          "name": "G#1",
          "ticks": 5237,
          "time": 56.92391304347826,
          "velocity": 0.3700787401574803
        },
        {
          "duration": 0.03260869565217206,
          "durationTicks": 3,
          "midi": 35,
          "name": "B1",
          "ticks": 5241,
          "time": 56.96739130434783,
          "velocity": 0.44881889763779526
        },
        {
          "duration": 0.09782608695652328,
          "durationTicks": 9,
          "midi": 48,
          "name": "C3",
          "ticks": 5241,
          "time": 56.96739130434783,
          "velocity": 0.41732283464566927
        },
        {
          "duration": 0.06521739130434412,
          "durationTicks": 6,
          "midi": 55,
          "name": "G3",
          "ticks": 5241,
          "time": 56.96739130434783,
          "velocity": 0.3779527559055118
        },
        {
          "duration": 0.19565217391304657,
          "durationTicks": 18,
          "midi": 36,
          "name": "C2",
          "ticks": 5244,
          "time": 57,
          "velocity": 0.4566929133858268
        },
        {
          "duration": 0.021739130434781373,
          "durationTicks": 2,
          "midi": 56,
          "name": "G#3",
          "ticks": 5250,
          "time": 57.06521739130435,
          "velocity": 0.23622047244094488
        },
        {
          "duration": 0.10869565217391397,
          "durationTicks": 10,
          "midi": 65,
          "name": "F4",
          "ticks": 5253,
          "time": 57.09782608695652,
          "velocity": 0.25984251968503935
        },
        {
          "duration": 0.043478260869562746,
          "durationTicks": 4,
          "midi": 57,
          "name": "A3",
          "ticks": 5257,
          "time": 57.141304347826086,
          "velocity": 0.49606299212598426
        },
        {
          "duration": 0.03260869565217206,
          "durationTicks": 3,
          "midi": 36,
          "name": "C2",
          "ticks": 5263,
          "time": 57.20652173913044,
          "velocity": 0.5118110236220472
        },
        {
          "duration": 0.021739130434781373,
          "durationTicks": 2,
          "midi": 56,
          "name": "G#3",
          "ticks": 5263,
          "time": 57.20652173913044,
          "velocity": 0.4251968503937008
        },
        {
          "duration": 0.021739130434781373,
          "durationTicks": 2,
          "midi": 60,
          "name": "C4",
          "ticks": 5263,
          "time": 57.20652173913044,
          "velocity": 0.4251968503937008
        },
        {
          "duration": 0.14130434782608603,
          "durationTicks": 13,
          "midi": 84,
          "name": "C6",
          "ticks": 5263,
          "time": 57.20652173913044,
          "velocity": 0.3700787401574803
        },
        {
          "duration": 0.1630434782608674,
          "durationTicks": 15,
          "midi": 86,
          "name": "D6",
          "ticks": 5263,
          "time": 57.20652173913044,
          "velocity": 0.33858267716535434
        },
        {
          "duration": 0.1739130434782581,
          "durationTicks": 16,
          "midi": 91,
          "name": "G6",
          "ticks": 5263,
          "time": 57.20652173913044,
          "velocity": 0.2283464566929134
        },
        {
          "duration": 0.18478260869564878,
          "durationTicks": 17,
          "midi": 65,
          "name": "F4",
          "ticks": 5264,
          "time": 57.21739130434783,
          "velocity": 0.49606299212598426
        },
        {
          "duration": 0.08695652173912549,
          "durationTicks": 8,
          "midi": 79,
          "name": "G5",
          "ticks": 5264,
          "time": 57.21739130434783,
          "velocity": 0.1889763779527559
        },
        {
          "duration": 0.13043478260869534,
          "durationTicks": 12,
          "midi": 81,
          "name": "A5",
          "ticks": 5264,
          "time": 57.21739130434783,
          "velocity": 0.1968503937007874
        },
        {
          "duration": 0.043478260869562746,
          "durationTicks": 4,
          "midi": 97,
          "name": "C#7",
          "ticks": 5264,
          "time": 57.21739130434783,
          "velocity": 0.12598425196850394
        },
        {
          "duration": 0.03260869565217206,
          "durationTicks": 3,
          "midi": 72,
          "name": "C5",
          "ticks": 5265,
          "time": 57.22826086956522,
          "velocity": 0.14173228346456693
        },
        {
          "duration": 0.03260869565217206,
          "durationTicks": 3,
          "midi": 69,
          "name": "A4",
          "ticks": 5266,
          "time": 57.23913043478261,
          "velocity": 0.3700787401574803
        },
        {
          "duration": 0.05434782608695343,
          "durationTicks": 5,
          "midi": 88,
          "name": "E6",
          "ticks": 5267,
          "time": 57.25,
          "velocity": 0.08661417322834646
        },
        {
          "duration": 0.021739130434781373,
          "durationTicks": 2,
          "midi": 32,
          "name": "G#1",
          "ticks": 5268,
          "time": 57.26086956521739,
          "velocity": 0.31496062992125984
        },
        {
          "duration": 0.032608695652179165,
          "durationTicks": 3,
          "midi": 69,
          "name": "A4",
          "ticks": 5270,
          "time": 57.28260869565217,
          "velocity": 0.31496062992125984
        },
        {
          "duration": 0.04347826086956985,
          "durationTicks": 4,
          "midi": 53,
          "name": "F3",
          "ticks": 5272,
          "time": 57.30434782608695,
          "velocity": 0.29133858267716534
        },
        {
          "duration": 0.032608695652179165,
          "durationTicks": 3,
          "midi": 67,
          "name": "G4",
          "ticks": 5272,
          "time": 57.30434782608695,
          "velocity": 0.31496062992125984
        },
        {
          "duration": 0.021739130434781373,
          "durationTicks": 2,
          "midi": 41,
          "name": "F2",
          "ticks": 5273,
          "time": 57.31521739130435,
          "velocity": 0.25984251968503935
        },
        {
          "duration": 0.021739130434781373,
          "durationTicks": 2,
          "midi": 47,
          "name": "B2",
          "ticks": 5281,
          "time": 57.40217391304348,
          "velocity": 0.49606299212598426
        },
        {
          "duration": 0.02173913043478848,
          "durationTicks": 2,
          "midi": 60,
          "name": "C4",
          "ticks": 5283,
          "time": 57.42391304347826,
          "velocity": 0.2440944881889764
        },
        {
          "duration": 0.02173913043478848,
          "durationTicks": 2,
          "midi": 36,
          "name": "C2",
          "ticks": 5284,
          "time": 57.43478260869565,
          "velocity": 0.3937007874015748
        },
        {
          "duration": 0.021739130434781373,
          "durationTicks": 2,
          "midi": 58,
          "name": "A#3",
          "ticks": 5285,
          "time": 57.44565217391305,
          "velocity": 0.30708661417322836
        },
        {
          "duration": 0.03260869565217206,
          "durationTicks": 3,
          "midi": 65,
          "name": "F4",
          "ticks": 5286,
          "time": 57.45652173913044,
          "velocity": 0.09448818897637795
        },
        {
          "duration": 0.043478260869562746,
          "durationTicks": 4,
          "midi": 47,
          "name": "B2",
          "ticks": 5287,
          "time": 57.46739130434783,
          "velocity": 0.4094488188976378
        },
        {
          "duration": 0.03260869565217206,
          "durationTicks": 3,
          "midi": 57,
          "name": "A3",
          "ticks": 5289,
          "time": 57.48913043478261,
          "velocity": 0.23622047244094488
        },
        {
          "duration": 0.021739130434781373,
          "durationTicks": 2,
          "midi": 48,
          "name": "C3",
          "ticks": 5291,
          "time": 57.51086956521739,
          "velocity": 0.3543307086614173
        },
        {
          "duration": 0.5,
          "durationTicks": 46,
          "midi": 67,
          "name": "G4",
          "ticks": 5291,
          "time": 57.51086956521739,
          "velocity": 0.5511811023622047
        },
        {
          "duration": 0.4347826086956559,
          "durationTicks": 40,
          "midi": 86,
          "name": "D6",
          "ticks": 5292,
          "time": 57.52173913043478,
          "velocity": 0.48031496062992124
        },
        {
          "duration": 0.2717391304347814,
          "durationTicks": 25,
          "midi": 95,
          "name": "B6",
          "ticks": 5293,
          "time": 57.53260869565217,
          "velocity": 0.2204724409448819
        },
        {
          "duration": 0.032608695652179165,
          "durationTicks": 3,
          "midi": 57,
          "name": "A3",
          "ticks": 5294,
          "time": 57.54347826086956,
          "velocity": 0.49606299212598426
        },
        {
          "duration": 0.02173913043478848,
          "durationTicks": 2,
          "midi": 32,
          "name": "G#1",
          "ticks": 5295,
          "time": 57.55434782608695,
          "velocity": 0.41732283464566927
        },
        {
          "duration": 0.021739130434781373,
          "durationTicks": 2,
          "midi": 46,
          "name": "A#2",
          "ticks": 5297,
          "time": 57.57608695652174,
          "velocity": 0.4645669291338583
        },
        {
          "duration": 0.021739130434781373,
          "durationTicks": 2,
          "midi": 33,
          "name": "A1",
          "ticks": 5299,
          "time": 57.59782608695652,
          "velocity": 0.4330708661417323
        },
        {
          "duration": 0.03260869565217206,
          "durationTicks": 3,
          "midi": 47,
          "name": "B2",
          "ticks": 5299,
          "time": 57.59782608695652,
          "velocity": 0.4645669291338583
        },
        {
          "duration": 0.021739130434781373,
          "durationTicks": 2,
          "midi": 34,
          "name": "A#1",
          "ticks": 5301,
          "time": 57.619565217391305,
          "velocity": 0.3937007874015748
        },
        {
          "duration": 0.21739130434782794,
          "durationTicks": 20,
          "midi": 46,
          "name": "A#2",
          "ticks": 5302,
          "time": 57.630434782608695,
          "velocity": 0.44881889763779526
        },
        {
          "duration": 0.06521739130435122,
          "durationTicks": 6,
          "midi": 34,
          "name": "A#1",
          "ticks": 5304,
          "time": 57.65217391304348,
          "velocity": 0.3937007874015748
        },
        {
          "duration": 0.032608695652179165,
          "durationTicks": 3,
          "midi": 54,
          "name": "F#3",
          "ticks": 5306,
          "time": 57.67391304347826,
          "velocity": 0.1732283464566929
        },
        {
          "duration": 0.09782608695651618,
          "durationTicks": 9,
          "midi": 91,
          "name": "G6",
          "ticks": 5309,
          "time": 57.70652173913044,
          "velocity": 0.16535433070866143
        },
        {
          "duration": 0.03260869565217206,
          "durationTicks": 3,
          "midi": 54,
          "name": "F#3",
          "ticks": 5310,
          "time": 57.71739130434783,
          "velocity": 0.14173228346456693
        },
        {
          "duration": 0.09782608695652328,
          "durationTicks": 9,
          "midi": 34,
          "name": "A#1",
          "ticks": 5311,
          "time": 57.72826086956522,
          "velocity": 0.3858267716535433
        },
        {
          "duration": 0.043478260869562746,
          "durationTicks": 4,
          "midi": 56,
          "name": "G#3",
          "ticks": 5321,
          "time": 57.83695652173913,
          "velocity": 0.36220472440944884
        },
        {
          "duration": 0.03260869565217206,
          "durationTicks": 3,
          "midi": 73,
          "name": "C#5",
          "ticks": 5321,
          "time": 57.83695652173913,
          "velocity": 0.16535433070866143
        },
        {
          "duration": 0.15217391304347672,
          "durationTicks": 14,
          "midi": 82,
          "name": "A#5",
          "ticks": 5321,
          "time": 57.83695652173913,
          "velocity": 0.29133858267716534
        },
        {
          "duration": 0.043478260869562746,
          "durationTicks": 4,
          "midi": 95,
          "name": "B6",
          "ticks": 5321,
          "time": 57.83695652173913,
          "velocity": 0.23622047244094488
        },
        {
          "duration": 0.21739130434782794,
          "durationTicks": 20,
          "midi": 70,
          "name": "A#4",
          "ticks": 5322,
          "time": 57.84782608695652,
          "velocity": 0.36220472440944884
        },
        {
          "duration": 0.021739130434781373,
          "durationTicks": 2,
          "midi": 33,
          "name": "A1",
          "ticks": 5323,
          "time": 57.858695652173914,
          "velocity": 0.4409448818897638
        },
        {
          "duration": 0.043478260869562746,
          "durationTicks": 4,
          "midi": 62,
          "name": "D4",
          "ticks": 5323,
          "time": 57.858695652173914,
          "velocity": 0.31496062992125984
        },
        {
          "duration": 0.021739130434781373,
          "durationTicks": 2,
          "midi": 36,
          "name": "C2",
          "ticks": 5325,
          "time": 57.880434782608695,
          "velocity": 0.5039370078740157
        },
        {
          "duration": 0.021739130434781373,
          "durationTicks": 2,
          "midi": 57,
          "name": "A3",
          "ticks": 5325,
          "time": 57.880434782608695,
          "velocity": 0.4015748031496063
        },
        {
          "duration": 0.09782608695652328,
          "durationTicks": 9,
          "midi": 58,
          "name": "A#3",
          "ticks": 5327,
          "time": 57.90217391304348,
          "velocity": 0.33070866141732286
        },
        {
          "duration": 0.021739130434781373,
          "durationTicks": 2,
          "midi": 32,
          "name": "G#1",
          "ticks": 5328,
          "time": 57.91304347826087,
          "velocity": 0.3700787401574803
        },
        {
          "duration": 0.05434782608696054,
          "durationTicks": 5,
          "midi": 62,
          "name": "D4",
          "ticks": 5328,
          "time": 57.91304347826087,
          "velocity": 0.09448818897637795
        },
        {
          "duration": 0.032608695652179165,
          "durationTicks": 3,
          "midi": 33,
          "name": "A1",
          "ticks": 5330,
          "time": 57.93478260869565,
          "velocity": 0.3700787401574803
        },
        {
          "duration": 0.02173913043478848,
          "durationTicks": 2,
          "midi": 46,
          "name": "A#2",
          "ticks": 5330,
          "time": 57.93478260869565,
          "velocity": 0.25196850393700787
        },
        {
          "duration": 0.043478260869562746,
          "durationTicks": 4,
          "midi": 46,
          "name": "A#2",
          "ticks": 5333,
          "time": 57.96739130434783,
          "velocity": 0.2755905511811024
        },
        {
          "duration": 0.021739130434781373,
          "durationTicks": 2,
          "midi": 34,
          "name": "A#1",
          "ticks": 5334,
          "time": 57.97826086956522,
          "velocity": 0.2755905511811024
        },
        {
          "duration": 0.021739130434781373,
          "durationTicks": 2,
          "midi": 45,
          "name": "A2",
          "ticks": 5337,
          "time": 58.01086956521739,
          "velocity": 0.2677165354330709
        },
        {
          "duration": 0.021739130434781373,
          "durationTicks": 2,
          "midi": 58,
          "name": "A#3",
          "ticks": 5337,
          "time": 58.01086956521739,
          "velocity": 0.3858267716535433
        },
        {
          "duration": 0.2717391304347814,
          "durationTicks": 25,
          "midi": 84,
          "name": "C6",
          "ticks": 5337,
          "time": 58.01086956521739,
          "velocity": 0.4409448818897638
        },
        {
          "duration": 0.13043478260869534,
          "durationTicks": 12,
          "midi": 89,
          "name": "F6",
          "ticks": 5337,
          "time": 58.01086956521739,
          "velocity": 0.3543307086614173
        },
        {
          "duration": 0.21739130434782794,
          "durationTicks": 20,
          "midi": 65,
          "name": "F4",
          "ticks": 5338,
          "time": 58.02173913043478,
          "velocity": 0.5590551181102362
        },
        {
          "duration": 0.0869565217391326,
          "durationTicks": 8,
          "midi": 46,
          "name": "A#2",
          "ticks": 5339,
          "time": 58.03260869565217,
          "velocity": 0.4015748031496063
        },
        {
          "duration": 0.0869565217391326,
          "durationTicks": 8,
          "midi": 58,
          "name": "A#3",
          "ticks": 5340,
          "time": 58.04347826086956,
          "velocity": 0.47244094488188976
        },
        {
          "duration": 0.021739130434781373,
          "durationTicks": 2,
          "midi": 34,
          "name": "A#1",
          "ticks": 5342,
          "time": 58.06521739130435,
          "velocity": 0.31496062992125984
        },
        {
          "duration": 0.03260869565217206,
          "durationTicks": 3,
          "midi": 45,
          "name": "A2",
          "ticks": 5347,
          "time": 58.119565217391305,
          "velocity": 0.2992125984251969
        },
        {
          "duration": 0.03260869565217206,
          "durationTicks": 3,
          "midi": 54,
          "name": "F#3",
          "ticks": 5349,
          "time": 58.141304347826086,
          "velocity": 0.49606299212598426
        },
        {
          "duration": 0.021739130434781373,
          "durationTicks": 2,
          "midi": 37,
          "name": "C#2",
          "ticks": 5351,
          "time": 58.16304347826087,
          "velocity": 0.3937007874015748
        },
        {
          "duration": 0.20652173913043725,
          "durationTicks": 19,
          "midi": 53,
          "name": "F3",
          "ticks": 5352,
          "time": 58.17391304347826,
          "velocity": 0.5354330708661418
        },
        {
          "duration": 0.15217391304347672,
          "durationTicks": 14,
          "midi": 41,
          "name": "F2",
          "ticks": 5356,
          "time": 58.21739130434783,
          "velocity": 0.49606299212598426
        },
        {
          "duration": 0.043478260869562746,
          "durationTicks": 4,
          "midi": 60,
          "name": "C4",
          "ticks": 5365,
          "time": 58.31521739130435,
          "velocity": 0.33070866141732286
        },
        {
          "duration": 0.11956521739130466,
          "durationTicks": 11,
          "midi": 84,
          "name": "C6",
          "ticks": 5367,
          "time": 58.33695652173913,
          "velocity": 0.2125984251968504
        },
        {
          "duration": 0.010869565217390686,
          "durationTicks": 1,
          "midi": 41,
          "name": "F2",
          "ticks": 5371,
          "time": 58.380434782608695,
          "velocity": 0.5118110236220472
        },
        {
          "duration": 0.05434782608695343,
          "durationTicks": 5,
          "midi": 60,
          "name": "C4",
          "ticks": 5371,
          "time": 58.380434782608695,
          "velocity": 0.2992125984251969
        },
        {
          "duration": 0.021739130434781373,
          "durationTicks": 2,
          "midi": 42,
          "name": "F#2",
          "ticks": 5372,
          "time": 58.391304347826086,
          "velocity": 0.5196850393700787
        },
        {
          "duration": 0.03260869565217206,
          "durationTicks": 3,
          "midi": 53,
          "name": "F3",
          "ticks": 5372,
          "time": 58.391304347826086,
          "velocity": 0.3937007874015748
        },
        {
          "duration": 0.010869565217390686,
          "durationTicks": 1,
          "midi": 54,
          "name": "F#3",
          "ticks": 5377,
          "time": 58.44565217391305,
          "velocity": 0.5118110236220472
        },
        {
          "duration": 0.1630434782608674,
          "durationTicks": 15,
          "midi": 65,
          "name": "F4",
          "ticks": 5377,
          "time": 58.44565217391305,
          "velocity": 0.48031496062992124
        },
        {
          "duration": 0.05434782608695343,
          "durationTicks": 5,
          "midi": 74,
          "name": "D5",
          "ticks": 5377,
          "time": 58.44565217391305,
          "velocity": 0.2125984251968504
        },
        {
          "duration": 0.010869565217390686,
          "durationTicks": 1,
          "midi": 42,
          "name": "F#2",
          "ticks": 5378,
          "time": 58.45652173913044,
          "velocity": 0.5275590551181102
        },
        {
          "duration": 0.010869565217390686,
          "durationTicks": 1,
          "midi": 55,
          "name": "G3",
          "ticks": 5378,
          "time": 58.45652173913044,
          "velocity": 0.6299212598425197
        },
        {
          "duration": 0.06521739130434412,
          "durationTicks": 6,
          "midi": 81,
          "name": "A5",
          "ticks": 5378,
          "time": 58.45652173913044,
          "velocity": 0.29133858267716534
        },
        {
          "duration": 0.13043478260869534,
          "durationTicks": 12,
          "midi": 86,
          "name": "D6",
          "ticks": 5378,
          "time": 58.45652173913044,
          "velocity": 0.2125984251968504
        },
        {
          "duration": 0.010869565217390686,
          "durationTicks": 1,
          "midi": 43,
          "name": "G2",
          "ticks": 5379,
          "time": 58.46739130434783,
          "velocity": 0.5196850393700787
        },
        {
          "duration": 0.021739130434781373,
          "durationTicks": 2,
          "midi": 56,
          "name": "G#3",
          "ticks": 5379,
          "time": 58.46739130434783,
          "velocity": 0.6692913385826772
        },
        {
          "duration": 0.15217391304347672,
          "durationTicks": 14,
          "midi": 70,
          "name": "A#4",
          "ticks": 5379,
          "time": 58.46739130434783,
          "velocity": 0.3700787401574803
        },
        {
          "duration": 0.09782608695652328,
          "durationTicks": 9,
          "midi": 84,
          "name": "C6",
          "ticks": 5379,
          "time": 58.46739130434783,
          "velocity": 0.14960629921259844
        },
        {
          "duration": 0.10869565217391397,
          "durationTicks": 10,
          "midi": 94,
          "name": "A#6",
          "ticks": 5379,
          "time": 58.46739130434783,
          "velocity": 0.11023622047244094
        },
        {
          "duration": 0.043478260869562746,
          "durationTicks": 4,
          "midi": 53,
          "name": "F3",
          "ticks": 5383,
          "time": 58.51086956521739,
          "velocity": 0.41732283464566927
        },
        {
          "duration": 0.021739130434781373,
          "durationTicks": 2,
          "midi": 62,
          "name": "D4",
          "ticks": 5383,
          "time": 58.51086956521739,
          "velocity": 0.3543307086614173
        },
        {
          "duration": 0.021739130434781373,
          "durationTicks": 2,
          "midi": 58,
          "name": "A#3",
          "ticks": 5384,
          "time": 58.52173913043478,
          "velocity": 0.33858267716535434
        },
        {
          "duration": 0.0869565217391326,
          "durationTicks": 8,
          "midi": 74,
          "name": "D5",
          "ticks": 5385,
          "time": 58.53260869565217,
          "velocity": 0.1889763779527559
        },
        {
          "duration": 0.032608695652179165,
          "durationTicks": 3,
          "midi": 81,
          "name": "A5",
          "ticks": 5387,
          "time": 58.55434782608695,
          "velocity": 0.13385826771653545
        },
        {
          "duration": 0.03260869565217206,
          "durationTicks": 3,
          "midi": 30,
          "name": "F#1",
          "ticks": 5389,
          "time": 58.57608695652174,
          "velocity": 0.3464566929133858
        },
        {
          "duration": 0.06521739130434412,
          "durationTicks": 6,
          "midi": 62,
          "name": "D4",
          "ticks": 5389,
          "time": 58.57608695652174,
          "velocity": 0.25984251968503935
        },
        {
          "duration": 0.03260869565217206,
          "durationTicks": 3,
          "midi": 27,
          "name": "D#1",
          "ticks": 5392,
          "time": 58.608695652173914,
          "velocity": 0.3228346456692913
        },
        {
          "duration": 0.03260869565217206,
          "durationTicks": 3,
          "midi": 58,
          "name": "A#3",
          "ticks": 5392,
          "time": 58.608695652173914,
          "velocity": 0.2992125984251969
        },
        {
          "duration": 0.021739130434781373,
          "durationTicks": 2,
          "midi": 46,
          "name": "A#2",
          "ticks": 5394,
          "time": 58.630434782608695,
          "velocity": 0.33858267716535434
        },
        {
          "duration": 0.1739130434782581,
          "durationTicks": 16,
          "midi": 84,
          "name": "C6",
          "ticks": 5394,
          "time": 58.630434782608695,
          "velocity": 0.4251968503937008
        },
        {
          "duration": 0.021739130434781373,
          "durationTicks": 2,
          "midi": 28,
          "name": "E1",
          "ticks": 5395,
          "time": 58.641304347826086,
          "velocity": 0.41732283464566927
        },
        {
          "duration": 0.03260869565217206,
          "durationTicks": 3,
          "midi": 57,
          "name": "A3",
          "ticks": 5395,
          "time": 58.641304347826086,
          "velocity": 0.3464566929133858
        },
        {
          "duration": 0.13043478260869534,
          "durationTicks": 12,
          "midi": 77,
          "name": "F5",
          "ticks": 5395,
          "time": 58.641304347826086,
          "velocity": 0.2755905511811024
        },
        {
          "duration": 0.03260869565217206,
          "durationTicks": 3,
          "midi": 62,
          "name": "D4",
          "ticks": 5396,
          "time": 58.65217391304348,
          "velocity": 0.28346456692913385
        },
        {
          "duration": 0.29347826086956985,
          "durationTicks": 27,
          "midi": 65,
          "name": "F4",
          "ticks": 5396,
          "time": 58.65217391304348,
          "velocity": 0.3937007874015748
        },
        {
          "duration": 0.02173913043478848,
          "durationTicks": 2,
          "midi": 46,
          "name": "A#2",
          "ticks": 5398,
          "time": 58.67391304347826,
          "velocity": 0.31496062992125984
        },
        {
          "duration": 0.06521739130435122,
          "durationTicks": 6,
          "midi": 57,
          "name": "A3",
          "ticks": 5399,
          "time": 58.68478260869565,
          "velocity": 0.2204724409448819
        },
        {
          "duration": 0.06521739130435122,
          "durationTicks": 6,
          "midi": 93,
          "name": "A6",
          "ticks": 5399,
          "time": 58.68478260869565,
          "velocity": 0.11811023622047244
        },
        {
          "duration": 0.02173913043478848,
          "durationTicks": 2,
          "midi": 49,
          "name": "C#3",
          "ticks": 5410,
          "time": 58.80434782608695,
          "velocity": 0.41732283464566927
        },
        {
          "duration": 0.14130434782609314,
          "durationTicks": 13,
          "midi": 55,
          "name": "G3",
          "ticks": 5410,
          "time": 58.80434782608695,
          "velocity": 0.4645669291338583
        },
        {
          "duration": 0.25,
          "durationTicks": 23,
          "midi": 48,
          "name": "C3",
          "ticks": 5412,
          "time": 58.82608695652174,
          "velocity": 0.4566929133858268
        },
        {
          "duration": 0.20652173913043725,
          "durationTicks": 19,
          "midi": 36,
          "name": "C2",
          "ticks": 5416,
          "time": 58.869565217391305,
          "velocity": 0.4645669291338583
        },
        {
          "duration": 0.14130434782608603,
          "durationTicks": 13,
          "midi": 67,
          "name": "G4",
          "ticks": 5423,
          "time": 58.94565217391305,
          "velocity": 0.5118110236220472
        },
        {
          "duration": 0.19565217391303946,
          "durationTicks": 18,
          "midi": 86,
          "name": "D6",
          "ticks": 5423,
          "time": 58.94565217391305,
          "velocity": 0.5039370078740157
        },
        {
          "duration": 0.021739130434781373,
          "durationTicks": 2,
          "midi": 56,
          "name": "G#3",
          "ticks": 5426,
          "time": 58.97826086956522,
          "velocity": 0.2440944881889764
        },
        {
          "duration": 0.10869565217391397,
          "durationTicks": 10,
          "midi": 95,
          "name": "B6",
          "ticks": 5427,
          "time": 58.98913043478261,
          "velocity": 0.11811023622047244
        },
        {
          "duration": 0.19565217391304657,
          "durationTicks": 18,
          "midi": 84,
          "name": "C6",
          "ticks": 5433,
          "time": 59.05434782608695,
          "velocity": 0.3779527559055118
        },
        {
          "duration": 0.2608695652173907,
          "durationTicks": 24,
          "midi": 64,
          "name": "E4",
          "ticks": 5435,
          "time": 59.07608695652174,
          "velocity": 0.31496062992125984
        },
        {
          "duration": 0.05434782608695343,
          "durationTicks": 5,
          "midi": 72,
          "name": "C5",
          "ticks": 5435,
          "time": 59.07608695652174,
          "velocity": 0.2677165354330709
        },
        {
          "duration": 0.021739130434781373,
          "durationTicks": 2,
          "midi": 49,
          "name": "C#3",
          "ticks": 5436,
          "time": 59.08695652173913,
          "velocity": 0.3858267716535433
        },
        {
          "duration": 0.043478260869562746,
          "durationTicks": 4,
          "midi": 56,
          "name": "G#3",
          "ticks": 5436,
          "time": 59.08695652173913,
          "velocity": 0.5433070866141733
        },
        {
          "duration": 0.15217391304347672,
          "durationTicks": 14,
          "midi": 60,
          "name": "C4",
          "ticks": 5437,
          "time": 59.09782608695652,
          "velocity": 0.44881889763779526
        },
        {
          "duration": 0.021739130434781373,
          "durationTicks": 2,
          "midi": 36,
          "name": "C2",
          "ticks": 5438,
          "time": 59.108695652173914,
          "velocity": 0.3700787401574803
        },
        {
          "duration": 0.021739130434781373,
          "durationTicks": 2,
          "midi": 47,
          "name": "B2",
          "ticks": 5438,
          "time": 59.108695652173914,
          "velocity": 0.4330708661417323
        },
        {
          "duration": 0.03260869565217206,
          "durationTicks": 3,
          "midi": 79,
          "name": "G5",
          "ticks": 5438,
          "time": 59.108695652173914,
          "velocity": 0.15748031496062992
        },
        {
          "duration": 0.46739130434782794,
          "durationTicks": 43,
          "midi": 81,
          "name": "A5",
          "ticks": 5439,
          "time": 59.119565217391305,
          "velocity": 0.31496062992125984
        },
        {
          "duration": 0.09782608695652328,
          "durationTicks": 9,
          "midi": 97,
          "name": "C#7",
          "ticks": 5439,
          "time": 59.119565217391305,
          "velocity": 0.1732283464566929
        },
        {
          "duration": 0.021739130434781373,
          "durationTicks": 2,
          "midi": 48,
          "name": "C3",
          "ticks": 5440,
          "time": 59.130434782608695,
          "velocity": 0.3464566929133858
        },
        {
          "duration": 0.5434782608695627,
          "durationTicks": 50,
          "midi": 69,
          "name": "A4",
          "ticks": 5441,
          "time": 59.141304347826086,
          "velocity": 0.5039370078740157
        },
        {
          "duration": 0.15217391304347672,
          "durationTicks": 14,
          "midi": 88,
          "name": "E6",
          "ticks": 5441,
          "time": 59.141304347826086,
          "velocity": 0.25196850393700787
        },
        {
          "duration": 0.1739130434782652,
          "durationTicks": 16,
          "midi": 55,
          "name": "G3",
          "ticks": 5443,
          "time": 59.16304347826087,
          "velocity": 0.2992125984251969
        },
        {
          "duration": 0.09782608695652328,
          "durationTicks": 9,
          "midi": 48,
          "name": "C3",
          "ticks": 5444,
          "time": 59.17391304347826,
          "velocity": 0.23622047244094488
        },
        {
          "duration": 0.03260869565217206,
          "durationTicks": 3,
          "midi": 47,
          "name": "B2",
          "ticks": 5453,
          "time": 59.27173913043478,
          "velocity": 0.3937007874015748
        },
        {
          "duration": 0.05434782608696054,
          "durationTicks": 5,
          "midi": 48,
          "name": "C3",
          "ticks": 5456,
          "time": 59.30434782608695,
          "velocity": 0.41732283464566927
        },
        {
          "duration": 0.03260869565217206,
          "durationTicks": 3,
          "midi": 35,
          "name": "B1",
          "ticks": 5460,
          "time": 59.34782608695652,
          "velocity": 0.25984251968503935
        },
        {
          "duration": 0.043478260869562746,
          "durationTicks": 4,
          "midi": 47,
          "name": "B2",
          "ticks": 5461,
          "time": 59.358695652173914,
          "velocity": 0.3779527559055118
        },
        {
          "duration": 0.021739130434781373,
          "durationTicks": 2,
          "midi": 47,
          "name": "B2",
          "ticks": 5466,
          "time": 59.41304347826087,
          "velocity": 0.3464566929133858
        },
        {
          "duration": 0.032608695652179165,
          "durationTicks": 3,
          "midi": 54,
          "name": "F#3",
          "ticks": 5466,
          "time": 59.41304347826087,
          "velocity": 0.3700787401574803
        },
        {
          "duration": 0.032608695652179165,
          "durationTicks": 3,
          "midi": 48,
          "name": "C3",
          "ticks": 5468,
          "time": 59.43478260869565,
          "velocity": 0.3464566929133858
        },
        {
          "duration": 0.043478260869562746,
          "durationTicks": 4,
          "midi": 55,
          "name": "G3",
          "ticks": 5469,
          "time": 59.44565217391305,
          "velocity": 0.2755905511811024
        },
        {
          "duration": 0.05434782608695343,
          "durationTicks": 5,
          "midi": 47,
          "name": "B2",
          "ticks": 5471,
          "time": 59.46739130434783,
          "velocity": 0.30708661417322836
        },
        {
          "duration": 0.021739130434781373,
          "durationTicks": 2,
          "midi": 47,
          "name": "B2",
          "ticks": 5481,
          "time": 59.57608695652174,
          "velocity": 0.31496062992125984
        },
        {
          "duration": 0.03260869565217206,
          "durationTicks": 3,
          "midi": 46,
          "name": "A#2",
          "ticks": 5483,
          "time": 59.59782608695652,
          "velocity": 0.2440944881889764
        },
        {
          "duration": 0.03260869565217206,
          "durationTicks": 3,
          "midi": 55,
          "name": "G3",
          "ticks": 5486,
          "time": 59.630434782608695,
          "velocity": 0.44881889763779526
        },
        {
          "duration": 0.03260869565217206,
          "durationTicks": 3,
          "midi": 56,
          "name": "G#3",
          "ticks": 5492,
          "time": 59.69565217391305,
          "velocity": 0.4409448818897638
        },
        {
          "duration": 0.11956521739130466,
          "durationTicks": 11,
          "midi": 67,
          "name": "G4",
          "ticks": 5492,
          "time": 59.69565217391305,
          "velocity": 0.48031496062992124
        },
        {
          "duration": 0.03260869565217206,
          "durationTicks": 3,
          "midi": 81,
          "name": "A5",
          "ticks": 5492,
          "time": 59.69565217391305,
          "velocity": 0.16535433070866143
        },
        {
          "duration": 0.1630434782608674,
          "durationTicks": 15,
          "midi": 86,
          "name": "D6",
          "ticks": 5492,
          "time": 59.69565217391305,
          "velocity": 0.4330708661417323
        },
        {
          "duration": 0.10869565217391397,
          "durationTicks": 10,
          "midi": 60,
          "name": "C4",
          "ticks": 5493,
          "time": 59.70652173913044,
          "velocity": 0.48031496062992124
        },
        {
          "duration": 0.09782608695651618,
          "durationTicks": 9,
          "midi": 64,
          "name": "E4",
          "ticks": 5493,
          "time": 59.70652173913044,
          "velocity": 0.3700787401574803
        },
        {
          "duration": 0.043478260869562746,
          "durationTicks": 4,
          "midi": 95,
          "name": "B6",
          "ticks": 5493,
          "time": 59.70652173913044,
          "velocity": 0.1732283464566929
        },
        {
          "duration": 0.043478260869562746,
          "durationTicks": 4,
          "midi": 101,
          "name": "F7",
          "ticks": 5493,
          "time": 59.70652173913044,
          "velocity": 0.13385826771653545
        },
        {
          "duration": 0.010869565217390686,
          "durationTicks": 1,
          "midi": 50,
          "name": "D3",
          "ticks": 5495,
          "time": 59.72826086956522,
          "velocity": 0.5275590551181102
        },
        {
          "duration": 0.010869565217390686,
          "durationTicks": 1,
          "midi": 37,
          "name": "C#2",
          "ticks": 5496,
          "time": 59.73913043478261,
          "velocity": 0.5354330708661418
        },
        {
          "duration": 0.03260869565217206,
          "durationTicks": 3,
          "midi": 39,
          "name": "D#2",
          "ticks": 5497,
          "time": 59.75,
          "velocity": 0.5196850393700787
        },
        {
          "duration": 0.021739130434781373,
          "durationTicks": 2,
          "midi": 56,
          "name": "G#3",
          "ticks": 5497,
          "time": 59.75,
          "velocity": 0.4409448818897638
        },
        {
          "duration": 0.13043478260869534,
          "durationTicks": 12,
          "midi": 50,
          "name": "D3",
          "ticks": 5499,
          "time": 59.77173913043478,
          "velocity": 0.4409448818897638
        },
        {
          "duration": 0.05434782608696054,
          "durationTicks": 5,
          "midi": 38,
          "name": "D2",
          "ticks": 5500,
          "time": 59.78260869565217,
          "velocity": 0.49606299212598426
        },
        {
          "duration": 0.06521739130435122,
          "durationTicks": 6,
          "midi": 95,
          "name": "B6",
          "ticks": 5501,
          "time": 59.79347826086956,
          "velocity": 0.07086614173228346
        },
        {
          "duration": 0.021739130434781373,
          "durationTicks": 2,
          "midi": 66,
          "name": "F#4",
          "ticks": 5503,
          "time": 59.81521739130435,
          "velocity": 0.33070866141732286
        },
        {
          "duration": 0.021739130434781373,
          "durationTicks": 2,
          "midi": 39,
          "name": "D#2",
          "ticks": 5505,
          "time": 59.83695652173913,
          "velocity": 0.4015748031496063
        },
        {
          "duration": 0.06521739130434412,
          "durationTicks": 6,
          "midi": 67,
          "name": "G4",
          "ticks": 5505,
          "time": 59.83695652173913,
          "velocity": 0.25196850393700787
        },
        {
          "duration": 0.021739130434781373,
          "durationTicks": 2,
          "midi": 56,
          "name": "G#3",
          "ticks": 5506,
          "time": 59.84782608695652,
          "velocity": 0.3228346456692913
        },
        {
          "duration": 0.021739130434781373,
          "durationTicks": 2,
          "midi": 49,
          "name": "C#3",
          "ticks": 5511,
          "time": 59.90217391304348,
          "velocity": 0.3543307086614173
        },
        {
          "duration": 0.02173913043478848,
          "durationTicks": 2,
          "midi": 58,
          "name": "A#3",
          "ticks": 5513,
          "time": 59.92391304347826,
          "velocity": 0.3700787401574803
        },
        {
          "duration": 0.06521739130435122,
          "durationTicks": 6,
          "midi": 67,
          "name": "G4",
          "ticks": 5513,
          "time": 59.92391304347826,
          "velocity": 0.11811023622047244
        },
        {
          "duration": 0.021739130434781373,
          "durationTicks": 2,
          "midi": 47,
          "name": "B2",
          "ticks": 5515,
          "time": 59.94565217391305,
          "velocity": 0.4094488188976378
        },
        {
          "duration": 0.03260869565217206,
          "durationTicks": 3,
          "midi": 55,
          "name": "G3",
          "ticks": 5515,
          "time": 59.94565217391305,
          "velocity": 0.41732283464566927
        },
        {
          "duration": 0.021739130434781373,
          "durationTicks": 2,
          "midi": 54,
          "name": "F#3",
          "ticks": 5518,
          "time": 59.97826086956522,
          "velocity": 0.25984251968503935
        },
        {
          "duration": 0.021739130434781373,
          "durationTicks": 2,
          "midi": 36,
          "name": "C2",
          "ticks": 5520,
          "time": 60,
          "velocity": 0.36220472440944884
        },
        {
          "duration": 0.30434782608696054,
          "durationTicks": 28,
          "midi": 65,
          "name": "F4",
          "ticks": 5521,
          "time": 60.01086956521739,
          "velocity": 0.5511811023622047
        },
        {
          "duration": 0.021739130434781373,
          "durationTicks": 2,
          "midi": 85,
          "name": "C#6",
          "ticks": 5521,
          "time": 60.01086956521739,
          "velocity": 0.33858267716535434
        },
        {
          "duration": 0.29347826086956275,
          "durationTicks": 27,
          "midi": 89,
          "name": "F6",
          "ticks": 5521,
          "time": 60.01086956521739,
          "velocity": 0.4015748031496063
        },
        {
          "duration": 0.03260869565217206,
          "durationTicks": 3,
          "midi": 93,
          "name": "A6",
          "ticks": 5521,
          "time": 60.01086956521739,
          "velocity": 0.1732283464566929
        },
        {
          "duration": 0.04347826086956985,
          "durationTicks": 4,
          "midi": 72,
          "name": "C5",
          "ticks": 5522,
          "time": 60.02173913043478,
          "velocity": 0.2125984251968504
        },
        {
          "duration": 0.032608695652179165,
          "durationTicks": 3,
          "midi": 46,
          "name": "A#2",
          "ticks": 5523,
          "time": 60.03260869565217,
          "velocity": 0.44881889763779526
        },
        {
          "duration": 0.021739130434781373,
          "durationTicks": 2,
          "midi": 54,
          "name": "F#3",
          "ticks": 5523,
          "time": 60.03260869565217,
          "velocity": 0.6220472440944882
        },
        {
          "duration": 0.28260869565217916,
          "durationTicks": 26,
          "midi": 84,
          "name": "C6",
          "ticks": 5523,
          "time": 60.03260869565217,
          "velocity": 0.4409448818897638
        },
        {
          "duration": 0.02173913043478848,
          "durationTicks": 2,
          "midi": 31,
          "name": "G1",
          "ticks": 5524,
          "time": 60.04347826086956,
          "velocity": 0.25984251968503935
        },
        {
          "duration": 0.28260869565217916,
          "durationTicks": 26,
          "midi": 53,
          "name": "F3",
          "ticks": 5525,
          "time": 60.05434782608695,
          "velocity": 0.5669291338582677
        },
        {
          "duration": 0.18478260869564878,
          "durationTicks": 17,
          "midi": 93,
          "name": "A6",
          "ticks": 5526,
          "time": 60.06521739130435,
          "velocity": 0.1889763779527559
        },
        {
          "duration": 0.08695652173912549,
          "durationTicks": 8,
          "midi": 41,
          "name": "F2",
          "ticks": 5527,
          "time": 60.07608695652174,
          "velocity": 0.4015748031496063
        },
        {
          "duration": 0.14130434782608603,
          "durationTicks": 13,
          "midi": 69,
          "name": "A4",
          "ticks": 5530,
          "time": 60.108695652173914,
          "velocity": 0.15748031496062992
        },
        {
          "duration": 0.1739130434782652,
          "durationTicks": 16,
          "midi": 41,
          "name": "F2",
          "ticks": 5536,
          "time": 60.17391304347826,
          "velocity": 0.4094488188976378
        },
        {
          "duration": 0.010869565217390686,
          "durationTicks": 1,
          "midi": 58,
          "name": "A#3",
          "ticks": 5550,
          "time": 60.32608695652174,
          "velocity": 0.5590551181102362
        },
        {
          "duration": 0.15217391304347672,
          "durationTicks": 14,
          "midi": 81,
          "name": "A5",
          "ticks": 5550,
          "time": 60.32608695652174,
          "velocity": 0.1889763779527559
        },
        {
          "duration": 0.3369565217391255,
          "durationTicks": 31,
          "midi": 84,
          "name": "C6",
          "ticks": 5550,
          "time": 60.32608695652174,
          "velocity": 0.33858267716535434
        },
        {
          "duration": 0.13043478260869534,
          "durationTicks": 12,
          "midi": 93,
          "name": "A6",
          "ticks": 5550,
          "time": 60.32608695652174,
          "velocity": 0.2125984251968504
        },
        {
          "duration": 0.010869565217390686,
          "durationTicks": 1,
          "midi": 57,
          "name": "A3",
          "ticks": 5551,
          "time": 60.33695652173913,
          "velocity": 0.6692913385826772
        },
        {
          "duration": 0.021739130434781373,
          "durationTicks": 2,
          "midi": 68,
          "name": "G#4",
          "ticks": 5551,
          "time": 60.33695652173913,
          "velocity": 0.2283464566929134
        },
        {
          "duration": 0.3369565217391255,
          "durationTicks": 31,
          "midi": 72,
          "name": "C5",
          "ticks": 5551,
          "time": 60.33695652173913,
          "velocity": 0.25984251968503935
        },
        {
          "duration": 0.2391304347826093,
          "durationTicks": 22,
          "midi": 77,
          "name": "F5",
          "ticks": 5551,
          "time": 60.33695652173913,
          "velocity": 0.30708661417322836
        },
        {
          "duration": 0.03260869565217206,
          "durationTicks": 3,
          "midi": 42,
          "name": "F#2",
          "ticks": 5552,
          "time": 60.34782608695652,
          "velocity": 0.29133858267716534
        },
        {
          "duration": 0.010869565217390686,
          "durationTicks": 1,
          "midi": 56,
          "name": "G#3",
          "ticks": 5552,
          "time": 60.34782608695652,
          "velocity": 0.6929133858267716
        },
        {
          "duration": 0.13043478260869534,
          "durationTicks": 12,
          "midi": 65,
          "name": "F4",
          "ticks": 5552,
          "time": 60.34782608695652,
          "velocity": 0.33858267716535434
        },
        {
          "duration": 0.010869565217390686,
          "durationTicks": 1,
          "midi": 57,
          "name": "A3",
          "ticks": 5553,
          "time": 60.358695652173914,
          "velocity": 0.6692913385826772
        },
        {
          "duration": 0.010869565217390686,
          "durationTicks": 1,
          "midi": 56,
          "name": "G#3",
          "ticks": 5554,
          "time": 60.369565217391305,
          "velocity": 0.6220472440944882
        },
        {
          "duration": 0.05434782608695343,
          "durationTicks": 5,
          "midi": 53,
          "name": "F3",
          "ticks": 5555,
          "time": 60.380434782608695,
          "velocity": 0.41732283464566927
        },
        {
          "duration": 0.07608695652174191,
          "durationTicks": 7,
          "midi": 57,
          "name": "A3",
          "ticks": 5555,
          "time": 60.380434782608695,
          "velocity": 0.4645669291338583
        },
        {
          "duration": 0.043478260869562746,
          "durationTicks": 4,
          "midi": 57,
          "name": "A3",
          "ticks": 5563,
          "time": 60.46739130434783,
          "velocity": 0.15748031496062992
        },
        {
          "duration": 0.15217391304347672,
          "durationTicks": 14,
          "midi": 60,
          "name": "C4",
          "ticks": 5566,
          "time": 60.5,
          "velocity": 0.5039370078740157
        },
        {
          "duration": 0.03260869565217206,
          "durationTicks": 3,
          "midi": 64,
          "name": "E4",
          "ticks": 5566,
          "time": 60.5,
          "velocity": 0.31496062992125984
        },
        {
          "duration": 0.03260869565217206,
          "durationTicks": 3,
          "midi": 54,
          "name": "F#3",
          "ticks": 5568,
          "time": 60.52173913043478,
          "velocity": 0.3700787401574803
        },
        {
          "duration": 0.1630434782608745,
          "durationTicks": 15,
          "midi": 65,
          "name": "F4",
          "ticks": 5569,
          "time": 60.53260869565217,
          "velocity": 0.48031496062992124
        },
        {
          "duration": 0.06521739130435122,
          "durationTicks": 6,
          "midi": 69,
          "name": "A4",
          "ticks": 5569,
          "time": 60.53260869565217,
          "velocity": 0.08661417322834646
        },
        {
          "duration": 0.04347826086956985,
          "durationTicks": 4,
          "midi": 46,
          "name": "A#2",
          "ticks": 5570,
          "time": 60.54347826086956,
          "velocity": 0.3700787401574803
        },
        {
          "duration": 0.032608695652179165,
          "durationTicks": 3,
          "midi": 55,
          "name": "G3",
          "ticks": 5571,
          "time": 60.55434782608695,
          "velocity": 0.25196850393700787
        },
        {
          "duration": 0.03260869565217206,
          "durationTicks": 3,
          "midi": 47,
          "name": "B2",
          "ticks": 5574,
          "time": 60.58695652173913,
          "velocity": 0.2755905511811024
        },
        {
          "duration": 0.021739130434781373,
          "durationTicks": 2,
          "midi": 56,
          "name": "G#3",
          "ticks": 5577,
          "time": 60.619565217391305,
          "velocity": 0.2283464566929134
        },
        {
          "duration": 0.03260869565217206,
          "durationTicks": 3,
          "midi": 47,
          "name": "B2",
          "ticks": 5580,
          "time": 60.65217391304348,
          "velocity": 0.47244094488188976
        },
        {
          "duration": 0.05434782608696054,
          "durationTicks": 5,
          "midi": 55,
          "name": "G3",
          "ticks": 5581,
          "time": 60.66304347826087,
          "velocity": 0.3779527559055118
        },
        {
          "duration": 0.14130434782608603,
          "durationTicks": 13,
          "midi": 60,
          "name": "C4",
          "ticks": 5581,
          "time": 60.66304347826087,
          "velocity": 0.23622047244094488
        },
        {
          "duration": 0.13043478260870245,
          "durationTicks": 12,
          "midi": 48,
          "name": "C3",
          "ticks": 5583,
          "time": 60.68478260869565,
          "velocity": 0.49606299212598426
        },
        {
          "duration": 0.03260869565217206,
          "durationTicks": 3,
          "midi": 35,
          "name": "B1",
          "ticks": 5584,
          "time": 60.69565217391305,
          "velocity": 0.4330708661417323
        },
        {
          "duration": 0.021739130434781373,
          "durationTicks": 2,
          "midi": 36,
          "name": "C2",
          "ticks": 5587,
          "time": 60.72826086956522,
          "velocity": 0.4330708661417323
        },
        {
          "duration": 0.021739130434781373,
          "durationTicks": 2,
          "midi": 55,
          "name": "G3",
          "ticks": 5587,
          "time": 60.72826086956522,
          "velocity": 0.2440944881889764
        },
        {
          "duration": 0.13043478260869534,
          "durationTicks": 12,
          "midi": 36,
          "name": "C2",
          "ticks": 5590,
          "time": 60.76086956521739,
          "velocity": 0.44881889763779526
        },
        {
          "duration": 0.02173913043478848,
          "durationTicks": 2,
          "midi": 66,
          "name": "F#4",
          "ticks": 5594,
          "time": 60.80434782608695,
          "velocity": 0.36220472440944884
        },
        {
          "duration": 0.13043478260869534,
          "durationTicks": 12,
          "midi": 84,
          "name": "C6",
          "ticks": 5595,
          "time": 60.81521739130435,
          "velocity": 0.3779527559055118
        },
        {
          "duration": 0.08695652173912549,
          "durationTicks": 8,
          "midi": 89,
          "name": "F6",
          "ticks": 5595,
          "time": 60.81521739130435,
          "velocity": 0.13385826771653545
        },
        {
          "duration": 0.10869565217390686,
          "durationTicks": 10,
          "midi": 65,
          "name": "F4",
          "ticks": 5596,
          "time": 60.82608695652174,
          "velocity": 0.5196850393700787
        },
        {
          "duration": 0.0760869565217348,
          "durationTicks": 7,
          "midi": 74,
          "name": "D5",
          "ticks": 5598,
          "time": 60.84782608695652,
          "velocity": 0.09448818897637795
        },
        {
          "duration": 0.021739130434781373,
          "durationTicks": 2,
          "midi": 57,
          "name": "A3",
          "ticks": 5599,
          "time": 60.858695652173914,
          "velocity": 0.4881889763779528
        },
        {
          "duration": 0.03260869565217206,
          "durationTicks": 3,
          "midi": 56,
          "name": "G#3",
          "ticks": 5601,
          "time": 60.880434782608695,
          "velocity": 0.4645669291338583
        },
        {
          "duration": 0.021739130434781373,
          "durationTicks": 2,
          "midi": 48,
          "name": "C3",
          "ticks": 5602,
          "time": 60.891304347826086,
          "velocity": 0.3228346456692913
        },
        {
          "duration": 0.043478260869562746,
          "durationTicks": 4,
          "midi": 60,
          "name": "C4",
          "ticks": 5602,
          "time": 60.891304347826086,
          "velocity": 0.3464566929133858
        },
        {
          "duration": 0.021739130434781373,
          "durationTicks": 2,
          "midi": 36,
          "name": "C2",
          "ticks": 5603,
          "time": 60.90217391304348,
          "velocity": 0.4015748031496063
        },
        {
          "duration": 0.021739130434781373,
          "durationTicks": 2,
          "midi": 47,
          "name": "B2",
          "ticks": 5604,
          "time": 60.91304347826087,
          "velocity": 0.3700787401574803
        },
        {
          "duration": 0.02173913043478848,
          "durationTicks": 2,
          "midi": 64,
          "name": "E4",
          "ticks": 5606,
          "time": 60.93478260869565,
          "velocity": 0.23622047244094488
        },
        {
          "duration": 0.1739130434782581,
          "durationTicks": 16,
          "midi": 57,
          "name": "A3",
          "ticks": 5607,
          "time": 60.94565217391305,
          "velocity": 0.5669291338582677
        },
        {
          "duration": 0.19565217391303946,
          "durationTicks": 18,
          "midi": 65,
          "name": "F4",
          "ticks": 5608,
          "time": 60.95652173913044,
          "velocity": 0.3779527559055118
        },
        {
          "duration": 0.08695652173912549,
          "durationTicks": 8,
          "midi": 84,
          "name": "C6",
          "ticks": 5608,
          "time": 60.95652173913044,
          "velocity": 0.2755905511811024
        },
        {
          "duration": 0.021739130434781373,
          "durationTicks": 2,
          "midi": 48,
          "name": "C3",
          "ticks": 5609,
          "time": 60.96739130434783,
          "velocity": 0.3779527559055118
        },
        {
          "duration": 0.043478260869562746,
          "durationTicks": 4,
          "midi": 48,
          "name": "C3",
          "ticks": 5612,
          "time": 61,
          "velocity": 0.2755905511811024
        },
        {
          "duration": 0.0869565217391326,
          "durationTicks": 8,
          "midi": 84,
          "name": "C6",
          "ticks": 5622,
          "time": 61.108695652173914,
          "velocity": 0.33858267716535434
        },
        {
          "duration": 0.06521739130434412,
          "durationTicks": 6,
          "midi": 56,
          "name": "G#3",
          "ticks": 5623,
          "time": 61.119565217391305,
          "velocity": 0.3937007874015748
        },
        {
          "duration": 0.09782608695652328,
          "durationTicks": 9,
          "midi": 69,
          "name": "A4",
          "ticks": 5626,
          "time": 61.15217391304348,
          "velocity": 0.14960629921259844
        },
        {
          "duration": 0.021739130434781373,
          "durationTicks": 2,
          "midi": 34,
          "name": "A#1",
          "ticks": 5627,
          "time": 61.16304347826087,
          "velocity": 0.2440944881889764
        },
        {
          "duration": 0.7282608695652186,
          "durationTicks": 67,
          "midi": 65,
          "name": "F4",
          "ticks": 5627,
          "time": 61.16304347826087,
          "velocity": 0.5118110236220472
        },
        {
          "duration": 0.04347826086956985,
          "durationTicks": 4,
          "midi": 57,
          "name": "A3",
          "ticks": 5629,
          "time": 61.18478260869565,
          "velocity": 0.2992125984251969
        },
        {
          "duration": 0.021739130434781373,
          "durationTicks": 2,
          "midi": 34,
          "name": "A#1",
          "ticks": 5631,
          "time": 61.20652173913044,
          "velocity": 0.28346456692913385
        },
        {
          "duration": 0.03260869565217206,
          "durationTicks": 3,
          "midi": 60,
          "name": "C4",
          "ticks": 5633,
          "time": 61.22826086956522,
          "velocity": 0.1732283464566929
        },
        {
          "duration": 0.05434782608695343,
          "durationTicks": 5,
          "midi": 93,
          "name": "A6",
          "ticks": 5633,
          "time": 61.22826086956522,
          "velocity": 0.10236220472440945
        },
        {
          "duration": 0.15217391304347672,
          "durationTicks": 14,
          "midi": 84,
          "name": "C6",
          "ticks": 5635,
          "time": 61.25,
          "velocity": 0.2125984251968504
        },
        {
          "duration": 0.021739130434781373,
          "durationTicks": 2,
          "midi": 38,
          "name": "D2",
          "ticks": 5637,
          "time": 61.27173913043478,
          "velocity": 0.41732283464566927
        },
        {
          "duration": 0.021739130434781373,
          "durationTicks": 2,
          "midi": 54,
          "name": "F#3",
          "ticks": 5637,
          "time": 61.27173913043478,
          "velocity": 0.5433070866141733
        },
        {
          "duration": 0.29347826086956985,
          "durationTicks": 27,
          "midi": 41,
          "name": "F2",
          "ticks": 5639,
          "time": 61.29347826086956,
          "velocity": 0.5275590551181102
        },
        {
          "duration": 0.11956521739130466,
          "durationTicks": 11,
          "midi": 84,
          "name": "C6",
          "ticks": 5652,
          "time": 61.43478260869565,
          "velocity": 0.23622047244094488
        },
        {
          "duration": 0.21739130434782084,
          "durationTicks": 20,
          "midi": 72,
          "name": "C5",
          "ticks": 5664,
          "time": 61.56521739130435,
          "velocity": 0.25196850393700787
        },
        {
          "duration": 0.021739130434781373,
          "durationTicks": 2,
          "midi": 60,
          "name": "C4",
          "ticks": 5665,
          "time": 61.57608695652174,
          "velocity": 0.25984251968503935
        },
        {
          "duration": 0.13043478260869534,
          "durationTicks": 12,
          "midi": 81,
          "name": "A5",
          "ticks": 5665,
          "time": 61.57608695652174,
          "velocity": 0.23622047244094488
        },
        {
          "duration": 0.15217391304347672,
          "durationTicks": 14,
          "midi": 69,
          "name": "A4",
          "ticks": 5666,
          "time": 61.58695652173913,
          "velocity": 0.2992125984251969
        },
        {
          "duration": 0.043478260869562746,
          "durationTicks": 4,
          "midi": 91,
          "name": "G6",
          "ticks": 5668,
          "time": 61.608695652173914,
          "velocity": 0.08661417322834646
        },
        {
          "duration": 0.11956521739130466,
          "durationTicks": 11,
          "midi": 57,
          "name": "A3",
          "ticks": 5671,
          "time": 61.641304347826086,
          "velocity": 0.41732283464566927
        },
        {
          "duration": 0.021739130434781373,
          "durationTicks": 2,
          "midi": 29,
          "name": "F1",
          "ticks": 5682,
          "time": 61.76086956521739,
          "velocity": 0.2677165354330709
        },
        {
          "duration": 0.02173913043478848,
          "durationTicks": 2,
          "midi": 56,
          "name": "G#3",
          "ticks": 5686,
          "time": 61.80434782608695,
          "velocity": 0.2677165354330709
        },
        {
          "duration": 0.043478260869562746,
          "durationTicks": 4,
          "midi": 47,
          "name": "B2",
          "ticks": 5691,
          "time": 61.858695652173914,
          "velocity": 0.48031496062992124
        },
        {
          "duration": 0.11956521739130466,
          "durationTicks": 11,
          "midi": 72,
          "name": "C5",
          "ticks": 5691,
          "time": 61.858695652173914,
          "velocity": 0.31496062992125984
        },
        {
          "duration": 0.05434782608695343,
          "durationTicks": 5,
          "midi": 55,
          "name": "G3",
          "ticks": 5692,
          "time": 61.869565217391305,
          "velocity": 0.5118110236220472
        },
        {
          "duration": 0.4891304347826093,
          "durationTicks": 45,
          "midi": 84,
          "name": "C6",
          "ticks": 5692,
          "time": 61.869565217391305,
          "velocity": 0.4251968503937008
        },
        {
          "duration": 0.021739130434781373,
          "durationTicks": 2,
          "midi": 70,
          "name": "A#4",
          "ticks": 5693,
          "time": 61.880434782608695,
          "velocity": 0.25984251968503935
        },
        {
          "duration": 0.13043478260869534,
          "durationTicks": 12,
          "midi": 100,
          "name": "E7",
          "ticks": 5693,
          "time": 61.880434782608695,
          "velocity": 0.25196850393700787
        },
        {
          "duration": 0.06521739130435122,
          "durationTicks": 6,
          "midi": 91,
          "name": "G6",
          "ticks": 5695,
          "time": 61.90217391304348,
          "velocity": 0.14173228346456693
        },
        {
          "duration": 0.021739130434781373,
          "durationTicks": 2,
          "midi": 60,
          "name": "C4",
          "ticks": 5696,
          "time": 61.91304347826087,
          "velocity": 0.25196850393700787
        },
        {
          "duration": 0.1630434782608745,
          "durationTicks": 15,
          "midi": 48,
          "name": "C3",
          "ticks": 5698,
          "time": 61.93478260869565,
          "velocity": 0.4015748031496063
        },
        {
          "duration": 0.010869565217390686,
          "durationTicks": 1,
          "midi": 36,
          "name": "C2",
          "ticks": 5699,
          "time": 61.94565217391305,
          "velocity": 0.5196850393700787
        },
        {
          "duration": 0.021739130434781373,
          "durationTicks": 2,
          "midi": 35,
          "name": "B1",
          "ticks": 5700,
          "time": 61.95652173913044,
          "velocity": 0.5039370078740157
        },
        {
          "duration": 0.11956521739130466,
          "durationTicks": 11,
          "midi": 55,
          "name": "G3",
          "ticks": 5701,
          "time": 61.96739130434783,
          "velocity": 0.2677165354330709
        },
        {
          "duration": 0.021739130434781373,
          "durationTicks": 2,
          "midi": 36,
          "name": "C2",
          "ticks": 5702,
          "time": 61.97826086956522,
          "velocity": 0.49606299212598426
        },
        {
          "duration": 0.1739130434782581,
          "durationTicks": 16,
          "midi": 72,
          "name": "C5",
          "ticks": 5704,
          "time": 62,
          "velocity": 0.2047244094488189
        },
        {
          "duration": 0.20652173913043725,
          "durationTicks": 19,
          "midi": 36,
          "name": "C2",
          "ticks": 5705,
          "time": 62.01086956521739,
          "velocity": 0.5039370078740157
        },
        {
          "duration": 0.13043478260869534,
          "durationTicks": 12,
          "midi": 65,
          "name": "F4",
          "ticks": 5710,
          "time": 62.06521739130435,
          "velocity": 0.33070866141732286
        },
        {
          "duration": 0.021739130434781373,
          "durationTicks": 2,
          "midi": 58,
          "name": "A#3",
          "ticks": 5713,
          "time": 62.09782608695652,
          "velocity": 0.3858267716535433
        },
        {
          "duration": 0.2717391304347814,
          "durationTicks": 25,
          "midi": 69,
          "name": "A4",
          "ticks": 5713,
          "time": 62.09782608695652,
          "velocity": 0.44881889763779526
        },
        {
          "duration": 0.19565217391303946,
          "durationTicks": 18,
          "midi": 93,
          "name": "A6",
          "ticks": 5713,
          "time": 62.09782608695652,
          "velocity": 0.25984251968503935
        },
        {
          "duration": 0.05434782608695343,
          "durationTicks": 5,
          "midi": 88,
          "name": "E6",
          "ticks": 5715,
          "time": 62.119565217391305,
          "velocity": 0.12598425196850394
        },
        {
          "duration": 0.2608695652173907,
          "durationTicks": 24,
          "midi": 57,
          "name": "A3",
          "ticks": 5717,
          "time": 62.141304347826086,
          "velocity": 0.6220472440944882
        },
        {
          "duration": 0.03260869565217206,
          "durationTicks": 3,
          "midi": 64,
          "name": "E4",
          "ticks": 5722,
          "time": 62.19565217391305,
          "velocity": 0.2992125984251969
        },
        {
          "duration": 0.2608695652173907,
          "durationTicks": 24,
          "midi": 77,
          "name": "F5",
          "ticks": 5722,
          "time": 62.19565217391305,
          "velocity": 0.28346456692913385
        },
        {
          "duration": 0.021739130434781373,
          "durationTicks": 2,
          "midi": 49,
          "name": "C#3",
          "ticks": 5723,
          "time": 62.20652173913044,
          "velocity": 0.2992125984251969
        },
        {
          "duration": 0.1739130434782581,
          "durationTicks": 16,
          "midi": 72,
          "name": "C5",
          "ticks": 5724,
          "time": 62.21739130434783,
          "velocity": 0.2125984251968504
        },
        {
          "duration": 0.03260869565217206,
          "durationTicks": 3,
          "midi": 88,
          "name": "E6",
          "ticks": 5724,
          "time": 62.21739130434783,
          "velocity": 0.08661417322834646
        },
        {
          "duration": 0.05434782608695343,
          "durationTicks": 5,
          "midi": 65,
          "name": "F4",
          "ticks": 5725,
          "time": 62.22826086956522,
          "velocity": 0.4330708661417323
        },
        {
          "duration": 0.021739130434781373,
          "durationTicks": 2,
          "midi": 34,
          "name": "A#1",
          "ticks": 5728,
          "time": 62.26086956521739,
          "velocity": 0.23622047244094488
        },
        {
          "duration": 0.032608695652179165,
          "durationTicks": 3,
          "midi": 37,
          "name": "C#2",
          "ticks": 5731,
          "time": 62.29347826086956,
          "velocity": 0.28346456692913385
        },
        {
          "duration": 0.21739130434782794,
          "durationTicks": 20,
          "midi": 65,
          "name": "F4",
          "ticks": 5732,
          "time": 62.30434782608695,
          "velocity": 0.3228346456692913
        },
        {
          "duration": 0.021739130434781373,
          "durationTicks": 2,
          "midi": 36,
          "name": "C2",
          "ticks": 5735,
          "time": 62.33695652173913,
          "velocity": 0.33070866141732286
        },
        {
          "duration": 0.021739130434781373,
          "durationTicks": 2,
          "midi": 47,
          "name": "B2",
          "ticks": 5742,
          "time": 62.41304347826087,
          "velocity": 0.4330708661417323
        },
        {
          "duration": 0.05434782608696054,
          "durationTicks": 5,
          "midi": 57,
          "name": "A3",
          "ticks": 5742,
          "time": 62.41304347826087,
          "velocity": 0.3700787401574803
        },
        {
          "duration": 0.021739130434781373,
          "durationTicks": 2,
          "midi": 31,
          "name": "G1",
          "ticks": 5747,
          "time": 62.46739130434783,
          "velocity": 0.28346456692913385
        },
        {
          "duration": 0.021739130434781373,
          "durationTicks": 2,
          "midi": 47,
          "name": "B2",
          "ticks": 5748,
          "time": 62.47826086956522,
          "velocity": 0.33070866141732286
        },
        {
          "duration": 0.021739130434781373,
          "durationTicks": 2,
          "midi": 57,
          "name": "A3",
          "ticks": 5748,
          "time": 62.47826086956522,
          "velocity": 0.25984251968503935
        },
        {
          "duration": 0.043478260869562746,
          "durationTicks": 4,
          "midi": 58,
          "name": "A#3",
          "ticks": 5750,
          "time": 62.5,
          "velocity": 0.29133858267716534
        },
        {
          "duration": 0.2717391304347814,
          "durationTicks": 25,
          "midi": 86,
          "name": "D6",
          "ticks": 5751,
          "time": 62.51086956521739,
          "velocity": 0.5275590551181102
        },
        {
          "duration": 0.0869565217391326,
          "durationTicks": 8,
          "midi": 91,
          "name": "G6",
          "ticks": 5751,
          "time": 62.51086956521739,
          "velocity": 0.23622047244094488
        },
        {
          "duration": 0.25,
          "durationTicks": 23,
          "midi": 67,
          "name": "G4",
          "ticks": 5752,
          "time": 62.52173913043478,
          "velocity": 0.5354330708661418
        },
        {
          "duration": 0.02173913043478848,
          "durationTicks": 2,
          "midi": 30,
          "name": "F#1",
          "ticks": 5755,
          "time": 62.55434782608695,
          "velocity": 0.4409448818897638
        },
        {
          "duration": 0.09782608695652328,
          "durationTicks": 9,
          "midi": 46,
          "name": "A#2",
          "ticks": 5755,
          "time": 62.55434782608695,
          "velocity": 0.4881889763779528
        },
        {
          "duration": 0.021739130434781373,
          "durationTicks": 2,
          "midi": 35,
          "name": "B1",
          "ticks": 5758,
          "time": 62.58695652173913,
          "velocity": 0.41732283464566927
        },
        {
          "duration": 0.021739130434781373,
          "durationTicks": 2,
          "midi": 35,
          "name": "B1",
          "ticks": 5762,
          "time": 62.630434782608695,
          "velocity": 0.44881889763779526
        },
        {
          "duration": 0.11956521739130466,
          "durationTicks": 11,
          "midi": 34,
          "name": "A#1",
          "ticks": 5764,
          "time": 62.65217391304348,
          "velocity": 0.4645669291338583
        },
        {
          "duration": 0.043478260869562746,
          "durationTicks": 4,
          "midi": 58,
          "name": "A#3",
          "ticks": 5770,
          "time": 62.71739130434783,
          "velocity": 0.15748031496062992
        },
        {
          "duration": 0.021739130434781373,
          "durationTicks": 2,
          "midi": 66,
          "name": "F#4",
          "ticks": 5775,
          "time": 62.77173913043478,
          "velocity": 0.2283464566929134
        },
        {
          "duration": 0.04347826086956985,
          "durationTicks": 4,
          "midi": 67,
          "name": "G4",
          "ticks": 5777,
          "time": 62.79347826086956,
          "velocity": 0.3543307086614173
        },
        {
          "duration": 0.010869565217397792,
          "durationTicks": 1,
          "midi": 36,
          "name": "C2",
          "ticks": 5778,
          "time": 62.80434782608695,
          "velocity": 0.5196850393700787
        },
        {
          "duration": 0.010869565217390686,
          "durationTicks": 1,
          "midi": 34,
          "name": "A#1",
          "ticks": 5780,
          "time": 62.82608695652174,
          "velocity": 0.5118110236220472
        },
        {
          "duration": 0.09782608695651618,
          "durationTicks": 9,
          "midi": 74,
          "name": "D5",
          "ticks": 5780,
          "time": 62.82608695652174,
          "velocity": 0.2283464566929134
        },
        {
          "duration": 0.021739130434781373,
          "durationTicks": 2,
          "midi": 35,
          "name": "B1",
          "ticks": 5781,
          "time": 62.83695652173913,
          "velocity": 0.5118110236220472
        },
        {
          "duration": 0.021739130434781373,
          "durationTicks": 2,
          "midi": 52,
          "name": "E3",
          "ticks": 5781,
          "time": 62.83695652173913,
          "velocity": 0.41732283464566927
        },
        {
          "duration": 0.021739130434781373,
          "durationTicks": 2,
          "midi": 58,
          "name": "A#3",
          "ticks": 5781,
          "time": 62.83695652173913,
          "velocity": 0.41732283464566927
        },
        {
          "duration": 0.18478260869564878,
          "durationTicks": 17,
          "midi": 65,
          "name": "F4",
          "ticks": 5781,
          "time": 62.83695652173913,
          "velocity": 0.4645669291338583
        },
        {
          "duration": 0.043478260869562746,
          "durationTicks": 4,
          "midi": 84,
          "name": "C6",
          "ticks": 5781,
          "time": 62.83695652173913,
          "velocity": 0.11023622047244094
        },
        {
          "duration": 0.043478260869562746,
          "durationTicks": 4,
          "midi": 46,
          "name": "A#2",
          "ticks": 5782,
          "time": 62.84782608695652,
          "velocity": 0.4015748031496063
        },
        {
          "duration": 0.18478260869564878,
          "durationTicks": 17,
          "midi": 62,
          "name": "D4",
          "ticks": 5782,
          "time": 62.84782608695652,
          "velocity": 0.41732283464566927
        },
        {
          "duration": 0.1739130434782581,
          "durationTicks": 16,
          "midi": 82,
          "name": "A#5",
          "ticks": 5782,
          "time": 62.84782608695652,
          "velocity": 0.3228346456692913
        },
        {
          "duration": 0.021739130434781373,
          "durationTicks": 2,
          "midi": 34,
          "name": "A#1",
          "ticks": 5783,
          "time": 62.858695652173914,
          "velocity": 0.3779527559055118
        },
        {
          "duration": 0.021739130434781373,
          "durationTicks": 2,
          "midi": 53,
          "name": "F3",
          "ticks": 5784,
          "time": 62.869565217391305,
          "velocity": 0.33070866141732286
        },
        {
          "duration": 0.021739130434781373,
          "durationTicks": 2,
          "midi": 57,
          "name": "A3",
          "ticks": 5784,
          "time": 62.869565217391305,
          "velocity": 0.4094488188976378
        },
        {
          "duration": 0.07608695652174191,
          "durationTicks": 7,
          "midi": 58,
          "name": "A#3",
          "ticks": 5786,
          "time": 62.891304347826086,
          "velocity": 0.2992125984251969
        },
        {
          "duration": 0.021739130434781373,
          "durationTicks": 2,
          "midi": 54,
          "name": "F#3",
          "ticks": 5787,
          "time": 62.90217391304348,
          "velocity": 0.2992125984251969
        },
        {
          "duration": 0.02173913043478848,
          "durationTicks": 2,
          "midi": 33,
          "name": "A1",
          "ticks": 5789,
          "time": 62.92391304347826,
          "velocity": 0.28346456692913385
        },
        {
          "duration": 0.04347826086956985,
          "durationTicks": 4,
          "midi": 53,
          "name": "F3",
          "ticks": 5789,
          "time": 62.92391304347826,
          "velocity": 0.2204724409448819
        },
        {
          "duration": 0.021739130434781373,
          "durationTicks": 2,
          "midi": 37,
          "name": "C#2",
          "ticks": 5791,
          "time": 62.94565217391305,
          "velocity": 0.2283464566929134
        },
        {
          "duration": 0.021739130434781373,
          "durationTicks": 2,
          "midi": 53,
          "name": "F3",
          "ticks": 5797,
          "time": 63.01086956521739,
          "velocity": 0.29133858267716534
        },
        {
          "duration": 0.14130434782608603,
          "durationTicks": 13,
          "midi": 86,
          "name": "D6",
          "ticks": 5798,
          "time": 63.02173913043478,
          "velocity": 0.3937007874015748
        },
        {
          "duration": 0.21739130434782794,
          "durationTicks": 20,
          "midi": 67,
          "name": "G4",
          "ticks": 5799,
          "time": 63.03260869565217,
          "velocity": 0.5039370078740157
        },
        {
          "duration": 0.05434782608696054,
          "durationTicks": 5,
          "midi": 95,
          "name": "B6",
          "ticks": 5799,
          "time": 63.03260869565217,
          "velocity": 0.12598425196850394
        },
        {
          "duration": 0.02173913043478848,
          "durationTicks": 2,
          "midi": 55,
          "name": "G3",
          "ticks": 5800,
          "time": 63.04347826086956,
          "velocity": 0.5669291338582677
        },
        {
          "duration": 0.06521739130435122,
          "durationTicks": 6,
          "midi": 101,
          "name": "F7",
          "ticks": 5800,
          "time": 63.04347826086956,
          "velocity": 0.10236220472440945
        },
        {
          "duration": 0.13043478260869534,
          "durationTicks": 12,
          "midi": 70,
          "name": "A#4",
          "ticks": 5801,
          "time": 63.05434782608695,
          "velocity": 0.16535433070866143
        },
        {
          "duration": 0.010869565217390686,
          "durationTicks": 1,
          "midi": 54,
          "name": "F#3",
          "ticks": 5802,
          "time": 63.06521739130435,
          "velocity": 0.5590551181102362
        },
        {
          "duration": 0.021739130434781373,
          "durationTicks": 2,
          "midi": 55,
          "name": "G3",
          "ticks": 5803,
          "time": 63.07608695652174,
          "velocity": 0.4881889763779528
        },
        {
          "duration": 0.03260869565217206,
          "durationTicks": 3,
          "midi": 46,
          "name": "A#2",
          "ticks": 5804,
          "time": 63.08695652173913,
          "velocity": 0.2047244094488189
        },
        {
          "duration": 0.06521739130434412,
          "durationTicks": 6,
          "midi": 62,
          "name": "D4",
          "ticks": 5806,
          "time": 63.108695652173914,
          "velocity": 0.1732283464566929
        },
        {
          "duration": 0.021739130434781373,
          "durationTicks": 2,
          "midi": 52,
          "name": "E3",
          "ticks": 5808,
          "time": 63.130434782608695,
          "velocity": 0.3228346456692913
        },
        {
          "duration": 0.021739130434781373,
          "durationTicks": 2,
          "midi": 51,
          "name": "D#3",
          "ticks": 5810,
          "time": 63.15217391304348,
          "velocity": 0.3543307086614173
        },
        {
          "duration": 0.02173913043478848,
          "durationTicks": 2,
          "midi": 54,
          "name": "F#3",
          "ticks": 5812,
          "time": 63.17391304347826,
          "velocity": 0.3543307086614173
        },
        {
          "duration": 0.010869565217397792,
          "durationTicks": 1,
          "midi": 39,
          "name": "D#2",
          "ticks": 5813,
          "time": 63.18478260869565,
          "velocity": 0.5196850393700787
        },
        {
          "duration": 0.010869565217390686,
          "durationTicks": 1,
          "midi": 42,
          "name": "F#2",
          "ticks": 5814,
          "time": 63.19565217391305,
          "velocity": 0.5511811023622047
        },
        {
          "duration": 0.021739130434781373,
          "durationTicks": 2,
          "midi": 54,
          "name": "F#3",
          "ticks": 5815,
          "time": 63.20652173913044,
          "velocity": 0.4094488188976378
        },
        {
          "duration": 0.010869565217390686,
          "durationTicks": 1,
          "midi": 42,
          "name": "F#2",
          "ticks": 5817,
          "time": 63.22826086956522,
          "velocity": 0.5118110236220472
        },
        {
          "duration": 0.09782608695652328,
          "durationTicks": 9,
          "midi": 53,
          "name": "F3",
          "ticks": 5817,
          "time": 63.22826086956522,
          "velocity": 0.41732283464566927
        },
        {
          "duration": 0.021739130434781373,
          "durationTicks": 2,
          "midi": 40,
          "name": "E2",
          "ticks": 5818,
          "time": 63.23913043478261,
          "velocity": 0.48031496062992124
        },
        {
          "duration": 0.021739130434781373,
          "durationTicks": 2,
          "midi": 41,
          "name": "F2",
          "ticks": 5820,
          "time": 63.26086956521739,
          "velocity": 0.4881889763779528
        },
        {
          "duration": 0.02173913043478848,
          "durationTicks": 2,
          "midi": 41,
          "name": "F2",
          "ticks": 5823,
          "time": 63.29347826086956,
          "velocity": 0.47244094488188976
        },
        {
          "duration": 0.03260869565217206,
          "durationTicks": 3,
          "midi": 86,
          "name": "D6",
          "ticks": 5825,
          "time": 63.31521739130435,
          "velocity": 0.11811023622047244
        },
        {
          "duration": 0.1630434782608674,
          "durationTicks": 15,
          "midi": 89,
          "name": "F6",
          "ticks": 5825,
          "time": 63.31521739130435,
          "velocity": 0.30708661417322836
        },
        {
          "duration": 0.021739130434781373,
          "durationTicks": 2,
          "midi": 52,
          "name": "E3",
          "ticks": 5826,
          "time": 63.32608695652174,
          "velocity": 0.4015748031496063
        },
        {
          "duration": 0.11956521739130466,
          "durationTicks": 11,
          "midi": 65,
          "name": "F4",
          "ticks": 5826,
          "time": 63.32608695652174,
          "velocity": 0.5433070866141733
        },
        {
          "duration": 0.19565217391303946,
          "durationTicks": 18,
          "midi": 84,
          "name": "C6",
          "ticks": 5826,
          "time": 63.32608695652174,
          "velocity": 0.3228346456692913
        },
        {
          "duration": 0.021739130434781373,
          "durationTicks": 2,
          "midi": 41,
          "name": "F2",
          "ticks": 5828,
          "time": 63.34782608695652,
          "velocity": 0.4409448818897638
        },
        {
          "duration": 0.043478260869562746,
          "durationTicks": 4,
          "midi": 93,
          "name": "A6",
          "ticks": 5830,
          "time": 63.369565217391305,
          "velocity": 0.08661417322834646
        },
        {
          "duration": 0.021739130434781373,
          "durationTicks": 2,
          "midi": 41,
          "name": "F2",
          "ticks": 5831,
          "time": 63.380434782608695,
          "velocity": 0.44881889763779526
        },
        {
          "duration": 0.02173913043478848,
          "durationTicks": 2,
          "midi": 41,
          "name": "F2",
          "ticks": 5835,
          "time": 63.42391304347826,
          "velocity": 0.3937007874015748
        },
        {
          "duration": 0.14130434782609314,
          "durationTicks": 13,
          "midi": 70,
          "name": "A#4",
          "ticks": 5836,
          "time": 63.43478260869565,
          "velocity": 0.3779527559055118
        },
        {
          "duration": 0.03260869565217206,
          "durationTicks": 3,
          "midi": 56,
          "name": "G#3",
          "ticks": 5837,
          "time": 63.44565217391305,
          "velocity": 0.49606299212598426
        },
        {
          "duration": 0.021739130434781373,
          "durationTicks": 2,
          "midi": 64,
          "name": "E4",
          "ticks": 5837,
          "time": 63.44565217391305,
          "velocity": 0.3858267716535433
        },
        {
          "duration": 0.05434782608695343,
          "durationTicks": 5,
          "midi": 86,
          "name": "D6",
          "ticks": 5837,
          "time": 63.44565217391305,
          "velocity": 0.28346456692913385
        },
        {
          "duration": 0.13043478260869534,
          "durationTicks": 12,
          "midi": 74,
          "name": "D5",
          "ticks": 5838,
          "time": 63.45652173913044,
          "velocity": 0.2047244094488189
        },
        {
          "duration": 0.15217391304347672,
          "durationTicks": 14,
          "midi": 65,
          "name": "F4",
          "ticks": 5839,
          "time": 63.46739130434783,
          "velocity": 0.4645669291338583
        },
        {
          "duration": 0.021739130434781373,
          "durationTicks": 2,
          "midi": 42,
          "name": "F#2",
          "ticks": 5840,
          "time": 63.47826086956522,
          "velocity": 0.5433070866141733
        },
        {
          "duration": 0.021739130434781373,
          "durationTicks": 2,
          "midi": 41,
          "name": "F2",
          "ticks": 5842,
          "time": 63.5,
          "velocity": 0.4645669291338583
        },
        {
          "duration": 0.043478260869562746,
          "durationTicks": 4,
          "midi": 57,
          "name": "A3",
          "ticks": 5843,
          "time": 63.51086956521739,
          "velocity": 0.41732283464566927
        },
        {
          "duration": 0.02173913043478848,
          "durationTicks": 2,
          "midi": 58,
          "name": "A#3",
          "ticks": 5847,
          "time": 63.55434782608695,
          "velocity": 0.33858267716535434
        },
        {
          "duration": 0.05434782608695343,
          "durationTicks": 5,
          "midi": 62,
          "name": "D4",
          "ticks": 5848,
          "time": 63.56521739130435,
          "velocity": 0.2125984251968504
        },
        {
          "duration": 0.021739130434781373,
          "durationTicks": 2,
          "midi": 53,
          "name": "F3",
          "ticks": 5852,
          "time": 63.608695652173914,
          "velocity": 0.3779527559055118
        },
        {
          "duration": 0.0869565217391326,
          "durationTicks": 8,
          "midi": 67,
          "name": "G4",
          "ticks": 5853,
          "time": 63.619565217391305,
          "velocity": 0.5511811023622047
        },
        {
          "duration": 0.0869565217391326,
          "durationTicks": 8,
          "midi": 72,
          "name": "C5",
          "ticks": 5853,
          "time": 63.619565217391305,
          "velocity": 0.2283464566929134
        },
        {
          "duration": 0.1630434782608674,
          "durationTicks": 15,
          "midi": 86,
          "name": "D6",
          "ticks": 5853,
          "time": 63.619565217391305,
          "velocity": 0.5039370078740157
        },
        {
          "duration": 0.03260869565217206,
          "durationTicks": 3,
          "midi": 87,
          "name": "D#6",
          "ticks": 5853,
          "time": 63.619565217391305,
          "velocity": 0.14173228346456693
        },
        {
          "duration": 0.021739130434781373,
          "durationTicks": 2,
          "midi": 54,
          "name": "F#3",
          "ticks": 5854,
          "time": 63.630434782608695,
          "velocity": 0.44881889763779526
        },
        {
          "duration": 0.021739130434781373,
          "durationTicks": 2,
          "midi": 58,
          "name": "A#3",
          "ticks": 5855,
          "time": 63.641304347826086,
          "velocity": 0.2755905511811024
        },
        {
          "duration": 0.021739130434781373,
          "durationTicks": 2,
          "midi": 46,
          "name": "A#2",
          "ticks": 5857,
          "time": 63.66304347826087,
          "velocity": 0.3858267716535433
        },
        {
          "duration": 0.032608695652179165,
          "durationTicks": 3,
          "midi": 83,
          "name": "B5",
          "ticks": 5857,
          "time": 63.66304347826087,
          "velocity": 0.13385826771653545
        },
        {
          "duration": 0.021739130434781373,
          "durationTicks": 2,
          "midi": 69,
          "name": "A4",
          "ticks": 5860,
          "time": 63.69565217391305,
          "velocity": 0.4409448818897638
        },
        {
          "duration": 0.021739130434781373,
          "durationTicks": 2,
          "midi": 57,
          "name": "A3",
          "ticks": 5862,
          "time": 63.71739130434783,
          "velocity": 0.2755905511811024
        },
        {
          "duration": 0.08695652173912549,
          "durationTicks": 8,
          "midi": 88,
          "name": "E6",
          "ticks": 5862,
          "time": 63.71739130434783,
          "velocity": 0.09448818897637795
        },
        {
          "duration": 0.14130434782608603,
          "durationTicks": 13,
          "midi": 69,
          "name": "A4",
          "ticks": 5863,
          "time": 63.72826086956522,
          "velocity": 0.5039370078740157
        },
        {
          "duration": 0.043478260869562746,
          "durationTicks": 4,
          "midi": 60,
          "name": "C4",
          "ticks": 5865,
          "time": 63.75,
          "velocity": 0.2283464566929134
        },
        {
          "duration": 0.043478260869562746,
          "durationTicks": 4,
          "midi": 54,
          "name": "F#3",
          "ticks": 5866,
          "time": 63.76086956521739,
          "velocity": 0.4330708661417323
        },
        {
          "duration": 0.021739130434781373,
          "durationTicks": 2,
          "midi": 46,
          "name": "A#2",
          "ticks": 5867,
          "time": 63.77173913043478,
          "velocity": 0.36220472440944884
        },
        {
          "duration": 0.02173913043478848,
          "durationTicks": 2,
          "midi": 48,
          "name": "C3",
          "ticks": 5869,
          "time": 63.79347826086956,
          "velocity": 0.4566929133858268
        },
        {
          "duration": 0.032608695652179165,
          "durationTicks": 3,
          "midi": 55,
          "name": "G3",
          "ticks": 5870,
          "time": 63.80434782608695,
          "velocity": 0.3700787401574803
        },
        {
          "duration": 0.021739130434781373,
          "durationTicks": 2,
          "midi": 35,
          "name": "B1",
          "ticks": 5871,
          "time": 63.81521739130435,
          "velocity": 0.47244094488188976
        },
        {
          "duration": 0.021739130434781373,
          "durationTicks": 2,
          "midi": 37,
          "name": "C#2",
          "ticks": 5873,
          "time": 63.83695652173913,
          "velocity": 0.49606299212598426
        },
        {
          "duration": 0.03260869565217206,
          "durationTicks": 3,
          "midi": 55,
          "name": "G3",
          "ticks": 5874,
          "time": 63.84782608695652,
          "velocity": 0.2677165354330709
        },
        {
          "duration": 0.021739130434781373,
          "durationTicks": 2,
          "midi": 36,
          "name": "C2",
          "ticks": 5877,
          "time": 63.880434782608695,
          "velocity": 0.48031496062992124
        },
        {
          "duration": 0.05434782608696054,
          "durationTicks": 5,
          "midi": 55,
          "name": "G3",
          "ticks": 5878,
          "time": 63.891304347826086,
          "velocity": 0.29133858267716534
        },
        {
          "duration": 0.3369565217391326,
          "durationTicks": 31,
          "midi": 84,
          "name": "C6",
          "ticks": 5881,
          "time": 63.92391304347826,
          "velocity": 0.4645669291338583
        },
        {
          "duration": 0.10869565217391397,
          "durationTicks": 10,
          "midi": 36,
          "name": "C2",
          "ticks": 5882,
          "time": 63.93478260869565,
          "velocity": 0.4645669291338583
        },
        {
          "duration": 0.032608695652179165,
          "durationTicks": 3,
          "midi": 64,
          "name": "E4",
          "ticks": 5882,
          "time": 63.93478260869565,
          "velocity": 0.2440944881889764
        },
        {
          "duration": 0.3152173913043512,
          "durationTicks": 29,
          "midi": 72,
          "name": "C5",
          "ticks": 5882,
          "time": 63.93478260869565,
          "velocity": 0.4330708661417323
        },
        {
          "duration": 0.2500000000000071,
          "durationTicks": 23,
          "midi": 91,
          "name": "G6",
          "ticks": 5882,
          "time": 63.93478260869565,
          "velocity": 0.23622047244094488
        },
        {
          "duration": 0.06521739130434412,
          "durationTicks": 6,
          "midi": 60,
          "name": "C4",
          "ticks": 5883,
          "time": 63.94565217391305,
          "velocity": 0.1732283464566929
        },
        {
          "duration": 0.021739130434781373,
          "durationTicks": 2,
          "midi": 62,
          "name": "D4",
          "ticks": 5893,
          "time": 64.05434782608695,
          "velocity": 0.2440944881889764
        },
        {
          "duration": 0.03260869565217206,
          "durationTicks": 3,
          "midi": 67,
          "name": "G4",
          "ticks": 5893,
          "time": 64.05434782608695,
          "velocity": 0.3779527559055118
        },
        {
          "duration": 0.021739130434781373,
          "durationTicks": 2,
          "midi": 47,
          "name": "B2",
          "ticks": 5894,
          "time": 64.06521739130434,
          "velocity": 0.5275590551181102
        },
        {
          "duration": 0.021739130434781373,
          "durationTicks": 2,
          "midi": 56,
          "name": "G#3",
          "ticks": 5895,
          "time": 64.07608695652173,
          "velocity": 0.4645669291338583
        },
        {
          "duration": 0.10869565217392108,
          "durationTicks": 10,
          "midi": 86,
          "name": "D6",
          "ticks": 5895,
          "time": 64.07608695652173,
          "velocity": 0.1732283464566929
        },
        {
          "duration": 0.03260869565217206,
          "durationTicks": 3,
          "midi": 100,
          "name": "E7",
          "ticks": 5895,
          "time": 64.07608695652173,
          "velocity": 0.13385826771653545
        },
        {
          "duration": 0.021739130434781373,
          "durationTicks": 2,
          "midi": 48,
          "name": "C3",
          "ticks": 5896,
          "time": 64.08695652173913,
          "velocity": 0.48031496062992124
        },
        {
          "duration": 0.06521739130435833,
          "durationTicks": 6,
          "midi": 76,
          "name": "E5",
          "ticks": 5896,
          "time": 64.08695652173913,
          "velocity": 0.13385826771653545
        },
        {
          "duration": 0.1630434782608745,
          "durationTicks": 15,
          "midi": 79,
          "name": "G5",
          "ticks": 5897,
          "time": 64.09782608695652,
          "velocity": 0.2204724409448819
        },
        {
          "duration": 0.021739130434795584,
          "durationTicks": 2,
          "midi": 49,
          "name": "C#3",
          "ticks": 5898,
          "time": 64.1086956521739,
          "velocity": 0.3937007874015748
        },
        {
          "duration": 0.021739130434795584,
          "durationTicks": 2,
          "midi": 56,
          "name": "G#3",
          "ticks": 5898,
          "time": 64.1086956521739,
          "velocity": 0.3937007874015748
        },
        {
          "duration": 0.06521739130434412,
          "durationTicks": 6,
          "midi": 95,
          "name": "B6",
          "ticks": 5900,
          "time": 64.1304347826087,
          "velocity": 0.12598425196850394
        },
        {
          "duration": 0.043478260869562746,
          "durationTicks": 4,
          "midi": 48,
          "name": "C3",
          "ticks": 5901,
          "time": 64.1413043478261,
          "velocity": 0.4251968503937008
        },
        {
          "duration": 0.06521739130434412,
          "durationTicks": 6,
          "midi": 55,
          "name": "G3",
          "ticks": 5902,
          "time": 64.15217391304348,
          "velocity": 0.44881889763779526
        },
        {
          "duration": 0.021739130434781373,
          "durationTicks": 2,
          "midi": 36,
          "name": "C2",
          "ticks": 5906,
          "time": 64.19565217391305,
          "velocity": 0.30708661417322836
        },
        {
          "duration": 0.043478260869562746,
          "durationTicks": 4,
          "midi": 48,
          "name": "C3",
          "ticks": 5906,
          "time": 64.19565217391305,
          "velocity": 0.30708661417322836
        },
        {
          "duration": 0.021739130434781373,
          "durationTicks": 2,
          "midi": 37,
          "name": "C#2",
          "ticks": 5908,
          "time": 64.21739130434783,
          "velocity": 0.2755905511811024
        },
        {
          "duration": 0.03260869565217206,
          "durationTicks": 3,
          "midi": 55,
          "name": "G3",
          "ticks": 5909,
          "time": 64.22826086956522,
          "velocity": 0.25984251968503935
        },
        {
          "duration": 0.03260869565217206,
          "durationTicks": 3,
          "midi": 47,
          "name": "B2",
          "ticks": 5910,
          "time": 64.23913043478261,
          "velocity": 0.29133858267716534
        },
        {
          "duration": 0.021739130434781373,
          "durationTicks": 2,
          "midi": 56,
          "name": "G#3",
          "ticks": 5912,
          "time": 64.26086956521739,
          "velocity": 0.3464566929133858
        },
        {
          "duration": 0.11956521739131176,
          "durationTicks": 11,
          "midi": 55,
          "name": "G3",
          "ticks": 5914,
          "time": 64.28260869565217,
          "velocity": 0.49606299212598426
        },
        {
          "duration": 0.021739130434781373,
          "durationTicks": 2,
          "midi": 48,
          "name": "C3",
          "ticks": 5915,
          "time": 64.29347826086956,
          "velocity": 0.4251968503937008
        },
        {
          "duration": 0.043478260869562746,
          "durationTicks": 4,
          "midi": 84,
          "name": "C6",
          "ticks": 5915,
          "time": 64.29347826086956,
          "velocity": 0.07874015748031496
        },
        {
          "duration": 0.021739130434781373,
          "durationTicks": 2,
          "midi": 47,
          "name": "B2",
          "ticks": 5919,
          "time": 64.33695652173913,
          "velocity": 0.33070866141732286
        },
        {
          "duration": 0.25,
          "durationTicks": 23,
          "midi": 84,
          "name": "C6",
          "ticks": 5923,
          "time": 64.3804347826087,
          "velocity": 0.4330708661417323
        },
        {
          "duration": 0.13043478260868824,
          "durationTicks": 12,
          "midi": 91,
          "name": "G6",
          "ticks": 5923,
          "time": 64.3804347826087,
          "velocity": 0.14173228346456693
        },
        {
          "duration": 0.17391304347825098,
          "durationTicks": 16,
          "midi": 72,
          "name": "C5",
          "ticks": 5924,
          "time": 64.3913043478261,
          "velocity": 0.3543307086614173
        },
        {
          "duration": 0.010869565217390686,
          "durationTicks": 1,
          "midi": 47,
          "name": "B2",
          "ticks": 5925,
          "time": 64.40217391304348,
          "velocity": 0.5511811023622047
        },
        {
          "duration": 0.03260869565217206,
          "durationTicks": 3,
          "midi": 67,
          "name": "G4",
          "ticks": 5925,
          "time": 64.40217391304348,
          "velocity": 0.2283464566929134
        },
        {
          "duration": 0.021739130434781373,
          "durationTicks": 2,
          "midi": 49,
          "name": "C#3",
          "ticks": 5926,
          "time": 64.41304347826087,
          "velocity": 0.5039370078740157
        },
        {
          "duration": 0.06521739130434412,
          "durationTicks": 6,
          "midi": 100,
          "name": "E7",
          "ticks": 5927,
          "time": 64.42391304347827,
          "velocity": 0.14960629921259844
        },
        {
          "duration": 0.10869565217390686,
          "durationTicks": 10,
          "midi": 55,
          "name": "G3",
          "ticks": 5928,
          "time": 64.43478260869566,
          "velocity": 0.3543307086614173
        },
        {
          "duration": 0.03260869565217206,
          "durationTicks": 3,
          "midi": 47,
          "name": "B2",
          "ticks": 5930,
          "time": 64.45652173913044,
          "velocity": 0.2992125984251969
        },
        {
          "duration": 0.03260869565217206,
          "durationTicks": 3,
          "midi": 38,
          "name": "D2",
          "ticks": 5936,
          "time": 64.52173913043478,
          "velocity": 0.25984251968503935
        },
        {
          "duration": 0.03260869565217206,
          "durationTicks": 3,
          "midi": 91,
          "name": "G6",
          "ticks": 5937,
          "time": 64.53260869565217,
          "velocity": 0.09448818897637795
        },
        {
          "duration": 0.0760869565217348,
          "durationTicks": 7,
          "midi": 56,
          "name": "G#3",
          "ticks": 5938,
          "time": 64.54347826086956,
          "velocity": 0.3700787401574803
        },
        {
          "duration": 0.021739130434781373,
          "durationTicks": 2,
          "midi": 61,
          "name": "C#4",
          "ticks": 5940,
          "time": 64.56521739130434,
          "velocity": 0.2440944881889764
        },
        {
          "duration": 0.10869565217392108,
          "durationTicks": 10,
          "midi": 67,
          "name": "G4",
          "ticks": 5940,
          "time": 64.56521739130434,
          "velocity": 0.2440944881889764
        },
        {
          "duration": 0.04347826086957696,
          "durationTicks": 4,
          "midi": 72,
          "name": "C5",
          "ticks": 5942,
          "time": 64.58695652173913,
          "velocity": 0.16535433070866143
        },
        {
          "duration": 0.021739130434781373,
          "durationTicks": 2,
          "midi": 46,
          "name": "A#2",
          "ticks": 5943,
          "time": 64.59782608695652,
          "velocity": 0.29133858267716534
        },
        {
          "duration": 0.021739130434795584,
          "durationTicks": 2,
          "midi": 55,
          "name": "G3",
          "ticks": 5945,
          "time": 64.6195652173913,
          "velocity": 0.3228346456692913
        },
        {
          "duration": 0.03260869565217206,
          "durationTicks": 3,
          "midi": 56,
          "name": "G#3",
          "ticks": 5947,
          "time": 64.6413043478261,
          "velocity": 0.2677165354330709
        },
        {
          "duration": 0.043478260869562746,
          "durationTicks": 4,
          "midi": 72,
          "name": "C5",
          "ticks": 5948,
          "time": 64.65217391304348,
          "velocity": 0.1968503937007874
        },
        {
          "duration": 0.05434782608695343,
          "durationTicks": 5,
          "midi": 60,
          "name": "C4",
          "ticks": 5949,
          "time": 64.66304347826087,
          "velocity": 0.33070866141732286
        },
        {
          "duration": 0.10869565217390686,
          "durationTicks": 10,
          "midi": 55,
          "name": "G3",
          "ticks": 5950,
          "time": 64.67391304347827,
          "velocity": 0.4251968503937008
        },
        {
          "duration": 0.021739130434781373,
          "durationTicks": 2,
          "midi": 68,
          "name": "G#4",
          "ticks": 5950,
          "time": 64.67391304347827,
          "velocity": 0.36220472440944884
        },
        {
          "duration": 0.0760869565217348,
          "durationTicks": 7,
          "midi": 84,
          "name": "C6",
          "ticks": 5951,
          "time": 64.68478260869566,
          "velocity": 0.25196850393700787
        },
        {
          "duration": 0.043478260869562746,
          "durationTicks": 4,
          "midi": 38,
          "name": "D2",
          "ticks": 5952,
          "time": 64.69565217391305,
          "velocity": 0.4409448818897638
        },
        {
          "duration": 0.22826086956521863,
          "durationTicks": 21,
          "midi": 67,
          "name": "G4",
          "ticks": 5952,
          "time": 64.69565217391305,
          "velocity": 0.48031496062992124
        },
        {
          "duration": 0.28260869565217206,
          "durationTicks": 26,
          "midi": 74,
          "name": "D5",
          "ticks": 5952,
          "time": 64.69565217391305,
          "velocity": 0.47244094488188976
        },
        {
          "duration": 0.043478260869562746,
          "durationTicks": 4,
          "midi": 83,
          "name": "B5",
          "ticks": 5952,
          "time": 64.69565217391305,
          "velocity": 0.07874015748031496
        },
        {
          "duration": 0.1739130434782652,
          "durationTicks": 16,
          "midi": 64,
          "name": "E4",
          "ticks": 5953,
          "time": 64.70652173913044,
          "velocity": 0.28346456692913385
        },
        {
          "duration": 0.08695652173912549,
          "durationTicks": 8,
          "midi": 72,
          "name": "C5",
          "ticks": 5955,
          "time": 64.72826086956522,
          "velocity": 0.18110236220472442
        },
        {
          "duration": 0.03260869565217206,
          "durationTicks": 3,
          "midi": 38,
          "name": "D2",
          "ticks": 5957,
          "time": 64.75,
          "velocity": 0.4645669291338583
        },
        {
          "duration": 0.021739130434781373,
          "durationTicks": 2,
          "midi": 49,
          "name": "C#3",
          "ticks": 5957,
          "time": 64.75,
          "velocity": 0.4094488188976378
        },
        {
          "duration": 0.03260869565217206,
          "durationTicks": 3,
          "midi": 38,
          "name": "D2",
          "ticks": 5961,
          "time": 64.79347826086956,
          "velocity": 0.47244094488188976
        },
        {
          "duration": 0.021739130434781373,
          "durationTicks": 2,
          "midi": 56,
          "name": "G#3",
          "ticks": 5964,
          "time": 64.82608695652173,
          "velocity": 0.2283464566929134
        },
        {
          "duration": 0.03260869565217206,
          "durationTicks": 3,
          "midi": 56,
          "name": "G#3",
          "ticks": 5971,
          "time": 64.90217391304348,
          "velocity": 0.33858267716535434
        },
        {
          "duration": 0.021739130434781373,
          "durationTicks": 2,
          "midi": 38,
          "name": "D2",
          "ticks": 5973,
          "time": 64.92391304347827,
          "velocity": 0.4015748031496063
        },
        {
          "duration": 0.03260869565217206,
          "durationTicks": 3,
          "midi": 56,
          "name": "G#3",
          "ticks": 5975,
          "time": 64.94565217391305,
          "velocity": 0.33070866141732286
        },
        {
          "duration": 0.021739130434781373,
          "durationTicks": 2,
          "midi": 38,
          "name": "D2",
          "ticks": 5976,
          "time": 64.95652173913044,
          "velocity": 0.3858267716535433
        },
        {
          "duration": 0.021739130434781373,
          "durationTicks": 2,
          "midi": 46,
          "name": "A#2",
          "ticks": 5979,
          "time": 64.98913043478261,
          "velocity": 0.2677165354330709
        },
        {
          "duration": 0.043478260869562746,
          "durationTicks": 4,
          "midi": 65,
          "name": "F4",
          "ticks": 5979,
          "time": 64.98913043478261,
          "velocity": 0.3700787401574803
        },
        {
          "duration": 0.03260869565217206,
          "durationTicks": 3,
          "midi": 79,
          "name": "G5",
          "ticks": 5980,
          "time": 65,
          "velocity": 0.13385826771653545
        },
        {
          "duration": 0.18478260869565588,
          "durationTicks": 17,
          "midi": 81,
          "name": "A5",
          "ticks": 5980,
          "time": 65,
          "velocity": 0.31496062992125984
        },
        {
          "duration": 0.0760869565217348,
          "durationTicks": 7,
          "midi": 100,
          "name": "E7",
          "ticks": 5980,
          "time": 65,
          "velocity": 0.16535433070866143
        },
        {
          "duration": 0.2608695652173907,
          "durationTicks": 24,
          "midi": 88,
          "name": "E6",
          "ticks": 5981,
          "time": 65.01086956521739,
          "velocity": 0.31496062992125984
        },
        {
          "duration": 0.14130434782609314,
          "durationTicks": 13,
          "midi": 96,
          "name": "C7",
          "ticks": 5981,
          "time": 65.01086956521739,
          "velocity": 0.18110236220472442
        },
        {
          "duration": 0.0760869565217348,
          "durationTicks": 7,
          "midi": 97,
          "name": "C#7",
          "ticks": 5981,
          "time": 65.01086956521739,
          "velocity": 0.13385826771653545
        },
        {
          "duration": 0.021739130434781373,
          "durationTicks": 2,
          "midi": 54,
          "name": "F#3",
          "ticks": 5982,
          "time": 65.02173913043478,
          "velocity": 0.44881889763779526
        },
        {
          "duration": 0.18478260869565588,
          "durationTicks": 17,
          "midi": 69,
          "name": "A4",
          "ticks": 5982,
          "time": 65.02173913043478,
          "velocity": 0.4330708661417323
        },
        {
          "duration": 0.2608695652173907,
          "durationTicks": 24,
          "midi": 53,
          "name": "F3",
          "ticks": 5984,
          "time": 65.04347826086956,
          "velocity": 0.4566929133858268
        },
        {
          "duration": 0.07608695652174902,
          "durationTicks": 7,
          "midi": 41,
          "name": "F2",
          "ticks": 5985,
          "time": 65.05434782608695,
          "velocity": 0.4566929133858268
        },
        {
          "duration": 0.043478260869562746,
          "durationTicks": 4,
          "midi": 60,
          "name": "C4",
          "ticks": 5986,
          "time": 65.06521739130434,
          "velocity": 0.14960629921259844
        },
        {
          "duration": 0.05434782608695343,
          "durationTicks": 5,
          "midi": 41,
          "name": "F2",
          "ticks": 5993,
          "time": 65.1413043478261,
          "velocity": 0.4094488188976378
        },
        {
          "duration": 0.1521739130434696,
          "durationTicks": 14,
          "midi": 67,
          "name": "G4",
          "ticks": 5998,
          "time": 65.19565217391305,
          "velocity": 0.49606299212598426
        },
        {
          "duration": 0.06521739130434412,
          "durationTicks": 6,
          "midi": 84,
          "name": "C6",
          "ticks": 5998,
          "time": 65.19565217391305,
          "velocity": 0.14960629921259844
        },
        {
          "duration": 0.08695652173912549,
          "durationTicks": 8,
          "midi": 41,
          "name": "F2",
          "ticks": 5999,
          "time": 65.20652173913044,
          "velocity": 0.36220472440944884
        },
        {
          "duration": 0.14130434782607892,
          "durationTicks": 13,
          "midi": 86,
          "name": "D6",
          "ticks": 5999,
          "time": 65.20652173913044,
          "velocity": 0.33858267716535434
        },
        {
          "duration": 0.06521739130434412,
          "durationTicks": 6,
          "midi": 72,
          "name": "C5",
          "ticks": 6003,
          "time": 65.25,
          "velocity": 0.07086614173228346
        },
        {
          "duration": 0.021739130434781373,
          "durationTicks": 2,
          "midi": 52,
          "name": "E3",
          "ticks": 6008,
          "time": 65.30434782608695,
          "velocity": 0.48031496062992124
        },
        {
          "duration": 0.18478260869565588,
          "durationTicks": 17,
          "midi": 69,
          "name": "A4",
          "ticks": 6008,
          "time": 65.30434782608695,
          "velocity": 0.3779527559055118
        },
        {
          "duration": 0.03260869565217206,
          "durationTicks": 3,
          "midi": 56,
          "name": "G#3",
          "ticks": 6009,
          "time": 65.31521739130434,
          "velocity": 0.6062992125984252
        },
        {
          "duration": 0.14130434782609314,
          "durationTicks": 13,
          "midi": 84,
          "name": "C6",
          "ticks": 6009,
          "time": 65.31521739130434,
          "velocity": 0.12598425196850394
        },
        {
          "duration": 0.021739130434781373,
          "durationTicks": 2,
          "midi": 46,
          "name": "A#2",
          "ticks": 6010,
          "time": 65.32608695652173,
          "velocity": 0.48031496062992124
        },
        {
          "duration": 0.20652173913043725,
          "durationTicks": 19,
          "midi": 57,
          "name": "A3",
          "ticks": 6012,
          "time": 65.34782608695652,
          "velocity": 0.6062992125984252
        },
        {
          "duration": 0.07608695652174902,
          "durationTicks": 7,
          "midi": 72,
          "name": "C5",
          "ticks": 6012,
          "time": 65.34782608695652,
          "velocity": 0.1889763779527559
        },
        {
          "duration": 0.11956521739131176,
          "durationTicks": 11,
          "midi": 77,
          "name": "F5",
          "ticks": 6012,
          "time": 65.34782608695652,
          "velocity": 0.2283464566929134
        },
        {
          "duration": 0.021739130434795584,
          "durationTicks": 2,
          "midi": 39,
          "name": "D#2",
          "ticks": 6013,
          "time": 65.3586956521739,
          "velocity": 0.47244094488188976
        },
        {
          "duration": 0.10869565217392108,
          "durationTicks": 10,
          "midi": 65,
          "name": "F4",
          "ticks": 6014,
          "time": 65.3695652173913,
          "velocity": 0.18110236220472442
        },
        {
          "duration": 0.021739130434781373,
          "durationTicks": 2,
          "midi": 32,
          "name": "G#1",
          "ticks": 6016,
          "time": 65.3913043478261,
          "velocity": 0.3700787401574803
        },
        {
          "duration": 0.20652173913043725,
          "durationTicks": 19,
          "midi": 84,
          "name": "C6",
          "ticks": 6025,
          "time": 65.48913043478261,
          "velocity": 0.3858267716535433
        },
        {
          "duration": 0.03260869565217206,
          "durationTicks": 3,
          "midi": 49,
          "name": "C#3",
          "ticks": 6026,
          "time": 65.5,
          "velocity": 0.3779527559055118
        },
        {
          "duration": 0.14130434782609314,
          "durationTicks": 13,
          "midi": 65,
          "name": "F4",
          "ticks": 6026,
          "time": 65.5,
          "velocity": 0.49606299212598426
        },
        {
          "duration": 0.09782608695651618,
          "durationTicks": 9,
          "midi": 89,
          "name": "F6",
          "ticks": 6026,
          "time": 65.5,
          "velocity": 0.29133858267716534
        },
        {
          "duration": 0.021739130434781373,
          "durationTicks": 2,
          "midi": 38,
          "name": "D2",
          "ticks": 6028,
          "time": 65.52173913043478,
          "velocity": 0.4566929133858268
        },
        {
          "duration": 0.05434782608695343,
          "durationTicks": 5,
          "midi": 88,
          "name": "E6",
          "ticks": 6031,
          "time": 65.55434782608695,
          "velocity": 0.13385826771653545
        },
        {
          "duration": 0.0869565217391397,
          "durationTicks": 8,
          "midi": 57,
          "name": "A3",
          "ticks": 6032,
          "time": 65.56521739130434,
          "velocity": 0.30708661417322836
        },
        {
          "duration": 0.021739130434781373,
          "durationTicks": 2,
          "midi": 48,
          "name": "C3",
          "ticks": 6035,
          "time": 65.59782608695652,
          "velocity": 0.2755905511811024
        },
        {
          "duration": 0.04347826086957696,
          "durationTicks": 4,
          "midi": 72,
          "name": "C5",
          "ticks": 6035,
          "time": 65.59782608695652,
          "velocity": 0.08661417322834646
        },
        {
          "duration": 0.021739130434795584,
          "durationTicks": 2,
          "midi": 47,
          "name": "B2",
          "ticks": 6037,
          "time": 65.6195652173913,
          "velocity": 0.33858267716535434
        },
        {
          "duration": 0.03260869565217206,
          "durationTicks": 3,
          "midi": 47,
          "name": "B2",
          "ticks": 6040,
          "time": 65.65217391304348,
          "velocity": 0.41732283464566927
        },
        {
          "duration": 0.021739130434781373,
          "durationTicks": 2,
          "midi": 58,
          "name": "A#3",
          "ticks": 6040,
          "time": 65.65217391304348,
          "velocity": 0.25984251968503935
        },
        {
          "duration": 0.11956521739129755,
          "durationTicks": 11,
          "midi": 65,
          "name": "F4",
          "ticks": 6042,
          "time": 65.67391304347827,
          "velocity": 0.15748031496062992
        },
        {
          "duration": 0.05434782608695343,
          "durationTicks": 5,
          "midi": 36,
          "name": "C2",
          "ticks": 6044,
          "time": 65.69565217391305,
          "velocity": 0.5196850393700787
        },
        {
          "duration": 0.1739130434782652,
          "durationTicks": 16,
          "midi": 36,
          "name": "C2",
          "ticks": 6050,
          "time": 65.76086956521739,
          "velocity": 0.47244094488188976
        },
        {
          "duration": 0.15217391304348382,
          "durationTicks": 14,
          "midi": 74,
          "name": "D5",
          "ticks": 6054,
          "time": 65.80434782608695,
          "velocity": 0.3858267716535433
        },
        {
          "duration": 0.15217391304348382,
          "durationTicks": 14,
          "midi": 86,
          "name": "D6",
          "ticks": 6054,
          "time": 65.80434782608695,
          "velocity": 0.5039370078740157
        },
        {
          "duration": 0.03260869565217206,
          "durationTicks": 3,
          "midi": 55,
          "name": "G3",
          "ticks": 6055,
          "time": 65.81521739130434,
          "velocity": 0.3858267716535433
        },
        {
          "duration": 0.05434782608696764,
          "durationTicks": 5,
          "midi": 64,
          "name": "E4",
          "ticks": 6056,
          "time": 65.82608695652173,
          "velocity": 0.14173228346456693
        },
        {
          "duration": 0.07608695652174902,
          "durationTicks": 7,
          "midi": 48,
          "name": "C3",
          "ticks": 6060,
          "time": 65.8695652173913,
          "velocity": 0.48031496062992124
        },
        {
          "duration": 0.03260869565218627,
          "durationTicks": 3,
          "midi": 56,
          "name": "G#3",
          "ticks": 6060,
          "time": 65.8695652173913,
          "velocity": 0.29133858267716534
        },
        {
          "duration": 0.06521739130435833,
          "durationTicks": 6,
          "midi": 69,
          "name": "A4",
          "ticks": 6060,
          "time": 65.8695652173913,
          "velocity": 0.16535433070866143
        },
        {
          "duration": 0.043478260869562746,
          "durationTicks": 4,
          "midi": 65,
          "name": "F4",
          "ticks": 6061,
          "time": 65.8804347826087,
          "velocity": 0.2047244094488189
        },
        {
          "duration": 0.021739130434781373,
          "durationTicks": 2,
          "midi": 56,
          "name": "G#3",
          "ticks": 6064,
          "time": 65.91304347826087,
          "velocity": 0.36220472440944884
        },
        {
          "duration": 0.1521739130434696,
          "durationTicks": 14,
          "midi": 72,
          "name": "C5",
          "ticks": 6065,
          "time": 65.92391304347827,
          "velocity": 0.33858267716535434
        },
        {
          "duration": 0.021739130434781373,
          "durationTicks": 2,
          "midi": 55,
          "name": "G3",
          "ticks": 6066,
          "time": 65.93478260869566,
          "velocity": 0.41732283464566927
        },
        {
          "duration": 0.18478260869564167,
          "durationTicks": 17,
          "midi": 65,
          "name": "F4",
          "ticks": 6066,
          "time": 65.93478260869566,
          "velocity": 0.4645669291338583
        },
        {
          "duration": 0.35869565217390686,
          "durationTicks": 33,
          "midi": 81,
          "name": "A5",
          "ticks": 6066,
          "time": 65.93478260869566,
          "velocity": 0.33070866141732286
        },
        {
          "duration": 0.010869565217390686,
          "durationTicks": 1,
          "midi": 47,
          "name": "B2",
          "ticks": 6067,
          "time": 65.94565217391305,
          "velocity": 0.5275590551181102
        },
        {
          "duration": 0.021739130434781373,
          "durationTicks": 2,
          "midi": 69,
          "name": "A4",
          "ticks": 6067,
          "time": 65.94565217391305,
          "velocity": 0.2992125984251969
        },
        {
          "duration": 0.03260869565217206,
          "durationTicks": 3,
          "midi": 87,
          "name": "D#6",
          "ticks": 6067,
          "time": 65.94565217391305,
          "velocity": 0.12598425196850394
        },
        {
          "duration": 0.021739130434781373,
          "durationTicks": 2,
          "midi": 36,
          "name": "C2",
          "ticks": 6068,
          "time": 65.95652173913044,
          "velocity": 0.41732283464566927
        },
        {
          "duration": 0.021739130434781373,
          "durationTicks": 2,
          "midi": 48,
          "name": "C3",
          "ticks": 6068,
          "time": 65.95652173913044,
          "velocity": 0.4566929133858268
        },
        {
          "duration": 0.043478260869562746,
          "durationTicks": 4,
          "midi": 56,
          "name": "G#3",
          "ticks": 6070,
          "time": 65.97826086956522,
          "velocity": 0.3858267716535433
        },
        {
          "duration": 0.14130434782607892,
          "durationTicks": 13,
          "midi": 69,
          "name": "A4",
          "ticks": 6070,
          "time": 65.97826086956522,
          "velocity": 0.33070866141732286
        },
        {
          "duration": 0.021739130434781373,
          "durationTicks": 2,
          "midi": 35,
          "name": "B1",
          "ticks": 6071,
          "time": 65.98913043478261,
          "velocity": 0.3228346456692913
        },
        {
          "duration": 0.05434782608695343,
          "durationTicks": 5,
          "midi": 46,
          "name": "A#2",
          "ticks": 6076,
          "time": 66.04347826086956,
          "velocity": 0.3700787401574803
        },
        {
          "duration": 0.021739130434781373,
          "durationTicks": 2,
          "midi": 36,
          "name": "C2",
          "ticks": 6077,
          "time": 66.05434782608695,
          "velocity": 0.33070866141732286
        },
        {
          "duration": 0.03260869565217206,
          "durationTicks": 3,
          "midi": 53,
          "name": "F3",
          "ticks": 6078,
          "time": 66.06521739130434,
          "velocity": 0.2677165354330709
        },
        {
          "duration": 0.021739130434795584,
          "durationTicks": 2,
          "midi": 32,
          "name": "G#1",
          "ticks": 6083,
          "time": 66.1195652173913,
          "velocity": 0.2992125984251969
        },
        {
          "duration": 0.1630434782608745,
          "durationTicks": 15,
          "midi": 72,
          "name": "C5",
          "ticks": 6083,
          "time": 66.1195652173913,
          "velocity": 0.25196850393700787
        },
        {
          "duration": 0.21739130434782794,
          "durationTicks": 20,
          "midi": 84,
          "name": "C6",
          "ticks": 6083,
          "time": 66.1195652173913,
          "velocity": 0.5118110236220472
        },
        {
          "duration": 0.30434782608695343,
          "durationTicks": 28,
          "midi": 65,
          "name": "F4",
          "ticks": 6084,
          "time": 66.1304347826087,
          "velocity": 0.5039370078740157
        },
        {
          "duration": 0.10869565217390686,
          "durationTicks": 10,
          "midi": 69,
          "name": "A4",
          "ticks": 6084,
          "time": 66.1304347826087,
          "velocity": 0.3937007874015748
        },
        {
          "duration": 0.11956521739129755,
          "durationTicks": 11,
          "midi": 89,
          "name": "F6",
          "ticks": 6084,
          "time": 66.1304347826087,
          "velocity": 0.25984251968503935
        },
        {
          "duration": 0.08695652173912549,
          "durationTicks": 8,
          "midi": 74,
          "name": "D5",
          "ticks": 6085,
          "time": 66.1413043478261,
          "velocity": 0.12598425196850394
        },
        {
          "duration": 0.05434782608695343,
          "durationTicks": 5,
          "midi": 57,
          "name": "A3",
          "ticks": 6086,
          "time": 66.15217391304348,
          "velocity": 0.2992125984251969
        },
        {
          "duration": 0.06521739130434412,
          "durationTicks": 6,
          "midi": 88,
          "name": "E6",
          "ticks": 6087,
          "time": 66.16304347826087,
          "velocity": 0.13385826771653545
        },
        {
          "duration": 0.03260869565217206,
          "durationTicks": 3,
          "midi": 31,
          "name": "G1",
          "ticks": 6090,
          "time": 66.19565217391305,
          "velocity": 0.2047244094488189
        },
        {
          "duration": 0.05434782608695343,
          "durationTicks": 5,
          "midi": 57,
          "name": "A3",
          "ticks": 6092,
          "time": 66.21739130434783,
          "velocity": 0.2992125984251969
        },
        {
          "duration": 0.30434782608695343,
          "durationTicks": 28,
          "midi": 53,
          "name": "F3",
          "ticks": 6097,
          "time": 66.27173913043478,
          "velocity": 0.44881889763779526
        },
        {
          "duration": 0.11956521739131176,
          "durationTicks": 11,
          "midi": 74,
          "name": "D5",
          "ticks": 6097,
          "time": 66.27173913043478,
          "velocity": 0.14960629921259844
        },
        {
          "duration": 0.18478260869565588,
          "durationTicks": 17,
          "midi": 41,
          "name": "F2",
          "ticks": 6100,
          "time": 66.30434782608695,
          "velocity": 0.4409448818897638
        },
        {
          "duration": 0.21739130434782794,
          "durationTicks": 20,
          "midi": 86,
          "name": "D6",
          "ticks": 6112,
          "time": 66.43478260869566,
          "velocity": 0.4645669291338583
        },
        {
          "duration": 0.0760869565217348,
          "durationTicks": 7,
          "midi": 88,
          "name": "E6",
          "ticks": 6112,
          "time": 66.43478260869566,
          "velocity": 0.2125984251968504
        },
        {
          "duration": 0.14130434782607892,
          "durationTicks": 13,
          "midi": 67,
          "name": "G4",
          "ticks": 6113,
          "time": 66.44565217391305,
          "velocity": 0.44881889763779526
        },
        {
          "duration": 0.14130434782607892,
          "durationTicks": 13,
          "midi": 93,
          "name": "A6",
          "ticks": 6115,
          "time": 66.46739130434783,
          "velocity": 0.2283464566929134
        },
        {
          "duration": 0.0760869565217348,
          "durationTicks": 7,
          "midi": 41,
          "name": "F2",
          "ticks": 6118,
          "time": 66.5,
          "velocity": 0.4881889763779528
        },
        {
          "duration": 0.0760869565217348,
          "durationTicks": 7,
          "midi": 74,
          "name": "D5",
          "ticks": 6118,
          "time": 66.5,
          "velocity": 0.11811023622047244
        },
        {
          "duration": 0.07608695652174902,
          "durationTicks": 7,
          "midi": 60,
          "name": "C4",
          "ticks": 6124,
          "time": 66.56521739130434,
          "velocity": 0.3937007874015748
        },
        {
          "duration": 0.14130434782609314,
          "durationTicks": 13,
          "midi": 77,
          "name": "F5",
          "ticks": 6124,
          "time": 66.56521739130434,
          "velocity": 0.30708661417322836
        },
        {
          "duration": 0.09782608695653039,
          "durationTicks": 9,
          "midi": 84,
          "name": "C6",
          "ticks": 6124,
          "time": 66.56521739130434,
          "velocity": 0.11811023622047244
        },
        {
          "duration": 0.021739130434781373,
          "durationTicks": 2,
          "midi": 42,
          "name": "F#2",
          "ticks": 6125,
          "time": 66.57608695652173,
          "velocity": 0.5354330708661418
        },
        {
          "duration": 0.15217391304348382,
          "durationTicks": 14,
          "midi": 69,
          "name": "A4",
          "ticks": 6125,
          "time": 66.57608695652173,
          "velocity": 0.49606299212598426
        },
        {
          "duration": 0.0869565217391397,
          "durationTicks": 8,
          "midi": 53,
          "name": "F3",
          "ticks": 6126,
          "time": 66.58695652173913,
          "velocity": 0.4645669291338583
        },
        {
          "duration": 0.021739130434781373,
          "durationTicks": 2,
          "midi": 40,
          "name": "E2",
          "ticks": 6127,
          "time": 66.59782608695652,
          "velocity": 0.4566929133858268
        },
        {
          "duration": 0.021739130434781373,
          "durationTicks": 2,
          "midi": 38,
          "name": "D2",
          "ticks": 6132,
          "time": 66.65217391304348,
          "velocity": 0.25196850393700787
        },
        {
          "duration": 0.03260869565217206,
          "durationTicks": 3,
          "midi": 52,
          "name": "E3",
          "ticks": 6134,
          "time": 66.67391304347827,
          "velocity": 0.2440944881889764
        },
        {
          "duration": 0.021739130434781373,
          "durationTicks": 2,
          "midi": 40,
          "name": "E2",
          "ticks": 6141,
          "time": 66.75,
          "velocity": 0.2283464566929134
        },
        {
          "duration": 0.0760869565217348,
          "durationTicks": 7,
          "midi": 67,
          "name": "G4",
          "ticks": 6141,
          "time": 66.75,
          "velocity": 0.25984251968503935
        },
        {
          "duration": 0.03260869565217206,
          "durationTicks": 3,
          "midi": 38,
          "name": "D2",
          "ticks": 6144,
          "time": 66.78260869565217,
          "velocity": 0.4094488188976378
        },
        {
          "duration": 0.021739130434781373,
          "durationTicks": 2,
          "midi": 52,
          "name": "E3",
          "ticks": 6146,
          "time": 66.80434782608695,
          "velocity": 0.2440944881889764
        },
        {
          "duration": 0.06521739130435833,
          "durationTicks": 6,
          "midi": 65,
          "name": "F4",
          "ticks": 6147,
          "time": 66.81521739130434,
          "velocity": 0.28346456692913385
        },
        {
          "duration": 0.05434782608696764,
          "durationTicks": 5,
          "midi": 60,
          "name": "C4",
          "ticks": 6148,
          "time": 66.82608695652173,
          "velocity": 0.2283464566929134
        },
        {
          "duration": 0.021739130434781373,
          "durationTicks": 2,
          "midi": 40,
          "name": "E2",
          "ticks": 6150,
          "time": 66.84782608695652,
          "velocity": 0.23622047244094488
        },
        {
          "duration": 0.021739130434795584,
          "durationTicks": 2,
          "midi": 85,
          "name": "C#6",
          "ticks": 6152,
          "time": 66.8695652173913,
          "velocity": 0.3464566929133858
        },
        {
          "duration": 0.28260869565217206,
          "durationTicks": 26,
          "midi": 72,
          "name": "C5",
          "ticks": 6153,
          "time": 66.8804347826087,
          "velocity": 0.4330708661417323
        },
        {
          "duration": 0.05434782608695343,
          "durationTicks": 5,
          "midi": 81,
          "name": "A5",
          "ticks": 6153,
          "time": 66.8804347826087,
          "velocity": 0.1732283464566929
        },
        {
          "duration": 0.043478260869562746,
          "durationTicks": 4,
          "midi": 86,
          "name": "D6",
          "ticks": 6153,
          "time": 66.8804347826087,
          "velocity": 0.1732283464566929
        },
        {
          "duration": 0.03260869565217206,
          "durationTicks": 3,
          "midi": 91,
          "name": "G6",
          "ticks": 6153,
          "time": 66.8804347826087,
          "velocity": 0.15748031496062992
        },
        {
          "duration": 0.010869565217390686,
          "durationTicks": 1,
          "midi": 47,
          "name": "B2",
          "ticks": 6154,
          "time": 66.8913043478261,
          "velocity": 0.5196850393700787
        },
        {
          "duration": 0.03260869565217206,
          "durationTicks": 3,
          "midi": 65,
          "name": "F4",
          "ticks": 6154,
          "time": 66.8913043478261,
          "velocity": 0.3937007874015748
        },
        {
          "duration": 0.06521739130434412,
          "durationTicks": 6,
          "midi": 67,
          "name": "G4",
          "ticks": 6154,
          "time": 66.8913043478261,
          "velocity": 0.36220472440944884
        },
        {
          "duration": 0.5,
          "durationTicks": 46,
          "midi": 84,
          "name": "C6",
          "ticks": 6154,
          "time": 66.8913043478261,
          "velocity": 0.4409448818897638
        },
        {
          "duration": 0.010869565217390686,
          "durationTicks": 1,
          "midi": 46,
          "name": "A#2",
          "ticks": 6155,
          "time": 66.90217391304348,
          "velocity": 0.5275590551181102
        },
        {
          "duration": 0.021739130434781373,
          "durationTicks": 2,
          "midi": 33,
          "name": "A1",
          "ticks": 6156,
          "time": 66.91304347826087,
          "velocity": 0.4251968503937008
        },
        {
          "duration": 0.021739130434781373,
          "durationTicks": 2,
          "midi": 60,
          "name": "C4",
          "ticks": 6156,
          "time": 66.91304347826087,
          "velocity": 0.2440944881889764
        },
        {
          "duration": 0.043478260869562746,
          "durationTicks": 4,
          "midi": 48,
          "name": "C3",
          "ticks": 6157,
          "time": 66.92391304347827,
          "velocity": 0.3779527559055118
        },
        {
          "duration": 0.021739130434781373,
          "durationTicks": 2,
          "midi": 56,
          "name": "G#3",
          "ticks": 6157,
          "time": 66.92391304347827,
          "velocity": 0.30708661417322836
        },
        {
          "duration": 0.03260869565217206,
          "durationTicks": 3,
          "midi": 35,
          "name": "B1",
          "ticks": 6158,
          "time": 66.93478260869566,
          "velocity": 0.4881889763779528
        },
        {
          "duration": 0.25,
          "durationTicks": 23,
          "midi": 65,
          "name": "F4",
          "ticks": 6159,
          "time": 66.94565217391305,
          "velocity": 0.5039370078740157
        },
        {
          "duration": 0.021739130434781373,
          "durationTicks": 2,
          "midi": 37,
          "name": "C#2",
          "ticks": 6162,
          "time": 66.97826086956522,
          "velocity": 0.47244094488188976
        },
        {
          "duration": 0.08695652173912549,
          "durationTicks": 8,
          "midi": 48,
          "name": "C3",
          "ticks": 6165,
          "time": 67.01086956521739,
          "velocity": 0.3700787401574803
        },
        {
          "duration": 0.021739130434781373,
          "durationTicks": 2,
          "midi": 37,
          "name": "C#2",
          "ticks": 6166,
          "time": 67.02173913043478,
          "velocity": 0.47244094488188976
        },
        {
          "duration": 0.03260869565217206,
          "durationTicks": 3,
          "midi": 55,
          "name": "G3",
          "ticks": 6166,
          "time": 67.02173913043478,
          "velocity": 0.30708661417322836
        },
        {
          "duration": 0.021739130434781373,
          "durationTicks": 2,
          "midi": 36,
          "name": "C2",
          "ticks": 6170,
          "time": 67.06521739130434,
          "velocity": 0.4566929133858268
        },
        {
          "duration": 0.10869565217392108,
          "durationTicks": 10,
          "midi": 69,
          "name": "A4",
          "ticks": 6170,
          "time": 67.06521739130434,
          "velocity": 0.23622047244094488
        },
        {
          "duration": 0.10869565217392108,
          "durationTicks": 10,
          "midi": 57,
          "name": "A3",
          "ticks": 6171,
          "time": 67.07608695652173,
          "velocity": 0.4330708661417323
        },
        {
          "duration": 0.04347826086957696,
          "durationTicks": 4,
          "midi": 36,
          "name": "C2",
          "ticks": 6173,
          "time": 67.09782608695652,
          "velocity": 0.48031496062992124
        },
        {
          "duration": 0.021739130434781373,
          "durationTicks": 2,
          "midi": 36,
          "name": "C2",
          "ticks": 6180,
          "time": 67.17391304347827,
          "velocity": 0.4409448818897638
        },
        {
          "duration": 0.19565217391304657,
          "durationTicks": 18,
          "midi": 69,
          "name": "A4",
          "ticks": 6181,
          "time": 67.18478260869566,
          "velocity": 0.4094488188976378
        },
        {
          "duration": 0.021739130434781373,
          "durationTicks": 2,
          "midi": 35,
          "name": "B1",
          "ticks": 6182,
          "time": 67.19565217391305,
          "velocity": 0.4409448818897638
        },
        {
          "duration": 0.10869565217390686,
          "durationTicks": 10,
          "midi": 62,
          "name": "D4",
          "ticks": 6182,
          "time": 67.19565217391305,
          "velocity": 0.4881889763779528
        },
        {
          "duration": 0.10869565217390686,
          "durationTicks": 10,
          "midi": 72,
          "name": "C5",
          "ticks": 6182,
          "time": 67.19565217391305,
          "velocity": 0.2125984251968504
        },
        {
          "duration": 0.03260869565217206,
          "durationTicks": 3,
          "midi": 77,
          "name": "F5",
          "ticks": 6182,
          "time": 67.19565217391305,
          "velocity": 0.16535433070866143
        },
        {
          "duration": 0.021739130434781373,
          "durationTicks": 2,
          "midi": 52,
          "name": "E3",
          "ticks": 6183,
          "time": 67.20652173913044,
          "velocity": 0.41732283464566927
        },
        {
          "duration": 0.11956521739129755,
          "durationTicks": 11,
          "midi": 86,
          "name": "D6",
          "ticks": 6183,
          "time": 67.20652173913044,
          "velocity": 0.16535433070866143
        },
        {
          "duration": 0.021739130434781373,
          "durationTicks": 2,
          "midi": 36,
          "name": "C2",
          "ticks": 6186,
          "time": 67.23913043478261,
          "velocity": 0.3858267716535433
        },
        {
          "duration": 0.5108695652173907,
          "durationTicks": 47,
          "midi": 65,
          "name": "F4",
          "ticks": 6186,
          "time": 67.23913043478261,
          "velocity": 0.5039370078740157
        },
        {
          "duration": 0.043478260869562746,
          "durationTicks": 4,
          "midi": 35,
          "name": "B1",
          "ticks": 6188,
          "time": 67.26086956521739,
          "velocity": 0.30708661417322836
        },
        {
          "duration": 0.03260869565217206,
          "durationTicks": 3,
          "midi": 54,
          "name": "F#3",
          "ticks": 6190,
          "time": 67.28260869565217,
          "velocity": 0.2283464566929134
        },
        {
          "duration": 0.021739130434781373,
          "durationTicks": 2,
          "midi": 60,
          "name": "C4",
          "ticks": 6190,
          "time": 67.28260869565217,
          "velocity": 0.31496062992125984
        },
        {
          "duration": 0.05434782608695343,
          "durationTicks": 5,
          "midi": 60,
          "name": "C4",
          "ticks": 6193,
          "time": 67.31521739130434,
          "velocity": 0.30708661417322836
        },
        {
          "duration": 0.03260869565218627,
          "durationTicks": 3,
          "midi": 49,
          "name": "C#3",
          "ticks": 6196,
          "time": 67.34782608695652,
          "velocity": 0.08661417322834646
        },
        {
          "duration": 0.021739130434795584,
          "durationTicks": 2,
          "midi": 56,
          "name": "G#3",
          "ticks": 6198,
          "time": 67.3695652173913,
          "velocity": 0.30708661417322836
        },
        {
          "duration": 0.03260869565217206,
          "durationTicks": 3,
          "midi": 61,
          "name": "C#4",
          "ticks": 6199,
          "time": 67.3804347826087,
          "velocity": 0.29133858267716534
        },
        {
          "duration": 0.05434782608695343,
          "durationTicks": 5,
          "midi": 69,
          "name": "A4",
          "ticks": 6200,
          "time": 67.3913043478261,
          "velocity": 0.10236220472440945
        },
        {
          "duration": 0.021739130434781373,
          "durationTicks": 2,
          "midi": 50,
          "name": "D3",
          "ticks": 6201,
          "time": 67.40217391304348,
          "velocity": 0.31496062992125984
        },
        {
          "duration": 0.021739130434781373,
          "durationTicks": 2,
          "midi": 37,
          "name": "C#2",
          "ticks": 6205,
          "time": 67.44565217391305,
          "velocity": 0.30708661417322836
        },
        {
          "duration": 0.021739130434781373,
          "durationTicks": 2,
          "midi": 49,
          "name": "C#3",
          "ticks": 6207,
          "time": 67.46739130434783,
          "velocity": 0.2755905511811024
        },
        {
          "duration": 0.021739130434781373,
          "durationTicks": 2,
          "midi": 58,
          "name": "A#3",
          "ticks": 6207,
          "time": 67.46739130434783,
          "velocity": 0.23622047244094488
        },
        {
          "duration": 0.14130434782609314,
          "durationTicks": 13,
          "midi": 72,
          "name": "C5",
          "ticks": 6210,
          "time": 67.5,
          "velocity": 0.23622047244094488
        },
        {
          "duration": 0.03260869565217206,
          "durationTicks": 3,
          "midi": 83,
          "name": "B5",
          "ticks": 6210,
          "time": 67.5,
          "velocity": 0.25984251968503935
        },
        {
          "duration": 0.46739130434782794,
          "durationTicks": 43,
          "midi": 84,
          "name": "C6",
          "ticks": 6210,
          "time": 67.5,
          "velocity": 0.3858267716535433
        },
        {
          "duration": 0.10869565217390686,
          "durationTicks": 10,
          "midi": 101,
          "name": "F7",
          "ticks": 6210,
          "time": 67.5,
          "velocity": 0.18110236220472442
        },
        {
          "duration": 0.021739130434781373,
          "durationTicks": 2,
          "midi": 54,
          "name": "F#3",
          "ticks": 6211,
          "time": 67.51086956521739,
          "velocity": 0.5275590551181102
        },
        {
          "duration": 0.22826086956521863,
          "durationTicks": 21,
          "midi": 81,
          "name": "A5",
          "ticks": 6211,
          "time": 67.51086956521739,
          "velocity": 0.3464566929133858
        },
        {
          "duration": 0.05434782608695343,
          "durationTicks": 5,
          "midi": 91,
          "name": "G6",
          "ticks": 6211,
          "time": 67.51086956521739,
          "velocity": 0.14173228346456693
        },
        {
          "duration": 0.021739130434781373,
          "durationTicks": 2,
          "midi": 52,
          "name": "E3",
          "ticks": 6213,
          "time": 67.53260869565217,
          "velocity": 0.6062992125984252
        },
        {
          "duration": 0.03260869565217206,
          "durationTicks": 3,
          "midi": 74,
          "name": "D5",
          "ticks": 6213,
          "time": 67.53260869565217,
          "velocity": 0.12598425196850394
        },
        {
          "duration": 0.05434782608695343,
          "durationTicks": 5,
          "midi": 60,
          "name": "C4",
          "ticks": 6215,
          "time": 67.55434782608695,
          "velocity": 0.2755905511811024
        },
        {
          "duration": 0.021739130434781373,
          "durationTicks": 2,
          "midi": 52,
          "name": "E3",
          "ticks": 6217,
          "time": 67.57608695652173,
          "velocity": 0.49606299212598426
        },
        {
          "duration": 0.021739130434781373,
          "durationTicks": 2,
          "midi": 41,
          "name": "F2",
          "ticks": 6218,
          "time": 67.58695652173913,
          "velocity": 0.33070866141732286
        },
        {
          "duration": 0.22826086956521863,
          "durationTicks": 21,
          "midi": 53,
          "name": "F3",
          "ticks": 6219,
          "time": 67.59782608695652,
          "velocity": 0.44881889763779526
        },
        {
          "duration": 0.1739130434782652,
          "durationTicks": 16,
          "midi": 69,
          "name": "A4",
          "ticks": 6219,
          "time": 67.59782608695652,
          "velocity": 0.18110236220472442
        },
        {
          "duration": 0.021739130434795584,
          "durationTicks": 2,
          "midi": 30,
          "name": "F#1",
          "ticks": 6220,
          "time": 67.6086956521739,
          "velocity": 0.33858267716535434
        },
        {
          "duration": 0.06521739130435833,
          "durationTicks": 6,
          "midi": 60,
          "name": "C4",
          "ticks": 6221,
          "time": 67.6195652173913,
          "velocity": 0.2440944881889764
        },
        {
          "duration": 0.021739130434781373,
          "durationTicks": 2,
          "midi": 40,
          "name": "E2",
          "ticks": 6226,
          "time": 67.67391304347827,
          "velocity": 0.3779527559055118
        },
        {
          "duration": 0.09782608695651618,
          "durationTicks": 9,
          "midi": 41,
          "name": "F2",
          "ticks": 6228,
          "time": 67.69565217391305,
          "velocity": 0.4094488188976378
        },
        {
          "duration": 0.03260869565217206,
          "durationTicks": 3,
          "midi": 72,
          "name": "C5",
          "ticks": 6229,
          "time": 67.70652173913044,
          "velocity": 0.07086614173228346
        },
        {
          "duration": 0.021739130434781373,
          "durationTicks": 2,
          "midi": 40,
          "name": "E2",
          "ticks": 6237,
          "time": 67.79347826086956,
          "velocity": 0.3937007874015748
        },
        {
          "duration": 0.03260869565217206,
          "durationTicks": 3,
          "midi": 29,
          "name": "F1",
          "ticks": 6241,
          "time": 67.83695652173913,
          "velocity": 0.3464566929133858
        },
        {
          "duration": 0.04347826086957696,
          "durationTicks": 4,
          "midi": 57,
          "name": "A3",
          "ticks": 6241,
          "time": 67.83695652173913,
          "velocity": 0.12598425196850394
        },
        {
          "duration": 0.05434782608696764,
          "durationTicks": 5,
          "midi": 49,
          "name": "C#3",
          "ticks": 6243,
          "time": 67.8586956521739,
          "velocity": 0.2204724409448819
        },
        {
          "duration": 0.043478260869562746,
          "durationTicks": 4,
          "midi": 49,
          "name": "C#3",
          "ticks": 6250,
          "time": 67.93478260869566,
          "velocity": 0.13385826771653545
        },
        {
          "duration": 0.021739130434781373,
          "durationTicks": 2,
          "midi": 32,
          "name": "G#1",
          "ticks": 6257,
          "time": 68.01086956521739,
          "velocity": 0.2755905511811024
        },
        {
          "duration": 0.043478260869562746,
          "durationTicks": 4,
          "midi": 32,
          "name": "G#1",
          "ticks": 6262,
          "time": 68.06521739130434,
          "velocity": 0.2047244094488189
        },
        {
          "duration": 0.05434782608695343,
          "durationTicks": 5,
          "midi": 73,
          "name": "C#5",
          "ticks": 6271,
          "time": 68.16304347826087,
          "velocity": 0.15748031496062992
        },
        {
          "duration": 0.03260869565217206,
          "durationTicks": 3,
          "midi": 61,
          "name": "C#4",
          "ticks": 6274,
          "time": 68.19565217391305,
          "velocity": 0.33070866141732286
        },
        {
          "duration": 0.05434782608695343,
          "durationTicks": 5,
          "midi": 60,
          "name": "C4",
          "ticks": 6277,
          "time": 68.22826086956522,
          "velocity": 0.2992125984251969
        },
        {
          "duration": 0.03260869565217206,
          "durationTicks": 3,
          "midi": 30,
          "name": "F#1",
          "ticks": 6279,
          "time": 68.25,
          "velocity": 0.14960629921259844
        },
        {
          "duration": 0.03260869565217206,
          "durationTicks": 3,
          "midi": 58,
          "name": "A#3",
          "ticks": 6283,
          "time": 68.29347826086956,
          "velocity": 0.30708661417322836
        },
        {
          "duration": 0.03260869565217206,
          "durationTicks": 3,
          "midi": 58,
          "name": "A#3",
          "ticks": 6287,
          "time": 68.33695652173913,
          "velocity": 0.2755905511811024
        },
        {
          "duration": 0.021739130434795584,
          "durationTicks": 2,
          "midi": 57,
          "name": "A3",
          "ticks": 6290,
          "time": 68.3695652173913,
          "velocity": 0.2440944881889764
        },
        {
          "duration": 0.03260869565217206,
          "durationTicks": 3,
          "midi": 55,
          "name": "G3",
          "ticks": 6296,
          "time": 68.43478260869566,
          "velocity": 0.15748031496062992
        }
      ],
      "endOfTrackTicks": 6299
    }
  ]
}